<svg width="48" height="48" viewBox="0 0 48 48" fill="none" xmlns="http://www.w3.org/2000/svg">
<rect width="48" height="48" rx="10" fill="#E1E1E1"/>
<path d="M24.0041 7.30432C14.7828 7.30432 7.30469 14.7787 7.30469 24C7.30469 33.225 14.7791 40.6956 24.0003 40.6956C33.2253 40.6956 40.696 33.2212 40.696 24C40.6997 14.7787 33.2216 7.30432 24.0041 7.30432Z" fill="#A4A4A4"/>
<path d="M26.3362 21.9131L20.5491 22.0263C20.4193 22.5443 20.1709 23.028 19.8262 23.4499L23.4037 27.6522C24.1563 27.3435 24.9941 27.2543 25.806 27.3984L27.6523 23.769C27.022 23.2853 26.5623 22.6369 26.3362 21.9131Z" fill="#A4A4A4"/>
<path d="M29.1006 15.839C30.8475 15.2926 32.7432 15.9727 33.7393 17.504C34.7353 19.0428 34.5943 21.0538 33.3975 22.4327C32.1969 23.8151 30.2269 24.2271 28.5693 23.4503L26.8262 27.1447C28.4764 27.9215 29.4173 29.7063 29.1162 31.5089C28.8151 33.3114 27.3613 34.6971 25.5439 34.9015C23.7265 35.1059 21.995 34.084 21.3037 32.3966C20.6087 30.7055 21.1212 28.7618 22.5596 27.632L19.1367 23.2833C17.6464 24.4578 15.5427 24.4465 14.0635 23.2648C12.5805 22.0828 12.1048 20.0348 12.915 18.3214C13.7217 16.6045 15.6093 15.6753 17.4639 16.0656C19.3185 16.4595 20.6566 18.0725 20.7012 19.9718L26.2314 19.8488C26.1833 18.0204 27.3541 16.3817 29.1006 15.839ZM20.5283 21.2394C20.3986 21.7571 20.1502 22.2405 19.8057 22.6622L23.3828 26.8654C24.1354 26.5566 24.9733 26.4674 25.7852 26.6115L27.6318 22.9816C27.0017 22.4979 26.5416 21.8498 26.3154 21.1261L20.5283 21.2394Z" fill="#FF0420"/>
</svg>
