<svg width="48" height="48" viewBox="0 0 48 48" fill="none" xmlns="http://www.w3.org/2000/svg">
<rect width="48" height="48" rx="10" fill="#E1E1E1"/>
<path d="M38.6854 21.6679L36.0329 19.0147V15.2673C36.0319 14.3928 35.6842 13.5544 35.0662 12.9358C34.4482 12.3173 33.6102 11.9691 32.7359 11.9676H28.9893L26.3311 9.31443C26.0251 9.00799 25.6617 8.76488 25.2617 8.59902C24.8616 8.43315 24.4329 8.34778 23.9998 8.34778C23.5668 8.34778 23.138 8.43315 22.738 8.59902C22.338 8.76488 21.9746 9.00799 21.6685 9.31443L19.016 11.9639H15.2694C14.395 11.9649 13.5567 12.3129 12.9385 12.9315C12.3204 13.5502 11.9729 14.3889 11.9724 15.2635V19.011L9.31424 21.6679C9.00781 21.9742 8.76472 22.3379 8.59887 22.7381C8.43302 23.1384 8.34766 23.5674 8.34766 24.0007C8.34766 24.434 8.43302 24.8631 8.59887 25.2633C8.76472 25.6636 9.00781 26.0273 9.31424 26.3335L11.9668 28.9886V32.7361C11.9673 33.6107 12.3148 34.4494 12.9329 35.068C13.551 35.6867 14.3893 36.0347 15.2638 36.0357H19.0103L21.6629 38.687C22.2815 39.305 23.12 39.6521 23.9942 39.6521C24.8685 39.6521 25.707 39.305 26.3255 38.687L28.9781 36.0357H32.7246C33.1585 36.0364 33.5883 35.9517 33.9893 35.7862C34.3904 35.6208 34.755 35.3779 35.0622 35.0715C35.3695 34.765 35.6133 34.4011 35.7798 34.0004C35.9464 33.5996 36.0324 33.17 36.0329 32.7361V28.9886L38.6854 26.3354C38.9918 26.0291 39.2349 25.6655 39.4008 25.2652C39.5666 24.8649 39.652 24.4359 39.652 24.0026C39.652 23.5693 39.5666 23.1403 39.4008 22.74C39.2349 22.3397 38.9918 21.9761 38.6854 21.6698V21.6679Z" fill="#A4A4A4"/>
<path d="M23.8018 29.2167C23.5342 29.217 23.2749 29.1291 23.068 28.968L18.1572 25.128C17.9219 24.9428 17.7735 24.6766 17.7445 24.3878C17.7154 24.099 17.8081 23.8109 18.0021 23.5868C18.1962 23.3626 18.4758 23.2206 18.7799 23.1918C19.084 23.1629 19.3877 23.2496 19.6246 23.4329L23.5707 26.5141L28.158 20.2933C28.3342 20.0549 28.6029 19.8928 28.905 19.8425C29.2071 19.7923 29.5179 19.8581 29.7689 20.0254C30.02 20.1927 30.1907 20.4478 30.2437 20.7347C30.2966 21.0215 30.2273 21.3166 30.0511 21.555L24.7493 28.7541C24.6581 28.8782 24.5409 28.983 24.405 29.062C24.2691 29.1409 24.1175 29.1924 23.9597 29.2131C23.9072 29.217 23.8544 29.2182 23.8018 29.2167Z" fill="#FF0420"/>
</svg>
