<svg width="48" height="48" viewBox="0 0 48 48" fill="none" xmlns="http://www.w3.org/2000/svg">
<rect width="48" height="48" rx="10" fill="#E1E1E1"/>
<path d="M39.652 25.7359C38.9548 33.0355 33.0496 38.9549 25.7358 39.6521V31.9968C28.8662 31.4703 31.2994 29.0371 31.9967 25.7359H39.652ZM16.003 25.7359C16.5295 28.8664 18.9627 31.2996 22.2639 31.9968V39.6521C14.95 38.9549 9.04489 33.0355 8.34766 25.7359H16.003ZM25.7358 8.34778C33.0354 9.04501 38.9548 14.9501 39.652 22.264H31.9967C31.4702 19.1335 28.8662 16.5296 25.7358 16.0031V8.34778ZM22.2639 8.34778V16.0031C19.1334 16.5296 16.5295 19.1335 16.003 22.264H8.34766C9.04489 14.9501 14.95 9.04501 22.2639 8.34778Z" fill="#A4A4A4"/>
<path d="M21.8914 20.3971C23.8694 19.236 26.4271 19.9019 27.6037 21.8827C28.7632 23.8634 28.0982 26.4246 26.1202 27.6028C24.1422 28.7639 21.5844 28.098 20.4078 26.1173C19.2313 24.1195 19.8963 21.5753 21.8914 20.3971Z" fill="#FF0420"/>
</svg>
