<svg width="48" height="49" viewBox="0 0 48 49" fill="none" xmlns="http://www.w3.org/2000/svg">
<rect y="0.5" width="48" height="48" rx="10" fill="#F0F0F0"/>
<g clip-path="url(#clip0_6569_1020)">
<path d="M24.068 35.6673C18.162 35.6673 13.3751 30.8793 13.3751 24.9744C13.3751 19.0683 18.162 14.2803 24.068 14.2803C28.9047 14.2803 32.9914 17.4914 34.3113 21.8995H37.6577C36.2577 15.6855 30.7042 11.044 24.068 11.044C16.3742 11.044 10.1377 17.2805 10.1377 24.9744C10.1377 32.6671 16.3742 38.9035 24.068 38.9035C30.6845 38.9035 36.2251 34.2897 37.6458 28.1031H34.2956C32.9574 32.4823 28.8849 35.6673 24.068 35.6673Z" fill="#A4A4A4"/>
<path d="M27.185 23.1C27.185 24.3518 26.4456 25.4331 25.38 25.9273V30.1138H22.7153V25.9076C21.6707 25.4057 20.9512 24.3362 20.9512 23.1C20.9512 21.3778 22.3457 19.9819 24.0681 19.9819C25.789 19.9819 27.185 21.3778 27.185 23.1Z" fill="#FF0420"/>
</g>
<defs>
<clipPath id="clip0_6569_1020">
<rect width="28" height="28" fill="white" transform="translate(10 11)"/>
</clipPath>
</defs>
</svg>
