<svg width="48" height="49" viewBox="0 0 48 49" fill="none" xmlns="http://www.w3.org/2000/svg">
<rect y="0.5" width="48" height="48" rx="10" fill="#F0F0F0"/>
<path d="M11.4 23C11.0287 23 10.6726 23.1532 10.4101 23.426C10.1475 23.6988 10 24.0688 10 24.4545V37.5455C10 37.9312 10.1475 38.3012 10.4101 38.574C10.6726 38.8468 11.0287 39 11.4 39H17C17 37.0712 17.7375 35.2213 19.0503 33.8574C20.363 32.4935 22.1435 31.7273 24 31.7273C25.8565 31.7273 27.637 32.4935 28.9497 33.8574C30.2625 35.2213 31 37.0712 31 39H36.6C36.9713 39 37.3274 38.8468 37.5899 38.574C37.8525 38.3012 38 37.9312 38 37.5455V24.4545C38 24.0688 37.8525 23.6988 37.5899 23.426C37.3274 23.1532 36.9713 23 36.6 23H11.4Z" fill="#A4A4A4"/>
<path d="M16.7778 16.3333V19L11 15L16.7778 11V13.6667H31.2222V11L37 15L31.2222 19V16.3333H16.7778Z" fill="#FF0420"/>
</svg>
