<svg width="48" height="49" viewBox="0 0 48 49" fill="none" xmlns="http://www.w3.org/2000/svg">
<rect y="0.5" width="48" height="48" rx="10" fill="#F0F0F0"/>
<path d="M12 36V12L27.997 24L12 36Z" fill="#A4A4A4"/>
<path d="M33.9959 21.17C34.5818 21.3761 35.0892 21.7591 35.4482 22.266C35.8072 22.7729 36 23.3788 36 24C36 24.6212 35.8072 25.2271 35.4482 25.734C35.0892 26.2409 34.5818 26.6239 33.9959 26.83V36H31.9963V26.83C31.4104 26.6239 30.9029 26.2409 30.544 25.734C30.185 25.2271 29.9922 24.6212 29.9922 24C29.9922 23.3788 30.185 22.7729 30.544 22.266C30.9029 21.7591 31.4104 21.3761 31.9963 21.17V12H33.9959V21.17Z" fill="#FF0420"/>
</svg>
