<svg width="545" height="202" viewBox="0 0 545 202" fill="none" xmlns="http://www.w3.org/2000/svg">
<rect x="6" width="533" height="202" fill="#F6F6F6"/>
<path d="M312.275 36.334C317.813 36.334 323.331 37.5594 327.525 39.9814L406.288 85.459C410.485 87.8828 412.483 90.9899 412.5 93.9951C412.516 96.999 410.554 100.105 406.385 102.531L248.934 194.031C244.766 196.452 239.262 197.678 233.725 197.678C228.187 197.678 222.669 196.452 218.475 194.03L139.712 148.552C135.515 146.128 133.517 143.02 133.5 140.014C133.483 137.009 135.445 133.903 139.614 131.48L297.066 39.9805C301.234 37.5592 306.738 36.334 312.275 36.334Z" fill="white" stroke="black"/>
<path d="M312.275 26.3341C317.813 26.3342 323.331 27.5595 327.525 29.9816L406.288 75.4591C410.485 77.883 412.483 80.9901 412.5 83.9952C412.516 86.9991 410.554 90.1049 406.385 92.5314L248.934 184.031C244.766 186.453 239.262 187.678 233.725 187.678C228.187 187.678 222.669 186.452 218.475 184.03L139.712 138.552C135.515 136.128 133.517 133.02 133.5 130.014C133.483 127.009 135.445 123.903 139.614 121.481L297.066 29.9806C301.234 27.5594 306.738 26.3341 312.275 26.3341Z" fill="white" stroke="black"/>
<path d="M242.5 51.6289C242.5 44.2514 250.543 39.6891 256.875 43.4746L271.603 52.2793C274.471 53.9944 276.228 57.0913 276.228 60.4336V80.9189C276.227 88.2964 268.185 92.8588 261.853 89.0732L247.125 80.2686C244.256 78.5535 242.5 75.4566 242.5 72.1143V51.6289Z" fill="white" stroke="black"/>
<path d="M347.5 29.6289C347.5 22.2514 355.543 17.6891 361.875 21.4746L376.603 30.2793C379.471 31.9944 381.228 35.0913 381.228 38.4336V58.9189C381.227 66.2964 373.185 70.8588 366.853 67.0732L352.125 58.2686C349.256 56.5535 347.5 53.4566 347.5 50.1143V29.6289Z" fill="white" stroke="black"/>
<path d="M301.5 92.6289C301.5 85.2514 309.543 80.6891 315.875 84.4746L330.603 93.2793C333.471 94.9944 335.228 98.0913 335.228 101.434V121.919C335.227 129.296 327.185 133.859 320.853 130.073L306.125 121.269C303.256 119.553 301.5 116.457 301.5 113.114V92.6289Z" fill="white" stroke="black"/>
<path d="M148.5 94.6289C148.5 87.2514 156.543 82.6891 162.875 86.4746L177.603 95.2793C180.471 96.9944 182.228 100.091 182.228 103.434V123.919C182.227 131.296 174.185 135.859 167.853 132.073L153.125 123.269C150.256 121.553 148.5 118.457 148.5 115.114V94.6289Z" fill="#FF0420" stroke="black"/>
<path d="M244.5 124.629C244.5 117.251 252.543 112.689 258.875 116.475L273.603 125.279C276.471 126.994 278.228 130.091 278.228 133.434V153.919C278.227 161.296 270.185 165.859 263.853 162.073L249.125 153.269C246.256 151.553 244.5 148.457 244.5 145.114V124.629Z" fill="white" stroke="black"/>
</svg>
