<svg width="48" height="48" viewBox="0 0 48 48" fill="none" xmlns="http://www.w3.org/2000/svg">
<rect width="48" height="48" rx="10" fill="#E1E1E1"/>
<path d="M21.9207 31.19C21.9207 29.336 22.3527 27.608 23.3427 26.186C23.3427 25.898 23.3427 25.466 23.4867 25.178C24.2067 24.17 24.7827 23.036 25.1967 21.74C26.0607 21.02 26.6187 19.886 26.7807 18.734C26.9247 17.024 26.4927 16.88 26.4927 16.88C27.2127 14.882 27.3567 7.28603 22.6227 8.29403C21.9027 6.71003 16.8987 5.43203 14.6127 9.71603C13.3167 11.858 13.0287 14.576 13.8927 17.006C13.8927 17.15 13.6047 16.862 13.4607 17.87C13.4607 19.022 13.7487 20.156 14.3247 21.02C14.4687 21.308 14.7567 21.452 15.1887 21.596C15.4767 22.892 16.0527 24.17 16.8987 25.178C17.0427 26.042 16.6107 26.888 15.8907 27.32C11.4627 28.184 7.30469 30.758 7.30469 33.476V35.618C7.30469 38.624 14.1807 39.2 20.1927 39.2C22.0467 39.2 23.9187 39.056 25.6287 38.768C23.3607 36.914 21.9207 34.196 21.9207 31.19Z" fill="#A4A4A4"/>
<path d="M34.0872 24.0258C31.3692 22.8738 28.2192 23.4498 26.0772 25.6098C23.9352 27.7518 23.3592 30.9018 24.4932 33.6198C25.6452 36.3378 28.3632 38.1918 31.3692 38.1918C35.3832 38.1918 38.6592 34.8978 38.6592 30.9018C38.6772 27.8958 36.8052 25.1778 34.0872 24.0258ZM35.8152 31.3338C35.6712 31.6218 35.2392 31.7658 34.9512 31.7658H32.2332V34.4838C32.2332 34.9158 32.0892 35.2038 31.8012 35.3478C31.5132 35.4918 31.0812 35.4918 30.7932 35.3478C30.5052 35.2038 30.3612 34.7718 30.3612 34.4838V31.7658H27.6432C27.3552 31.7658 26.9232 31.6218 26.7792 31.3338C26.6352 31.0458 26.6352 30.6138 26.7792 30.3258C26.9232 30.0378 27.3552 29.8938 27.6432 29.8938H30.3612V27.1758C30.3612 26.8878 30.5052 26.4558 30.7932 26.3118C31.0812 26.1678 31.5132 26.1678 31.8012 26.3118C32.0892 26.4558 32.2332 26.8878 32.2332 27.1758V29.8938H34.9512C35.3832 29.8938 35.6712 30.0378 35.8152 30.3258C35.9592 30.6138 35.9592 31.0458 35.8152 31.3338Z" fill="#FF0420"/>
</svg>
