<svg width="510" height="380" viewBox="0 0 510 380" fill="none" xmlns="http://www.w3.org/2000/svg">
<rect width="510" height="380" rx="10" fill="#F6F6F6"/>
<path d="M335.397 234.813L410.155 293.367" stroke="black" stroke-width="2"/>
<path d="M342.592 277.174L406.587 166.331L396.994 149.23L269.423 149.472L205.427 260.316L215.02 277.417L342.592 277.174Z" fill="white" stroke="black"/>
<path d="M332.986 259.833L396.253 150.251" stroke="black"/>
<path d="M342.542 277.26L333.364 258.143L205.673 259.891" stroke="black"/>
<path d="M292.172 245.143L356.167 134.299L346.574 117.198L219.003 117.441L155.007 228.284L164.6 245.385L292.172 245.143Z" fill="white" stroke="black"/>
<path d="M283.5 226.01L346.574 117.198L219.002 117.441L155.007 228.284L156 228.278L283.5 226.01Z" fill="#FF0420"/>
<path d="M282.567 227.801L346.5 117.001" stroke="black"/>
<path d="M292.122 245.228L282.944 226.111L155.253 227.859" stroke="black"/>
<path d="M238.172 207.124L302.167 96.2799L292.574 79.1792L165.003 79.4216L101.007 190.265L110.6 207.366L238.172 207.124Z" fill="white" stroke="black"/>
<path d="M228.566 189.782L291.834 80.1998" stroke="black"/>
<path d="M238.122 207.209L228.944 188.092L101.253 189.84" stroke="black"/>
<path d="M118.993 78.7813L193.751 137.335" stroke="black" stroke-width="2"/>
</svg>
