<svg width="48" height="49" viewBox="0 0 48 49" fill="none" xmlns="http://www.w3.org/2000/svg">
<rect y="0.5" width="48" height="48" rx="10" fill="#1D1D1D"/>
<path d="M31.4692 36.789H14.9242C12.6712 36.789 10.8457 34.9635 10.8457 32.7105V16.578C10.8457 14.325 12.6712 12.4995 14.9242 12.4995H31.4692C33.7222 12.4995 35.5477 14.325 35.5477 16.578V32.7105C35.5477 34.962 33.7222 36.789 31.4692 36.789Z" fill="#A4A4A4"/>
<path d="M26.8367 22.9275H19.4252C17.6912 22.9275 16.2842 21.522 16.2842 19.7865V12.603C16.2842 11.82 16.9187 11.1855 17.7017 11.1855H28.5602C29.3432 11.1855 29.9777 11.82 29.9777 12.603V19.7865C29.9762 21.522 28.5707 22.9275 26.8367 22.9275Z" fill="#FF0420"/>
<path d="M16.2842 12.5745V19.8525C16.2842 21.552 17.6612 22.929 19.3607 22.929H26.9012C28.6007 22.929 29.9777 21.552 29.9777 19.8525V12.5745C29.9777 12.549 29.9747 12.525 29.9732 12.4995H16.2887C16.2872 12.5235 16.2842 12.549 16.2842 12.5745Z" fill="#FF0420"/>
<path d="M25.4755 20.1885C24.8125 20.1885 24.2755 19.6515 24.2755 18.9885V16.4745C24.2755 15.8115 24.8125 15.2745 25.4755 15.2745C26.1385 15.2745 26.6755 15.8115 26.6755 16.4745V18.9885C26.6755 19.6515 26.1385 20.1885 25.4755 20.1885ZM28.0975 33.45H18.3055C17.6425 33.45 17.1055 32.913 17.1055 32.25C17.1055 31.587 17.6425 31.05 18.3055 31.05H28.096C28.759 31.05 29.296 31.587 29.296 32.25C29.296 32.913 28.759 33.45 28.0975 33.45Z" fill="white"/>
</svg>
