<svg width="48" height="49" viewBox="0 0 48 49" fill="none" xmlns="http://www.w3.org/2000/svg">
<rect y="0.5" width="48" height="48" rx="10" fill="#1D1D1D"/>
<path d="M34.9851 28.6298C35.4523 27.3409 35.707 25.9502 35.707 24.5C35.707 23.3968 35.5596 22.328 35.2833 21.3122L35.2654 21.317C35.2567 21.2843 35.2545 21.2501 35.259 21.2166C35.2635 21.183 35.2745 21.1507 35.2915 21.1214C35.3085 21.0921 35.3311 21.0665 35.358 21.0459C35.3849 21.0253 35.4156 21.0103 35.4483 21.0016L37.1924 20.5379C37.25 20.5226 37.3112 20.5277 37.3654 20.5524C37.4197 20.5771 37.4637 20.6198 37.49 20.6733L37.513 20.667C37.8483 21.8876 38.0273 23.1729 38.0273 24.5C38.0273 26.3094 37.6945 28.041 37.0867 29.637C37.576 30.1796 37.8739 30.8983 37.8739 31.6865C37.8739 33.3774 36.5033 34.748 34.8124 34.748C34.5022 34.7483 34.1937 34.7015 33.8976 34.609C31.2775 37.2803 27.6272 38.9375 23.5898 38.9375C15.6162 38.9375 9.15234 32.4736 9.15234 24.5C9.15234 22.727 9.47197 21.0286 10.0567 19.4593C9.50242 18.9002 9.16008 18.1307 9.16008 17.2812C9.16008 15.5726 10.5452 14.1875 12.2538 14.1875C12.6221 14.1875 12.9753 14.2518 13.3028 14.3699C15.9215 11.711 19.5631 10.0625 23.5898 10.0625C25.0724 10.0625 26.5027 10.286 27.849 10.701C28.3665 10.3007 29.0158 10.0625 29.7206 10.0625C31.4115 10.0625 32.7821 11.4332 32.7821 13.124C32.7821 14.8149 31.4115 16.1855 29.7206 16.1855C28.0298 16.1855 26.6591 14.8149 26.6591 13.124C26.6591 13.0077 26.6656 12.8929 26.6782 12.7799C25.6922 12.5208 24.6572 12.3828 23.5898 12.3828C20.2495 12.3828 17.2249 13.7344 15.033 15.9205C15.2345 16.3312 15.3476 16.793 15.3476 17.2812C15.3476 18.9899 13.9624 20.375 12.2538 20.375C12.2335 20.375 12.2133 20.3748 12.1931 20.3744C11.7269 21.6621 11.4727 23.0514 11.4727 24.5C11.4727 31.1921 16.8977 36.6172 23.5898 36.6172C26.9097 36.6172 29.9177 35.2821 32.1063 33.1195C31.8794 32.692 31.7509 32.2043 31.7509 31.6865C31.7509 29.9957 33.1216 28.625 34.8124 28.625C34.8704 28.625 34.9279 28.6266 34.9851 28.6298Z" fill="#A4A4A4"/>
<path d="M23.4507 30.7842C26.8946 30.7842 29.6865 27.9923 29.6865 24.5483C29.6865 21.1044 26.8946 18.3125 23.4507 18.3125C20.0067 18.3125 17.2148 21.1044 17.2148 24.5483C17.2148 27.9923 20.0067 30.7842 23.4507 30.7842Z" fill="#FF0420"/>
</svg>
