<svg width="48" height="49" viewBox="0 0 48 49" fill="none" xmlns="http://www.w3.org/2000/svg">
<rect y="0.5" width="48" height="48" rx="10" fill="#1D1D1D"/>
<path d="M25.5 7V21.3042H39.8042C39.8042 12.9551 33.8491 7 25.5 7Z" fill="#FF0420"/>
<path d="M22.1191 8.7619C19.1288 8.7619 16.2057 9.64862 13.7194 11.3099C11.233 12.9712 9.2952 15.3325 8.15088 18.0951C7.00655 20.8578 6.70714 23.8977 7.29052 26.8305C7.87389 29.7634 9.31384 32.4573 11.4283 34.5717C13.5427 36.6862 16.2367 38.1261 19.1695 38.7095C22.1023 39.2929 25.1422 38.9935 27.9049 37.8491C30.6675 36.7048 33.0288 34.767 34.6901 32.2807C36.3514 29.7943 37.2381 26.8712 37.2381 23.881H22.1191V8.7619Z" fill="#A4A4A4"/>
</svg>
