<svg width="545" height="202" viewBox="0 0 545 202" fill="none" xmlns="http://www.w3.org/2000/svg">
<rect x="6" width="533" height="202" fill="#101010"/>
<path d="M312.275 29.334C317.813 29.334 323.331 30.5594 327.525 32.9814L406.288 78.459C410.485 80.8828 412.483 83.9899 412.5 86.9951C412.516 89.999 410.554 93.1048 406.385 95.5312L248.934 187.031C244.766 189.452 239.262 190.678 233.725 190.678C228.187 190.678 222.669 189.452 218.475 187.03L139.712 141.552C135.515 139.128 133.517 136.02 133.5 133.014C133.483 130.009 135.445 126.903 139.614 124.48L297.066 32.9805C301.234 30.5592 306.738 29.334 312.275 29.334Z" fill="#101010" stroke="white"/>
<path d="M312.275 19.3341C317.813 19.3342 323.331 20.5595 327.525 22.9816L406.288 68.4591C410.485 70.883 412.483 73.9901 412.5 76.9952C412.516 79.9991 410.554 83.1049 406.385 85.5314L248.934 177.031C244.766 179.453 239.262 180.678 233.725 180.678C228.187 180.678 222.669 179.452 218.475 177.03L139.712 131.552C135.515 129.128 133.517 126.02 133.5 123.014C133.483 120.009 135.445 116.903 139.614 114.481L297.066 22.9806C301.234 20.5594 306.738 19.3341 312.275 19.3341Z" fill="#101010" stroke="white"/>
<path d="M242.5 44.6289C242.5 37.2514 250.543 32.6891 256.875 36.4746L271.603 45.2793C274.471 46.9944 276.228 50.0913 276.228 53.4336V73.9189C276.227 81.2964 268.185 85.8588 261.853 82.0732L247.125 73.2686C244.256 71.5535 242.5 68.4566 242.5 65.1143V44.6289Z" fill="#101010" stroke="white"/>
<path d="M347.5 22.6289C347.5 15.2514 355.543 10.6891 361.875 14.4746L376.603 23.2793C379.471 24.9944 381.228 28.0913 381.228 31.4336V51.9189C381.227 59.2964 373.185 63.8588 366.853 60.0732L352.125 51.2686C349.256 49.5535 347.5 46.4566 347.5 43.1143V22.6289Z" fill="#101010" stroke="white"/>
<path d="M301.5 85.6289C301.5 78.2514 309.543 73.6891 315.875 77.4746L330.603 86.2793C333.471 87.9944 335.228 91.0913 335.228 94.4336V114.919C335.227 122.296 327.185 126.859 320.853 123.073L306.125 114.269C303.256 112.553 301.5 109.457 301.5 106.114V85.6289Z" fill="#101010" stroke="white"/>
<path d="M148.5 87.6289C148.5 80.2514 156.543 75.6891 162.875 79.4746L177.603 88.2793C180.471 89.9944 182.228 93.0913 182.228 96.4336V116.919C182.227 124.296 174.185 128.859 167.853 125.073L153.125 116.269C150.256 114.553 148.5 111.457 148.5 108.114V87.6289Z" fill="#FF0420" stroke="white"/>
<path d="M244.5 117.629C244.5 110.251 252.543 105.689 258.875 109.475L273.603 118.279C276.471 119.994 278.228 123.091 278.228 126.434V146.919C278.227 154.296 270.185 158.859 263.853 155.073L249.125 146.269C246.256 144.553 244.5 141.457 244.5 138.114V117.629Z" fill="#101010" stroke="white"/>
</svg>
