<svg width="48" height="48" viewBox="0 0 48 48" fill="none" xmlns="http://www.w3.org/2000/svg">
<rect width="48" height="48" rx="10" fill="#1D1D1D"/>
<path d="M37.1247 28.8878H30.0812C28.8949 30.7331 26.819 31.9633 24.5206 31.9633C22.2222 31.9633 20.1462 30.7331 18.9599 28.8878H11.9164C11.1009 28.8878 10.4336 29.5798 10.4336 30.4256V38.1144C10.4336 38.9601 11.1009 39.6521 11.9164 39.6521H37.1247C37.9402 39.6521 38.6075 38.9601 38.6075 38.1144V30.4256C38.6075 29.5798 37.9402 28.8878 37.1247 28.8878Z" fill="#A4A4A4"/>
<path d="M20.8138 27.5808C21.6294 28.8879 23.0381 29.6568 24.5209 29.6568C26.0037 29.6568 27.4124 28.8879 28.228 27.5808L28.8953 26.5813H36.3836V11.9726C36.3836 11.1268 35.7163 10.4348 34.9008 10.4348H14.141C13.3255 10.4348 12.6582 11.1268 12.6582 11.9726V26.5813H20.1465L20.8138 27.5808Z" fill="#A4A4A4"/>
<path d="M20.1406 21.4653C20.1406 20.5889 20.7877 19.872 21.5785 19.872H22.8726L23.3759 17.0837C22.7289 16.6854 22.2975 15.9684 22.2975 15.0921C22.2975 13.6581 23.5197 12.4631 24.8857 12.7021C25.7484 12.8614 26.4674 13.6581 26.6112 14.6141C26.755 15.6497 26.3236 16.6057 25.6047 17.0837L26.1079 19.872H27.3301C28.121 19.872 28.768 20.5889 28.768 21.4653V22.2619C28.768 23.1382 28.121 23.8552 27.3301 23.8552H21.5785C20.7877 23.8552 20.1406 23.1382 20.1406 22.2619V21.4653Z" fill="#FF0420"/>
</svg>
