<svg width="48" height="48" viewBox="0 0 48 48" fill="none" xmlns="http://www.w3.org/2000/svg">
<rect width="48" height="48" rx="10" fill="#1D1D1D"/>
<path d="M31.8978 23.7023C32.0011 24.2431 31.9204 24.7826 31.9518 25.3211C31.9595 25.455 31.8867 25.4922 31.7628 25.5064C31.4497 25.5422 31.1344 25.8887 31.1324 26.1943C31.1282 26.7733 31.1268 27.3525 31.1338 27.9317C31.1376 28.2518 31.5294 28.6737 31.8497 28.6703C33.5027 28.6533 35.1556 28.6681 36.8085 28.6584C37.1989 28.6564 37.4306 28.4072 37.5102 28.08C37.6531 27.4941 37.5729 26.8966 37.5649 26.3059C37.5605 25.9569 37.3783 25.5943 37.0173 25.5222C36.7311 25.465 36.7537 25.3368 36.7537 25.1473C36.7552 23.4204 36.7549 21.6937 36.7549 19.967C36.7549 19.3866 36.4338 19.0585 35.8662 19.0585C33.3917 19.0585 30.9178 19.0558 28.4432 19.0635C28.2452 19.064 28.1355 19.0161 28.0275 18.8394C27.603 18.1437 27.0238 17.5924 26.3435 17.1471C25.9037 16.8591 25.4256 16.6477 24.8496 16.4673C25.006 16.3361 25.13 16.2628 25.2118 16.1571C25.4305 15.8749 25.5572 15.5715 25.4683 15.1907C25.2908 14.4274 24.7275 14.2139 24.0989 14.1995C23.9122 14.1952 23.8484 14.1666 23.8595 13.964C23.8795 13.5861 23.8761 13.2058 23.8607 12.8274C23.8529 12.6449 23.9102 12.6083 24.0834 12.6096C25.189 12.6179 26.2946 12.6044 27.4003 12.617C28.1453 12.6256 28.8243 12.0737 28.6705 11.1695C28.581 10.6433 28.0989 10.2126 27.5586 10.2127C26.4212 10.213 25.2844 10.2126 24.1471 10.2132C24.0339 10.2132 23.8773 10.2397 23.8721 10.0899C23.8593 9.72951 23.6124 9.56335 23.3597 9.39136H22.8544C22.5472 9.48451 22.3474 9.72216 22.3068 10.003C22.2713 10.2507 22.1585 10.2135 22.0071 10.2134C20.8592 10.212 19.712 10.2126 18.564 10.2128C18.4919 10.2128 18.411 10.1947 18.3485 10.2199C17.6794 10.4916 17.3867 10.9178 17.4912 11.639C17.5761 12.2267 18.1103 12.6063 18.7102 12.6112C19.8152 12.62 20.9209 12.6214 22.0265 12.6071C22.254 12.6043 22.3053 12.6658 22.2912 12.8811C22.2703 13.1956 22.2639 13.5145 22.2923 13.8279C22.3187 14.1188 22.2515 14.2128 21.9344 14.2035C21.2924 14.1849 20.6649 14.739 20.697 15.416C20.7209 15.9111 20.9419 16.2501 21.3431 16.5004C21.2027 16.6456 21.0129 16.6546 20.8546 16.7317C20.1592 17.0712 19.5264 17.495 19.0044 18.0734C18.9142 18.1732 18.8265 18.2447 18.6613 18.2437C16.7239 18.2336 14.7865 18.2331 12.8491 18.2423C12.6523 18.2433 12.6096 18.1974 12.6132 18.0042C12.6271 17.3095 12.6132 16.6144 12.621 15.9196C12.6249 15.5791 12.5567 15.279 12.3756 14.9751C11.9768 14.3076 11.1722 14.0616 10.5513 14.2887C9.6808 14.607 9.414 15.1331 9.40838 15.9631C9.3815 19.8796 9.39013 23.7965 9.40183 27.7135C9.40403 28.5082 9.77262 29.165 10.6599 29.4305C11.5741 29.7043 12.6264 28.883 12.6201 27.9842C12.6131 26.9629 12.6231 25.9418 12.6142 24.9202C12.6128 24.741 12.6335 24.674 12.8429 24.6756C14.5487 24.6866 16.2543 24.6851 17.9597 24.6754C18.1085 24.6744 18.1757 24.732 18.2369 24.8377C18.5622 25.4022 18.9632 25.8931 19.4608 26.3269C20.3433 27.096 21.3689 27.559 22.5012 27.6983C23.5931 27.8327 24.6798 27.675 25.6943 27.1826C26.3891 26.8461 26.9908 26.3913 27.5003 25.8155C28.1412 25.0908 28.6065 24.2748 28.8036 23.3146C28.822 23.2266 28.7771 23.0258 29.0209 23.0325C29.7155 23.0517 30.4111 23.0238 31.1055 23.0458C31.4953 23.0578 31.831 23.3502 31.8978 23.7023Z" fill="#A4A4A4"/>
<path d="M36.2449 32.7336C35.7629 31.8902 35.2331 31.0717 34.6539 30.2609C34.3401 30.7543 34.0333 31.2399 33.7235 31.7236C32.9759 32.8898 32.258 34.0717 31.7306 35.3581C31.4505 36.0418 31.199 36.7176 31.35 37.4935C31.5688 38.6146 32.1781 39.4064 33.1666 39.953C33.4979 40.1365 33.8656 40.1694 34.2019 40.3127H35.1495C35.2168 40.1509 35.3675 40.2559 35.4735 40.226C36.1964 40.021 36.7943 39.6447 37.2625 39.055C37.9623 38.1731 38.1989 37.2052 37.8695 36.1084C37.5063 34.8964 36.865 33.8183 36.2449 32.7336Z" fill="#FF0420"/>
</svg>
