<svg width="48" height="48" viewBox="0 0 48 48" fill="none" xmlns="http://www.w3.org/2000/svg">
<rect width="48" height="48" rx="10" fill="#1D1D1D"/>
<g clip-path="url(#clip0_6651_3254)">
<path d="M6 23C6 27.5087 7.79107 31.8327 10.9792 35.0208C14.1673 38.2089 18.4913 40 23 40C27.5087 40 31.8327 38.2089 35.0208 35.0208C38.2089 31.8327 40 27.5087 40 23C40 18.4913 38.2089 14.1673 35.0208 10.9792C31.8327 7.79107 27.5087 6 23 6C18.4913 6 14.1673 7.79107 10.9792 10.9792C7.79107 14.1673 6 18.4913 6 23Z" fill="#161614"/>
<path d="M19.6561 33.5966C19.7695 33.4266 19.8828 33.2566 19.8828 33.2V30.8766C16.3695 31.6133 15.6328 29.4033 15.6328 29.4033C15.0661 27.93 14.2161 27.5333 14.2161 27.5333C13.0828 26.74 14.3295 26.74 14.3295 26.74C15.5761 26.8533 16.2561 28.0433 16.2561 28.0433C17.3895 29.97 19.2028 29.4033 19.9395 29.12C20.0528 28.3266 20.3928 27.76 20.7328 27.42C17.8995 27.08 14.9528 26.0033 14.9528 21.1866C14.9528 19.8266 15.4628 18.6933 16.2561 17.7866C16.1428 17.4466 15.6895 16.2 16.3695 14.4433C16.3695 14.4433 17.4461 14.1033 19.8261 15.7466C20.8461 15.4633 21.9228 15.35 22.9995 15.35C24.0761 15.35 25.1528 15.52 26.1728 15.7466C28.6095 14.1033 29.6295 14.4433 29.6295 14.4433C30.3095 16.2 29.9128 17.4466 29.7428 17.7866C30.5361 18.6933 31.0461 19.77 31.0461 21.1866C31.0461 26.0033 28.0995 27.08 25.2661 27.42C25.7195 27.8166 26.1161 28.5533 26.1161 29.7433V33.2C26.1161 33.3133 26.1728 33.4266 26.3428 33.5966C26.5128 33.8233 26.4561 34.22 26.2295 34.39C26.1161 34.4466 26.0028 34.5033 25.8895 34.5033H20.1095C19.7695 34.5033 19.5428 34.2766 19.5428 33.9366C19.5428 33.7666 19.5995 33.6533 19.6561 33.5966Z" fill="white"/>
</g>
<g clip-path="url(#clip1_6651_3254)">
<path d="M6 23C6 27.5087 7.79107 31.8327 10.9792 35.0208C14.1673 38.2089 18.4913 40 23 40C27.5087 40 31.8327 38.2089 35.0208 35.0208C38.2089 31.8327 40 27.5087 40 23C40 18.4913 38.2089 14.1673 35.0208 10.9792C31.8327 7.79107 27.5087 6 23 6C18.4913 6 14.1673 7.79107 10.9792 10.9792C7.79107 14.1673 6 18.4913 6 23Z" fill="#A4A4A4"/>
<path d="M19.6561 33.5966C19.7695 33.4266 19.8828 33.2566 19.8828 33.2V30.8766C16.3695 31.6133 15.6328 29.4033 15.6328 29.4033C15.0661 27.93 14.2161 27.5333 14.2161 27.5333C13.0828 26.74 14.3295 26.74 14.3295 26.74C15.5761 26.8533 16.2561 28.0433 16.2561 28.0433C17.3895 29.97 19.2028 29.4033 19.9395 29.12C20.0528 28.3266 20.3928 27.76 20.7328 27.42C17.8995 27.08 14.9528 26.0033 14.9528 21.1866C14.9528 19.8266 15.4628 18.6933 16.2561 17.7866C16.1428 17.4466 15.6895 16.2 16.3695 14.4433C16.3695 14.4433 17.4461 14.1033 19.8261 15.7466C20.8461 15.4633 21.9228 15.35 22.9995 15.35C24.0761 15.35 25.1528 15.52 26.1728 15.7466C28.6095 14.1033 29.6295 14.4433 29.6295 14.4433C30.3095 16.2 29.9128 17.4466 29.7428 17.7866C30.5361 18.6933 31.0461 19.77 31.0461 21.1866C31.0461 26.0033 28.0995 27.08 25.2661 27.42C25.7195 27.8166 26.1161 28.5533 26.1161 29.7433V33.2C26.1161 33.3133 26.1728 33.4266 26.3428 33.5966C26.5128 33.8233 26.4561 34.22 26.2295 34.39C26.1161 34.4466 26.0028 34.5033 25.8895 34.5033H20.1095C19.7695 34.5033 19.5428 34.2766 19.5428 33.9366C19.5428 33.7666 19.5995 33.6533 19.6561 33.5966Z" fill="#FF0420"/>
</g>
<defs>
<clipPath id="clip0_6651_3254">
<rect width="34" height="34" fill="white" transform="translate(6 6)"/>
</clipPath>
<clipPath id="clip1_6651_3254">
<rect width="34" height="34" fill="white" transform="translate(6 6)"/>
</clipPath>
</defs>
</svg>
