<svg width="48" height="48" viewBox="0 0 48 48" fill="none" xmlns="http://www.w3.org/2000/svg">
<rect width="48" height="48" rx="10" fill="#1D1D1D"/>
<path d="M29 7.25C34.5228 7.25 39 11.7272 39 17.25V29.25C39 34.7728 34.5228 39.25 29 39.25H17C11.4772 39.25 7 34.7728 7 29.25V17.25C7 11.7272 11.4772 7.25 17 7.25H29ZM25 9.25C25 14.7728 29.4772 19.25 35 19.25H37C37 13.7272 32.5228 9.25 27 9.25H25Z" fill="#A4A4A4"/>
<path d="M28.209 31.7245V30.2005L28.7568 30.1127V27.9426L28.209 27.8548V26.3308H31.0041L32.802 29.0943V27.9496L32.3526 27.8548V26.3308H34.6983V27.8548L34.1505 27.9426V31.7245H31.8996L30.1052 29.0943V30.1127L30.5547 30.1969V31.7245H28.209Z" fill="#FF0420"/>
<path d="M24.5373 31.7877C23.8889 31.7877 23.3294 31.6882 22.8588 31.4892C22.3883 31.2878 22.0266 30.9788 21.7738 30.5621C21.5209 30.1454 21.3945 29.6129 21.3945 28.9644C21.3945 28.3393 21.5256 27.8267 21.7878 27.4264C22.0524 27.026 22.4211 26.7299 22.8939 26.5379C23.3668 26.346 23.9146 26.25 24.5373 26.25C25.1624 26.25 25.7114 26.346 26.1842 26.5379C26.6571 26.7299 27.0258 27.026 27.2904 27.4264C27.5549 27.8267 27.6872 28.3393 27.6872 28.9644C27.6872 29.6082 27.5584 30.1396 27.3009 30.5586C27.0434 30.9753 26.6782 31.2843 26.2053 31.4857C25.7348 31.687 25.1788 31.7877 24.5373 31.7877ZM24.5373 30.0916C24.8838 30.0916 25.1202 29.9886 25.2467 29.7826C25.3754 29.5766 25.4398 29.3038 25.4398 28.9644C25.4398 28.6226 25.3754 28.3522 25.2467 28.1532C25.1179 27.9543 24.8815 27.8548 24.5373 27.8548C24.1932 27.8548 23.9579 27.9543 23.8315 28.1532C23.7051 28.3522 23.6419 28.6226 23.6419 28.9644C23.6419 29.3038 23.7039 29.5766 23.828 29.7826C23.9544 29.9886 24.1909 30.0916 24.5373 30.0916Z" fill="#FF0420"/>
<path d="M18.5501 31.7877C18.1147 31.7877 17.712 31.7596 17.3421 31.7034C16.9746 31.6449 16.6375 31.536 16.3308 31.3768V29.9898H17.3878C17.4861 30.1256 17.6067 30.2414 17.7495 30.3374C17.8946 30.4334 18.069 30.4814 18.2727 30.4814C18.4365 30.4814 18.5524 30.4381 18.6203 30.3515C18.6882 30.2625 18.7221 30.1326 18.7221 29.9617C18.4061 29.9336 18.1018 29.8844 17.8092 29.8142C17.5189 29.744 17.259 29.641 17.0296 29.5052C16.8002 29.3671 16.6187 29.1845 16.4853 28.9574C16.3519 28.728 16.2852 28.4412 16.2852 28.0971C16.2852 27.6359 16.387 27.273 16.5907 27.0085C16.7967 26.744 17.0788 26.5555 17.4369 26.4431C17.7974 26.3308 18.2083 26.2746 18.6695 26.2746C19.126 26.2746 19.5298 26.3097 19.8809 26.3799C20.2321 26.4502 20.5563 26.5543 20.8536 26.6925V28.062H19.7967C19.703 27.9285 19.5871 27.8138 19.449 27.7178C19.3109 27.6195 19.1435 27.5703 18.9469 27.5703C18.783 27.5703 18.6648 27.6207 18.5922 27.7213C18.5196 27.8197 18.4834 27.9554 18.4834 28.1287C18.8415 28.1404 19.1716 28.1778 19.4736 28.241C19.7779 28.3043 20.0413 28.4073 20.2637 28.5501C20.4884 28.6905 20.6617 28.8813 20.7834 29.1224C20.9075 29.3612 20.9695 29.6644 20.9695 30.0319C20.9695 30.3667 20.9075 30.6476 20.7834 30.8747C20.6593 31.0994 20.4873 31.2785 20.2672 31.4119C20.0472 31.5454 19.7908 31.6414 19.4982 31.6999C19.2056 31.7584 18.8895 31.7877 18.5501 31.7877Z" fill="#FF0420"/>
<path d="M13.0086 31.7877C12.5919 31.7877 12.2173 31.7549 11.8849 31.6893C11.5525 31.6238 11.2575 31.5196 11 31.3768V29.7475H12.057C12.1249 29.8739 12.2138 29.9874 12.3238 30.0881C12.4339 30.1888 12.5696 30.2391 12.7312 30.2391C12.8506 30.2391 12.9477 30.2016 13.0226 30.1267C13.0999 30.0518 13.1561 29.9558 13.1912 29.8388C13.2263 29.7217 13.2439 29.6012 13.2439 29.4771V27.9426L12.689 27.8548V26.3308H16.046V27.8548L15.4912 27.9426V29.4771C15.4912 30.2683 15.2747 30.8513 14.8416 31.2258C14.4108 31.6004 13.7998 31.7877 13.0086 31.7877Z" fill="#FF0420"/>
</svg>
