<svg width="48" height="48" viewBox="0 0 48 48" fill="none" xmlns="http://www.w3.org/2000/svg">
<rect width="48" height="48" rx="10" fill="#1D1D1D"/>
<g clip-path="url(#clip0_6654_5091)">
<path d="M23.0021 10.4409C20.1795 10.4409 17.4202 11.2779 15.0732 12.8461C12.7263 14.4143 10.897 16.6432 9.81684 19.251C8.73665 21.8588 8.45403 24.7284 9.0047 27.4968C9.55538 30.2653 10.9146 32.8082 12.9105 34.8041C14.9065 36.8001 17.4494 38.1593 20.2179 38.71C22.9863 39.2607 25.8558 38.978 28.4636 37.8978C31.0714 36.8177 33.3004 34.9884 34.8686 32.6415C36.4368 30.2945 37.2738 27.5352 37.2738 24.7126C37.2738 20.9275 35.7702 17.2974 33.0937 14.621C30.4172 11.9445 26.7872 10.4409 23.0021 10.4409ZM24.1439 25.5689C24.1711 25.7499 24.153 25.9349 24.0912 26.1072C24.0295 26.2796 23.9259 26.4339 23.7899 26.5565L18.6521 31.6943C18.5452 31.8006 18.4005 31.8603 18.2497 31.8603C18.0988 31.8603 17.9542 31.8006 17.8472 31.6943L17.0423 30.8893C16.9888 30.8363 16.9463 30.7731 16.9173 30.7036C16.8883 30.634 16.8734 30.5594 16.8734 30.484C16.8734 30.4087 16.8883 30.334 16.9173 30.2645C16.9463 30.1949 16.9888 30.1318 17.0423 30.0787L21.7234 25.3976C21.7763 25.3443 21.8181 25.281 21.8466 25.2114C21.875 25.1419 21.8894 25.0674 21.8889 24.9923V15.5445C21.8889 15.3931 21.9491 15.2479 22.0561 15.1408C22.1632 15.0337 22.3084 14.9736 22.4598 14.9736H23.6015C23.7529 14.9736 23.8981 15.0337 24.0052 15.1408C24.1123 15.2479 24.1724 15.3931 24.1724 15.5445L24.1439 25.5689Z" fill="#A4A4A4"/>
<path d="M35.7956 16.6635L34.9907 15.8529C34.778 15.639 34.6587 15.3496 34.6587 15.048C34.6587 14.7464 34.778 14.457 34.9907 14.2431L35.396 13.8378C35.4489 13.7844 35.4908 13.7212 35.5192 13.6516C35.5476 13.5821 35.562 13.5076 35.5616 13.4324C35.562 13.3573 35.5476 13.2828 35.5192 13.2133C35.4908 13.1437 35.4489 13.0805 35.396 13.0271L32.9698 10.6067C32.8629 10.5003 32.7182 10.4407 32.5674 10.4407C32.4166 10.4407 32.2719 10.5003 32.1649 10.6067L31.7596 11.012C31.6536 11.1181 31.5276 11.2023 31.389 11.2598C31.2504 11.3173 31.1019 11.3468 30.9518 11.3468C30.8018 11.3468 30.6532 11.3173 30.5146 11.2598C30.376 11.2023 30.2501 11.1181 30.144 11.012L29.3391 10.2071C29.233 10.101 29.1488 9.9751 29.0913 9.83649C29.0338 9.69789 29.0043 9.54932 29.0043 9.39928C29.0043 9.24924 29.0338 9.10067 29.0913 8.96206C29.1488 8.82346 29.233 8.69754 29.3391 8.5915L29.7444 8.18619C30.1155 7.81508 30.5561 7.52069 31.0409 7.31985C31.5258 7.119 32.0454 7.01562 32.5702 7.01562C33.095 7.01562 33.6147 7.119 34.0995 7.31985C34.5844 7.52069 35.0249 7.81508 35.396 8.18619L37.6795 10.5039C38.4061 11.1757 38.8696 12.0844 38.9868 13.0671C39.0419 13.6502 38.9683 14.2382 38.771 14.7897C38.5737 15.3412 38.2576 15.8425 37.845 16.2582L37.4397 16.6635C37.3332 16.774 37.2055 16.8619 37.0643 16.922C36.923 16.982 36.7711 17.0129 36.6177 17.0129C36.4642 17.0129 36.3123 16.982 36.1711 16.922C36.0298 16.8619 35.9021 16.774 35.7956 16.6635ZM8.59386 16.6635L8.29701 16.3667C7.58408 15.6882 7.13159 14.7812 7.01827 13.8035C6.96223 13.2195 7.03548 12.6303 7.2328 12.0778C7.43013 11.5253 7.74669 11.023 8.16 10.6067L10.609 8.18619C10.9801 7.81508 11.4206 7.52069 11.9055 7.31985C12.3903 7.119 12.91 7.01563 13.4348 7.01563C13.9596 7.01563 14.4793 7.119 14.9641 7.31985C15.449 7.52069 15.8895 7.81508 16.2606 8.18619L16.6659 8.5915C16.7721 8.69754 16.8563 8.82346 16.9137 8.96206C16.9712 9.10067 17.0008 9.24924 17.0008 9.39928C17.0008 9.54932 16.9712 9.69789 16.9137 9.83649C16.8563 9.9751 16.7721 10.101 16.6659 10.2071L15.861 11.012C15.7549 11.1181 15.629 11.2023 15.4904 11.2598C15.3518 11.3173 15.2032 11.3468 15.0532 11.3468C14.9032 11.3468 14.7546 11.3173 14.616 11.2598C14.4774 11.2023 14.3515 11.1181 14.2454 11.012L13.8687 10.6067C13.7617 10.5003 13.617 10.4407 13.4662 10.4407C13.3154 10.4407 13.1707 10.5003 13.0637 10.6067L10.609 13.0271C10.5561 13.0805 10.5142 13.1437 10.4858 13.2133C10.4574 13.2828 10.443 13.3573 10.4435 13.4324C10.443 13.5076 10.4574 13.5821 10.4858 13.6516C10.5142 13.7212 10.5561 13.7844 10.609 13.8378L11.0143 14.2431C11.227 14.457 11.3463 14.7464 11.3463 15.048C11.3463 15.3496 11.227 15.639 11.0143 15.8529L10.2094 16.6635C10.1034 16.7697 9.97745 16.8539 9.83885 16.9114C9.70025 16.9688 9.55168 16.9984 9.40163 16.9984C9.25159 16.9984 9.10302 16.9688 8.96442 16.9114C8.82581 16.8539 8.69989 16.7697 8.59386 16.6635Z" fill="#FF0420"/>
</g>
<defs>
<clipPath id="clip0_6654_5091">
<rect width="32" height="32" fill="white" transform="translate(7 7)"/>
</clipPath>
</defs>
</svg>
