<svg width="24" height="24" viewBox="0 0 24 24" fill="none" xmlns="http://www.w3.org/2000/svg">
<path d="M11.909 5.63635C11.7197 5.44706 9.54756 4.01385 7.78698 2.86572C7.02128 2.36639 6.00611 2.50444 5.3988 3.18767V3.18767C4.66771 4.01014 4.81103 5.28494 5.70649 5.92455L6.15148 6.2424" stroke="currentColor" stroke-width="1.3"/>
<path d="M11.9091 5.63635C12.0984 5.44706 14.2706 4.01385 16.0311 2.86572C16.7968 2.36639 17.812 2.50444 18.4193 3.18767V3.18767C19.1504 4.01014 19.0071 5.28494 18.1116 5.92455L17.6666 6.2424" stroke="currentColor" stroke-width="1.3"/>
<path d="M20.2998 9.7002V21C20.2998 21.718 19.718 22.2998 19 22.2998H4C3.28203 22.2998 2.7002 21.718 2.7002 21V9.7002H20.2998Z" stroke="currentColor" stroke-width="1.4"/>
<path d="M21.5117 6.33643V7.87842C21.5117 8.59639 20.9299 9.17822 20.2119 9.17822H3C2.28203 9.17822 1.7002 8.59639 1.7002 7.87842V6.33643H21.5117Z" stroke="currentColor" stroke-width="1.4"/>
<rect x="7.66663" y="14.1211" width="7.87875" height="1.21212" fill="#FF0420"/>
</svg>
