<svg width="24" height="24" viewBox="0 0 24 24" fill="none" xmlns="http://www.w3.org/2000/svg">
<circle cx="12" cy="12" r="10.3" stroke="currentColor" stroke-width="1.4"/>
<path d="M9.92725 12.0364C9.92725 12.5764 10.1418 13.0944 10.5237 13.4763C10.9056 13.8582 11.4235 14.0727 11.9636 14.0727C12.5037 14.0727 13.0216 13.8582 13.4035 13.4763C13.7854 13.0944 14 12.5764 14 12.0364C14 11.4963 13.7854 10.9783 13.4035 10.5964C13.0216 10.2145 12.5037 10 11.9636 10C11.4235 10 10.9056 10.2145 10.5237 10.5964C10.1418 10.9783 9.92725 11.4963 9.92725 12.0364Z" fill="#FF0420"/>
<path d="M12.9219 11.0429C9.9768 12.2019 8 15.0515 8 18.27C7.99998 18.3536 8.01643 18.4363 8.0484 18.5136C8.08038 18.5908 8.12725 18.6609 8.18634 18.72C8.24543 18.7792 8.31559 18.826 8.39281 18.858C8.47002 18.89 8.55278 18.9065 8.63636 18.9065C8.71994 18.9065 8.8027 18.89 8.87992 18.858C8.95713 18.826 9.02729 18.7792 9.08639 18.72C9.14548 18.6609 9.19235 18.5908 9.22432 18.5136C9.2563 18.4363 9.27274 18.3536 9.27273 18.27C9.27254 16.966 9.66501 15.6922 10.399 14.6144C11.133 13.5366 12.1745 12.7048 13.388 12.2273C13.5442 12.165 13.6693 12.0433 13.736 11.8889C13.8028 11.7345 13.8057 11.56 13.7441 11.4035C13.6826 11.2469 13.5616 11.1211 13.4075 11.0536C13.2535 10.986 13.0787 10.9822 12.9219 11.0429Z" fill="#FF0420"/>
<path d="M11.2541 16.934C12.2134 17.0767 13.1935 16.9374 14.075 16.533C14.9565 16.1286 15.7013 15.4766 16.2188 14.6563C16.7363 13.8361 17.0041 12.883 16.9895 11.9133C16.9749 10.9436 16.6786 9.99903 16.1367 9.19471C15.5948 8.39039 14.8307 7.76102 13.9375 7.38328C13.0442 7.00554 12.0604 6.89574 11.1059 7.06724C10.1513 7.23874 9.26724 7.68415 8.56135 8.3492C7.85545 9.01426 7.35821 9.87025 7.1302 10.8129" stroke="currentColor" stroke-width="1.4"/>
</svg>
