<svg width="24" height="24" viewBox="0 0 24 24" fill="none" xmlns="http://www.w3.org/2000/svg">
    <rect x="1.7" y="6.15459" width="20.6" height="16.4182" rx="2.3" stroke="black" stroke-width="1.4" />
    <path
        d="M22.3333 8C22.3333 9.08639 22.066 10.1621 21.5467 11.1658C21.0274 12.1695 20.2663 13.0815 19.3067 13.8497C18.3472 14.6179 17.2081 15.2273 15.9544 15.643C14.7007 16.0587 13.357 16.2727 12 16.2727C10.643 16.2727 9.29926 16.0587 8.04556 15.643C6.79187 15.2273 5.65273 14.6179 4.69319 13.8497C3.73365 13.0815 2.9725 12.1695 2.4532 11.1658C1.93391 10.1621 1.66663 9.08639 1.66663 8"
        stroke="currentColor" stroke-width="1.4" />
    <mask id="path-3-inside-1_5039_2487" fill="white">
        <path
            d="M17.6667 6.40909C17.6667 4.97451 17.0697 3.59869 16.007 2.58429C14.9443 1.56988 13.5029 1 12 1C10.4971 1 9.05581 1.56988 7.9931 2.58429C6.9304 3.59869 6.33337 4.97451 6.33337 6.40909L12 6.40909H17.6667Z" />
    </mask>
    <path
        d="M17.6667 6.40909C17.6667 4.97451 17.0697 3.59869 16.007 2.58429C14.9443 1.56988 13.5029 1 12 1C10.4971 1 9.05581 1.56988 7.9931 2.58429C6.9304 3.59869 6.33337 4.97451 6.33337 6.40909L12 6.40909H17.6667Z"
        stroke="currentColor" stroke-width="2.8" mask="url(#path-3-inside-1_5039_2487)" />
    <rect x="11" y="11" width="2" height="3.81818" rx="1" fill="#FF0420" />
</svg>