<svg width="24" height="24" viewBox="0 0 24 24" fill="none" xmlns="http://www.w3.org/2000/svg">
    <g clip-path="url(#clip0_5039_2539)">
        <path d="M18.5 5L4 19.5" stroke="#FF0000" stroke-width="1.4" />
        <circle cx="12" cy="12" r="10.3" stroke="currentColor" stroke-width="1.4" />
        <path
            d="M18.2998 15.6174C18.2998 10.1229 13.9667 5.70036 8.66016 5.70036C7.09914 5.70036 5.30355 5.82323 4 6.50016L3.5 5C4.99706 4.22263 6.86828 4.29997 8.66016 4.29997C14.7746 4.29997 19.7002 9.3848 19.7002 15.6174C19.7001 17.7067 18.9656 19.318 18 21.0002L16.9668 20.6515C17.8131 19.1772 18.2997 17.4572 18.2998 15.6174Z"
            fill="currentColor" />
        <path
            d="M15.6709 2.19824C14.6628 5.60481 11.9573 8.24307 8.52637 9.16504L6.15625 9.80273C4.22601 10.3214 2.58727 11.5975 1.61133 13.3418L1 12.5C2 10 3.49809 9.06689 5.79297 8.4502L8.16309 7.81348C11.1237 7.01788 13.4591 4.74134 14.3291 1.80176L15.6709 2.19824Z"
            fill="currentColor" />
        <path
            d="M21.6067 12.2023V12.2023C18.5783 12.0892 15.7087 13.5577 14.0291 16.0802L12.812 17.908C11.7029 19.5736 9.96736 20.7199 8.00004 21.0862V21.0862"
            stroke="currentColor" stroke-width="1.4" />
    </g>
    <defs>
        <clipPath id="clip0_5039_2539">
            <rect width="24" height="24" fill="white" />
        </clipPath>
    </defs>
</svg>