<svg width="24" height="24" fill="none" xmlns="http://www.w3.org/2000/svg">
    <path
        d="M13.363 3.085l.303.332.428-.137 2.636-.84.591 2.705.096.438.438.096 2.704.59-.84 2.637-.136.428.332.303L21.96 11.5l-2.045 1.863-.332.303.137.428.839 2.636-2.704.591-.438.096-.096.438-.591 2.704-2.636-.84-.428-.136-.303.332L11.5 21.96l-1.863-2.045-.303-.332-.428.137-2.636.839-.591-2.704-.096-.438-.438-.096-2.705-.591.84-2.636.137-.428-.332-.303L1.039 11.5l2.046-1.863.332-.303-.137-.428-.84-2.636 2.705-.591.438-.096.096-.438.59-2.705 2.637.84.428.137.303-.332L11.5 1.039l1.863 2.046z"
        stroke="currentColor" stroke-width="1.4" />
    <path d="M7.79 11.274L10.5 14l6.194-4.355" stroke="#FF0420" stroke-width="1.4" />
</svg>