<svg width="48" height="49" viewBox="0 0 48 49" fill="none" xmlns="http://www.w3.org/2000/svg">
<rect y="0.5" width="48" height="48" rx="10" fill="#1D1D1D"/>
<g clip-path="url(#clip0_6651_1929)">
<path d="M24.0671 35.6673C18.161 35.6673 13.3741 30.8793 13.3741 24.9744C13.3741 19.0683 18.161 14.2803 24.0671 14.2803C28.9037 14.2803 32.9904 17.4914 34.3103 21.8995H37.6567C36.2567 15.6855 30.7032 11.044 24.0671 11.044C16.3732 11.044 10.1367 17.2805 10.1367 24.9744C10.1367 32.6671 16.3732 38.9035 24.0671 38.9035C30.6836 38.9035 36.2241 34.2897 37.6448 28.1031H34.2946C32.9564 32.4823 28.8839 35.6673 24.0671 35.6673Z" fill="#A4A4A4"/>
<path d="M27.185 23.1C27.185 24.3518 26.4456 25.4331 25.38 25.9273V30.1138H22.7153V25.9076C21.6707 25.4057 20.9512 24.3362 20.9512 23.1C20.9512 21.3778 22.3457 19.9819 24.0681 19.9819C25.789 19.9819 27.185 21.3778 27.185 23.1Z" fill="#FF0420"/>
</g>
<defs>
<clipPath id="clip0_6651_1929">
<rect width="28" height="28" fill="white" transform="translate(10 11)"/>
</clipPath>
</defs>
</svg>
