<svg width="48" height="49" viewBox="0 0 48 49" fill="none" xmlns="http://www.w3.org/2000/svg">
<rect y="0.5" width="48" height="48" rx="10" fill="#1D1D1D"/>
<path d="M13.5475 28.8775C13.2071 28.8168 12.8667 28.7763 12.5063 28.7763C12.0057 28.7763 11.5051 28.837 11.0446 28.9787C8.72197 29.6264 7 31.7923 7 34.3428C7 37.4196 9.46281 39.9093 12.5063 39.9093C13.968 39.9093 15.3095 39.3223 16.2906 38.3709C16.8913 37.7839 17.3719 37.0552 17.6722 36.2455C17.8924 35.6383 18.0126 35.0108 18.0126 34.3226C18.0126 31.6304 16.0904 29.3633 13.5475 28.8775ZM37.8352 28.9382C37.3947 28.8168 36.9542 28.756 36.4737 28.756C36.0732 28.756 35.6928 28.7965 35.3124 28.8775C32.8295 29.424 30.9674 31.6506 30.9674 34.3226C30.9674 34.9703 31.0675 35.5978 31.2878 36.1646C31.5681 36.9742 32.0486 37.7029 32.6493 38.3102C33.6505 39.2818 34.992 39.8891 36.4937 39.8891C39.5372 39.8891 42 37.3993 42 34.3226C41.98 31.7316 40.218 29.5455 37.8352 28.9382ZM24.3598 9C21.3164 9 18.8535 11.4897 18.8535 14.5665C18.8535 14.9511 18.8936 15.3155 18.9537 15.6596C19.1339 16.5097 19.4943 17.2992 19.9949 17.9671C20.996 19.2829 22.5778 20.133 24.3398 20.133C26.1419 20.133 27.7237 19.2626 28.7248 17.9267C29.2254 17.2587 29.5858 16.4692 29.746 15.6191C29.8061 15.275 29.8461 14.9309 29.8461 14.5868C29.8661 11.4897 27.4033 9 24.3598 9Z" fill="#A4A4A4"/>
<path d="M30.4946 38.8594C30.2386 38.5189 30.0221 38.1784 29.8252 37.7977C29.6874 37.5373 29.3724 37.4171 29.1165 37.5574C27.7187 38.2184 26.1634 38.579 24.5097 38.579C22.856 38.579 21.2811 38.1984 19.8833 37.5373C19.6077 37.4171 19.3124 37.5173 19.1746 37.7977C18.9777 38.1784 18.7611 38.559 18.5052 38.8995C18.2887 39.18 18.3871 39.5806 18.7021 39.7409C20.4542 40.6022 22.4426 41.083 24.5294 41.083C26.6162 41.083 28.6046 40.6022 30.3568 39.7409C30.6718 39.5806 30.7505 39.18 30.5339 38.8995C30.5143 38.8795 30.5143 38.8594 30.4946 38.8594ZM31.2033 17.365C31.0458 17.7857 30.8489 18.1663 30.6127 18.5469C30.4552 18.8073 30.5143 19.1278 30.7702 19.2881C33.0932 20.9507 34.747 23.5148 35.1604 26.4395C35.1998 26.72 35.4557 26.9403 35.7313 26.9203C35.9085 26.9003 36.0857 26.9003 36.2628 26.9003C36.5188 26.9003 36.7747 26.9203 37.0306 26.9403C37.385 26.9804 37.6606 26.6799 37.6212 26.3193C37.1488 22.4932 35.0423 19.1879 32.0105 17.1046C31.7348 16.9243 31.3411 17.0445 31.2033 17.365ZM16.8909 17.2047C13.8985 19.3081 11.8116 22.6334 11.3785 26.4395C11.3392 26.7801 11.6345 27.0806 11.9691 27.0405C12.2054 27.0205 12.4416 27.0004 12.6779 27.0004C12.8747 27.0004 13.0716 27.0004 13.2488 27.0205C13.5441 27.0405 13.8 26.8402 13.8394 26.5397C14.2331 23.595 15.8278 21.0309 18.1508 19.3482C18.3871 19.1679 18.4462 18.8474 18.2887 18.607C18.0524 18.2464 17.8555 17.8458 17.698 17.4451C17.5602 17.1246 17.1665 17.0044 16.8909 17.2047Z" fill="#FF0420"/>
</svg>
