<svg width="48" height="49" viewBox="0 0 48 49" fill="none" xmlns="http://www.w3.org/2000/svg">
<rect y="0.5" width="48" height="48" rx="10" fill="#1D1D1D"/>
<path d="M24.4615 9C24.6029 9 24.7465 9.05325 24.8654 9.15311C26.1666 10.2648 30.5417 13.5288 37.3083 13.7175C37.6493 13.7308 37.9275 14.0059 37.923 14.3565V27.3728C37.923 33.1975 29.2538 40.0651 24.4615 40.0651C19.5346 40.0651 11 33.1975 11 27.3728V14.3499C11 14.0015 11.2782 13.7241 11.6192 13.7152C18.3881 13.5288 22.7654 10.2648 24.0577 9.14867C24.1706 9.0539 24.3135 9.00129 24.4615 9Z" fill="#A4A4A4"/>
<path d="M24.3759 16.248L20.3203 24.7247H27.5688L23.6976 32.8161" stroke="#FF0420" stroke-width="4"/>
</svg>
