<svg viewBox="0 0 1440 810" fill="none" xmlns="http://www.w3.org/2000/svg">
<g clip-path="url(#clip0_260_674)">
<rect width="1440" height="810" fill="url(#paint0_linear_260_674)"/>
<rect x="304" y="419" width="32" height="9" fill="#12181E"/>
<rect x="0.5" y="219.5" width="74" height="72" stroke="white" stroke-opacity="0.1"/>
<rect x="0.5" y="73.5" width="74" height="72" stroke="white" stroke-opacity="0.1"/>
<rect x="303" y="219" width="76" height="73" fill="white" fill-opacity="0.15"/>
<rect x="303.5" y="219.5" width="75" height="72" stroke="white" stroke-opacity="0.1"/>
<rect x="303" y="73" width="76" height="73" fill="white" fill-opacity="0.15"/>
<rect x="303.5" y="73.5" width="75" height="72" stroke="white" stroke-opacity="0.1"/>
<rect x="607.5" y="219.5" width="73" height="72" stroke="white" stroke-opacity="0.1"/>
<rect x="607.5" y="73.5" width="73" height="72" stroke="white" stroke-opacity="0.1"/>
<rect x="75.5" y="219.5" width="75" height="72" stroke="white" stroke-opacity="0.1"/>
<rect x="75.5" y="73.5" width="75" height="72" stroke="white" stroke-opacity="0.1"/>
<rect x="379.5" y="219.5" width="73" height="72" stroke="white" stroke-opacity="0.1"/>
<rect x="379.5" y="73.5" width="73" height="72" stroke="white" stroke-opacity="0.1"/>
<rect x="681.5" y="219.5" width="75" height="72" stroke="white" stroke-opacity="0.1"/>
<rect x="681.5" y="73.5" width="75" height="72" stroke="white" stroke-opacity="0.1"/>
<rect x="151.5" y="219.5" width="75" height="72" stroke="white" stroke-opacity="0.1"/>
<rect x="151.5" y="73.5" width="75" height="72" stroke="white" stroke-opacity="0.1"/>
<rect x="453.5" y="219.5" width="76" height="72" stroke="white" stroke-opacity="0.1"/>
<rect x="453" y="73" width="77" height="73" fill="white" fill-opacity="0.15"/>
<rect x="453.5" y="73.5" width="76" height="72" stroke="white" stroke-opacity="0.1"/>
<rect x="757.5" y="219.5" width="75" height="72" stroke="white" stroke-opacity="0.1"/>
<rect x="1060.5" y="219.5" width="76" height="72" stroke="white" stroke-opacity="0.1"/>
<rect x="757.5" y="73.5" width="75" height="72" stroke="white" stroke-opacity="0.1"/>
<rect x="1060.5" y="73.5" width="76" height="72" stroke="white" stroke-opacity="0.1"/>
<rect x="910.5" y="219.5" width="73" height="72" stroke="white" stroke-opacity="0.1"/>
<rect x="1213.5" y="219.5" width="73" height="72" stroke="white" stroke-opacity="0.1"/>
<rect x="910.5" y="73.5" width="73" height="72" stroke="white" stroke-opacity="0.1"/>
<rect x="1213.5" y="73.5" width="73" height="72" stroke="white" stroke-opacity="0.1"/>
<rect x="227.5" y="219.5" width="75" height="72" stroke="white" stroke-opacity="0.1"/>
<rect x="227.5" y="73.5" width="75" height="72" stroke="white" stroke-opacity="0.1"/>
<rect x="530.5" y="219.5" width="76" height="72" stroke="white" stroke-opacity="0.1"/>
<rect x="530.5" y="73.5" width="76" height="72" stroke="white" stroke-opacity="0.1"/>
<rect x="832.5" y="219.5" width="77" height="72" stroke="white" stroke-opacity="0.1"/>
<rect x="1136.5" y="219.5" width="76" height="72" stroke="white" stroke-opacity="0.1"/>
<rect x="832.5" y="73.5" width="77" height="72" stroke="white" stroke-opacity="0.1"/>
<rect x="1136.5" y="73.5" width="76" height="72" stroke="white" stroke-opacity="0.1"/>
<rect x="984.5" y="219.5" width="75" height="72" stroke="white" stroke-opacity="0.1"/>
<rect x="1287.5" y="219.5" width="76" height="72" stroke="white" stroke-opacity="0.1"/>
<rect x="984.5" y="73.5" width="75" height="72" stroke="white" stroke-opacity="0.1"/>
<rect x="1287.5" y="73.5" width="76" height="72" stroke="white" stroke-opacity="0.1"/>
<rect x="0.5" y="292.5" width="74" height="72" stroke="white" stroke-opacity="0.1"/>
<rect x="0.5" y="146.5" width="74" height="72" stroke="white" stroke-opacity="0.1"/>
<rect x="303.5" y="292.5" width="75" height="72" stroke="white" stroke-opacity="0.1"/>
<rect x="303.5" y="146.5" width="75" height="72" stroke="white" stroke-opacity="0.1"/>
<rect x="607.5" y="292.5" width="73" height="72" stroke="white" stroke-opacity="0.1"/>
<rect x="607.5" y="146.5" width="73" height="72" stroke="white" stroke-opacity="0.1"/>
<rect x="75.5" y="292.5" width="75" height="72" stroke="white" stroke-opacity="0.1"/>
<rect x="75.5" y="146.5" width="75" height="72" stroke="white" stroke-opacity="0.1"/>
<rect x="379.5" y="292.5" width="73" height="72" stroke="white" stroke-opacity="0.1"/>
<rect x="379" y="146" width="74" height="73" fill="white" fill-opacity="0.15"/>
<rect x="379.5" y="146.5" width="73" height="72" stroke="white" stroke-opacity="0.1"/>
<rect x="681.5" y="292.5" width="75" height="72" stroke="white" stroke-opacity="0.1"/>
<rect x="681.5" y="146.5" width="75" height="72" stroke="white" stroke-opacity="0.1"/>
<rect x="151.5" y="292.5" width="75" height="72" stroke="white" stroke-opacity="0.1"/>
<rect x="151.5" y="146.5" width="75" height="72" stroke="white" stroke-opacity="0.1"/>
<rect x="453.5" y="292.5" width="76" height="72" stroke="white" stroke-opacity="0.1"/>
<rect x="453" y="146" width="77" height="73" fill="white" fill-opacity="0.15"/>
<rect x="453.5" y="146.5" width="76" height="72" stroke="white" stroke-opacity="0.1"/>
<rect x="757.5" y="292.5" width="75" height="72" stroke="white" stroke-opacity="0.1"/>
<rect x="1060.5" y="292.5" width="76" height="72" stroke="white" stroke-opacity="0.1"/>
<rect x="757.5" y="146.5" width="75" height="72" stroke="white" stroke-opacity="0.1"/>
<rect x="1060.5" y="146.5" width="76" height="72" stroke="white" stroke-opacity="0.1"/>
<rect x="910.5" y="292.5" width="73" height="72" stroke="white" stroke-opacity="0.1"/>
<rect x="1213.5" y="292.5" width="73" height="72" stroke="white" stroke-opacity="0.1"/>
<rect x="910.5" y="146.5" width="73" height="72" stroke="white" stroke-opacity="0.1"/>
<rect x="1213.5" y="146.5" width="73" height="72" stroke="white" stroke-opacity="0.1"/>
<rect x="227.5" y="292.5" width="75" height="72" stroke="white" stroke-opacity="0.1"/>
<rect x="227.5" y="146.5" width="75" height="72" stroke="white" stroke-opacity="0.1"/>
<rect x="530.5" y="292.5" width="76" height="72" stroke="white" stroke-opacity="0.1"/>
<rect x="530.5" y="146.5" width="76" height="72" stroke="white" stroke-opacity="0.1"/>
<rect x="832" y="292" width="78" height="73" fill="white" fill-opacity="0.15"/>
<rect x="832.5" y="292.5" width="77" height="72" stroke="white" stroke-opacity="0.1"/>
<rect x="1136.5" y="292.5" width="76" height="72" stroke="white" stroke-opacity="0.1"/>
<rect x="832.5" y="146.5" width="77" height="72" stroke="white" stroke-opacity="0.1"/>
<rect x="1136.5" y="146.5" width="76" height="72" stroke="white" stroke-opacity="0.1"/>
<rect x="984.5" y="292.5" width="75" height="72" stroke="white" stroke-opacity="0.1"/>
<rect x="1287.5" y="292.5" width="76" height="72" stroke="white" stroke-opacity="0.1"/>
<rect x="984" y="146" width="76" height="73" fill="white" fill-opacity="0.15"/>
<rect x="984.5" y="146.5" width="75" height="72" stroke="white" stroke-opacity="0.1"/>
<rect x="1287.5" y="146.5" width="76" height="72" stroke="white" stroke-opacity="0.1"/>
<rect x="0.5" y="365.5" width="74" height="75" stroke="white" stroke-opacity="0.1"/>
<rect x="303.5" y="365.5" width="75" height="75" stroke="white" stroke-opacity="0.1"/>
<rect x="607.5" y="365.5" width="73" height="75" stroke="white" stroke-opacity="0.1"/>
<rect x="75.5" y="365.5" width="75" height="75" stroke="white" stroke-opacity="0.1"/>
<rect x="379.5" y="365.5" width="73" height="75" stroke="white" stroke-opacity="0.1"/>
<rect x="681" y="365" width="76" height="76" fill="white" fill-opacity="0.15"/>
<rect x="681.5" y="365.5" width="75" height="75" stroke="white" stroke-opacity="0.1"/>
<rect x="151" y="365" width="76" height="76" fill="white" fill-opacity="0.15"/>
<rect x="151.5" y="365.5" width="75" height="75" stroke="white" stroke-opacity="0.1"/>
<rect x="453.5" y="365.5" width="76" height="75" stroke="white" stroke-opacity="0.1"/>
<rect x="757.5" y="365.5" width="75" height="75" stroke="white" stroke-opacity="0.1"/>
<rect x="1060.5" y="365.5" width="76" height="75" stroke="white" stroke-opacity="0.1"/>
<rect x="910.5" y="365.5" width="73" height="75" stroke="white" stroke-opacity="0.1"/>
<rect x="1213" y="365" width="74" height="76" fill="white" fill-opacity="0.15"/>
<rect x="1213.5" y="365.5" width="73" height="75" stroke="white" stroke-opacity="0.1"/>
<rect x="227" y="365" width="76" height="76" fill="white" fill-opacity="0.15"/>
<rect x="227.5" y="365.5" width="75" height="75" stroke="white" stroke-opacity="0.1"/>
<rect x="530.5" y="365.5" width="76" height="75" stroke="white" stroke-opacity="0.1"/>
<rect x="832.5" y="365.5" width="77" height="75" stroke="white" stroke-opacity="0.1"/>
<rect x="1136.5" y="365.5" width="76" height="75" stroke="white" stroke-opacity="0.1"/>
<rect x="984.5" y="365.5" width="75" height="75" stroke="white" stroke-opacity="0.1"/>
<rect x="1287" y="365" width="77" height="76" fill="white" fill-opacity="0.15"/>
<rect x="1287.5" y="365.5" width="76" height="75" stroke="white" stroke-opacity="0.1"/>
<rect x="0.5" y="441.5" width="74" height="72" stroke="white" stroke-opacity="0.1"/>
<rect x="303.5" y="441.5" width="75" height="72" stroke="white" stroke-opacity="0.1"/>
<rect x="607.5" y="441.5" width="73" height="72" stroke="white" stroke-opacity="0.1"/>
<rect x="75.5" y="441.5" width="75" height="72" stroke="white" stroke-opacity="0.1"/>
<rect x="379.5" y="441.5" width="73" height="72" stroke="white" stroke-opacity="0.1"/>
<rect x="681.5" y="441.5" width="75" height="72" stroke="white" stroke-opacity="0.1"/>
<rect x="151.5" y="441.5" width="75" height="72" stroke="white" stroke-opacity="0.1"/>
<rect x="453.5" y="441.5" width="76" height="72" stroke="white" stroke-opacity="0.1"/>
<rect x="757.5" y="441.5" width="75" height="72" stroke="white" stroke-opacity="0.1"/>
<rect x="1060.5" y="441.5" width="76" height="72" stroke="white" stroke-opacity="0.1"/>
<rect x="910.5" y="441.5" width="73" height="72" stroke="white" stroke-opacity="0.1"/>
<rect x="1213.5" y="441.5" width="73" height="72" stroke="white" stroke-opacity="0.1"/>
<rect x="227.5" y="441.5" width="75" height="72" stroke="white" stroke-opacity="0.1"/>
<rect x="530.5" y="441.5" width="76" height="72" stroke="white" stroke-opacity="0.1"/>
<rect x="832.5" y="441.5" width="77" height="72" stroke="white" stroke-opacity="0.1"/>
<rect x="1136.5" y="441.5" width="76" height="72" stroke="white" stroke-opacity="0.1"/>
<rect x="984.5" y="441.5" width="75" height="72" stroke="white" stroke-opacity="0.1"/>
<rect x="1287.5" y="441.5" width="76" height="72" stroke="white" stroke-opacity="0.1"/>
<rect x="0.5" y="588.5" width="74" height="74" stroke="white" stroke-opacity="0.1"/>
<rect x="303" y="588" width="76" height="75" fill="white" fill-opacity="0.15"/>
<rect x="303.5" y="588.5" width="75" height="74" stroke="white" stroke-opacity="0.1"/>
<rect x="607.5" y="588.5" width="73" height="74" stroke="white" stroke-opacity="0.1"/>
<rect x="75.5" y="588.5" width="75" height="74" stroke="white" stroke-opacity="0.1"/>
<rect x="379.5" y="588.5" width="73" height="74" stroke="white" stroke-opacity="0.1"/>
<rect x="681.5" y="588.5" width="75" height="74" stroke="white" stroke-opacity="0.1"/>
<rect x="151.5" y="588.5" width="75" height="74" stroke="white" stroke-opacity="0.1"/>
<rect x="453.5" y="588.5" width="76" height="74" stroke="white" stroke-opacity="0.1"/>
<rect x="757.5" y="588.5" width="75" height="74" stroke="white" stroke-opacity="0.1"/>
<rect x="1060.5" y="588.5" width="76" height="74" stroke="white" stroke-opacity="0.1"/>
<rect x="910.5" y="588.5" width="73" height="74" stroke="white" stroke-opacity="0.1"/>
<rect x="1213.5" y="588.5" width="73" height="74" stroke="white" stroke-opacity="0.1"/>
<rect x="227" y="588" width="76" height="75" fill="#FF0420"/>
<rect x="227.5" y="588.5" width="75" height="74" stroke="white" stroke-opacity="0.1"/>
<rect x="530.5" y="588.5" width="76" height="74" stroke="white" stroke-opacity="0.1"/>
<rect x="832" y="588" width="78" height="75" fill="white" fill-opacity="0.15"/>
<rect x="832.5" y="588.5" width="77" height="74" stroke="white" stroke-opacity="0.1"/>
<rect x="1136.5" y="588.5" width="76" height="74" stroke="white" stroke-opacity="0.1"/>
<rect x="984.5" y="588.5" width="75" height="74" stroke="white" stroke-opacity="0.1"/>
<rect x="1287.5" y="588.5" width="76" height="74" stroke="white" stroke-opacity="0.1"/>
<rect x="0.5" y="514.5" width="74" height="73" stroke="white" stroke-opacity="0.1"/>
<rect x="303.5" y="514.5" width="75" height="73" stroke="white" stroke-opacity="0.1"/>
<rect x="607.5" y="514.5" width="73" height="73" stroke="white" stroke-opacity="0.1"/>
<rect x="75.5" y="514.5" width="75" height="73" stroke="white" stroke-opacity="0.1"/>
<rect x="379.5" y="514.5" width="73" height="73" stroke="white" stroke-opacity="0.1"/>
<rect x="681.5" y="514.5" width="75" height="73" stroke="white" stroke-opacity="0.1"/>
<rect x="151.5" y="514.5" width="75" height="73" stroke="white" stroke-opacity="0.1"/>
<rect x="453.5" y="514.5" width="76" height="73" stroke="white" stroke-opacity="0.1"/>
<rect x="757.5" y="514.5" width="75" height="73" stroke="white" stroke-opacity="0.1"/>
<rect x="1060.5" y="514.5" width="76" height="73" stroke="white" stroke-opacity="0.1"/>
<rect x="910.5" y="514.5" width="73" height="73" stroke="white" stroke-opacity="0.1"/>
<rect x="1213.5" y="514.5" width="73" height="73" stroke="white" stroke-opacity="0.1"/>
<rect x="227.5" y="514.5" width="75" height="73" stroke="white" stroke-opacity="0.1"/>
<rect x="530.5" y="514.5" width="76" height="73" stroke="white" stroke-opacity="0.1"/>
<rect x="832.5" y="514.5" width="77" height="73" stroke="white" stroke-opacity="0.1"/>
<rect x="1136.5" y="514.5" width="76" height="73" stroke="white" stroke-opacity="0.1"/>
<rect x="984.5" y="514.5" width="75" height="73" stroke="white" stroke-opacity="0.1"/>
<rect x="1287.5" y="514.5" width="76" height="73" stroke="white" stroke-opacity="0.1"/>
<rect x="0.5" y="663.5" width="74" height="71" stroke="white" stroke-opacity="0.1"/>
<rect x="303.5" y="663.5" width="75" height="71" stroke="white" stroke-opacity="0.1"/>
<rect x="607.5" y="663.5" width="73" height="71" stroke="white" stroke-opacity="0.1"/>
<rect x="75.5" y="663.5" width="75" height="71" stroke="white" stroke-opacity="0.1"/>
<rect x="379.5" y="663.5" width="73" height="71" stroke="white" stroke-opacity="0.1"/>
<rect x="681.5" y="663.5" width="75" height="71" stroke="white" stroke-opacity="0.1"/>
<rect x="151.5" y="663.5" width="75" height="71" stroke="white" stroke-opacity="0.1"/>
<rect x="453.5" y="663.5" width="76" height="71" stroke="white" stroke-opacity="0.1"/>
<rect x="757.5" y="663.5" width="75" height="71" stroke="white" stroke-opacity="0.1"/>
<rect x="1060" y="663" width="77" height="72" fill="white" fill-opacity="0.15"/>
<rect x="1060.5" y="663.5" width="76" height="71" stroke="white" stroke-opacity="0.1"/>
<rect x="910.5" y="663.5" width="73" height="71" stroke="white" stroke-opacity="0.1"/>
<rect x="1213.5" y="663.5" width="73" height="71" stroke="white" stroke-opacity="0.1"/>
<rect x="227" y="663" width="76" height="72" fill="white" fill-opacity="0.15"/>
<rect x="227.5" y="663.5" width="75" height="71" stroke="white" stroke-opacity="0.1"/>
<rect x="530.5" y="663.5" width="76" height="71" stroke="white" stroke-opacity="0.1"/>
<rect x="984.5" y="663.5" width="75" height="71" stroke="white" stroke-opacity="0.1"/>
<rect x="1287.5" y="663.5" width="76" height="71" stroke="white" stroke-opacity="0.1"/>
<rect x="0.5" y="735.5" width="74" height="74" stroke="white" stroke-opacity="0.1"/>
<rect x="303.5" y="735.5" width="75" height="74" stroke="white" stroke-opacity="0.1"/>
<rect x="607.5" y="735.5" width="73" height="74" stroke="white" stroke-opacity="0.1"/>
<rect x="75" y="735" width="76" height="75" fill="white" fill-opacity="0.15"/>
<rect x="75.5" y="735.5" width="75" height="74" stroke="white" stroke-opacity="0.1"/>
<rect x="379.5" y="735.5" width="73" height="74" stroke="white" stroke-opacity="0.1"/>
<rect x="681.5" y="735.5" width="75" height="74" stroke="white" stroke-opacity="0.1"/>
<rect x="151.5" y="735.5" width="75" height="74" stroke="white" stroke-opacity="0.1"/>
<rect x="453.5" y="735.5" width="76" height="74" stroke="white" stroke-opacity="0.1"/>
<rect x="757.5" y="735.5" width="75" height="74" stroke="white" stroke-opacity="0.1"/>
<rect x="1060.5" y="735.5" width="76" height="74" stroke="white" stroke-opacity="0.1"/>
<rect x="910.5" y="735.5" width="73" height="74" stroke="white" stroke-opacity="0.1"/>
<rect x="1213.5" y="735.5" width="73" height="74" stroke="white" stroke-opacity="0.1"/>
<rect x="227.5" y="735.5" width="75" height="74" stroke="white" stroke-opacity="0.1"/>
<rect x="530.5" y="735.5" width="76" height="74" stroke="white" stroke-opacity="0.1"/>
<rect x="832.5" y="735.5" width="77" height="74" stroke="white" stroke-opacity="0.1"/>
<rect x="1136.5" y="735.5" width="76" height="74" stroke="white" stroke-opacity="0.1"/>
<rect x="984.5" y="735.5" width="75" height="74" stroke="white" stroke-opacity="0.1"/>
<g clip-path="url(#clip1_260_674)">
<rect opacity="0.4" x="120" y="568" width="1200" height="600" fill="url(#paint1_radial_260_674)"/>
<mask id="mask0_260_674" style="mask-type:alpha" maskUnits="userSpaceOnUse" x="284" y="502" width="872" height="732">
<rect x="284" y="502.469" width="872" height="731" fill="url(#paint2_radial_260_674)"/>
</mask>
<g mask="url(#mask0_260_674)">
</g>
<g clip-path="url(#clip2_260_674)">
<g opacity="0.7">
<path opacity="0.11" d="M585.093 790.201C585.637 789.848 585.792 789.12 585.439 788.576C585.086 788.032 584.358 787.877 583.814 788.23C583.269 788.583 583.115 789.311 583.468 789.855C583.821 790.4 584.549 790.555 585.093 790.201Z" fill="white"/>
<path d="M591.809 793.544C592.217 793.279 592.333 792.733 592.068 792.325C591.803 791.917 591.258 791.801 590.849 792.066C590.441 792.331 590.325 792.876 590.59 793.284C590.855 793.693 591.4 793.809 591.809 793.544Z" fill="white"/>
<path d="M601.355 772.649C601.764 772.384 601.88 771.839 601.615 771.43C601.35 771.022 600.804 770.906 600.396 771.171C599.988 771.436 599.872 771.981 600.137 772.39C600.402 772.798 600.947 772.914 601.355 772.649Z" fill="white"/>
<path d="M558.839 798.836C559.247 798.571 559.363 798.026 559.098 797.618C558.833 797.21 558.288 797.093 557.88 797.358C557.472 797.623 557.355 798.169 557.62 798.577C557.885 798.985 558.431 799.101 558.839 798.836Z" fill="white"/>
<path d="M596.078 810.374C596.35 810.198 596.427 809.834 596.251 809.563C596.074 809.291 595.711 809.213 595.439 809.39C595.167 809.566 595.089 809.93 595.266 810.202C595.442 810.474 595.806 810.551 596.078 810.374Z" fill="white"/>
<path d="M703.476 740.682C703.748 740.506 703.826 740.142 703.649 739.87C703.473 739.598 703.109 739.521 702.837 739.697C702.565 739.874 702.488 740.237 702.664 740.509C702.841 740.781 703.204 740.859 703.476 740.682Z" fill="white"/>
<path d="M739.906 679.232C740.178 679.055 740.255 678.692 740.079 678.42C739.902 678.148 739.539 678.07 739.267 678.247C738.995 678.423 738.917 678.787 739.094 679.059C739.27 679.331 739.634 679.408 739.906 679.232Z" fill="white"/>
<path d="M782.461 702.727C782.733 702.55 782.81 702.187 782.633 701.915C782.457 701.643 782.093 701.565 781.822 701.742C781.55 701.918 781.472 702.282 781.649 702.554C781.825 702.826 782.189 702.903 782.461 702.727Z" fill="white"/>
<path opacity="0.11" d="M697.992 762.44C698.264 762.263 698.341 761.9 698.165 761.628C697.988 761.356 697.625 761.279 697.353 761.455C697.081 761.632 697.003 761.995 697.18 762.267C697.356 762.539 697.72 762.616 697.992 762.44Z" fill="white"/>
<path d="M534.751 777.362C535.023 777.186 535.1 776.822 534.923 776.55C534.747 776.278 534.383 776.201 534.112 776.377C533.84 776.554 533.762 776.917 533.939 777.189C534.115 777.461 534.479 777.539 534.751 777.362Z" fill="white"/>
<path d="M609.976 727.145C610.248 726.968 610.326 726.605 610.149 726.333C609.973 726.061 609.609 725.983 609.337 726.16C609.065 726.336 608.988 726.7 609.164 726.972C609.341 727.244 609.704 727.321 609.976 727.145Z" fill="white"/>
<path opacity="0.3" d="M551.297 783.43C551.568 783.253 551.646 782.89 551.469 782.618C551.293 782.346 550.929 782.269 550.657 782.445C550.385 782.622 550.308 782.985 550.485 783.257C550.661 783.529 551.025 783.606 551.297 783.43Z" fill="white"/>
<path opacity="0.3" d="M758.453 667.897C758.725 667.72 758.802 667.357 758.626 667.085C758.449 666.813 758.086 666.735 757.814 666.912C757.542 667.088 757.464 667.452 757.641 667.724C757.817 667.996 758.181 668.073 758.453 667.897Z" fill="white"/>
<path opacity="0.11" d="M666.031 699.169C666.303 698.993 666.38 698.629 666.204 698.357C666.027 698.085 665.664 698.008 665.392 698.185C665.12 698.361 665.042 698.725 665.219 698.996C665.395 699.268 665.759 699.346 666.031 699.169Z" fill="white"/>
<path opacity="0.11" d="M758.898 697.71C759.17 697.533 759.247 697.17 759.071 696.898C758.894 696.626 758.531 696.549 758.259 696.725C757.987 696.902 757.91 697.265 758.086 697.537C758.263 697.809 758.626 697.886 758.898 697.71Z" fill="white"/>
<path opacity="0.3" d="M637.14 783.029C637.684 782.676 637.839 781.948 637.486 781.404C637.133 780.859 636.405 780.705 635.861 781.058C635.316 781.411 635.161 782.139 635.515 782.683C635.868 783.227 636.596 783.382 637.14 783.029Z" fill="white"/>
<path opacity="0.11" d="M656.617 749.387C657.161 749.034 657.316 748.307 656.962 747.762C656.609 747.218 655.882 747.063 655.337 747.416C654.793 747.769 654.638 748.497 654.991 749.041C655.344 749.586 656.072 749.741 656.617 749.387Z" fill="white"/>
<path d="M645.184 732.305C645.592 732.04 645.708 731.494 645.443 731.086C645.178 730.678 644.633 730.562 644.224 730.827C643.816 731.092 643.7 731.637 643.965 732.045C644.23 732.454 644.775 732.57 645.184 732.305Z" fill="white"/>
<path d="M644.762 806.09C645.17 805.825 645.286 805.279 645.021 804.871C644.756 804.463 644.211 804.347 643.803 804.612C643.394 804.876 643.278 805.422 643.543 805.83C643.808 806.238 644.354 806.354 644.762 806.09Z" fill="white"/>
<path d="M814.706 709.804C815.114 709.539 815.23 708.993 814.965 708.585C814.701 708.177 814.155 708.061 813.747 708.326C813.339 708.591 813.223 709.136 813.487 709.544C813.752 709.953 814.298 710.069 814.706 709.804Z" fill="white"/>
<path d="M627.934 757.503C628.342 757.238 628.458 756.693 628.193 756.285C627.928 755.877 627.383 755.76 626.974 756.025C626.566 756.29 626.45 756.836 626.715 757.244C626.98 757.652 627.525 757.768 627.934 757.503Z" fill="white"/>
<path d="M703.762 790.204C704.17 789.939 704.286 789.394 704.021 788.986C703.756 788.578 703.211 788.461 702.803 788.726C702.394 788.991 702.278 789.537 702.543 789.945C702.808 790.353 703.354 790.469 703.762 790.204Z" fill="white"/>
<path d="M812.566 671.986C812.975 671.721 813.091 671.175 812.826 670.767C812.561 670.359 812.015 670.243 811.607 670.507C811.199 670.772 811.083 671.318 811.348 671.726C811.613 672.134 812.158 672.25 812.566 671.986Z" fill="white"/>
<path d="M806.808 637.22C807.216 636.955 807.332 636.409 807.067 636.001C806.802 635.593 806.257 635.477 805.848 635.742C805.44 636.007 805.324 636.552 805.589 636.96C805.854 637.369 806.399 637.485 806.808 637.22Z" fill="white"/>
<path opacity="0.3" d="M686.148 706.421C686.692 706.068 686.847 705.34 686.494 704.796C686.14 704.251 685.413 704.096 684.868 704.45C684.324 704.803 684.169 705.531 684.522 706.075C684.876 706.619 685.603 706.774 686.148 706.421Z" fill="white"/>
<path d="M663.445 671.446C663.989 671.093 664.144 670.365 663.791 669.821C663.437 669.277 662.71 669.122 662.165 669.475C661.621 669.828 661.466 670.556 661.819 671.1C662.173 671.645 662.9 671.8 663.445 671.446Z" fill="white"/>
<path d="M718.55 700.796C718.958 700.531 719.074 699.985 718.809 699.577C718.544 699.169 717.999 699.053 717.591 699.318C717.182 699.582 717.066 700.128 717.331 700.536C717.596 700.944 718.142 701.06 718.55 700.796Z" fill="white"/>
<path opacity="0.3" d="M729.976 666.077C730.52 665.724 730.675 664.996 730.322 664.452C729.969 663.908 729.241 663.753 728.697 664.106C728.152 664.459 727.997 665.187 728.351 665.731C728.704 666.275 729.431 666.43 729.976 666.077Z" fill="white"/>
<path opacity="0.3" d="M801.445 669.405C801.989 669.051 802.144 668.324 801.791 667.779C801.437 667.235 800.71 667.08 800.165 667.433C799.621 667.787 799.466 668.514 799.819 669.059C800.173 669.603 800.9 669.758 801.445 669.405Z" fill="white"/>
<path opacity="0.3" d="M744.445 707.793C744.989 707.44 745.144 706.712 744.791 706.168C744.437 705.624 743.71 705.469 743.165 705.822C742.621 706.175 742.466 706.903 742.819 707.447C743.173 707.992 743.9 708.147 744.445 707.793Z" fill="white"/>
<path opacity="0.11" d="M771.656 667.733C772.2 667.38 772.355 666.652 772.002 666.108C771.648 665.564 770.921 665.409 770.376 665.762C769.832 666.115 769.677 666.843 770.03 667.387C770.384 667.932 771.111 668.086 771.656 667.733Z" fill="white"/>
<path opacity="0.11" d="M894.227 699.282C894.771 698.929 894.926 698.201 894.573 697.657C894.22 697.113 893.492 696.958 892.948 697.311C892.403 697.664 892.248 698.392 892.602 698.936C892.955 699.48 893.682 699.635 894.227 699.282Z" fill="white"/>
<path d="M900.941 702.624C901.35 702.359 901.466 701.813 901.201 701.405C900.936 700.997 900.39 700.881 899.982 701.146C899.574 701.411 899.458 701.956 899.723 702.364C899.988 702.772 900.533 702.889 900.941 702.624Z" fill="white"/>
<path d="M910.488 681.73C910.896 681.465 911.013 680.919 910.748 680.511C910.483 680.103 909.937 679.987 909.529 680.252C909.121 680.517 909.005 681.062 909.27 681.47C909.535 681.878 910.08 681.995 910.488 681.73Z" fill="white"/>
<path d="M867.973 707.916C868.381 707.651 868.497 707.106 868.232 706.698C867.967 706.289 867.422 706.173 867.013 706.438C866.605 706.703 866.489 707.249 866.754 707.657C867.019 708.065 867.564 708.181 867.973 707.916Z" fill="white"/>
<path opacity="0.11" d="M851.257 735.565C851.801 735.212 851.956 734.484 851.603 733.94C851.25 733.396 850.522 733.241 849.978 733.594C849.433 733.947 849.279 734.675 849.632 735.219C849.985 735.764 850.713 735.918 851.257 735.565Z" fill="white"/>
<path d="M834.867 730.801C835.139 730.625 835.216 730.261 835.04 729.989C834.863 729.717 834.5 729.64 834.228 729.817C833.956 729.993 833.878 730.356 834.055 730.628C834.231 730.9 834.595 730.978 834.867 730.801Z" fill="white"/>
<path d="M905.211 719.455C905.483 719.278 905.56 718.915 905.383 718.643C905.207 718.371 904.843 718.294 904.572 718.47C904.3 718.646 904.222 719.01 904.399 719.282C904.575 719.554 904.939 719.631 905.211 719.455Z" fill="white"/>
<path d="M1012.61 649.762C1012.88 649.585 1012.96 649.222 1012.78 648.95C1012.61 648.678 1012.24 648.601 1011.97 648.777C1011.7 648.954 1011.62 649.317 1011.8 649.589C1011.97 649.861 1012.34 649.938 1012.61 649.762Z" fill="white"/>
<path d="M1049.04 588.312C1049.31 588.135 1049.39 587.771 1049.21 587.5C1049.04 587.228 1048.67 587.15 1048.4 587.327C1048.13 587.503 1048.05 587.867 1048.23 588.139C1048.4 588.411 1048.77 588.488 1049.04 588.312Z" fill="white"/>
<path d="M1091.59 611.805C1091.87 611.629 1091.94 611.265 1091.77 610.993C1091.59 610.721 1091.23 610.644 1090.95 610.82C1090.68 610.997 1090.6 611.36 1090.78 611.632C1090.96 611.904 1091.32 611.981 1091.59 611.805Z" fill="white"/>
<path opacity="0.11" d="M708.523 791.79C708.795 791.614 708.872 791.25 708.696 790.978C708.519 790.706 708.156 790.629 707.884 790.805C707.612 790.982 707.535 791.345 707.711 791.617C707.888 791.889 708.251 791.967 708.523 791.79Z" fill="white"/>
<path opacity="0.11" d="M834.586 740.082C834.858 739.906 834.935 739.542 834.758 739.27C834.582 738.998 834.218 738.921 833.947 739.097C833.675 739.274 833.597 739.637 833.774 739.909C833.95 740.181 834.314 740.259 834.586 740.082Z" fill="white"/>
<path opacity="0.11" d="M915.734 737.829C916.006 737.652 916.083 737.289 915.907 737.017C915.73 736.745 915.367 736.667 915.095 736.844C914.823 737.02 914.746 737.384 914.922 737.656C915.099 737.928 915.462 738.005 915.734 737.829Z" fill="white"/>
<path opacity="0.11" d="M1007.13 671.521C1007.4 671.344 1007.47 670.981 1007.3 670.709C1007.12 670.437 1006.76 670.359 1006.49 670.536C1006.21 670.712 1006.14 671.076 1006.31 671.348C1006.49 671.62 1006.85 671.697 1007.13 671.521Z" fill="white"/>
<path opacity="0.3" d="M747.843 786.575C748.115 786.398 748.193 786.035 748.016 785.763C747.84 785.491 747.476 785.413 747.204 785.59C746.932 785.766 746.855 786.13 747.031 786.402C747.208 786.674 747.571 786.751 747.843 786.575Z" fill="white"/>
<path d="M843.882 686.443C844.153 686.267 844.231 685.903 844.054 685.631C843.878 685.36 843.514 685.282 843.242 685.459C842.97 685.635 842.893 685.999 843.07 686.271C843.246 686.543 843.61 686.62 843.882 686.443Z" fill="white"/>
<path d="M919.109 636.226C919.381 636.049 919.458 635.686 919.282 635.414C919.105 635.142 918.742 635.064 918.47 635.241C918.198 635.417 918.121 635.781 918.297 636.053C918.474 636.325 918.837 636.402 919.109 636.226Z" fill="white"/>
<path d="M839.797 753.506C840.069 753.33 840.146 752.966 839.969 752.694C839.793 752.422 839.429 752.345 839.157 752.521C838.886 752.698 838.808 753.061 838.985 753.333C839.161 753.605 839.525 753.682 839.797 753.506Z" fill="white"/>
<path opacity="0.3" d="M805.312 775.885C805.584 775.708 805.661 775.345 805.485 775.073C805.308 774.801 804.945 774.723 804.673 774.9C804.401 775.076 804.324 775.44 804.5 775.712C804.677 775.984 805.04 776.061 805.312 775.885Z" fill="white"/>
<path opacity="0.11" d="M745.101 771.554C745.373 771.378 745.451 771.014 745.274 770.742C745.098 770.47 744.734 770.393 744.462 770.569C744.19 770.746 744.113 771.109 744.289 771.381C744.466 771.653 744.829 771.731 745.101 771.554Z" fill="white"/>
<path opacity="0.3" d="M860.429 692.511C860.701 692.334 860.779 691.971 860.602 691.699C860.426 691.427 860.062 691.349 859.79 691.526C859.518 691.702 859.441 692.066 859.617 692.338C859.794 692.61 860.157 692.687 860.429 692.511Z" fill="white"/>
<path opacity="0.3" d="M854.251 757.43C854.523 757.254 854.6 756.89 854.423 756.618C854.247 756.346 853.883 756.269 853.612 756.445C853.34 756.622 853.262 756.985 853.439 757.257C853.615 757.529 853.979 757.607 854.251 757.43Z" fill="white"/>
<path opacity="0.3" d="M797.836 801.039C798.108 800.863 798.185 800.499 798.008 800.227C797.832 799.955 797.468 799.878 797.197 800.054C796.925 800.231 796.847 800.594 797.024 800.866C797.2 801.138 797.564 801.216 797.836 801.039Z" fill="white"/>
<path opacity="0.3" d="M762.132 777.306C762.404 777.129 762.482 776.766 762.305 776.494C762.129 776.222 761.765 776.145 761.493 776.321C761.221 776.498 761.144 776.861 761.321 777.133C761.497 777.405 761.861 777.482 762.132 777.306Z" fill="white"/>
<path opacity="0.3" d="M1067.59 576.978C1067.86 576.802 1067.93 576.438 1067.76 576.166C1067.58 575.894 1067.22 575.817 1066.95 575.993C1066.67 576.17 1066.6 576.533 1066.77 576.805C1066.95 577.077 1067.31 577.155 1067.59 576.978Z" fill="white"/>
<path opacity="0.11" d="M975.165 608.249C975.437 608.073 975.514 607.709 975.338 607.437C975.161 607.165 974.798 607.088 974.526 607.264C974.254 607.441 974.176 607.804 974.353 608.076C974.529 608.348 974.893 608.426 975.165 608.249Z" fill="white"/>
<path opacity="0.11" d="M1068.03 606.79C1068.3 606.613 1068.38 606.25 1068.2 605.978C1068.03 605.706 1067.66 605.628 1067.39 605.805C1067.12 605.981 1067.04 606.345 1067.22 606.617C1067.4 606.889 1067.76 606.966 1068.03 606.79Z" fill="white"/>
<path opacity="0.3" d="M946.273 692.11C946.817 691.756 946.972 691.029 946.619 690.484C946.266 689.94 945.538 689.785 944.993 690.138C944.449 690.491 944.294 691.219 944.647 691.764C945.001 692.308 945.728 692.463 946.273 692.11Z" fill="white"/>
<path opacity="0.11" d="M965.749 658.468C966.294 658.115 966.449 657.387 966.095 656.843C965.742 656.299 965.014 656.144 964.47 656.497C963.926 656.85 963.771 657.578 964.124 658.122C964.477 658.667 965.205 658.821 965.749 658.468Z" fill="white"/>
<path d="M954.316 641.386C954.725 641.121 954.841 640.575 954.576 640.167C954.311 639.759 953.765 639.643 953.357 639.908C952.949 640.172 952.833 640.718 953.098 641.126C953.363 641.534 953.908 641.65 954.316 641.386Z" fill="white"/>
<path d="M953.894 715.17C954.303 714.905 954.419 714.36 954.154 713.952C953.889 713.544 953.343 713.427 952.935 713.692C952.527 713.957 952.411 714.503 952.676 714.911C952.941 715.319 953.486 715.435 953.894 715.17Z" fill="white"/>
<path d="M1123.84 618.885C1124.25 618.62 1124.36 618.074 1124.1 617.666C1123.83 617.258 1123.29 617.142 1122.88 617.407C1122.47 617.671 1122.36 618.217 1122.62 618.625C1122.89 619.033 1123.43 619.149 1123.84 618.885Z" fill="white"/>
<path d="M937.066 666.583C937.475 666.318 937.591 665.773 937.326 665.365C937.061 664.956 936.515 664.84 936.107 665.105C935.699 665.37 935.583 665.916 935.848 666.324C936.113 666.732 936.658 666.848 937.066 666.583Z" fill="white"/>
<path d="M875.003 758.664C875.411 758.399 875.527 757.854 875.262 757.446C874.997 757.038 874.452 756.921 874.044 757.186C873.636 757.451 873.519 757.997 873.784 758.405C874.049 758.813 874.595 758.929 875.003 758.664Z" fill="white"/>
<path d="M1012.89 699.285C1013.3 699.02 1013.42 698.475 1013.15 698.067C1012.89 697.658 1012.34 697.542 1011.94 697.807C1011.53 698.072 1011.41 698.618 1011.68 699.026C1011.94 699.434 1012.49 699.55 1012.89 699.285Z" fill="white"/>
<path d="M1121.7 581.066C1122.11 580.801 1122.22 580.256 1121.96 579.848C1121.69 579.439 1121.15 579.323 1120.74 579.588C1120.33 579.853 1120.22 580.399 1120.48 580.807C1120.75 581.215 1121.29 581.331 1121.7 581.066Z" fill="white"/>
<path opacity="0.3" d="M995.273 615.502C995.817 615.149 995.972 614.421 995.619 613.877C995.265 613.332 994.538 613.177 993.993 613.531C993.449 613.884 993.294 614.612 993.647 615.156C994.001 615.7 994.728 615.855 995.273 615.502Z" fill="white"/>
<path d="M972.577 580.527C973.122 580.174 973.277 579.446 972.923 578.902C972.57 578.357 971.842 578.203 971.298 578.556C970.754 578.909 970.599 579.637 970.952 580.181C971.305 580.725 972.033 580.88 972.577 580.527Z" fill="white"/>
<path d="M1027.68 609.876C1028.09 609.611 1028.21 609.066 1027.94 608.658C1027.68 608.25 1027.13 608.133 1026.72 608.398C1026.32 608.663 1026.2 609.209 1026.46 609.617C1026.73 610.025 1027.28 610.141 1027.68 609.876Z" fill="white"/>
<path opacity="0.3" d="M1039.11 575.158C1039.65 574.805 1039.81 574.078 1039.45 573.533C1039.1 572.989 1038.37 572.834 1037.83 573.187C1037.29 573.54 1037.13 574.268 1037.48 574.812C1037.84 575.357 1038.56 575.512 1039.11 575.158Z" fill="white"/>
<path opacity="0.3" d="M1110.58 578.485C1111.12 578.132 1111.28 577.404 1110.92 576.86C1110.57 576.316 1109.84 576.161 1109.3 576.514C1108.75 576.867 1108.6 577.595 1108.95 578.139C1109.31 578.684 1110.03 578.839 1110.58 578.485Z" fill="white"/>
<path opacity="0.3" d="M1053.58 616.874C1054.12 616.521 1054.28 615.793 1053.92 615.249C1053.57 614.704 1052.84 614.549 1052.3 614.903C1051.75 615.256 1051.6 615.984 1051.95 616.528C1052.31 617.072 1053.03 617.227 1053.58 616.874Z" fill="white"/>
<path opacity="0.3" d="M776.242 808.753C776.786 808.4 776.941 807.672 776.587 807.128C776.234 806.584 775.507 806.429 774.962 806.782C774.418 807.135 774.263 807.863 774.616 808.407C774.969 808.952 775.697 809.107 776.242 808.753Z" fill="white"/>
<path opacity="0.3" d="M718.749 807.556C719.294 807.203 719.449 806.475 719.095 805.931C718.742 805.387 718.014 805.232 717.47 805.585C716.926 805.938 716.771 806.666 717.124 807.21C717.477 807.755 718.205 807.91 718.749 807.556Z" fill="white"/>
<path opacity="0.11" d="M1080.79 576.814C1081.33 576.461 1081.49 575.733 1081.13 575.189C1080.78 574.644 1080.05 574.489 1079.51 574.843C1078.96 575.196 1078.81 575.924 1079.16 576.468C1079.52 577.012 1080.24 577.167 1080.79 576.814Z" fill="white"/>
<path opacity="0.3" d="M778.327 745.09C778.872 744.737 779.027 744.009 778.673 743.465C778.32 742.921 777.593 742.766 777.048 743.119C776.504 743.472 776.349 744.2 776.702 744.744C777.055 745.289 777.783 745.444 778.327 745.09Z" fill="white"/>
<path opacity="0.11" d="M758.632 743.87C759.176 743.516 759.331 742.789 758.978 742.244C758.625 741.7 757.897 741.545 757.353 741.898C756.808 742.252 756.654 742.979 757.007 743.524C757.36 744.068 758.088 744.223 758.632 743.87Z" fill="white"/>
<path opacity="0.3" d="M775.156 777.954C775.7 777.601 775.855 776.873 775.502 776.329C775.148 775.784 774.421 775.629 773.876 775.983C773.332 776.336 773.177 777.064 773.53 777.608C773.884 778.152 774.611 778.307 775.156 777.954Z" fill="white"/>
<path d="M805.62 757.481C806.028 757.216 806.144 756.671 805.88 756.263C805.615 755.855 805.069 755.738 804.661 756.003C804.253 756.268 804.137 756.814 804.401 757.222C804.666 757.63 805.212 757.746 805.62 757.481Z" fill="white"/>
</g>
</g>
</g>
<rect x="1287.5" y="735.5" width="76" height="74" stroke="white" stroke-opacity="0.1"/>
<rect x="1364.5" y="73.5" width="75" height="72" stroke="white" stroke-opacity="0.1"/>
<rect x="1364.5" y="146.5" width="75" height="72" stroke="white" stroke-opacity="0.1"/>
<rect x="1364.5" y="219.5" width="75" height="72" stroke="white" stroke-opacity="0.1"/>
<rect x="1364.5" y="292.5" width="75" height="72" stroke="white" stroke-opacity="0.1"/>
<rect x="1364.5" y="365.5" width="75" height="75" stroke="white" stroke-opacity="0.1"/>
<rect x="1364.5" y="441.5" width="75" height="72" stroke="white" stroke-opacity="0.1"/>
<rect x="1364.5" y="514.5" width="75" height="73" stroke="white" stroke-opacity="0.1"/>
<rect x="1364.5" y="588.5" width="75" height="74" stroke="white" stroke-opacity="0.1"/>
<rect x="1364.5" y="663.5" width="75" height="71" stroke="white" stroke-opacity="0.1"/>
<rect x="1364.5" y="735.5" width="75" height="74" stroke="white" stroke-opacity="0.1"/>
<rect x="0.5" y="0.5" width="74" height="73" stroke="white" stroke-opacity="0.1"/>
<rect x="303.5" y="0.5" width="75" height="73" stroke="white" stroke-opacity="0.1"/>
<rect x="607.5" y="0.5" width="73" height="73" stroke="white" stroke-opacity="0.1"/>
<rect x="75.5" y="0.5" width="75" height="73" stroke="white" stroke-opacity="0.1"/>
<rect x="379.5" y="0.5" width="73" height="73" stroke="white" stroke-opacity="0.1"/>
<rect x="681.5" y="0.5" width="75" height="73" stroke="white" stroke-opacity="0.1"/>
<rect x="151.5" y="0.5" width="75" height="73" stroke="white" stroke-opacity="0.1"/>
<rect x="453.5" y="0.5" width="76" height="73" stroke="white" stroke-opacity="0.1"/>
<rect x="757.5" y="0.5" width="75" height="73" stroke="white" stroke-opacity="0.1"/>
<rect x="1060.5" y="0.5" width="76" height="73" stroke="white" stroke-opacity="0.1"/>
<rect x="910.5" y="0.5" width="73" height="73" stroke="white" stroke-opacity="0.1"/>
<rect x="1213.5" y="0.5" width="73" height="73" stroke="white" stroke-opacity="0.1"/>
<rect x="227.5" y="0.5" width="75" height="73" stroke="white" stroke-opacity="0.1"/>
<rect x="530.5" y="0.5" width="76" height="73" stroke="white" stroke-opacity="0.1"/>
<rect x="832.5" y="0.5" width="77" height="73" stroke="white" stroke-opacity="0.1"/>
<rect x="1136.5" y="0.5" width="76" height="73" stroke="white" stroke-opacity="0.1"/>
<rect x="984.5" y="0.5" width="75" height="73" stroke="white" stroke-opacity="0.1"/>
<rect x="1287.5" y="0.5" width="76" height="73" stroke="white" stroke-opacity="0.1"/>
<rect x="1364.5" y="0.5" width="75" height="73" stroke="white" stroke-opacity="0.1"/>
</g>
<defs>
<linearGradient id="paint0_linear_260_674" x1="720" y1="0" x2="720" y2="810" gradientUnits="userSpaceOnUse">
<stop/>
<stop offset="1"/>
</linearGradient>
<radialGradient id="paint1_radial_260_674" cx="0" cy="0" r="1" gradientUnits="userSpaceOnUse" gradientTransform="translate(720 868) rotate(26.5651) scale(670.82 536.656)">
<stop stop-color="#7877C6"/>
<stop offset="0.7" stop-opacity="0"/>
</radialGradient>
<radialGradient id="paint2_radial_260_674" cx="0" cy="0" r="1" gradientUnits="userSpaceOnUse" gradientTransform="translate(720 867.969) rotate(39.9732) scale(568.934 560.198)">
<stop/>
<stop offset="1" stop-opacity="0"/>
</radialGradient>
<clipPath id="clip0_260_674">
<rect width="1440" height="810" fill="white"/>
</clipPath>
<clipPath id="clip1_260_674">
<rect width="1200" height="242" fill="white" transform="translate(120 568)"/>
</clipPath>
<clipPath id="clip2_260_674">
<rect width="872" height="731" fill="white" transform="translate(284 502.469)"/>
</clipPath>
</defs>
</svg>
