<svg viewBox="0 0 20 20" fill="none" xmlns="http://www.w3.org/2000/svg">
<path d="M0.0498047 11H5.5268C5.69792 14.1668 6.70735 17.2314 8.4518 19.88C6.26674 19.5368 4.257 18.4791 2.73682 16.8725C1.21664 15.2658 0.271722 13.2007 0.0498047 11ZM0.0498047 9C0.271722 6.7993 1.21664 4.73417 2.73682 3.12751C4.257 1.52084 6.26674 0.463218 8.4518 0.119995C6.70735 2.76861 5.69792 5.83314 5.5268 9H0.0498047ZM19.9498 9H14.4728C14.3017 5.83314 13.2923 2.76861 11.5478 0.119995C13.7329 0.463218 15.7426 1.52084 17.2628 3.12751C18.783 4.73417 19.7279 6.7993 19.9498 9ZM19.9498 11C19.7279 13.2007 18.783 15.2658 17.2628 16.8725C15.7426 18.4791 13.7329 19.5368 11.5478 19.88C13.2923 17.2314 14.3017 14.1668 14.4728 11H19.9508H19.9498ZM7.5298 11H12.4698C12.3052 13.6995 11.4551 16.3124 9.9998 18.592C8.5445 16.3124 7.6944 13.6995 7.5298 11ZM7.5298 9C7.6944 6.30051 8.5445 3.68756 9.9998 1.408C11.4551 3.68756 12.3052 6.30051 12.4698 9H7.5298Z" fill="currentColor"/>
</svg>
