<svg viewBox="0 0 40 40" fill="none" xmlns="http://www.w3.org/2000/svg">
<path d="M29.9987 18.334H26.6654C26.4126 17.9988 26.134 17.684 25.832 17.3923V11.6673C25.832 11.2253 25.6564 10.8014 25.3439 10.4888C25.0313 10.1762 24.6074 10.0006 24.1654 10.0006H21.6654V6.66732H26.6654C27.1074 6.66732 27.5313 6.49172 27.8439 6.17916C28.1564 5.8666 28.332 5.44268 28.332 5.00065C28.332 4.55862 28.1564 4.1347 27.8439 3.82214C27.5313 3.50958 27.1074 3.33398 26.6654 3.33398H13.332C12.89 3.33398 12.4661 3.50958 12.1535 3.82214C11.841 4.1347 11.6654 4.55862 11.6654 5.00065C11.6654 5.44268 11.841 5.8666 12.1535 6.17916C12.4661 6.49172 12.89 6.66732 13.332 6.66732H18.332V10.0006H15.832C15.39 10.0006 14.9661 10.1762 14.6535 10.4888C14.341 10.8014 14.1654 11.2253 14.1654 11.6673V17.3923C13.8634 17.684 13.5848 17.9988 13.332 18.334H4.9987C4.55667 18.334 4.13275 18.5096 3.82019 18.8221C3.50763 19.1347 3.33203 19.5586 3.33203 20.0006V28.334C3.33203 28.776 3.50763 29.1999 3.82019 29.5125C4.13275 29.8251 4.55667 30.0006 4.9987 30.0006H14.9987C16.4412 31.0825 18.1956 31.6673 19.9987 31.6673C21.8018 31.6673 23.5562 31.0825 24.9987 30.0006V35.0006C24.9987 35.4427 25.1743 35.8666 25.4869 36.1792C25.7994 36.4917 26.2233 36.6673 26.6654 36.6673H34.9987C35.4407 36.6673 35.8646 36.4917 36.1772 36.1792C36.4898 35.8666 36.6654 35.4427 36.6654 35.0006V25.0007C36.6654 23.2325 35.963 21.5368 34.7127 20.2866C33.4625 19.0364 31.7668 18.334 29.9987 18.334Z" fill="currentColor"/>
</svg>
