<svg width="54" height="54" viewBox="0 0 54 54" fill="none" xmlns="http://www.w3.org/2000/svg">
<path d="M42.6858 27.0415C42.6858 29.0704 44.3229 30.7152 46.3426 30.7152C48.3622 30.7152 49.9994 29.0704 49.9994 27.0415C49.9994 25.0127 48.3622 23.3679 46.3426 23.3679C44.3229 23.3679 42.6858 25.0127 42.6858 27.0415ZM42.6858 27.0415H35.8945" stroke="#070808" stroke-width="2"/>
<path d="M11.3414 27.0415C11.3414 29.0704 9.70424 30.7152 7.68463 30.7152C5.66504 30.7152 4.02783 29.0704 4.02783 27.0415C4.02783 25.0127 5.66504 23.3679 7.68463 23.3679C9.70424 23.3679 11.3414 25.0127 11.3414 27.0415ZM11.3414 27.0415H18.1326" stroke="#070808" stroke-width="2"/>
<path d="M37.2507 16.7529C38.1081 17.6142 39.4982 17.6142 40.3556 16.7529C41.2129 15.8916 41.2129 14.4951 40.3556 13.6338C39.4982 12.7725 38.1081 12.7725 37.2507 13.6338C36.3932 14.4951 36.3932 15.8916 37.2507 16.7529ZM37.2507 16.7529L33.8008 20.2186" stroke="#070808" stroke-width="2"/>
<path d="M17.0535 16.7529C16.1962 17.6142 14.8061 17.6142 13.9487 16.7529C13.0913 15.8916 13.0913 14.4951 13.9487 13.6338C14.8061 12.7725 16.1962 12.7725 17.0535 13.6338C17.9109 14.4951 17.9109 15.8916 17.0535 16.7529ZM17.0535 16.7529L20.5035 20.2186" stroke="#070808" stroke-width="2"/>
<path d="M37.2507 37.0414C38.1081 36.1801 39.4982 36.1801 40.3556 37.0414C41.2129 37.9028 41.2129 39.2992 40.3556 40.1606C39.4982 41.0219 38.1081 41.0219 37.2507 40.1606C36.3932 39.2992 36.3932 37.9028 37.2507 37.0414ZM37.2507 37.0414L33.8008 33.5757" stroke="#070808" stroke-width="2"/>
<path d="M17.0535 37.0414C16.1962 36.1801 14.8061 36.1801 13.9487 37.0414C13.0913 37.9028 13.0913 39.2992 13.9487 40.1606C14.8061 41.0219 16.1962 41.0219 17.0535 40.1606C17.9109 39.2992 17.9109 37.9028 17.0535 37.0414ZM17.0535 37.0414L20.5035 33.5757" stroke="#070808" stroke-width="2"/>
<path d="M20.4131 22.3518L27.4051 26.4872V34.9287" stroke="#FF0000" stroke-width="2"/>
<path d="M27.0137 41.7355C24.9941 41.7355 23.3569 43.3803 23.3569 45.4091C23.3569 47.4381 24.9941 49.0827 27.0137 49.0827C29.0333 49.0827 30.6705 47.4381 30.6705 45.4091C30.6705 43.3803 29.0333 41.7355 27.0137 41.7355ZM27.0137 41.7355V36.4875" stroke="#070808" stroke-width="2"/>
<path d="M27.0137 12.3472C24.9941 12.3472 23.3569 10.7025 23.3569 8.6736C23.3569 6.64473 24.9941 5 27.0137 5C29.0333 5 30.6705 6.64473 30.6705 8.6736C30.6705 10.7025 29.0333 12.3472 27.0137 12.3472ZM27.0137 12.3472V16.0208" stroke="#070808" stroke-width="2"/>
<path d="M27.0215 26.7857L34.056 23.0339" stroke="#FF0000" stroke-width="2"/>
<path d="M34.4229 22.5454V30.5991L27.4473 34.6265L20.4727 30.5991V22.5454L27.4473 18.5181L34.4229 22.5454Z" stroke="#FF0000" stroke-width="2"/>
</svg>
