<svg width="48" height="48" viewBox="0 0 48 48" fill="none" xmlns="http://www.w3.org/2000/svg">
<rect width="48" height="48" rx="10" fill="#1D1D1D"/>
<g clip-path="url(#clip0_6654_5008)">
<path d="M22.5962 11.6001C21.8919 11.1737 19.5886 9.96951 18.2188 9.20629C17.0219 8.54085 16.6589 9.96951 16.5448 10.9482C16.4307 11.9296 16.4307 13.199 17.6855 13.199H22.292C23.5469 13.199 23.5469 12.1831 22.5962 11.6001Z" fill="#FF0420"/>
<path d="M9.00001 16.5695V19.4458C8.9982 20.5105 9.35491 21.0474 10.7763 21.0474H21.2795V15.1245H10.7492C9.31055 15.1236 9.00001 15.598 9.00001 16.5695Z" fill="#A4A4A4"/>
<path d="M10.2006 34.5038C10.2142 36.7211 11.508 37.9859 14.2711 37.9859H21.2108V23.2393H10.2006C10.2006 23.2393 10.1843 32.2875 10.2006 34.5038Z" fill="#A4A4A4"/>
<path d="M37.9721 16.6916C37.9721 15.7202 37.5493 15.1235 36.1116 15.1235H25.7578V21.0464H36.1931C37.6145 21.0464 37.973 20.5548 37.9721 19.4901C37.9676 18.5205 37.9694 17.6622 37.9721 16.6916Z" fill="#A4A4A4"/>
<path d="M30.711 10.9272C30.597 9.94852 30.2339 8.51985 29.0361 9.18529C27.6645 9.94852 25.363 11.1527 24.6587 11.5818C23.7062 12.1621 23.7062 13.178 24.9638 13.178H29.5694C30.8251 13.178 30.8251 11.9077 30.711 10.9272Z" fill="#FF0420"/>
<path d="M25.7578 23.2393V37.9859H32.4856C35.247 37.9859 36.4909 36.5979 36.5063 34.3825C36.5226 32.1653 36.5018 23.2393 36.5018 23.2393H25.7578Z" fill="#A4A4A4"/>
</g>
<defs>
<clipPath id="clip0_6654_5008">
<rect width="29" height="29" fill="white" transform="translate(9 9)"/>
</clipPath>
</defs>
</svg>
