<svg width="507" height="410" viewBox="0 0 507 410" fill="none" xmlns="http://www.w3.org/2000/svg">
<rect y="10" width="507" height="400" rx="10" fill="#111111"/>
<g clip-path="url(#clip0_6654_5028)">
<circle cx="248.808" cy="308.484" r="49.0603" transform="rotate(-45 248.808 308.484)" fill="#FF0420" stroke="white"/>
<mask id="path-3-inside-1_6654_5028" fill="white">
<path d="M225.847 159.848C276.259 109.436 329.671 77.2845 359.559 76.8901L365.421 71.0281L377.505 83.1125L377.499 83.1187C397.383 104.001 362.924 171.408 300.165 234.167C237.407 296.926 170.001 331.384 149.118 311.5L149.112 311.506L137.028 299.422L142.889 293.56C143.283 263.672 175.435 210.26 225.847 159.848Z"/>
</mask>
<path d="M225.847 159.848C276.259 109.436 329.671 77.2845 359.559 76.8901L365.421 71.0281L377.505 83.1125L377.499 83.1187C397.383 104.001 362.924 171.408 300.165 234.167C237.407 296.926 170.001 331.384 149.118 311.5L149.112 311.506L137.028 299.422L142.889 293.56C143.283 263.672 175.435 210.26 225.847 159.848Z" fill="#111111"/>
<path d="M225.847 159.848L225.14 159.141L225.847 159.848ZM359.559 76.8901L359.572 77.89L359.979 77.8846L360.266 77.5972L359.559 76.8901ZM365.421 71.0281L366.128 70.321L365.421 69.6139L364.714 70.321L365.421 71.0281ZM377.505 83.1125L378.212 83.8196L378.919 83.1125L378.212 82.4054L377.505 83.1125ZM377.499 83.1187L376.792 82.4116L376.102 83.1016L376.775 83.8083L377.499 83.1187ZM300.165 234.167L300.873 234.874L300.165 234.167ZM149.118 311.5L149.808 310.775L149.101 310.103L148.411 310.793L149.118 311.5ZM149.112 311.506L148.405 312.213L149.112 312.92L149.819 312.213L149.112 311.506ZM137.028 299.422L136.32 298.714L135.613 299.422L136.32 300.129L137.028 299.422ZM142.889 293.56L143.596 294.267L143.883 293.98L143.889 293.573L142.889 293.56ZM225.847 159.848L226.554 160.555C251.714 135.395 277.609 114.806 300.923 100.464C324.277 86.0983 344.909 78.0835 359.572 77.89L359.559 76.8901L359.546 75.8902C344.321 76.0911 323.303 84.3493 299.875 98.7607C276.408 113.196 250.392 133.889 225.14 159.141L225.847 159.848ZM359.559 76.8901L360.266 77.5972L366.128 71.7352L365.421 71.0281L364.714 70.321L358.852 76.183L359.559 76.8901ZM365.421 71.0281L364.714 71.7352L376.798 83.8196L377.505 83.1125L378.212 82.4054L366.128 70.321L365.421 71.0281ZM377.505 83.1125L376.798 82.4054L376.792 82.4116L377.499 83.1187L378.206 83.8258L378.212 83.8196L377.505 83.1125ZM377.499 83.1187L376.775 83.8083C381.442 88.7096 383.036 96.4648 381.639 106.567C380.245 116.65 375.893 128.883 368.933 142.483C355.018 169.675 330.785 202.134 299.458 233.46L300.165 234.167L300.873 234.874C332.305 203.441 356.68 170.817 370.714 143.395C377.728 129.688 382.184 117.231 383.62 106.841C385.054 96.4705 383.498 87.9691 378.223 82.4291L377.499 83.1187ZM300.165 234.167L299.458 233.46C268.132 264.786 235.674 289.019 208.483 302.934C194.882 309.894 182.65 314.246 172.567 315.64C162.464 317.036 154.709 315.442 149.808 310.775L149.118 311.5L148.428 312.224C153.968 317.499 162.47 319.054 172.84 317.621C183.23 316.185 195.687 311.729 209.394 304.715C236.816 290.682 269.44 266.307 300.873 234.874L300.165 234.167ZM149.118 311.5L148.411 310.793L148.405 310.799L149.112 311.506L149.819 312.213L149.825 312.207L149.118 311.5ZM149.112 311.506L149.819 310.799L137.735 298.714L137.028 299.422L136.32 300.129L148.405 312.213L149.112 311.506ZM137.028 299.422L137.735 300.129L143.596 294.267L142.889 293.56L142.182 292.853L136.32 298.714L137.028 299.422ZM142.889 293.56L143.889 293.573C144.082 278.91 152.097 258.278 166.463 234.925C180.804 211.611 201.394 185.715 226.554 160.555L225.847 159.848L225.14 159.141C199.887 184.393 179.195 210.41 164.759 233.877C150.348 257.304 142.09 278.322 141.889 293.547L142.889 293.56Z" fill="white" mask="url(#path-3-inside-1_6654_5028)"/>
<path d="M212.907 146.909C244.415 115.401 277.082 91.0463 304.413 77.135C318.082 70.1781 330.39 65.8466 340.536 64.5238C350.691 63.1999 358.583 64.8993 363.556 69.8713C368.528 74.8434 370.228 82.7368 368.904 92.8916C367.581 103.038 363.249 115.345 356.292 129.013C342.381 156.345 318.027 189.012 286.519 220.52C255.011 252.028 222.344 276.382 195.012 290.293C181.344 297.25 169.036 301.582 158.89 302.905C148.735 304.229 140.842 302.529 135.87 297.557C130.898 292.585 129.199 284.692 130.522 274.537C131.845 264.391 136.177 252.083 143.134 238.415C157.045 211.083 181.4 178.416 212.907 146.909Z" fill="#111111" stroke="white"/>
<circle cx="249.411" cy="77.0703" r="49.0603" transform="rotate(-45 249.411 77.0703)" fill="#111111" stroke="white"/>
</g>
<defs>
<clipPath id="clip0_6654_5028">
<rect width="376" height="376" fill="white" transform="translate(66)"/>
</clipPath>
</defs>
</svg>
