<svg width="545" height="202" viewBox="0 0 545 202" fill="none" xmlns="http://www.w3.org/2000/svg">
<rect x="6" width="533" height="202" fill="#F6F6F6"/>
<path d="M313.45 34.6523L327.479 55.5986L314.594 147.846L225.728 135.433L241.212 24.5635L313.45 34.6523Z" fill="white" stroke="black"/>
<path d="M254.99 70.6313C254.532 71.2971 255.027 72.1746 255.756 72.3583C256.575 72.564 257.199 71.7923 257.138 71.0276C257.074 70.208 256.37 69.6469 255.558 69.7448C254.75 69.8416 254.203 70.5843 254.409 71.385C254.969 73.5622 258.531 71.5177 257.113 69.9953C256.574 69.4163 255.559 69.4702 255.178 70.194C254.811 70.8918 255.225 71.8482 256.033 71.95C256.832 72.0518 257.608 71.2802 257.373 70.4715C257.177 69.8007 256.374 69.5241 255.75 69.7188C254.972 69.9614 254.738 70.8838 255.225 71.5108C255.682 72.0978 256.601 72.2834 257.165 71.7374C257.694 71.2252 257.632 70.3078 257.151 69.7857C256.568 69.1528 255.602 69.2856 255.075 69.9145C254.509 70.5883 254.616 71.5697 255.336 72.0888C256.012 72.5759 256.951 72.4731 257.459 71.7983C257.96 71.1304 257.891 70.0962 257.15 69.63C256.534 69.2426 255.655 69.3494 255.121 69.8316C254.494 70.3987 254.551 71.357 255.145 71.923C255.764 72.511 256.7 72.5979 257.37 72.0568C257.936 71.5986 257.158 70.78 256.595 71.2342C256.368 71.4169 255.9 71.2103 255.813 70.9547C255.71 70.6492 256.093 70.5075 256.336 70.5244C256.683 70.5494 256.769 70.9198 256.524 71.1633C256.228 71.4578 255.67 71.0805 255.893 70.7011C256.074 70.3947 256.545 70.4965 256.408 70.8699C256.368 70.9787 256.304 70.9527 256.193 70.8888C256.171 70.8758 256.06 70.7521 256.089 70.8C256.096 70.811 256.019 70.778 256.094 70.792C256.161 70.805 256.233 70.772 256.3 70.809C256.247 70.78 256.344 70.7481 256.252 70.805C256.17 70.8549 256.208 70.8539 256.193 70.8349C256.151 70.781 256.149 70.6632 256.231 70.7301C256.377 70.8499 256.114 71.0256 255.986 71.0975C255.851 71.1743 255.446 71.338 255.493 71.0176C255.515 70.8669 255.748 70.807 255.881 70.8788C256.015 70.9517 256.038 71.1005 256.003 71.2382C255.989 71.2921 256.075 71.2612 256 71.2482C255.993 71.2472 255.957 71.2213 255.956 71.2143C255.946 71.1334 255.897 71.3031 255.949 71.2282C256.362 70.6273 255.402 70.0323 254.991 70.6293L254.99 70.6313Z" fill="black"/>
<path d="M263.42 72.7979C276.033 74.9313 288.704 76.7222 301.414 78.1687C305.08 78.586 308.747 78.9743 312.419 79.3347C313.037 79.3956 313.063 78.4303 312.448 78.3704C299.722 77.1185 287.028 75.5322 274.387 73.5975C270.822 73.0515 267.26 72.4775 263.704 71.8765C263.099 71.7747 262.81 72.6961 263.42 72.7989V72.7979Z" fill="black"/>
<path d="M264.377 69.6872C273.678 71.2625 282.964 72.9077 292.337 73.9969C295.507 74.3652 298.682 74.6927 301.857 75.0051C303.094 75.1269 303.146 73.1972 301.914 73.0754C292.584 72.158 283.32 70.9531 274.077 69.3927C271.032 68.8786 267.989 68.3565 264.944 67.8414C264.426 67.7535 263.911 67.9372 263.737 68.4803C263.595 68.9265 263.862 69.6004 264.376 69.6872H264.377Z" fill="black"/>
<path d="M263.023 76.0592C267.144 76.8309 271.294 77.4338 275.463 77.8731C276.081 77.938 276.107 76.9736 275.492 76.9087C271.408 76.4785 267.344 75.8925 263.308 75.1368C262.703 75.024 262.414 75.9454 263.023 76.0592Z" fill="black"/>
<path d="M279.369 78.6344C283.49 79.4061 287.64 80.009 291.808 80.4483C292.426 80.5132 292.452 79.5488 291.837 79.4839C287.754 79.0537 283.689 78.4677 279.653 77.712C279.048 77.5992 278.76 78.5206 279.369 78.6344Z" fill="black"/>
<path d="M250.898 88.4701C250.44 89.1359 250.935 90.0134 251.665 90.1971C252.483 90.4028 253.107 89.6311 253.046 88.8664C252.982 88.0468 252.279 87.4858 251.466 87.5836C250.658 87.6804 250.111 88.4232 250.317 89.2238C250.877 91.4011 254.439 89.3566 253.021 87.8342C252.482 87.2552 251.467 87.3091 251.087 88.0328C250.719 88.7306 251.134 89.687 251.941 89.7888C252.74 89.8907 253.516 89.119 253.281 88.3104C253.085 87.6395 252.283 87.363 251.659 87.5576C250.88 87.8002 250.646 88.7226 251.134 89.3496C251.59 89.9366 252.509 90.1223 253.073 89.5762C253.602 89.0641 253.54 88.1466 253.059 87.6245C252.476 86.9916 251.51 87.1244 250.983 87.7533C250.417 88.4272 250.525 89.4085 251.244 89.9276C251.92 90.4148 252.86 90.3119 253.367 89.6371C253.868 88.9692 253.799 87.935 253.058 87.4688C252.442 87.0815 251.563 87.1883 251.029 87.6704C250.402 88.2375 250.46 89.1958 251.054 89.7619C251.673 90.3499 252.608 90.4367 253.278 89.8956C253.844 89.4374 253.066 88.6188 252.503 89.0731C252.277 89.2557 251.808 89.0491 251.722 88.7935C251.618 88.488 252.001 88.3463 252.245 88.3633C252.591 88.3882 252.677 88.7586 252.432 89.0022C252.136 89.2967 251.578 88.9193 251.801 88.54C251.982 88.2335 252.453 88.3353 252.317 88.7087C252.277 88.8175 252.213 88.7915 252.101 88.7276C252.079 88.7147 251.968 88.5909 251.997 88.6388C252.004 88.6498 251.927 88.6168 252.002 88.6308C252.069 88.6438 252.141 88.6108 252.209 88.6478C252.155 88.6188 252.253 88.5869 252.16 88.6438C252.078 88.6937 252.116 88.6927 252.101 88.6737C252.059 88.6198 252.057 88.502 252.139 88.5689C252.286 88.6887 252.022 88.8644 251.894 88.9363C251.759 89.0131 251.354 89.1769 251.401 88.8564C251.423 88.7057 251.657 88.6458 251.789 88.7177C251.923 88.7905 251.946 88.9393 251.911 89.077C251.897 89.131 251.983 89.1 251.908 89.087C251.901 89.086 251.865 89.0601 251.864 89.0531C251.854 88.9722 251.805 89.1419 251.857 89.0671C252.271 88.4661 251.31 87.8711 250.899 88.4681L250.898 88.4701Z" fill="black"/>
<path d="M259.326 90.6377C271.94 92.7711 284.61 94.562 297.32 96.0085C300.986 96.4258 304.654 96.8142 308.325 97.1746C308.943 97.2354 308.969 96.2701 308.354 96.2102C295.628 94.9583 282.934 93.372 270.293 91.4374C266.729 90.8913 263.167 90.3173 259.611 89.7163C259.006 89.6145 258.716 90.5359 259.326 90.6387V90.6377Z" fill="black"/>
<path d="M260.284 87.526C269.585 89.1013 278.87 90.7465 288.243 91.8356C291.413 92.204 294.588 92.5314 297.763 92.8439C299 92.9657 299.052 91.036 297.82 90.9142C288.49 89.9968 279.226 88.7918 269.983 87.2315C266.938 86.7174 263.895 86.1953 260.851 85.6802C260.332 85.5923 259.817 85.776 259.644 86.3191C259.501 86.7653 259.768 87.4391 260.283 87.526H260.284Z" fill="black"/>
<path d="M258.929 93.898C263.05 94.6696 267.2 95.2726 271.369 95.7119C271.987 95.7768 272.013 94.8124 271.398 94.7475C267.314 94.3172 263.25 93.7312 259.214 92.9755C258.609 92.8627 258.32 93.7842 258.929 93.898Z" fill="black"/>
<path d="M275.275 96.4732C279.396 97.2448 283.546 97.8478 287.715 98.2871C288.333 98.352 288.359 97.3876 287.744 97.3227C283.66 96.8924 279.596 96.3064 275.559 95.5507C274.954 95.4379 274.666 96.3594 275.275 96.4732Z" fill="black"/>
<path d="M248.189 105.98C247.731 106.646 248.226 107.523 248.956 107.707C249.774 107.912 250.398 107.141 250.337 106.376C250.273 105.556 249.57 104.995 248.757 105.093C247.949 105.19 247.402 105.933 247.608 106.733C248.168 108.911 251.73 106.866 250.312 105.344C249.773 104.765 248.758 104.819 248.378 105.542C248.01 106.24 248.425 107.197 249.232 107.298C250.031 107.4 250.807 106.629 250.572 105.82C250.376 105.149 249.574 104.873 248.95 105.067C248.171 105.31 247.937 106.232 248.425 106.859C248.881 107.446 249.8 107.632 250.364 107.086C250.893 106.574 250.831 105.656 250.35 105.134C249.767 104.501 248.801 104.634 248.274 105.263C247.708 105.937 247.816 106.918 248.535 107.437C249.211 107.924 250.151 107.822 250.658 107.147C251.159 106.479 251.09 105.445 250.349 104.978C249.733 104.591 248.854 104.698 248.32 105.18C247.693 105.747 247.751 106.705 248.345 107.271C248.964 107.859 249.899 107.946 250.569 107.405C251.135 106.947 250.357 106.128 249.794 106.583C249.568 106.765 249.099 106.559 249.013 106.303C248.909 105.998 249.292 105.856 249.536 105.873C249.882 105.898 249.968 106.268 249.723 106.512C249.427 106.806 248.869 106.429 249.092 106.05C249.273 105.743 249.744 105.845 249.608 106.218C249.568 106.327 249.504 106.301 249.392 106.237C249.37 106.224 249.259 106.1 249.288 106.148C249.295 106.159 249.218 106.126 249.293 106.14C249.36 106.153 249.432 106.12 249.5 106.157C249.446 106.128 249.544 106.096 249.451 106.153C249.369 106.203 249.407 106.202 249.392 106.183C249.35 106.129 249.348 106.012 249.43 106.079C249.577 106.198 249.313 106.374 249.185 106.446C249.05 106.523 248.645 106.686 248.692 106.366C248.714 106.215 248.948 106.155 249.08 106.227C249.214 106.3 249.237 106.449 249.202 106.587C249.188 106.641 249.274 106.61 249.199 106.597C249.192 106.596 249.156 106.57 249.155 106.563C249.145 106.482 249.096 106.652 249.148 106.577C249.562 105.976 248.601 105.381 248.19 105.978L248.189 105.98Z" fill="black"/>
<path d="M256.619 108.147C264.67 109.51 272.703 110.835 280.827 111.679C283.823 111.991 286.821 112.283 289.818 112.577C290.436 112.638 290.462 111.672 289.847 111.612C281.725 110.816 273.629 109.992 265.573 108.677C262.681 108.205 259.793 107.714 256.904 107.225C256.299 107.122 256.009 108.045 256.619 108.147Z" fill="black"/>
<path d="M257.576 105.037C263.782 106.089 269.948 107.366 276.213 108.025C278.931 108.312 281.652 108.574 284.373 108.841C285.61 108.963 285.662 107.033 284.43 106.911C280.556 106.531 276.672 106.199 272.811 105.699C272.295 105.633 271.78 105.561 271.265 105.483C271.019 105.446 270.772 105.407 270.525 105.367C270.261 105.324 270.524 105.367 270.365 105.34C270.208 105.314 270.051 105.287 269.894 105.26C268.586 105.036 267.28 104.793 265.973 104.557C263.366 104.087 260.756 103.633 258.144 103.191C257.625 103.103 257.11 103.287 256.937 103.83C256.794 104.276 257.061 104.95 257.576 105.037Z" fill="black"/>
<path d="M256.222 111.408C260.343 112.179 264.493 112.782 268.662 113.221C269.28 113.286 269.306 112.322 268.691 112.257C264.607 111.827 260.543 111.241 256.507 110.485C255.902 110.372 255.613 111.294 256.222 111.408Z" fill="black"/>
<path d="M272.568 113.984C276.689 114.755 280.839 115.358 285.008 115.798C285.626 115.863 285.652 114.898 285.037 114.833C280.953 114.403 276.889 113.817 272.852 113.061C272.247 112.949 271.959 113.87 272.568 113.984Z" fill="black"/>
<path d="M312.73 34.2864C311.449 40.5966 310.434 46.9597 309.693 53.3558C309.679 53.4776 309.788 53.6453 309.914 53.6663C315.745 54.6506 321.617 55.3594 327.516 55.7826C327.92 55.8116 327.938 55.1817 327.535 55.1527C321.694 54.7334 315.875 54.0386 310.1 53.0633C310.174 53.1671 310.248 53.2699 310.323 53.3738C311.058 47.0326 312.063 40.7264 313.332 34.4711C313.412 34.0767 312.811 33.8881 312.73 34.2854V34.2864Z" fill="black"/>
<path d="M196.967 46.9066H279.653C280.463 46.9066 281.12 47.5634 281.12 48.3734V121.257C281.12 126.746 284.347 131.703 289.326 133.936L289.813 134.143L294.106 135.877C298.52 137.66 301.409 141.943 301.409 146.702V176.711C301.409 177.521 300.752 178.177 299.942 178.177H196.967C196.157 178.177 195.5 177.521 195.5 176.711V48.3734C195.5 47.5634 196.157 46.9066 196.967 46.9066Z" fill="white" stroke="black"/>
<rect x="208.867" y="75.2038" width="45.8701" height="4.26699" fill="#FF0420"/>
<rect x="208.867" y="88.0048" width="34.1359" height="4.26699" fill="#FF0420"/>
<rect x="208.867" y="100.806" width="34.1359" height="4.26699" fill="#FF0420"/>
</svg>
