<svg width="545" height="202" viewBox="0 0 545 202" fill="none" xmlns="http://www.w3.org/2000/svg">
<rect x="6" width="533" height="202" fill="#101010"/>
<path d="M245.203 27.9471L149.74 83.8733C143.143 87.7376 143.147 97.2736 149.745 101.133L286.348 181.037C289.476 182.867 293.348 182.861 296.47 181.023L392.254 124.639C398.848 120.757 398.818 111.211 392.2 107.372L255.276 27.926C252.16 26.1178 248.312 26.1258 245.203 27.9471Z" fill="#101010" stroke="white"/>
<path d="M241.907 140.5C242.24 140.5 242.547 140.576 242.758 140.699V140.7L270.042 156.64V156.645L270.289 156.789C270.392 156.85 270.448 156.908 270.475 156.946C270.5 156.982 270.5 157.002 270.5 157.006C270.5 157.01 270.499 157.028 270.476 157.062C270.45 157.1 270.396 157.156 270.295 157.215L270.293 157.216L242.94 173.301C242.73 173.424 242.424 173.5 242.093 173.5C241.761 173.5 241.455 173.424 241.244 173.301V173.3L213.712 157.215C213.609 157.154 213.554 157.098 213.526 157.059C213.501 157.022 213.5 157.001 213.5 156.997C213.5 156.993 213.501 156.974 213.524 156.939C213.551 156.902 213.605 156.845 213.708 156.784H213.709L241.061 140.699L241.062 140.698C241.269 140.576 241.574 140.5 241.907 140.5Z" fill="white" stroke="black"/>
<path d="M168.169 25.5C168.612 25.5 169.03 25.5986 169.327 25.7695V25.7705L238.159 65.5137C238.177 65.528 238.197 65.5411 238.217 65.5527H238.218C238.516 65.7254 238.552 65.8808 238.552 65.9326C238.552 65.9842 238.517 66.1392 238.22 66.3115L191.032 93.7305C190.739 93.9006 190.323 93.9999 189.881 94C189.438 94 189.022 93.9007 188.729 93.7305L188.728 93.7295L119.84 53.9541C119.541 53.7818 119.501 53.6243 119.5 53.5684C119.5 53.5149 119.534 53.3596 119.828 53.1885L167.016 25.7695C167.309 25.5992 167.725 25.5 168.169 25.5ZM237.97 65.1846C237.967 65.1619 237.965 65.1385 237.965 65.1152C237.965 65.1386 237.967 65.162 237.97 65.1846Z" fill="#FF0420" stroke="black"/>
<path d="M327.939 54.25C328.344 54.25 328.729 54.3289 329.027 54.4688L329.149 54.5322L400.463 95.6348C400.481 95.649 400.5 95.6632 400.521 95.6748C400.833 95.8556 400.875 96.0209 400.875 96.082C400.875 96.1436 400.833 96.3075 400.522 96.4873L351.636 124.844C351.328 125.022 350.894 125.125 350.433 125.125C349.972 125.125 349.538 125.022 349.23 124.844L349.229 124.843L277.86 83.709V83.708L277.755 83.6416C277.535 83.4874 277.5 83.351 277.5 83.2939C277.5 83.2306 277.541 83.0664 277.849 82.8877L326.736 54.5312L326.735 54.5303C327.043 54.3522 327.477 54.25 327.939 54.25Z" fill="#E0E0E0" stroke="black"/>
<path d="M194.724 60.6274C195.425 61.0243 195.425 61.6671 194.729 62.0688L186.85 66.5773C186.154 66.9742 185.022 66.9742 184.326 66.5773L182.652 65.6226C181.951 65.2257 181.951 64.5782 182.642 64.1812L190.521 59.6727C191.216 59.2758 192.349 59.2758 193.049 59.6727L194.724 60.6274Z" fill="white"/>
<path d="M190.363 52.5398C191.042 52.9486 191.047 53.6154 190.372 54.0243L177.962 61.5684C177.287 61.9772 176.189 61.9772 175.51 61.5684L173.886 60.5852C173.206 60.1764 173.206 59.5096 173.876 59.1007L186.286 51.5566C186.961 51.1478 188.059 51.1478 188.739 51.5566L190.363 52.5398Z" fill="white"/>
<path d="M174.114 51.9564C174.795 52.3784 174.795 53.0667 174.119 53.4887L169.215 56.5585C168.539 56.9805 167.439 56.9805 166.763 56.5585L165.137 55.5436C164.456 55.1216 164.456 54.4333 165.127 54.0113L170.031 50.9415C170.707 50.5195 171.807 50.5195 172.487 50.9415L174.114 51.9564Z" fill="white"/>
<path d="M162.842 48.7925C163.549 49.2022 163.554 49.8704 162.851 50.2801L160.648 51.5677C159.946 51.9774 158.803 51.9774 158.096 51.5677L156.406 50.5825C155.699 50.1728 155.699 49.5046 156.397 49.0949L158.6 47.8073C159.302 47.3976 160.445 47.3976 161.152 47.8073L162.842 48.7925Z" fill="white"/>
<path d="M199.099 68.1226C199.796 68.5181 199.801 69.1631 199.109 69.5586L195.581 71.5784C194.889 71.9739 193.762 71.9739 193.065 71.5784L191.399 70.6274C190.702 70.2319 190.702 69.5869 191.389 69.1914L194.917 67.1716C195.61 66.7761 196.736 66.7761 197.428 67.1716L199.094 68.1226H199.099Z" fill="white"/>
</svg>
