<svg width="48" height="49" viewBox="0 0 48 49" fill="none" xmlns="http://www.w3.org/2000/svg">
<rect y="0.5" width="48" height="48" rx="10" fill="#F0F0F0"/>
<path d="M34.9841 28.6298C35.4513 27.3409 35.7061 25.9502 35.7061 24.5C35.7061 23.3968 35.5586 22.328 35.2824 21.3122L35.2644 21.317C35.2557 21.2843 35.2535 21.2501 35.258 21.2166C35.2625 21.183 35.2735 21.1507 35.2905 21.1214C35.3075 21.0921 35.3301 21.0665 35.357 21.0459C35.3839 21.0253 35.4146 21.0103 35.4473 21.0016L37.1914 20.5379C37.2491 20.5226 37.3102 20.5277 37.3644 20.5524C37.4187 20.5771 37.4627 20.6198 37.4891 20.6733L37.512 20.667C37.8473 21.8876 38.0264 23.1729 38.0264 24.5C38.0264 26.3094 37.6935 28.041 37.0857 29.637C37.5751 30.1796 37.873 30.8983 37.873 31.6865C37.873 33.3774 36.5023 34.748 34.8114 34.748C34.5012 34.7483 34.1927 34.7015 33.8966 34.609C31.2765 37.2803 27.6262 38.9375 23.5889 38.9375C15.6152 38.9375 9.15137 32.4736 9.15137 24.5C9.15137 22.727 9.47099 21.0286 10.0557 19.4593C9.50144 18.9002 9.1591 18.1307 9.1591 17.2812C9.1591 15.5726 10.5442 14.1875 12.2529 14.1875C12.6211 14.1875 12.9743 14.2518 13.3019 14.3699C15.9205 11.711 19.5622 10.0625 23.5889 10.0625C25.0714 10.0625 26.5017 10.286 27.8481 10.701C28.3655 10.3007 29.0148 10.0625 29.7196 10.0625C31.4105 10.0625 32.7812 11.4332 32.7812 13.124C32.7812 14.8149 31.4105 16.1855 29.7196 16.1855C28.0288 16.1855 26.6581 14.8149 26.6581 13.124C26.6581 13.0077 26.6646 12.8929 26.6772 12.7799C25.6913 12.5208 24.6562 12.3828 23.5889 12.3828C20.2486 12.3828 17.2239 13.7344 15.0321 15.9205C15.2335 16.3312 15.3466 16.793 15.3466 17.2812C15.3466 18.9899 13.9615 20.375 12.2529 20.375C12.2325 20.375 12.2123 20.3748 12.1921 20.3744C11.7259 21.6621 11.4717 23.0514 11.4717 24.5C11.4717 31.1921 16.8967 36.6172 23.5889 36.6172C26.9087 36.6172 29.9167 35.2821 32.1053 33.1195C31.8784 32.692 31.7499 32.2043 31.7499 31.6865C31.7499 29.9957 33.1206 28.625 34.8114 28.625C34.8694 28.625 34.9269 28.6266 34.9841 28.6298Z" fill="#A4A4A4"/>
<path d="M23.4517 30.7842C26.8956 30.7842 29.6875 27.9923 29.6875 24.5483C29.6875 21.1044 26.8956 18.3125 23.4517 18.3125C20.0077 18.3125 17.2158 21.1044 17.2158 24.5483C17.2158 27.9923 20.0077 30.7842 23.4517 30.7842Z" fill="#FF0420"/>
</svg>
