<svg width="48" height="49" viewBox="0 0 48 49" fill="none" xmlns="http://www.w3.org/2000/svg">
<rect y="0.5" width="48" height="48" rx="10" fill="#F0F0F0"/>
<g clip-path="url(#clip0_6560_863)">
<path d="M21.6734 15.1844C20.7246 15.7422 19.8332 16.382 19.002 17.093C18.8133 17.0328 18.6137 17 18.4059 17C17.3176 17 16.4371 17.8805 16.4371 18.9688C16.4371 19.2012 16.4781 19.4254 16.552 19.6305C15.1902 21.3367 14.1238 23.2863 13.4266 25.4055C13.1668 25.1785 12.9152 24.9434 12.6746 24.7C11.9992 24.0246 11.3813 23.2809 10.8426 22.4934C10.8207 22.4633 10.7988 22.4305 10.777 22.4004C10.3012 21.6949 9.88281 20.9512 9.52734 20.1773C11.0449 14.818 15.677 10.7629 21.3453 10.0957C21.2824 10.6371 21.2496 11.1895 21.2496 11.75V11.873C21.2605 13.016 21.4055 14.1234 21.6734 15.1844ZM36.9805 24.7219C36.9641 25.0336 36.9395 25.3453 36.9012 25.6516C36.0836 32.6051 30.1719 38 22.9996 38C19.9152 38 17.0633 37.002 14.75 35.3121C14.6105 34.7516 14.4984 34.1801 14.4164 33.6059C14.7172 33.5922 15.018 33.5703 15.3133 33.5402C17.3832 33.3352 19.3438 32.7664 21.1348 31.8969C21.4684 32.1566 21.8867 32.3125 22.3434 32.3125C23.2047 32.3125 23.9348 31.7602 24.2027 30.9918C28.2934 30.8633 32.0258 29.3156 34.9242 26.8219C35.3289 26.4746 35.7145 26.1082 36.0863 25.7254C36.3953 25.4027 36.6961 25.0691 36.9805 24.7219Z" fill="#A4A4A4"/>
<path d="M33.5957 25.6543C33.1937 25.9906 32.7727 26.3051 32.3379 26.6004C31.5066 27.1609 30.6207 27.6422 29.6992 28.0332C28.25 28.6457 26.7297 29.0312 25.1656 29.1816C26.7078 27.7898 27.9984 26.1246 28.9582 24.2625C30.3828 24.9789 31.9441 25.4602 33.5957 25.6543ZM12.5109 31.8395C12.5273 32.3672 12.5684 32.8895 12.6285 33.4035C12.15 32.8758 11.7098 32.3098 11.3133 31.7109C9.85039 29.4988 9 26.8492 9 24C9 23.6445 9.01367 23.2918 9.03828 22.9418C9.56328 23.773 10.1594 24.5578 10.8156 25.2852C11.4609 26.0016 12.1664 26.6633 12.9211 27.2621C12.7051 28.2629 12.5684 29.2937 12.5191 30.3492C12.5055 30.6363 12.5 30.9289 12.5 31.2187C12.5 31.4266 12.5027 31.6316 12.5109 31.8395ZM19.8254 30.5734L19.6367 30.6555C17.9277 31.3801 16.1203 31.7848 14.2609 31.8613C14.2527 31.648 14.25 31.4348 14.25 31.2187C14.25 30.2562 14.3293 29.3047 14.4879 28.3695C16.1066 29.3867 17.9059 30.1387 19.8254 30.5734ZM31.1621 12.625H31.0937C30.8859 12.625 30.6809 12.6277 30.4758 12.6359C29.8797 12.6551 29.2945 12.7016 28.7148 12.7754C28.5125 12.8 28.3102 12.8301 28.1105 12.8629C26.4098 13.1363 24.7883 13.6422 23.2734 14.3449C23.0902 13.5 23 12.6305 23 11.75C23 11.1594 23.041 10.577 23.123 10C24.9086 10.0164 26.6121 10.3637 28.1762 10.9871C28.9336 11.2879 29.6582 11.6543 30.3445 12.0781C30.6234 12.2504 30.8969 12.4336 31.1621 12.625ZM36.8469 21.9219C36.7457 22.0832 36.6418 22.2445 36.5352 22.4004C36.1578 22.9582 35.7449 23.4941 35.2965 24H35.25C33.5957 24 31.9906 23.6773 30.4812 23.0375C30.2078 22.9227 29.9426 22.7969 29.6801 22.6656C30.0273 21.7852 30.3035 20.8691 30.5004 19.9258C31.2305 19.6387 31.7473 18.925 31.7473 18.0937C31.7473 17.4102 31.4 16.8086 30.8723 16.4559V16.3437C30.8723 15.734 30.8395 15.1324 30.7793 14.5391C30.7738 14.4871 30.7684 14.4324 30.7629 14.3805C30.8723 14.3777 30.9816 14.3777 31.091 14.3777C31.8348 14.3777 32.5703 14.4242 33.2977 14.5199C35.1543 16.5297 36.4258 19.0863 36.8469 21.9219ZM28.7477 19.7699C28.5973 20.4398 28.4004 21.0988 28.1625 21.7441C27.6047 21.3477 27.0797 20.902 26.5902 20.4125C25.4637 19.2859 24.5805 17.9762 23.9652 16.5187C23.8996 16.3629 23.8367 16.2043 23.7766 16.0457C24.0281 15.9227 24.2824 15.8078 24.5422 15.6984C25.9805 15.0914 27.4789 14.6895 29.0211 14.5008C29.0895 15.075 29.125 15.652 29.1277 16.2371C28.3648 16.5078 27.8152 17.2352 27.8152 18.0937C27.8125 18.802 28.1871 19.4227 28.7477 19.7699ZM27.4461 23.3738C27.1562 23.9426 26.8309 24.4949 26.4727 25.0254C25.9176 25.8484 25.2777 26.6223 24.575 27.325C24.1375 27.7625 23.6699 28.1781 23.1805 28.5609C22.9262 28.4406 22.6418 28.375 22.341 28.375C21.7695 28.375 21.2555 28.6184 20.8973 29.0066C19.7707 28.8043 18.6715 28.4789 17.6105 28.0305C16.6918 27.6422 15.8031 27.1582 14.9719 26.5977C14.95 26.5812 14.9254 26.5648 14.9035 26.5512C15.0867 25.9113 15.3109 25.2824 15.5734 24.6645C15.9945 23.6664 16.5168 22.7039 17.1266 21.8043C17.3453 21.4789 17.5777 21.1617 17.8211 20.85C18.007 20.9074 18.2039 20.9402 18.4062 20.9402C19.4945 20.9402 20.375 20.0598 20.375 18.9715C20.375 18.7445 20.3367 18.523 20.2656 18.3207C20.7168 17.9406 21.1898 17.5824 21.6793 17.2543C21.8598 17.1312 22.043 17.0137 22.2289 16.8988C23.2734 19.5484 25.1109 21.8043 27.4461 23.3738Z" fill="#A4A4A4"/>
<circle cx="18" cy="19" r="3" fill="#FF0420"/>
</g>
<defs>
<clipPath id="clip0_6560_863">
<rect width="28" height="28" fill="white" transform="translate(9 10)"/>
</clipPath>
</defs>
</svg>
