<svg width="48" height="48" viewBox="0 0 48 48" fill="none" xmlns="http://www.w3.org/2000/svg">
<rect width="48" height="48" rx="10" fill="#1D1D1D"/>
<path d="M35.5472 13.0512C35.2716 13.0603 35.0015 13.0637 34.7379 13.0637C27.7854 13.0637 24.7221 10.1194 24.6957 10.0924L24.0022 9.39136L23.3059 10.0924C23.2774 10.1228 20.2756 13.0637 13.2646 13.0637C13.0002 13.0637 12.7319 13.0603 12.4535 13.0512L11.4785 13.0205V26.3701C11.4785 29.8656 12.7411 34.9656 23.6595 38.8656L24.0002 38.9882L24.3408 38.8656C35.2592 34.9654 36.522 29.8656 36.522 26.3701V13.0205L35.5472 13.0512Z" fill="#A4A4A4"/>
<path d="M23.4901 28.743L17.1699 23.2119L18.8479 21.8697L22.2087 24.3171C22.2087 24.3171 26.8481 19.5753 31.3292 17.3596L31.9683 18.0727C31.9683 18.0727 26.3688 22.6574 23.4901 28.743Z" fill="#FF0420"/>
</svg>
