<svg width="48" height="48" viewBox="0 0 48 48" fill="none" xmlns="http://www.w3.org/2000/svg">
<rect width="48" height="48" rx="10" fill="#1D1D1D"/>
<path d="M39.3664 32.8027C39.4379 33.0859 39.5093 33.44 39.5808 33.7941C39.6523 34.1482 39.6523 34.5731 39.6523 34.998C39.6523 35.4229 39.6523 35.777 39.5808 36.131C39.5093 36.4851 39.4379 36.7684 39.295 36.91C39.2235 37.0516 39.0091 37.1225 38.5804 37.2641C38.2231 37.4057 37.7229 37.4765 37.1512 37.5474C36.5795 37.6182 35.9364 37.7598 35.2218 37.8306C34.5072 37.9014 33.8641 37.9723 33.1495 38.0431C32.4349 38.1139 31.7917 38.1139 31.0771 38.1847C30.434 38.1847 29.8623 38.2555 29.3621 38.2555C28.8619 38.2555 28.2902 38.2555 27.6471 38.1847C27.004 38.1139 26.3608 38.1139 25.6462 38.0431C24.9316 37.9723 24.2885 37.9014 23.5739 37.8306C22.9308 37.7598 22.2877 37.689 21.716 37.6182C21.1443 37.5474 20.6441 37.4765 20.2868 37.3349C19.9295 37.2641 19.6437 37.1933 19.5722 37.0516C19.4293 36.91 19.2864 36.4851 19.2149 35.7769C19.1434 35.0688 19.1434 34.219 19.2864 33.0859C19.3578 32.4486 19.6437 31.9529 20.0724 31.6696C20.5012 31.3863 20.9299 31.1031 21.5016 30.8906C22.0733 30.6782 22.645 30.5365 23.2166 30.3949C23.7883 30.2533 24.36 30.0408 24.7887 29.7576C25.146 29.5451 25.4319 29.3327 25.5748 29.1202C25.7892 28.9078 25.8606 28.6953 26.0035 28.5537C26.075 28.3412 26.1465 28.1288 26.1465 27.9163V27.2082C26.075 26.8541 26.0035 26.5 25.7177 26.2876C25.5033 26.0751 25.2175 25.8627 24.9316 25.6502C24.7887 25.5086 24.6458 25.3669 24.5743 25.1545C24.5029 24.9421 24.36 24.7296 24.2885 24.5172C24.2171 24.3047 24.1456 24.0214 24.0741 23.7382C23.9312 23.6674 23.8598 23.6674 23.7168 23.5965C23.6454 23.5257 23.5025 23.3841 23.431 23.2425C23.2881 23.1008 23.2166 22.8884 23.1452 22.6051C23.0737 22.3218 23.0022 22.0386 23.0022 21.8261C23.0022 21.6137 23.0737 21.4012 23.1452 21.1888C23.2166 20.9763 23.3595 20.8347 23.431 20.6931C23.431 20.0557 23.431 19.4184 23.5025 18.781C23.5739 18.2145 23.7168 17.648 23.8598 17.0814C24.0027 16.5149 24.2885 15.9484 24.6458 15.3818C24.9316 14.8861 25.2889 14.532 25.7177 14.2488C26.075 13.9655 26.5037 13.7531 26.9325 13.5406C27.3613 13.399 27.79 13.2574 28.1473 13.1865C28.5761 13.1157 28.9334 13.1157 29.3621 13.1157C30.3625 13.1157 31.2915 13.3282 32.0776 13.7531C32.8636 14.178 33.4353 14.6029 33.8641 15.0986C34.2928 15.6651 34.6501 16.2316 34.8645 16.869C35.0789 17.5063 35.2218 18.1437 35.2932 18.7102C35.3647 19.3476 35.4362 20.0557 35.4362 20.6931L35.722 20.9763C35.7935 21.118 35.8649 21.2596 35.8649 21.4012C35.8649 21.5429 35.9364 21.8261 35.8649 22.1094C35.7935 22.4635 35.722 22.7467 35.6505 22.9592C35.5076 23.1716 35.4362 23.3133 35.2932 23.4549C35.1503 23.5965 35.0074 23.6674 34.793 23.7382C34.7216 24.0214 34.6501 24.3047 34.5786 24.5172C34.5072 24.7296 34.4357 24.9421 34.2928 25.1545C34.1499 25.3669 34.0784 25.5086 33.9355 25.6502C33.7926 25.7918 33.6497 25.9335 33.5068 26.0043C33.3638 26.0751 33.2924 26.2167 33.1495 26.2876C33.078 26.3584 32.9351 26.5 32.9351 26.6416C32.8636 26.7833 32.7922 26.9249 32.7922 27.1374C32.7922 27.4206 32.7207 27.6331 32.7207 27.9163C32.7207 28.1996 32.7922 28.4121 32.9351 28.6953C33.078 28.9786 33.2209 29.191 33.5068 29.4035C33.7926 29.6159 34.1499 29.8284 34.6501 30.0408C35.0789 30.1825 35.5076 30.3949 36.0078 30.4657C36.508 30.6074 37.0083 30.749 37.437 30.8906C37.9372 31.0323 38.2945 31.3155 38.6518 31.5988C38.9377 32.0237 39.152 32.3778 39.3664 32.8027Z" fill="#A4A4A4"/>
<path d="M23.2091 27.9671C23.1388 28.1774 23.1388 28.3176 23.0685 28.4578C22.9983 28.598 22.8577 28.6681 22.647 28.8083C22.1551 29.0887 21.593 29.3691 21.0309 29.5794L19.3447 30.2103C18.7826 30.4205 18.361 30.771 17.9394 31.1215C17.5179 31.472 17.3071 32.0328 17.1665 32.7338C17.1665 32.944 17.0963 33.1543 17.0963 33.3646C17.0963 33.5749 17.0963 33.7852 17.026 33.9254L16.9558 33.9955C16.9558 33.9955 16.9558 34.0656 16.8855 34.0656L14.5669 33.8553C13.794 33.7852 13.0914 33.7151 12.3887 33.5749C11.7564 33.5048 11.1943 33.3646 10.7025 33.2945C10.2809 33.2244 9.99985 33.0842 9.85932 33.0141C9.7188 32.874 9.57828 32.4534 9.43775 31.7524C9.36749 31.0514 9.36749 30.2103 9.50802 29.0887C9.57828 28.4578 9.85932 28.0372 10.2809 27.6868C10.7025 27.4064 11.124 27.126 11.6861 26.9157C12.2482 26.7054 12.8103 26.5652 13.3724 26.425C13.9345 26.2848 14.4966 26.0745 14.9182 25.7941C15.2695 25.5838 15.5505 25.3735 15.7613 25.1632C15.9721 24.953 16.0424 24.7427 16.1829 24.5324C16.2531 24.3221 16.3234 24.1118 16.3234 23.9015V23.2005C16.3234 22.7799 16.1829 22.4996 15.9018 22.2893C15.691 22.079 15.41 21.8687 15.129 21.5883C14.9884 21.5182 14.8479 21.3079 14.7074 21.0976C14.6371 20.8873 14.4966 20.677 14.4263 20.4667C14.4966 20.4667 14.4263 20.1863 14.3561 19.906C14.2156 19.8359 14.1453 19.8359 14.0048 19.7658C13.9345 19.6957 13.794 19.5555 13.7237 19.4153C13.6535 19.2751 13.5129 19.0648 13.4427 18.7844C13.3724 18.504 13.3021 18.2236 13.3021 18.0133C13.3021 17.803 13.3724 17.5927 13.4427 17.3824C13.5129 17.1722 13.6535 16.9619 13.7237 16.8918C13.7237 16.2609 13.7237 15.63 13.794 14.9991C13.8642 14.4384 14.0048 13.8776 14.1453 13.3168C14.2858 12.6859 14.5669 12.1952 14.9182 11.7046C15.2695 11.1438 15.6208 10.7933 16.0424 10.5129C16.3937 10.2325 16.8152 10.0222 17.2368 9.81194C17.6584 9.67175 18.0097 9.53155 18.4313 9.46145C18.8528 9.39136 19.2744 9.39136 19.6257 9.39136C20.6094 9.39136 21.4525 9.60165 22.2254 10.0222C22.9983 10.4428 23.5604 10.8634 23.9819 11.3541C24.263 11.6345 24.4738 11.9149 24.4738 12.1952C24.544 12.4756 24.6143 12.8261 24.7548 13.1766C24.4035 13.3869 23.9819 13.7374 23.5604 14.158C23.1388 14.5786 22.7875 14.9991 22.4362 15.4197C22.0849 15.9805 21.7336 16.5413 21.5228 17.2423C21.312 17.8731 21.1715 18.504 21.1012 19.0648C21.0309 19.7658 20.9607 20.3966 20.9607 21.0976C20.8202 21.2378 20.6796 21.4481 20.6094 21.6584C20.5391 21.8687 20.4688 22.079 20.4688 22.3594C20.4688 22.6397 20.4688 22.9201 20.6094 23.2005C20.6796 23.551 20.8202 23.7613 20.8904 23.9716C21.0309 24.1118 21.1012 24.252 21.2417 24.3922C21.3822 24.5324 21.4525 24.6025 21.593 24.6025C21.6633 24.8829 21.7336 25.2333 21.8038 25.5137C21.8741 25.724 21.9443 26.0044 22.0849 26.2147C22.2254 26.425 22.2957 26.6353 22.5064 26.7755L22.7875 27.0559L22.9983 27.2662C23.0685 27.3363 23.0685 27.4064 23.0685 27.5466C23.1388 27.6167 23.1388 27.7568 23.2091 27.9671Z" fill="#FF0420"/>
</svg>
