<svg width="48" height="48" viewBox="0 0 48 48" fill="none" xmlns="http://www.w3.org/2000/svg">
<rect width="48" height="48" rx="10" fill="#1D1D1D"/>
<g clip-path="url(#clip0_6654_4312)">
<path d="M24 7C33.4067 7 41 14.5933 41 24C41 33.4067 33.4067 41 24 41C14.5933 41 7 33.4067 7 24C7 14.5933 14.5933 7 24 7Z" fill="#A4A4A4"/>
<path d="M23.9999 14.0266C26.7765 14.0266 29.0432 16.2933 29.0432 19.0699C29.0432 20.4866 28.4765 21.7333 27.5132 22.6399C27.1732 22.9233 26.9465 23.3766 26.9465 23.8299C26.9465 24.6799 27.6265 25.4166 28.4765 25.4166H30.7999C31.5365 25.4166 32.1599 26.0399 32.1599 26.7766V30.8566C32.1599 31.6499 31.5365 32.2733 30.7432 32.2733H17.1999C16.4065 32.2733 15.7832 31.6499 15.7832 30.8566V26.7766C15.7832 26.0399 16.4065 25.4166 17.1432 25.4166H19.5232C20.2032 25.3599 20.7699 24.9633 20.9399 24.3399C21.1665 23.7166 20.9399 23.0366 20.4865 22.6399L20.3732 22.5266C19.4665 21.5633 18.9565 20.3166 18.9565 19.0133C18.9565 16.2933 21.2232 14.0266 23.9999 14.0266ZM28.8165 28.1933H19.1832C18.7865 28.1933 18.5032 28.4766 18.5032 28.8733C18.5032 29.2699 18.7865 29.5533 19.1832 29.5533H28.7599C29.1565 29.5533 29.4399 29.2699 29.4399 28.8733C29.4399 28.4766 29.1565 28.1933 28.8165 28.1933Z" fill="#FF0420"/>
</g>
<defs>
<clipPath id="clip0_6654_4312">
<rect width="34" height="34" fill="white" transform="translate(7 7)"/>
</clipPath>
</defs>
</svg>
