<svg width="28" height="28" viewBox="0 0 28 28" fill="none" xmlns="http://www.w3.org/2000/svg">
<path d="M20.067 19.1832C20.1251 19.2412 20.1712 19.3102 20.2026 19.386C20.234 19.4619 20.2502 19.5432 20.2502 19.6253C20.2502 19.7075 20.234 19.7888 20.2026 19.8647C20.1712 19.9405 20.1251 20.0095 20.067 20.0675C20.009 20.1256 19.94 20.1717 19.8642 20.2031C19.7883 20.2345 19.707 20.2507 19.6249 20.2507C19.5427 20.2507 19.4614 20.2345 19.3855 20.2031C19.3097 20.1717 19.2407 20.1256 19.1827 20.0675L13.9999 14.8839L8.81705 20.0675C8.69977 20.1848 8.54071 20.2507 8.37486 20.2507C8.20901 20.2507 8.04995 20.1848 7.93267 20.0675C7.8154 19.9503 7.74951 19.7912 7.74951 19.6253C7.74951 19.4595 7.8154 19.3004 7.93267 19.1832L13.1163 14.0003L7.93267 8.81753C7.8154 8.70026 7.74951 8.5412 7.74951 8.37535C7.74951 8.20949 7.8154 8.05044 7.93267 7.93316C8.04995 7.81588 8.20901 7.75 8.37486 7.75C8.54071 7.75 8.69977 7.81588 8.81705 7.93316L13.9999 13.1168L19.1827 7.93316C19.2999 7.81588 19.459 7.75 19.6249 7.75C19.7907 7.75 19.9498 7.81588 20.067 7.93316C20.1843 8.05044 20.2502 8.20949 20.2502 8.37535C20.2502 8.5412 20.1843 8.70026 20.067 8.81753L14.8835 14.0003L20.067 19.1832Z" fill="#74777B"/>
</svg>
