<svg width="24" height="23" viewBox="0 0 24 23" fill="none" xmlns="http://www.w3.org/2000/svg">
    <g clip-path="url(#clip0_4097_25539)">
        <path
            d="M8.87394 7.1977C4.77168 7.1977 0.625 5.94631 0.625 3.6064C0.625 1.26649 4.7717 0.0224609 8.87394 0.0224609C12.9762 0.0224609 17.1229 1.25165 17.1229 3.60638C17.1229 5.96111 12.9762 7.1977 8.87394 7.1977ZM8.87394 1.45899C4.71245 1.45899 2.06153 2.73261 2.06153 3.61378C2.06153 4.49495 4.71985 5.76859 8.87394 5.76859C13.028 5.76859 15.6864 4.49497 15.6864 3.61378C15.6864 2.73259 13.0354 1.45899 8.87394 1.45899ZM8.87394 12.9364C4.77168 12.9364 0.625 11.6998 0.625 9.34509C0.665128 9.18498 0.757603 9.04287 0.887737 8.94132C1.01787 8.83978 1.1782 8.78463 1.34326 8.78463C1.50833 8.78463 1.66866 8.83978 1.79879 8.94132C1.92892 9.04287 2.0214 9.18498 2.06153 9.34509C2.06153 10.2263 4.71985 11.4999 8.87394 11.4999C9.83112 11.5029 10.787 11.4287 11.7322 11.2778C11.8952 11.2933 12.0485 11.3624 12.1681 11.4743C12.2877 11.5862 12.3668 11.7346 12.393 11.8963C12.4192 12.0579 12.3912 12.2237 12.3131 12.3677C12.2351 12.5117 12.1115 12.6258 11.9618 12.692C10.9407 12.8563 9.9081 12.938 8.87394 12.9364V12.9364ZM8.87394 18.6751C4.77168 18.6751 0.625 17.4385 0.625 15.0838C0.665128 14.9237 0.757603 14.7816 0.887737 14.6801C1.01787 14.5785 1.1782 14.5234 1.34326 14.5234C1.50833 14.5234 1.66866 14.5785 1.79879 14.6801C1.92892 14.7816 2.0214 14.9237 2.06153 15.0838C2.06153 15.965 4.71985 17.2386 8.87394 17.2386C9.83112 17.2417 10.787 17.1674 11.7322 17.0165C11.8953 17.0319 12.0486 17.1011 12.1682 17.213C12.2877 17.3249 12.3669 17.4733 12.3931 17.635C12.4193 17.7967 12.3912 17.9625 12.3132 18.1065C12.2351 18.2505 12.1115 18.3645 11.9618 18.4308C10.9408 18.5954 9.90812 18.6771 8.87394 18.6751ZM8.87394 22.9773C4.77168 22.9773 0.625 21.7481 0.625 19.3934C0.665128 19.2333 0.757603 19.0912 0.887737 18.9896C1.01787 18.8881 1.1782 18.8329 1.34326 18.8329C1.50833 18.8329 1.66866 18.8881 1.79879 18.9896C1.92892 19.0912 2.0214 19.2333 2.06153 19.3934C2.06153 20.2745 4.71985 21.5482 8.87394 21.5482C9.83112 21.5512 10.787 21.4769 11.7322 21.326C11.8952 21.3415 12.0486 21.4107 12.1681 21.5226C12.2877 21.6345 12.3668 21.7829 12.3931 21.9446C12.4193 22.1062 12.3912 22.272 12.3131 22.416C12.2351 22.56 12.1115 22.6741 11.9618 22.7404C10.9405 22.9021 9.90791 22.9814 8.87394 22.9773Z"
            fill="currentColor" />
        <path
            d="M16.4046 8.72311C16.3074 8.72311 16.2111 8.70396 16.1213 8.66674C16.0314 8.62953 15.9498 8.57498 15.881 8.50622C15.8123 8.43746 15.7577 8.35583 15.7205 8.26598C15.6833 8.17614 15.6641 8.07985 15.6641 7.98261V3.60636C15.7043 3.44625 15.7967 3.30414 15.9269 3.20259C16.057 3.10105 16.2173 3.0459 16.3824 3.0459C16.5475 3.0459 16.7078 3.10105 16.8379 3.20259C16.9681 3.30414 17.0605 3.44625 17.1007 3.60636V7.9974C17.0973 8.18377 17.0237 8.362 16.8947 8.49652C16.7657 8.63104 16.5907 8.71196 16.4046 8.72311ZM1.36548 20.1116C1.16909 20.1116 0.980748 20.0336 0.841881 19.8948C0.703015 19.7559 0.625 19.5676 0.625 19.3712L0.625 3.60638C0.665128 3.44627 0.757603 3.30416 0.887737 3.20262C1.01787 3.10107 1.1782 3.04592 1.34326 3.04592C1.50833 3.04592 1.66866 3.10107 1.79879 3.20262C1.92892 3.30416 2.0214 3.44627 2.06153 3.60638V19.3934C2.0563 19.5784 1.98194 19.7548 1.8531 19.8878C1.72426 20.0207 1.55029 20.1006 1.36548 20.1116ZM18.5594 13.9583C16.138 13.9583 13.539 13.2178 13.539 11.6036C13.539 9.98931 16.1455 9.24886 18.5594 9.24886C20.9734 9.24886 23.5798 9.98933 23.5798 11.6036C23.5798 13.2178 20.9734 13.9583 18.5594 13.9583ZM18.5594 10.678C16.2935 10.678 15.057 11.3592 14.9681 11.6184C15.057 11.8405 16.2935 12.5218 18.5594 12.5218C20.8253 12.5218 22.0027 11.8701 22.1433 11.5962C22.0026 11.3296 20.7734 10.678 18.5594 10.678ZM18.5594 17.2386C16.138 17.2386 13.539 16.4982 13.539 14.8839C13.5791 14.7238 13.6716 14.5817 13.8017 14.4801C13.9318 14.3786 14.0922 14.3234 14.2572 14.3234C14.4223 14.3234 14.5826 14.3786 14.7128 14.4801C14.8429 14.5817 14.9354 14.7238 14.9755 14.8839C15.0644 15.1283 16.2935 15.8095 18.5594 15.8095C20.8253 15.8095 22.0619 15.1283 22.1507 14.8691C22.1507 14.7719 22.1699 14.6756 22.2071 14.5857C22.2443 14.4959 22.2988 14.4143 22.3676 14.3455C22.4364 14.2767 22.518 14.2222 22.6078 14.185C22.6977 14.1478 22.794 14.1286 22.8912 14.1286C22.9885 14.1286 23.0847 14.1478 23.1746 14.185C23.2644 14.2222 23.3461 14.2767 23.4148 14.3455C23.4836 14.4143 23.5381 14.4959 23.5753 14.5857C23.6125 14.6756 23.6317 14.7719 23.6317 14.8691C23.5798 16.4982 20.9734 17.2386 18.5594 17.2386H18.5594ZM18.5594 20.5189C16.138 20.5189 13.539 19.7785 13.539 18.1642C13.5791 18.0041 13.6716 17.862 13.8017 17.7605C13.9318 17.6589 14.0922 17.6038 14.2572 17.6038C14.4223 17.6038 14.5826 17.6589 14.7128 17.7605C14.8429 17.862 14.9354 18.0041 14.9755 18.1642C15.0644 18.4012 16.3009 19.0824 18.5594 19.0824C20.8179 19.0824 22.0619 18.4012 22.1507 18.142C22.1507 18.0448 22.1699 17.9485 22.2071 17.8587C22.2443 17.7688 22.2988 17.6872 22.3676 17.6184C22.4364 17.5497 22.518 17.4951 22.6078 17.4579C22.6977 17.4207 22.794 17.4015 22.8912 17.4015C23.0876 17.4015 23.2759 17.4796 23.4148 17.6184C23.5537 17.7573 23.6317 17.9456 23.6317 18.142C23.5798 19.7785 20.9734 20.5189 18.5594 20.5189H18.5594Z"
            fill="currentColor" />
        <path
            d="M18.5594 22.9772C16.138 22.9772 13.539 22.2367 13.539 20.6225C13.5791 20.4624 13.6716 20.3202 13.8017 20.2187C13.9318 20.1172 14.0922 20.062 14.2572 20.062C14.4223 20.062 14.5826 20.1172 14.7128 20.2187C14.8429 20.3202 14.9354 20.4624 14.9755 20.6225C15.0644 20.8668 16.2935 21.5481 18.5594 21.5481C20.8253 21.5481 22.0619 20.8668 22.1507 20.6077C22.1507 20.4113 22.2287 20.2229 22.3676 20.0841C22.5065 19.9452 22.6948 19.8672 22.8912 19.8672C23.0876 19.8672 23.2759 19.9452 23.4148 20.0841C23.5537 20.2229 23.6317 20.4113 23.6317 20.6077C23.5798 22.2367 20.9734 22.9772 18.5594 22.9772H18.5594Z"
            fill="currentColor" />
        <path
            d="M22.8394 21.3408C22.643 21.3408 22.4546 21.2627 22.3158 21.1239C22.1769 20.985 22.0989 20.7967 22.0989 20.6003V11.6034C22.139 11.4433 22.2315 11.3012 22.3616 11.1997C22.4918 11.0981 22.6521 11.043 22.8171 11.043C22.9822 11.043 23.1425 11.0981 23.2727 11.1997C23.4028 11.3012 23.4953 11.4433 23.5354 11.6034V20.6225C23.5302 20.8075 23.4558 20.9839 23.327 21.1169C23.1981 21.2498 23.0242 21.3297 22.8394 21.3408ZM14.2572 21.3408C14.0608 21.3408 13.8725 21.2627 13.7336 21.1239C13.5948 20.985 13.5168 20.7967 13.5168 20.6003V11.6034C13.5569 11.4433 13.6494 11.3012 13.7795 11.1997C13.9096 11.0981 14.07 11.043 14.235 11.043C14.4001 11.043 14.5604 11.0981 14.6905 11.1997C14.8207 11.3012 14.9132 11.4433 14.9533 11.6034V20.6225C14.9481 20.8075 14.8737 20.9839 14.7449 21.1169C14.616 21.2498 14.442 21.3297 14.2572 21.3408Z"
            fill="currentColor" />
    </g>
    <defs>
        <clipPath id="clip0_4097_25539">
            <rect width="23" height="23" fill="currentColor" transform="translate(0.625)" />
        </clipPath>
    </defs>
</svg>