<svg width="23" height="22" viewBox="0 0 23 22" fill="none" xmlns="http://www.w3.org/2000/svg">
<path d="M13.6558 7.61541H15.5173L11.625 11.3385L9.59423 9.13849C9.25577 8.80003 8.91731 8.80003 8.57885 9.13849L5.025 12.6923C4.68654 13.0308 4.68654 13.5385 5.025 13.7077C5.36346 14.0462 5.70192 14.0462 6.04039 13.7077L9.08654 10.6616L11.2865 12.8616C11.625 13.2 11.9635 13.2 12.3019 12.8616L16.5327 8.6308V10.4923C16.5327 10.8308 16.8712 11.1693 17.2096 11.1693C17.5481 11.1693 17.8865 10.8308 17.8865 10.4923V6.93849C17.8865 6.60003 17.5481 6.26157 17.2096 6.26157H13.6558C13.1481 6.09234 12.8096 6.4308 12.8096 6.76926C12.8096 7.27695 13.1481 7.61541 13.6558 7.61541Z" fill="white"/>
<path d="M11.625 1.20463C6.71731 1.20463 2.65577 5.26617 2.65577 10.3431C2.65577 15.42 6.71731 19.4816 11.625 19.4816C16.5327 19.4816 20.5942 15.42 20.5942 10.3431C20.5942 5.26617 16.5327 1.20463 11.625 1.20463ZM11.625 20.6662C6.04038 20.6662 1.47115 16.0969 1.47115 10.3431C1.47115 4.75848 6.04038 0.0200195 11.625 0.0200195C17.2096 0.0200195 21.7788 4.58925 21.7788 10.3431C21.7788 16.0969 17.2096 20.6662 11.625 20.6662Z" fill="white"/>
</svg>
