<svg width="24" height="24" viewBox="0 0 24 24" fill="none" xmlns="http://www.w3.org/2000/svg">
    <rect width="24" height="24" rx="4" fill="#F2F3F4" />
    <mask id="mask0_6019_4365" style="mask-type:luminance" maskUnits="userSpaceOnUse" x="3" y="4" width="17"
        height="17">
        <path d="M19.999 4H3.99902V20.1698H19.999V4Z" fill="white" />
    </mask>
    <g mask="url(#mask0_6019_4365)">
        <path
            d="M19.9989 12.0213C20.019 16.4714 16.4532 20.095 12.0354 20.1151C7.61691 20.1353 4.01908 16.544 3.99911 12.0939C3.9791 7.64381 7.54476 4.02022 11.9632 4.00008C16.3811 3.98055 19.9789 7.57116 19.9989 12.0213Z"
            fill="#070808" />
        <path
            d="M16.057 9.17428C15.4763 9.00519 14.8751 8.76472 14.2654 8.52235C14.2302 8.36852 14.095 8.17684 13.8211 7.94182C13.4228 7.59387 12.6749 7.60302 12.0288 7.75685C11.3154 7.58776 10.6106 7.52733 9.93416 7.69093C4.40288 9.22621 7.53884 12.97 5.50781 16.7346C5.79689 17.3518 8.98557 20.3169 13.4186 19.9877C13.4186 19.9877 11.8773 16.2573 15.3557 14.4662C18.1771 13.014 20.2154 10.3171 16.0564 9.1737L16.057 9.17428Z"
            fill="#F2F3F4" />
        <path
            d="M12.4119 10.0719C12.4119 10.9326 11.7191 11.6298 10.8651 11.6298C10.0111 11.6298 9.31836 10.9326 9.31836 10.0719C9.31836 9.21115 10.0111 8.51465 10.8651 8.51465C11.7191 8.51465 12.4119 9.21178 12.4119 10.0719Z"
            fill="white" />
        <path
            d="M17.9942 12.313C16.7414 13.2024 15.3153 13.8769 13.2939 13.8769C12.3478 13.8769 12.1557 12.8642 11.5302 13.3605C11.2071 13.6168 10.0689 14.1901 9.16517 14.1467C8.25358 14.1028 6.79831 13.5693 6.38921 11.6274C6.22739 13.5693 6.14495 15.0001 5.42065 16.6398C7.19863 19.2528 10.2986 20.5528 13.42 19.9874C13.0848 17.6293 15.131 15.32 16.2838 14.1382C16.7202 13.6907 17.5566 12.96 17.9942 12.313Z"
            fill="#F2F3F4" />
        <path
            d="M11.5168 11.332C12.0181 11.332 12.4245 10.7631 12.4245 10.0612C12.4245 9.35945 12.0181 8.79053 11.5168 8.79053C11.0155 8.79053 10.6091 9.35945 10.6091 10.0612C10.6091 10.7631 11.0155 11.332 11.5168 11.332Z"
            fill="#070808" />
        <path
            d="M11.8794 7.75396C12.3746 7.95189 14.183 8.55424 14.9655 8.79063C14.1666 7.46512 12.956 7.54161 11.8794 7.75396Z"
            fill="#F2F3F4" />
        <path d="M11.5162 10.0606L10.427 9.33447V10.7868L11.5162 10.0606Z" fill="white" />
    </g>
</svg>