<svg viewBox="0 0 20 20" fill="none" xmlns="http://www.w3.org/2000/svg">
<path d="M5.83366 5.83329V2.49996C5.83366 2.27895 5.92146 2.06698 6.07774 1.9107C6.23402 1.75442 6.44598 1.66663 6.66699 1.66663H17.5003C17.7213 1.66663 17.9333 1.75442 18.0896 1.9107C18.2459 2.06698 18.3337 2.27895 18.3337 2.49996V13.3333C18.3337 13.5543 18.2459 13.7663 18.0896 13.9225C17.9333 14.0788 17.7213 14.1666 17.5003 14.1666H14.167V17.4941C14.167 17.9575 13.7928 18.3333 13.3278 18.3333H2.50616C2.39593 18.3334 2.28676 18.3118 2.18489 18.2696C2.08303 18.2275 1.99048 18.1657 1.91253 18.0877C1.83459 18.0098 1.77278 17.9173 1.73065 17.8154C1.68851 17.7135 1.66688 17.6044 1.66699 17.4941L1.66949 6.67246C1.66949 6.20913 2.04366 5.83329 2.50866 5.83329H5.83366ZM7.50033 5.83329H13.3278C13.7912 5.83329 14.167 6.20746 14.167 6.67246V12.5H16.667V3.33329H7.50033V5.83329ZM3.33616 7.49996L3.33366 16.6666H12.5003V7.49996H3.33616Z" fill="currentColor"/>
</svg>
