<svg width="14" height="10" viewBox="0 0 14 10" fill="none" xmlns="http://www.w3.org/2000/svg">
    <path
        d="M11.8594 0.837487C10.9531 0.446245 9.98406 0.161893 8.97104 0C8.84658 0.207555 8.70124 0.486716 8.60105 0.708799C7.52412 0.559362 6.45709 0.559362 5.4 0.708799C5.29981 0.486716 5.15113 0.207555 5.02563 0C4.01147 0.161893 3.04136 0.447283 2.13511 0.839562C0.307209 3.38834 -0.188307 5.87383 0.0594513 8.324C1.27181 9.15942 2.44674 9.66687 3.60184 9.99896C3.88703 9.63679 4.1414 9.25179 4.36053 8.846C3.94319 8.69967 3.54348 8.51912 3.16578 8.30946C3.26599 8.241 3.36399 8.16937 3.45869 8.09571C5.76231 9.08987 8.26518 9.08987 10.5413 8.09571C10.637 8.16937 10.7351 8.241 10.8342 8.30946C10.4554 8.52012 10.0546 8.70071 9.63721 8.84704C9.85635 9.25179 10.1096 9.63783 10.3959 10C11.5521 9.66792 12.7281 9.16046 13.9405 8.324C14.2312 5.48362 13.4439 3.02096 11.8594 0.837487ZM4.67435 6.81716C3.98284 6.81716 3.41574 6.22146 3.41574 5.49608C3.41574 4.77066 3.97072 4.17395 4.67435 4.17395C5.37799 4.17395 5.94506 4.76962 5.93295 5.49608C5.93408 6.22146 5.37799 6.81716 4.67435 6.81716ZM9.32561 6.81716C8.63408 6.81716 8.06697 6.22146 8.06697 5.49608C8.06697 4.77066 8.62197 4.17395 9.32561 4.17395C10.0292 4.17395 10.5963 4.76962 10.5842 5.49608C10.5842 6.22146 10.0292 6.81716 9.32561 6.81716Z"
        fill="currentColor" />
</svg>