<svg viewBox="0 0 24 24" fill="none" xmlns="http://www.w3.org/2000/svg">
<rect width="24" height="24" rx="4" fill="white"/>
<path d="M16.8594 7.83749C15.9531 7.44625 14.9841 7.16189 13.971 7C13.8466 7.20756 13.7012 7.48672 13.601 7.7088C12.5241 7.55936 11.4571 7.55936 10.4 7.7088C10.2998 7.48672 10.1511 7.20756 10.0256 7C9.01147 7.16189 8.04136 7.44728 7.13511 7.83956C5.30721 10.3883 4.81169 12.8738 5.05945 15.324C6.27181 16.1594 7.44674 16.6669 8.60184 16.999C8.88703 16.6368 9.1414 16.2518 9.36053 15.846C8.94319 15.6997 8.54348 15.5191 8.16578 15.3095C8.26599 15.241 8.36399 15.1694 8.45869 15.0957C10.7623 16.0899 13.2652 16.0899 15.5413 15.0957C15.637 15.1694 15.7351 15.241 15.8342 15.3095C15.4554 15.5201 15.0546 15.7007 14.6372 15.847C14.8563 16.2518 15.1096 16.6378 15.3959 17C16.5521 16.6679 17.7281 16.1605 18.9405 15.324C19.2312 12.4836 18.4439 10.021 16.8594 7.83749ZM9.67435 13.8172C8.98284 13.8172 8.41574 13.2215 8.41574 12.4961C8.41574 11.7707 8.97072 11.174 9.67435 11.174C10.378 11.174 10.9451 11.7696 10.933 12.4961C10.9341 13.2215 10.378 13.8172 9.67435 13.8172ZM14.3256 13.8172C13.6341 13.8172 13.067 13.2215 13.067 12.4961C13.067 11.7707 13.622 11.174 14.3256 11.174C15.0292 11.174 15.5963 11.7696 15.5842 12.4961C15.5842 13.2215 15.0292 13.8172 14.3256 13.8172Z" fill="black"/>
</svg>
