<svg width="121" height="121" fill="none" xmlns="http://www.w3.org/2000/svg">
    <path
        d="M59.063 21.588a3.5 3.5 0 013.5 0l43.813 25.295a3.5 3.5 0 011.75 3.031v30.592c0 1.25-.667 2.405-1.75 3.03l-43.813 25.296a3.501 3.501 0 01-3.5 0L15.25 83.536a3.5 3.5 0 01-1.75-3.03V49.914l.008-.233a3.5 3.5 0 011.742-2.798l43.813-25.295z"
        stroke="currentColor" />
    <path
        d="M59.063 21.588a3.5 3.5 0 013.5 0l43.813 25.295a3.5 3.5 0 011.75 3.031v30.592c0 1.25-.667 2.405-1.75 3.03l-43.813 25.296a3.501 3.501 0 01-3.5 0L15.25 83.536a3.5 3.5 0 01-1.75-3.03V49.914l.008-.233a3.5 3.5 0 011.742-2.798l43.813-25.295z"
        stroke="currentColor" />
    <path d="M37.836 33.475l45.814 26.45a4 4 0 012 3.464V95.5" stroke="currentColor" />
    <path d="M37.836 33.475l45.814 26.45a4 4 0 012 3.464V95.5" stroke="currentColor" />
    <path d="M107.401 48.784L60.813 75.682 14.226 48.785" stroke="currentColor" />
    <path d="M107.401 48.784L60.813 75.682 14.226 48.785m47.059 26.897V109.5" stroke="currentColor" />
</svg>