<svg viewBox="0 0 24 24" fill="none" xmlns="http://www.w3.org/2000/svg">
<rect width="24" height="24" rx="4" fill="white"/>
<path fill-rule="evenodd" clip-rule="evenodd" d="M12 5.5C8.41005 5.5 5.5 8.4146 5.5 12.011C5.5 14.8873 7.36225 17.328 9.94535 18.1886C10.2703 18.2484 10.3886 18.0476 10.3886 17.8747C10.3886 17.7206 10.3835 17.3105 10.3802 16.7677C8.5719 17.161 8.19035 15.8948 8.19035 15.8948C7.89525 15.1421 7.46885 14.9419 7.46885 14.9419C6.87865 14.5389 7.5137 14.5467 7.5137 14.5467C8.16565 14.5922 8.50885 15.2175 8.50885 15.2175C9.08865 16.212 10.0305 15.9247 10.4003 15.7583C10.4601 15.3377 10.6279 15.0511 10.8137 14.8886C9.37075 14.7241 7.853 14.1651 7.853 11.6704C7.853 10.96 8.1065 10.3782 8.52185 9.92325C8.4549 9.7588 8.23195 9.09645 8.58555 8.20075C8.58555 8.20075 9.13155 8.02525 10.373 8.86765C10.9033 8.72303 11.4504 8.64937 12 8.6486C12.5525 8.6512 13.1082 8.72335 13.6276 8.86765C14.8685 8.02525 15.4131 8.2001 15.4131 8.2001C15.768 9.09645 15.5444 9.7588 15.4781 9.92325C15.8941 10.3782 16.1463 10.96 16.1463 11.6704C16.1463 14.1716 14.626 14.7222 13.1784 14.8834C13.4118 15.0842 13.6192 15.4814 13.6192 16.0891C13.6192 16.9588 13.6114 17.6615 13.6114 17.8747C13.6114 18.0489 13.7283 18.2517 14.0585 18.188C15.3529 17.7539 16.4781 16.9239 17.2751 15.8155C18.0721 14.7071 18.5006 13.3763 18.5 12.011C18.5 8.4146 15.5893 5.5 12 5.5Z" fill="black"/>
</svg>
