<svg width="14" height="14" viewBox="0 0 14 14" fill="none" xmlns="http://www.w3.org/2000/svg">
    <path fill-rule="evenodd" clip-rule="evenodd"
        d="M7 0.5C3.41005 0.5 0.5 3.4146 0.5 7.01105C0.5 9.8873 2.36225 12.328 4.94535 13.1886C5.27035 13.2484 5.38865 13.0476 5.38865 12.8747C5.38865 12.7206 5.38345 12.3105 5.3802 11.7677C3.5719 12.161 3.19035 10.8948 3.19035 10.8948C2.89525 10.1421 2.46885 9.9419 2.46885 9.9419C1.87865 9.5389 2.5137 9.5467 2.5137 9.5467C3.16565 9.5922 3.50885 10.2175 3.50885 10.2175C4.08865 11.212 5.0305 10.9247 5.40035 10.7583C5.46015 10.3377 5.62785 10.0511 5.81375 9.8886C4.37075 9.72415 2.853 9.16515 2.853 6.67045C2.853 5.96 3.1065 5.37825 3.52185 4.92325C3.4549 4.7588 3.23195 4.09645 3.58555 3.20075C3.58555 3.20075 4.13155 3.02525 5.37305 3.86765C5.9033 3.72303 6.45038 3.64937 7 3.6486C7.5525 3.6512 8.10825 3.72335 8.6276 3.86765C9.86845 3.02525 10.4131 3.2001 10.4131 3.2001C10.768 4.09645 10.5444 4.7588 10.4781 4.92325C10.8941 5.37825 11.1463 5.96 11.1463 6.67045C11.1463 9.17165 9.626 9.7222 8.17845 9.8834C8.4118 10.0842 8.61915 10.4814 8.61915 11.0891C8.61915 11.9588 8.61135 12.6615 8.61135 12.8747C8.61135 13.0489 8.72835 13.2517 9.05855 13.188C10.3529 12.7539 11.4781 11.9239 12.2751 10.8155C13.0721 9.70711 13.5006 8.37625 13.5 7.01105C13.5 3.4146 10.5893 0.5 7 0.5Z"
        fill="currentColor" />
</svg>