<svg viewBox="0 0 18 18" fill="none" xmlns="http://www.w3.org/2000/svg">
<path d="M9.00033 17.3333C4.39783 17.3333 0.666992 13.6025 0.666992 8.99999C0.666992 4.39749 4.39783 0.666656 9.00033 0.666656C13.6028 0.666656 17.3337 4.39749 17.3337 8.99999C17.3337 13.6025 13.6028 17.3333 9.00033 17.3333ZM7.09199 15.3892C6.26984 13.6453 5.79355 11.7585 5.68949 9.83332H2.38533C2.54748 11.1157 3.07859 12.3235 3.91413 13.3097C4.74967 14.296 5.85367 15.0184 7.09199 15.3892V15.3892ZM7.35866 9.83332C7.48449 11.8658 8.06533 13.775 9.00033 15.46C9.96059 13.7304 10.5215 11.8079 10.642 9.83332H7.35866V9.83332ZM15.6153 9.83332H12.3112C12.2071 11.7585 11.7308 13.6453 10.9087 15.3892C12.147 15.0184 13.251 14.296 14.0865 13.3097C14.9221 12.3235 15.4532 11.1157 15.6153 9.83332V9.83332ZM2.38533 8.16666H5.68949C5.79355 6.24148 6.26984 4.35473 7.09199 2.61082C5.85367 2.98156 4.74967 3.70395 3.91413 4.69024C3.07859 5.67652 2.54748 6.88424 2.38533 8.16666V8.16666ZM7.35949 8.16666H10.6412C10.521 6.19216 9.9603 4.2696 9.00033 2.53999C8.04006 4.26953 7.47912 6.19209 7.35866 8.16666H7.35949ZM10.9087 2.61082C11.7308 4.35473 12.2071 6.24148 12.3112 8.16666H15.6153C15.4532 6.88424 14.9221 5.67652 14.0865 4.69024C13.251 3.70395 12.147 2.98156 10.9087 2.61082V2.61082Z" fill="currentColor"/>
</svg>
