<svg width="22" height="21" viewBox="0 0 22 21" fill="none" xmlns="http://www.w3.org/2000/svg">
<rect x="1.12511" y="0.5" width="19.9677" height="19.9677" rx="3.5" stroke="white"/>
<path d="M14.0573 5.646C14.9488 5.646 15.7162 5.80683 16.3595 6.12849C17.012 6.44096 17.5083 6.88669 17.8484 7.46568C18.1976 8.03548 18.3722 8.70638 18.3722 9.47836C18.3722 9.74488 18.34 10.0803 18.2757 10.4847C18.1103 11.4313 17.7519 12.2722 17.2004 13.0075C16.6582 13.7427 15.9643 14.3125 15.1188 14.7169C14.2825 15.1212 13.3589 15.3234 12.3479 15.3234H8.72236L10.4318 5.646H14.0573ZM12.5547 13.3107C13.4462 13.3107 14.186 13.0626 14.7742 12.5663C15.3624 12.07 15.73 11.3762 15.877 10.4847C15.923 10.209 15.946 9.97924 15.946 9.79543C15.946 9.11535 15.7392 8.5915 15.3256 8.22388C14.912 7.84708 14.3239 7.65868 13.5611 7.65868H12.4307L11.4381 13.3107H12.5547Z" fill="white"/>
<path d="M8.72374 5.646L7.01434 15.3234H4.65702L6.36642 5.646H8.72374Z" fill="white"/>
</svg>
