<svg viewBox="0 0 30 30" fill="none" xmlns="http://www.w3.org/2000/svg">
<g filter="url(#filter0_i_27_4716)">
<g clip-path="url(#clip0_27_4716)">
<path d="M20.896 0H9.10402C4.07601 0 0 4.07601 0 9.10402V20.896C0 25.924 4.07601 30 9.10402 30H20.896C25.924 30 30 25.924 30 20.896V9.10402C30 4.07601 25.924 0 20.896 0Z" fill="#FF0420"/>
</g>
</g>
<path d="M22.5024 8.35627C22.5024 8.15384 22.3927 7.9743 22.224 7.89839C22.1626 7.87068 22.0963 7.85742 22.0325 7.85742C21.9252 7.85742 21.8192 7.89478 21.7324 7.96707L16.3367 12.4615C16.2294 12.5507 16.168 12.682 16.168 12.8218V17.1801C16.168 17.3199 16.2294 17.4512 16.3367 17.5404L21.7312 22.0349C21.8794 22.1578 22.0891 22.1782 22.259 22.0855C22.4084 22.0035 22.5024 21.8397 22.5024 21.6565V19.0659C22.5024 18.9261 22.4409 18.7947 22.3337 18.7044L19.3539 16.2222C19.2249 16.1137 19.1502 15.9559 19.1502 15.7872V14.2147C19.1502 14.046 19.2249 13.8882 19.3539 13.7797L22.3337 11.2976C22.4409 11.2084 22.5024 11.077 22.5024 10.9361V8.35627Z" fill="white"/>
<path d="M13.6657 17.5404C13.773 17.4512 13.8344 17.3199 13.8344 17.1801V12.8218C13.8344 12.682 13.773 12.5507 13.6657 12.4615L8.26996 7.96707C8.18321 7.89478 8.07717 7.85742 7.96993 7.85742C7.90486 7.85742 7.8398 7.87068 7.77834 7.89839C7.60965 7.9743 7.5 8.15384 7.5 8.35627V10.9361C7.5 11.0758 7.56145 11.2072 7.66869 11.2976L10.6485 13.7797C10.7775 13.8882 10.8522 14.046 10.8522 14.2147V15.7872C10.8522 15.9559 10.7775 16.1137 10.6485 16.2222L7.66869 18.7044C7.56145 18.7935 7.5 18.9261 7.5 19.0659V21.6565C7.5 21.8397 7.59278 22.0035 7.7434 22.0855C7.91209 22.1782 8.12416 22.1578 8.27117 22.0349L13.6669 17.5404H13.6657Z" fill="white"/>
<defs>
<filter id="filter0_i_27_4716" x="0" y="0" width="30" height="30" filterUnits="userSpaceOnUse" color-interpolation-filters="sRGB">
<feFlood flood-opacity="0" result="BackgroundImageFix"/>
<feBlend mode="normal" in="SourceGraphic" in2="BackgroundImageFix" result="shape"/>
<feColorMatrix in="SourceAlpha" type="matrix" values="0 0 0 0 0 0 0 0 0 0 0 0 0 0 0 0 0 0 127 0" result="hardAlpha"/>
<feOffset/>
<feGaussianBlur stdDeviation="0.9375"/>
<feComposite in2="hardAlpha" operator="arithmetic" k2="-1" k3="1"/>
<feColorMatrix type="matrix" values="0 0 0 0 1 0 0 0 0 1 0 0 0 0 1 0 0 0 1 0"/>
<feBlend mode="normal" in2="shape" result="effect1_innerShadow_27_4716"/>
</filter>
<clipPath id="clip0_27_4716">
<rect width="30" height="30" rx="15" fill="white"/>
</clipPath>
</defs>
</svg>
