<svg viewBox="0 0 32 32" fill="none" xmlns="http://www.w3.org/2000/svg">
<g filter="url(#filter0_i_27_4773)">
<g clip-path="url(#clip0_27_4773)">
<path d="M22.289 0H9.71095C4.34774 0 0 4.34774 0 9.71095V22.289C0 27.6523 4.34774 32 9.71095 32H22.289C27.6523 32 32 27.6523 32 22.289V9.71095C32 4.34774 27.6523 0 22.289 0Z" fill="#FF9204"/>
<path d="M23.25 11.8284L16.0045 7.55273L8.75 11.8602M23.25 11.8284L16.0045 15.9631M23.25 11.8284V20.2423L16.0045 24.4462M16.0045 15.9631L8.75 11.8602M16.0045 15.9631V24.4462M8.75 11.8602V20.2423L16.0045 24.4462" stroke="white" stroke-width="2" stroke-linejoin="round"/>
</g>
</g>
<defs>
<filter id="filter0_i_27_4773" x="0" y="0" width="32" height="32" filterUnits="userSpaceOnUse" color-interpolation-filters="sRGB">
<feFlood flood-opacity="0" result="BackgroundImageFix"/>
<feBlend mode="normal" in="SourceGraphic" in2="BackgroundImageFix" result="shape"/>
<feColorMatrix in="SourceAlpha" type="matrix" values="0 0 0 0 0 0 0 0 0 0 0 0 0 0 0 0 0 0 127 0" result="hardAlpha"/>
<feOffset/>
<feGaussianBlur stdDeviation="1"/>
<feComposite in2="hardAlpha" operator="arithmetic" k2="-1" k3="1"/>
<feColorMatrix type="matrix" values="0 0 0 0 1 0 0 0 0 1 0 0 0 0 1 0 0 0 1 0"/>
<feBlend mode="normal" in2="shape" result="effect1_innerShadow_27_4773"/>
</filter>
<clipPath id="clip0_27_4773">
<rect width="32" height="32" rx="16" fill="white"/>
</clipPath>
</defs>
</svg>
