<svg viewBox="0 0 24 24" fill="none" xmlns="http://www.w3.org/2000/svg">
<path d="M7.1625 18.1217L18.3141 9.73109C18.4617 9.62093 18.5602 9.45687 18.5883 9.27406L19.4273 3.81077C19.5 3.33968 19.0945 2.93187 18.6234 3.00452L13.1789 3.84827C12.9961 3.8764 12.8344 3.97484 12.7242 4.12249L4.36406 15.3139L3.16641 14.1116C3.08203 14.0248 2.93906 14.0436 2.87578 14.1467L1.89844 15.7733C1.85391 15.8459 1.86562 15.9397 1.92656 16.0006L3.60469 17.6858L1.74609 19.5514C1.41797 19.8819 1.41797 20.4209 1.74609 20.7491C2.07422 21.0795 2.61094 21.0795 2.93906 20.7491L4.79766 18.8834L6.47578 20.5686C6.53672 20.6295 6.63047 20.6412 6.70312 20.5967L8.32266 19.617C8.42578 19.5537 8.44453 19.4108 8.35781 19.3264L7.1625 18.1217Z" fill="currentColor"/>
<path d="M5.42129 9.27409C5.44941 9.45691 5.54785 9.62097 5.69551 9.73112L6.63769 10.4413C6.73379 10.5139 6.87207 10.4928 6.94472 10.3944L11.3557 4.21863L11.2854 4.12253C11.1752 3.97488 11.0111 3.87644 10.8307 3.84831L5.38613 3.00456C4.91504 2.93191 4.51191 3.33738 4.58223 3.81081L5.42129 9.27409ZM22.226 19.5163L20.4025 17.6858L22.0807 16.0007C22.1416 15.9397 22.1533 15.846 22.1088 15.7733L21.1314 14.1468C21.0682 14.0436 20.9252 14.0249 20.8408 14.1116L19.6432 15.3139L17.2525 12.1124C17.1611 11.9905 16.99 11.9671 16.8682 12.0561L13.1182 14.8663C12.9705 14.9764 12.9705 15.1968 13.1182 15.3069L16.8471 18.1194L15.6494 19.3218C15.565 19.4085 15.5814 19.5514 15.6846 19.6124L17.3041 20.5921C17.3768 20.6366 17.4705 20.6249 17.5314 20.5639L19.2096 18.8788L21.0682 20.7444C21.4291 21.1077 22.0455 21.0702 22.3549 20.6343C22.5986 20.2944 22.5236 19.8139 22.226 19.5163Z" fill="currentColor"/>
</svg>
