<svg viewBox="0 0 28 28" fill="none" xmlns="http://www.w3.org/2000/svg">
<g clip-path="url(#clip0_27_7113)">
<path d="M19.5029 0H8.49708C3.80427 0 0 3.80427 0 8.49708V19.5029C0 24.1957 3.80427 28 8.49708 28H19.5029C24.1957 28 28 24.1957 28 19.5029V8.49708C28 3.80427 24.1957 0 19.5029 0Z" fill="#FF0420"/>
<path d="M22.4049 6.55506C22.4049 6.32822 22.282 6.12704 22.093 6.04197C22.0241 6.01092 21.9498 5.99606 21.8783 5.99606C21.7581 5.99606 21.6393 6.03792 21.5421 6.11894L15.4957 11.1553C15.3755 11.2553 15.3066 11.4024 15.3066 11.5591V16.4429C15.3066 16.5995 15.3755 16.7467 15.4957 16.8466L21.5407 21.883C21.7068 22.0208 21.9417 22.0437 22.1321 21.9397C22.2996 21.8479 22.4049 21.6643 22.4049 21.4591V18.556C22.4049 18.3994 22.336 18.2522 22.2158 18.151L18.8767 15.3695C18.7322 15.2479 18.6485 15.071 18.6485 14.882V13.1199C18.6485 12.9309 18.7322 12.754 18.8767 12.6325L22.2158 9.85101C22.336 9.75109 22.4049 9.60391 22.4049 9.44594V6.55506Z" fill="white"/>
<path d="M12.5049 16.8467C12.6251 16.7467 12.6939 16.5996 12.6939 16.4429V11.5591C12.6939 11.4025 12.6251 11.2553 12.5049 11.1554L6.45851 6.11897C6.36129 6.03795 6.24247 5.99609 6.1223 5.99609C6.04939 5.99609 5.97647 6.01095 5.90761 6.042C5.71858 6.12707 5.5957 6.32825 5.5957 6.55509V9.44597C5.5957 9.60259 5.66457 9.74977 5.78474 9.85104L9.12389 12.6325C9.26837 12.7541 9.35208 12.9309 9.35208 13.12V14.882C9.35208 15.0711 9.26837 15.248 9.12389 15.3695L5.78474 18.151C5.66457 18.2509 5.5957 18.3994 5.5957 18.5561V21.4591C5.5957 21.6643 5.69967 21.848 5.86845 21.9398C6.05749 22.0437 6.29513 22.0208 6.45986 21.8831L12.5062 16.8467H12.5049Z" fill="white"/>
</g>
<defs>
<clipPath id="clip0_27_7113">
<rect width="28" height="28" fill="white"/>
</clipPath>
</defs>
</svg>
