<svg width="18" height="19" viewBox="0 0 18 19" fill="none" xmlns="http://www.w3.org/2000/svg">
<g clip-path="url(#clip0_4611_8898)">
<path d="M9 16.1749L12.7125 12.4624C13.4467 11.7282 13.9466 10.7927 14.1492 9.77435C14.3517 8.75596 14.2477 7.70039 13.8503 6.74111C13.4529 5.78183 12.78 4.96192 11.9167 4.38507C11.0533 3.80821 10.0383 3.50032 9 3.50032C7.96167 3.50032 6.94666 3.80821 6.08332 4.38507C5.21997 4.96192 4.54706 5.78183 4.14969 6.74111C3.75231 7.70039 3.64831 8.75596 3.85084 9.77435C4.05337 10.7927 4.55333 11.7282 5.2875 12.4624L9 16.1749ZM9 18.2959L4.227 13.5229C3.28301 12.5789 2.64014 11.3762 2.3797 10.0668C2.11925 8.75746 2.25293 7.40026 2.76382 6.16687C3.27472 4.93347 4.13988 3.87927 5.24991 3.13757C6.35994 2.39588 7.66498 2 9 2C10.335 2 11.6401 2.39588 12.7501 3.13757C13.8601 3.87927 14.7253 4.93347 15.2362 6.16687C15.7471 7.40026 15.8808 8.75746 15.6203 10.0668C15.3599 11.3762 14.717 12.5789 13.773 13.5229L9 18.2959V18.2959ZM9 10.2499C9.39783 10.2499 9.77936 10.0919 10.0607 9.8106C10.342 9.5293 10.5 9.14777 10.5 8.74994C10.5 8.35212 10.342 7.97059 10.0607 7.68928C9.77936 7.40798 9.39783 7.24994 9 7.24994C8.60218 7.24994 8.22065 7.40798 7.93934 7.68928C7.65804 7.97059 7.5 8.35212 7.5 8.74994C7.5 9.14777 7.65804 9.5293 7.93934 9.8106C8.22065 10.0919 8.60218 10.2499 9 10.2499ZM9 11.7499C8.20435 11.7499 7.44129 11.4339 6.87868 10.8713C6.31607 10.3087 6 9.54559 6 8.74994C6 7.95429 6.31607 7.19123 6.87868 6.62862C7.44129 6.06601 8.20435 5.74994 9 5.74994C9.79565 5.74994 10.5587 6.06601 11.1213 6.62862C11.6839 7.19123 12 7.95429 12 8.74994C12 9.54559 11.6839 10.3087 11.1213 10.8713C10.5587 11.4339 9.79565 11.7499 9 11.7499Z" fill="currentColor"/>
</g>
<defs>
<clipPath id="clip0_4611_8898">
<rect width="18" height="18" fill="currentColor" transform="translate(0 0.5)"/>
</clipPath>
</defs>
</svg>
