<svg width="17" height="14" viewBox="0 0 17 14" fill="none" xmlns="http://www.w3.org/2000/svg">
    <path
        d="M2.72732 3.0267C2.74735 2.82878 2.67187 2.63316 2.52408 2.49995L1.01866 0.686427V0.415527H5.693L9.30601 8.33934L12.4825 0.415527H16.9385V0.686427L15.6514 1.92052C15.5404 2.00511 15.4854 2.14413 15.5084 2.28172V11.3493C15.4854 11.4869 15.5404 11.6259 15.6514 11.7105L16.9084 12.9446V13.2155H10.5856V12.9446L11.8878 11.6804C12.0158 11.5525 12.0158 11.5149 12.0158 11.3192V3.9899L8.39523 13.1854H7.90597L3.69079 3.9899V10.1529C3.65564 10.412 3.7417 10.6728 3.92413 10.8602L5.61773 12.9145V13.1854H0.81543V12.9145L2.50903 10.8602C2.69013 10.6725 2.77117 10.4099 2.72732 10.1529V3.0267Z"
        fill="currentColor" />
</svg>