<svg width="25" height="24" viewBox="0 0 25 24" fill="none" xmlns="http://www.w3.org/2000/svg">
<path d="M3.565 12.9999H3.685C3.93221 13.0014 4.17122 12.9113 4.35589 12.7469C4.54057 12.5826 4.65781 12.3556 4.685 12.1099C4.85642 10.6118 5.44773 9.19268 6.39077 8.0161C7.33381 6.83951 8.59017 5.9534 10.015 5.45992C10.3587 6.07712 10.9092 6.5532 11.5696 6.80432C12.2299 7.05543 12.9576 7.06547 13.6246 6.83265C14.2916 6.59983 14.855 6.1391 15.2157 5.53161C15.5763 4.92413 15.7109 4.20888 15.5959 3.51185C15.4809 2.81482 15.1236 2.18074 14.5869 1.7213C14.0503 1.26187 13.3687 1.00657 12.6623 1.00036C11.9559 0.994155 11.2699 1.23745 10.7253 1.68738C10.1806 2.13732 9.81224 2.76502 9.685 3.45992C7.82155 4.03276 6.16618 5.13779 4.92251 6.63907C3.67884 8.14036 2.90111 9.97243 2.685 11.9099C2.65968 12.1707 2.73768 12.4309 2.90224 12.6348C3.0668 12.8386 3.30478 12.9697 3.565 12.9999ZM12.625 2.99992C12.8228 2.99992 13.0161 3.05857 13.1806 3.16845C13.345 3.27834 13.4732 3.43451 13.5489 3.61724C13.6246 3.79997 13.6444 4.00103 13.6058 4.19501C13.5672 4.389 13.472 4.56718 13.3321 4.70703C13.1923 4.84688 13.0141 4.94212 12.8201 4.98071C12.6261 5.01929 12.425 4.99949 12.2423 4.9238C12.0596 4.84812 11.9034 4.71994 11.7935 4.55549C11.6836 4.39105 11.625 4.19771 11.625 3.99992C11.625 3.73471 11.7304 3.48035 11.9179 3.29282C12.1054 3.10528 12.3598 2.99992 12.625 2.99992ZM15.295 20.5399C13.9676 20.9974 12.5439 21.1015 11.164 20.842C9.78416 20.5825 8.49558 19.9683 7.425 19.0599C7.55371 18.7212 7.62142 18.3623 7.625 17.9999C7.625 17.4066 7.44905 16.8266 7.11941 16.3332C6.78977 15.8399 6.32123 15.4553 5.77305 15.2283C5.22487 15.0012 4.62167 14.9418 4.03973 15.0576C3.45779 15.1733 2.92324 15.459 2.50368 15.8786C2.08412 16.2982 1.7984 16.8327 1.68264 17.4147C1.56689 17.9966 1.6263 18.5998 1.85336 19.148C2.08042 19.6962 2.46494 20.1647 2.95829 20.4943C3.45164 20.824 4.03166 20.9999 4.625 20.9999C5.15196 20.9947 5.66865 20.8535 6.125 20.5899C7.45782 21.7325 9.06793 22.504 10.7935 22.827C12.519 23.15 14.2992 23.013 15.955 22.4299C16.2037 22.3416 16.4074 22.1585 16.5216 21.9206C16.6359 21.6827 16.6515 21.4093 16.565 21.1599C16.4787 20.9094 16.2964 20.7034 16.0583 20.5871C15.8202 20.4709 15.5456 20.4539 15.295 20.5399ZM4.625 18.9999C4.42722 18.9999 4.23388 18.9413 4.06943 18.8314C3.90498 18.7215 3.77681 18.5653 3.70112 18.3826C3.62543 18.1999 3.60563 17.9988 3.64422 17.8048C3.6828 17.6109 3.77804 17.4327 3.91789 17.2928C4.05775 17.153 4.23593 17.0577 4.42991 17.0191C4.62389 16.9806 4.82496 17.0004 5.00768 17.076C5.19041 17.1517 5.34659 17.2799 5.45647 17.4444C5.56635 17.6088 5.625 17.8021 5.625 17.9999C5.625 18.2651 5.51964 18.5195 5.33211 18.707C5.14457 18.8946 4.89022 18.9999 4.625 18.9999ZM12.625 8.99992C11.8339 8.99992 11.0605 9.23452 10.4027 9.67405C9.74492 10.1136 9.23223 10.7383 8.92948 11.4692C8.62673 12.2001 8.54752 13.0044 8.70186 13.7803C8.8562 14.5562 9.23716 15.2689 9.79657 15.8284C10.356 16.3878 11.0687 16.7687 11.8446 16.9231C12.6206 17.0774 13.4248 16.9982 14.1557 16.6954C14.8866 16.3927 15.5114 15.88 15.9509 15.2222C16.3904 14.5644 16.625 13.791 16.625 12.9999C16.625 11.9391 16.2036 10.9216 15.4534 10.1715C14.7033 9.42135 13.6859 8.99992 12.625 8.99992ZM12.625 14.9999C12.2294 14.9999 11.8428 14.8826 11.5139 14.6629C11.185 14.4431 10.9286 14.1307 10.7772 13.7653C10.6259 13.3998 10.5863 12.9977 10.6634 12.6097C10.7406 12.2218 10.9311 11.8654 11.2108 11.5857C11.4905 11.306 11.8469 11.1155 12.2348 11.0384C12.6228 10.9612 13.0249 11.0008 13.3904 11.1522C13.7558 11.3035 14.0682 11.5599 14.2879 11.8888C14.5077 12.2177 14.625 12.6044 14.625 12.9999C14.625 13.5304 14.4143 14.0391 14.0392 14.4141C13.6641 14.7892 13.1554 14.9999 12.625 14.9999ZM22.305 15.5199C22.5165 14.6966 22.624 13.85 22.625 12.9999C22.6249 11.5938 22.3283 10.2035 21.7545 8.9198C21.1807 7.63608 20.3426 6.4878 19.295 5.54992C19.2057 5.43592 19.0927 5.34267 18.9638 5.27663C18.8349 5.21058 18.6932 5.17333 18.5485 5.16743C18.4038 5.16153 18.2596 5.18713 18.1257 5.24246C17.9919 5.29779 17.8717 5.38154 17.7734 5.4879C17.6751 5.59426 17.6011 5.7207 17.5564 5.85847C17.5118 5.99625 17.4976 6.14208 17.5149 6.28587C17.5322 6.42966 17.5805 6.56798 17.6565 6.69127C17.7325 6.81455 17.8343 6.91987 17.955 6.99992C18.7992 7.75417 19.4738 8.67901 19.9341 9.71332C20.3943 10.7476 20.6298 11.8678 20.625 12.9999C20.6217 13.6748 20.5343 14.3466 20.365 14.9999C19.6604 15.0654 19.0016 15.3778 18.505 15.8819C18.0085 16.3861 17.7061 17.0496 17.6514 17.7551C17.5967 18.4606 17.7931 19.1628 18.206 19.7375C18.6189 20.3122 19.2216 20.7224 19.9077 20.8957C20.5938 21.069 21.3191 20.9942 21.9554 20.6845C22.5917 20.3748 23.098 19.8501 23.3848 19.2032C23.6717 18.5563 23.7207 17.8289 23.5231 17.1494C23.3255 16.4699 22.894 15.8821 22.305 15.4899V15.5199ZM20.625 18.9999C20.4272 18.9999 20.2339 18.9413 20.0694 18.8314C19.905 18.7215 19.7768 18.5653 19.7011 18.3826C19.6254 18.1999 19.6056 17.9988 19.6442 17.8048C19.6828 17.6109 19.778 17.4327 19.9179 17.2928C20.0577 17.153 20.2359 17.0577 20.4299 17.0191C20.6239 16.9806 20.825 17.0004 21.0077 17.076C21.1904 17.1517 21.3466 17.2799 21.4565 17.4444C21.5664 17.6088 21.625 17.8021 21.625 17.9999C21.625 18.2651 21.5196 18.5195 21.3321 18.707C21.1446 18.8946 20.8902 18.9999 20.625 18.9999Z" fill="currentColor"/>
</svg>
