<svg width="16" height="15" viewBox="0 0 16 15" fill="none" xmlns="http://www.w3.org/2000/svg">
    <path
        d="M8 6.75C8.99457 6.75 9.94842 7.1451 10.6516 7.84838C11.3549 8.55158 11.75 9.50543 11.75 10.5V15H10.25V10.5C10.25 9.9261 10.0308 9.37387 9.63702 8.95627C9.24335 8.53875 8.70492 8.28743 8.132 8.25375L8 8.25C7.4261 8.25 6.87388 8.46922 6.45631 8.86298C6.03874 9.25665 5.78742 9.79508 5.75375 10.368L5.75 10.5V15H4.25V10.5C4.25 9.50543 4.64508 8.55158 5.34835 7.84838C6.05161 7.1451 7.00542 6.75 8 6.75ZM3.125 9C3.33425 9 3.5375 9.02475 3.7325 9.0705C3.60426 9.45225 3.52833 9.8496 3.50675 10.2517L3.5 10.5V10.5645C3.41379 10.5337 3.32412 10.5135 3.233 10.5045L3.125 10.5C2.84534 10.5 2.57571 10.6042 2.36869 10.7922C2.16166 10.9802 2.0321 11.2386 2.00525 11.517L2 11.625V15H0.5V11.625C0.5 10.9288 0.776563 10.2611 1.26885 9.76882C1.76112 9.27652 2.4288 9 3.125 9ZM12.875 9C13.5712 9 14.2389 9.27652 14.7312 9.76882C15.2235 10.2611 15.5 10.9288 15.5 11.625V15H14V11.625C14 11.3453 13.8958 11.0757 13.7078 10.8687C13.5198 10.6617 13.2614 10.5321 12.983 10.5052L12.875 10.5C12.7437 10.5 12.6178 10.5225 12.5 10.5637V10.5C12.5 10.0005 12.419 9.5205 12.2682 9.072C12.4625 9.02475 12.6657 9 12.875 9ZM3.125 4.5C3.62228 4.5 4.0992 4.69754 4.45083 5.04917C4.80246 5.4008 5 5.87772 5 6.375C5 6.87225 4.80246 7.34918 4.45083 7.70085C4.0992 8.05245 3.62228 8.25 3.125 8.25C2.62772 8.25 2.1508 8.05245 1.79917 7.70085C1.44754 7.34918 1.25 6.87225 1.25 6.375C1.25 5.87772 1.44754 5.4008 1.79917 5.04917C2.1508 4.69754 2.62772 4.5 3.125 4.5ZM12.875 4.5C13.3722 4.5 13.8492 4.69754 14.2008 5.04917C14.5524 5.4008 14.75 5.87772 14.75 6.375C14.75 6.87225 14.5524 7.34918 14.2008 7.70085C13.8492 8.05245 13.3722 8.25 12.875 8.25C12.3778 8.25 11.9008 8.05245 11.5492 7.70085C11.1976 7.34918 11 6.87225 11 6.375C11 5.87772 11.1976 5.4008 11.5492 5.04917C11.9008 4.69754 12.3778 4.5 12.875 4.5ZM3.125 6C3.02554 6 2.93016 6.03953 2.85984 6.1098C2.78951 6.18015 2.75 6.27555 2.75 6.375C2.75 6.47445 2.78951 6.56985 2.85984 6.6402C2.93016 6.71047 3.02554 6.75 3.125 6.75C3.22446 6.75 3.31984 6.71047 3.39016 6.6402C3.46049 6.56985 3.5 6.47445 3.5 6.375C3.5 6.27555 3.46049 6.18015 3.39016 6.1098C3.31984 6.03953 3.22446 6 3.125 6ZM12.875 6C12.7755 6 12.6802 6.03953 12.6098 6.1098C12.5395 6.18015 12.5 6.27555 12.5 6.375C12.5 6.47445 12.5395 6.56985 12.6098 6.6402C12.6802 6.71047 12.7755 6.75 12.875 6.75C12.9745 6.75 13.0698 6.71047 13.1402 6.6402C13.2105 6.56985 13.25 6.47445 13.25 6.375C13.25 6.27555 13.2105 6.18015 13.1402 6.1098C13.0698 6.03953 12.9745 6 12.875 6ZM8 0C8.79568 0 9.55872 0.316073 10.1213 0.878678C10.6839 1.44129 11 2.20435 11 3C11 3.79565 10.6839 4.55871 10.1213 5.12132C9.55872 5.68393 8.79568 6 8 6C7.20433 6 6.44129 5.68393 5.87868 5.12132C5.31607 4.55871 5 3.79565 5 3C5 2.20435 5.31607 1.44129 5.87868 0.878678C6.44129 0.316073 7.20433 0 8 0ZM8 1.5C7.6022 1.5 7.22067 1.65803 6.93935 1.93934C6.65803 2.22065 6.5 2.60218 6.5 3C6.5 3.39782 6.65803 3.77935 6.93935 4.06066C7.22067 4.34197 7.6022 4.5 8 4.5C8.3978 4.5 8.77932 4.34197 9.06065 4.06066C9.34198 3.77935 9.5 3.39782 9.5 3C9.5 2.60218 9.34198 2.22065 9.06065 1.93934C8.77932 1.65803 8.3978 1.5 8 1.5Z"
        fill="currentColor" />
</svg>