<svg viewBox="0 0 24 24" fill="none" xmlns="http://www.w3.org/2000/svg">
<rect width="24" height="24" rx="4" fill="white"/>
<path d="M10.0099 12C9.63743 12 9.33334 12.3041 9.33334 12.6766C9.33334 13.0491 9.63743 13.3532 10.0099 13.3532C10.3825 13.3532 10.6866 13.0491 10.6866 12.6766C10.6866 12.3041 10.3825 12 10.0099 12Z" fill="black"/>
<path d="M11.5076 14.9573C11.7661 14.9573 12.648 14.9269 13.1117 14.4631C13.1801 14.3947 13.1801 14.2883 13.1269 14.2123C13.0585 14.1438 12.9444 14.1438 12.876 14.2123C12.5795 14.5012 11.9637 14.6076 11.5152 14.6076C11.0667 14.6076 10.4433 14.5012 10.1544 14.2123C10.086 14.1438 9.97193 14.1438 9.90351 14.2123C9.83509 14.2807 9.83509 14.3947 9.90351 14.4631C10.3597 14.9193 11.2491 14.9573 11.5076 14.9573Z" fill="black"/>
<path d="M12.3135 12.6766C12.3135 13.0491 12.6175 13.3532 12.9901 13.3532C13.3626 13.3532 13.6667 13.0491 13.6667 12.6766C13.6667 12.3041 13.3626 12 12.9901 12C12.6175 12 12.3135 12.3041 12.3135 12.6766Z" fill="black"/>
<path fill-rule="evenodd" clip-rule="evenodd" d="M18 12C18 15.5899 15.0899 18.5 11.5 18.5C7.91015 18.5 5 15.5899 5 12C5 8.41015 7.91015 5.5 11.5 5.5C15.0899 5.5 18 8.41015 18 12ZM14.883 11.0497C15.4076 11.0497 15.8333 11.4754 15.8333 12C15.8333 12.3877 15.5977 12.7222 15.286 12.8743C15.3012 12.9655 15.3088 13.0567 15.3088 13.1555C15.3088 14.6152 13.6135 15.7936 11.5152 15.7936C9.41696 15.7936 7.72164 14.6152 7.72164 13.1555C7.72164 13.0567 7.72924 12.9579 7.74445 12.8667C7.40995 12.7146 7.18187 12.3877 7.18187 12C7.18187 11.4754 7.60761 11.0497 8.13217 11.0497C8.38304 11.0497 8.61872 11.1561 8.78597 11.3158C9.43977 10.8368 10.3444 10.5403 11.3556 10.5099L11.8345 8.24443C11.8497 8.19882 11.8725 8.16081 11.9105 8.138C11.9485 8.11519 11.9942 8.10759 12.0398 8.11519L13.6135 8.44969C13.7199 8.22162 13.948 8.06958 14.214 8.06958C14.5866 8.06958 14.8906 8.37367 14.8906 8.74619C14.8906 9.1187 14.5866 9.42279 14.214 9.42279C13.8491 9.42279 13.5526 9.13391 13.5374 8.7766L12.131 8.4801L11.6977 10.5099C12.686 10.5479 13.583 10.852 14.2292 11.3158C14.3965 11.1485 14.6246 11.0497 14.883 11.0497Z" fill="black"/>
</svg>
