<svg width="13" height="14" viewBox="0 0 13 14" fill="none" xmlns="http://www.w3.org/2000/svg">
    <path
        d="M5.00995 6.99999C4.63743 6.99999 4.33334 7.30408 4.33334 7.6766C4.33334 8.04911 4.63743 8.3532 5.00995 8.3532C5.38246 8.3532 5.68655 8.04911 5.68655 7.6766C5.68655 7.30408 5.38246 6.99999 5.00995 6.99999Z"
        fill="currentColor" />
    <path
        d="M6.50761 9.9573C6.76609 9.9573 7.64796 9.92689 8.1117 9.46315C8.18012 9.39472 8.18012 9.28829 8.1269 9.21227C8.05848 9.14385 7.94445 9.14385 7.87603 9.21227C7.57954 9.50116 6.96375 9.60759 6.51521 9.60759C6.06667 9.60759 5.44328 9.50116 5.15439 9.21227C5.08597 9.14385 4.97193 9.14385 4.90351 9.21227C4.83509 9.28069 4.83509 9.39472 4.90351 9.46315C5.35965 9.91929 6.24913 9.9573 6.50761 9.9573Z"
        fill="currentColor" />
    <path
        d="M7.31345 7.6766C7.31345 8.04911 7.61755 8.3532 7.99006 8.3532C8.36258 8.3532 8.66667 8.04911 8.66667 7.6766C8.66667 7.30408 8.36258 6.99999 7.99006 6.99999C7.61755 6.99999 7.31345 7.30408 7.31345 7.6766Z"
        fill="currentColor" />
    <path fill-rule="evenodd" clip-rule="evenodd"
        d="M13 7C13 10.5899 10.0899 13.5 6.5 13.5C2.91015 13.5 0 10.5899 0 7C0 3.41015 2.91015 0.5 6.5 0.5C10.0899 0.5 13 3.41015 13 7ZM9.88304 6.04969C10.4076 6.04969 10.8333 6.47543 10.8333 6.99999C10.8333 7.38771 10.5977 7.72221 10.286 7.87426C10.3012 7.96548 10.3088 8.05671 10.3088 8.15554C10.3088 9.61519 8.61345 10.7936 6.51521 10.7936C4.41696 10.7936 2.72164 9.61519 2.72164 8.15554C2.72164 8.05671 2.72924 7.95788 2.74445 7.86665C2.40995 7.71461 2.18187 7.38771 2.18187 6.99999C2.18187 6.47543 2.60761 6.04969 3.13217 6.04969C3.38304 6.04969 3.61872 6.15613 3.78597 6.31578C4.43977 5.83683 5.34445 5.54034 6.35556 5.50993L6.83451 3.24443C6.84971 3.19882 6.87252 3.16081 6.91053 3.138C6.94854 3.11519 6.99416 3.10759 7.03977 3.11519L8.61345 3.44969C8.71989 3.22162 8.94796 3.06958 9.21404 3.06958C9.58655 3.06958 9.89065 3.37367 9.89065 3.74619C9.89065 4.1187 9.58655 4.42279 9.21404 4.42279C8.84913 4.42279 8.55264 4.13391 8.53743 3.7766L7.131 3.4801L6.69766 5.50993C7.68597 5.54794 8.58305 5.85203 9.22924 6.31578C9.3965 6.14852 9.62457 6.04969 9.88304 6.04969Z"
        fill="currentColor" />
</svg>