<svg width="25" height="24" viewBox="0 0 25 24" fill="none" xmlns="http://www.w3.org/2000/svg">
<g clip-path="url(#clip0_4097_25551)">
<path opacity="0.01" d="M0.625 0H24.625V24H0.625V0Z" fill="white"/>
<path d="M12.625 6.0001C13.0394 6.0001 13.3754 5.66409 13.3754 5.24969V2.97769C13.3754 2.77868 13.2963 2.58781 13.1556 2.44708C13.0149 2.30635 12.824 2.22729 12.625 2.22729C12.426 2.22729 12.2351 2.30635 12.0944 2.44708C11.9537 2.58781 11.8746 2.77868 11.8746 2.97769V5.24969C11.8746 5.66569 12.2106 6.0001 12.625 6.0001ZM8.649 14.4385C8.58946 14.438 8.53113 14.4553 8.48147 14.4881C8.43181 14.521 8.39308 14.5679 8.37023 14.6229C8.34738 14.6778 8.34145 14.7384 8.3532 14.7967C8.36495 14.8551 8.39385 14.9086 8.4362 14.9505L12.4394 18.9521C12.4958 19.0081 12.572 19.0395 12.6514 19.0395C12.7308 19.0395 12.807 19.0081 12.8634 18.9521L16.865 14.9505C16.9065 14.9084 16.9346 14.8551 16.946 14.7972C16.9574 14.7392 16.9514 14.6792 16.9289 14.6246C16.9064 14.57 16.8683 14.5232 16.8194 14.4901C16.7704 14.457 16.7129 14.4391 16.6538 14.4385H13.3738V8.2497C13.3649 8.05688 13.282 7.87491 13.1424 7.74161C13.0028 7.60831 12.8172 7.53394 12.6242 7.53394C12.4312 7.53394 12.2456 7.60831 12.106 7.74161C11.9664 7.87491 11.8835 8.05688 11.8746 8.2497V14.4385H8.649ZM17.4586 2.35369L21.5418 4.36969C22.0538 4.62249 22.3786 5.14409 22.377 5.71529V17.5009C22.377 18.1057 22.0154 18.6529 21.457 18.8849L12.9178 22.4641C12.8259 22.5028 12.7271 22.5227 12.6274 22.5227C12.5277 22.5227 12.4289 22.5028 12.337 22.4641L3.7962 18.8849C3.52308 18.7712 3.28985 18.579 3.12607 18.3326C2.96229 18.0862 2.87533 17.7967 2.8762 17.5009V5.71529C2.87529 5.43547 2.95313 5.16105 3.10083 4.92338C3.24852 4.68571 3.46011 4.49439 3.7114 4.37129L7.7946 2.35209C7.97134 2.27508 8.17095 2.26904 8.35202 2.33524C8.5331 2.40143 8.68175 2.53478 8.76714 2.70764C8.85254 2.88049 8.86813 3.07957 8.81069 3.26361C8.75324 3.44765 8.62716 3.60252 8.4586 3.69609L4.377 5.71529V17.5009L12.625 20.9601L20.8746 17.5041V5.7137L16.793 3.6977C16.6282 3.60192 16.506 3.44716 16.4509 3.2647C16.3959 3.08223 16.4122 2.88568 16.4965 2.71477C16.5809 2.54387 16.727 2.41136 16.9052 2.34403C17.0835 2.27671 17.2808 2.27959 17.457 2.35209L17.4586 2.35369Z" fill="white"/>
</g>
<defs>
<clipPath id="clip0_4097_25551">
<rect width="24" height="24" fill="white" transform="translate(0.625)"/>
</clipPath>
</defs>
</svg>
