<svg width="21" height="20" viewBox="0 0 21 20" fill="none" xmlns="http://www.w3.org/2000/svg">
<path d="M13.7715 15.6319C12.6972 16.2884 11.4345 16.6667 10.0833 16.6667C6.17132 16.6667 3 13.4954 3 9.58333C3 5.67132 6.17132 2.5 10.0833 2.5C13.9954 2.5 17.1667 5.67132 17.1667 9.58333C17.1667 11.2399 16.598 12.7637 15.6452 13.9701L18.098 16.4229L16.3303 18.1907L13.7715 15.6319ZM14.6667 9.58333C14.6667 7.05203 12.6146 5 10.0833 5C7.55203 5 5.5 7.05203 5.5 9.58333C5.5 12.1146 7.55203 14.1667 10.0833 14.1667C12.6146 14.1667 14.6667 12.1146 14.6667 9.58333Z" fill="#A0A3A7"/>
</svg>
