<svg viewBox="0 0 48 48" fill="none" xmlns="http://www.w3.org/2000/svg">
<rect width="48" height="48" rx="6" fill="currentColor"/>
<path d="M14.9001 14.3L33.7051 20.568C33.8024 20.6002 33.8875 20.6617 33.9488 20.7439C34.01 20.8261 34.0445 20.9252 34.0476 21.0277C34.0506 21.1302 34.0221 21.2311 33.9658 21.3169C33.9096 21.4026 33.8283 21.469 33.7331 21.507L25.0001 25L20.5751 33.85C20.5301 33.9401 20.4589 34.0145 20.3708 34.0635C20.2828 34.1124 20.182 34.1337 20.0817 34.1244C19.9814 34.1151 19.8862 34.0757 19.8087 34.0114C19.7311 33.9471 19.6748 33.8608 19.6471 33.764L14.2601 14.911C14.2351 14.8234 14.2346 14.7307 14.2585 14.6428C14.2824 14.5549 14.3298 14.4752 14.3957 14.4123C14.4616 14.3494 14.5434 14.3057 14.6323 14.2859C14.7212 14.2661 14.8138 14.271 14.9001 14.3Z" fill="white"/>
</svg>
