<svg viewBox="0 0 90 28" fill="none" xmlns="http://www.w3.org/2000/svg">
<g clip-path="url(#clip0_320_528)">
<path d="M19.5029 0H8.49708C3.80427 0 0 3.80427 0 8.49708V19.5029C0 24.1957 3.80427 28 8.49708 28H19.5029C24.1957 28 28 24.1957 28 19.5029V8.49708C28 3.80427 24.1957 0 19.5029 0Z" fill="#FF0420"/>
<path d="M22.4046 6.55528C22.4046 6.32844 22.2818 6.12725 22.0927 6.04219C22.0239 6.01113 21.9496 5.99628 21.878 5.99628C21.7579 5.99628 21.639 6.03813 21.5418 6.11915L15.4954 11.1556C15.3753 11.2555 15.3064 11.4027 15.3064 11.5593V16.4431C15.3064 16.5997 15.3753 16.7469 15.4954 16.8468L21.5405 21.8832C21.7066 22.021 21.9415 22.0439 22.1319 21.94C22.2993 21.8481 22.4046 21.6645 22.4046 21.4593V18.5562C22.4046 18.3996 22.3358 18.2524 22.2156 18.1512L18.8764 15.3697C18.732 15.2481 18.6482 15.0713 18.6482 14.8822V13.1202C18.6482 12.9311 18.732 12.7542 18.8764 12.6327L22.2156 9.85122C22.3358 9.7513 22.4046 9.60413 22.4046 9.44615V6.55528Z" fill="white"/>
<path d="M12.5047 16.8469C12.6248 16.7469 12.6937 16.5998 12.6937 16.4431V11.5593C12.6937 11.4027 12.6248 11.2555 12.5047 11.1556L6.45826 6.11918C6.36105 6.03816 6.24223 5.99631 6.12205 5.99631C6.04914 5.99631 5.97623 6.01116 5.90737 6.04222C5.71833 6.12728 5.59546 6.32847 5.59546 6.55531V9.44618C5.59546 9.60281 5.66432 9.74998 5.78449 9.85125L9.12365 12.6328C9.26812 12.7543 9.35184 12.9312 9.35184 13.1202V14.8823C9.35184 15.0713 9.26812 15.2482 9.12365 15.3697L5.78449 18.1512C5.66432 18.2511 5.59546 18.3996 5.59546 18.5563V21.4593C5.59546 21.6645 5.69943 21.8482 5.86821 21.94C6.05724 22.044 6.29489 22.021 6.45961 21.8833L12.506 16.8469H12.5047Z" fill="white"/>
<path d="M39.6997 15.5507L43.2562 19.4934H46.0053L41.0513 13.9993L41.0702 13.9777L46.0026 8.50647H43.2535L39.6767 12.4748L39.6524 12.4478L36.0986 8.50647H33.3495L38.3022 13.9993L38.2819 14.0209L33.3481 19.4934H36.0972L39.6767 15.5237L39.6997 15.5507Z" fill="currentColor"/>
<path d="M56.5442 8.50647H50.3074C48.7222 8.50647 47.4314 9.79595 47.4314 11.3825V16.6187C47.4314 18.2039 48.7209 19.4948 50.3074 19.4948H56.5442C58.1294 19.4948 59.4202 18.2053 59.4202 16.6187V11.3825C59.4202 9.7973 58.1307 8.50647 56.5442 8.50647ZM57.4083 16.6187C57.4083 17.0954 57.0208 17.4829 56.5442 17.4829H50.3074C49.8308 17.4829 49.4433 17.0954 49.4433 16.6187V11.3825C49.4433 10.9059 49.8308 10.5183 50.3074 10.5183H56.5442C57.0208 10.5183 57.4083 10.9059 57.4083 11.3825V16.6187Z" fill="currentColor"/>
<path d="M88.4435 10.5075V8.50647H77.0083V19.4934H88.4435V17.4923H78.9972V15.0011H88.4435V12.9987H78.9972V10.5075H88.4435Z" fill="currentColor"/>
<path d="M72.7294 19.4934H74.2997V8.50647H72.3108V16.4067L72.2568 16.3568L63.7206 8.50647H62.0476V19.4934H64.0352V11.4973L64.0892 11.5472L72.7294 19.4934Z" fill="currentColor"/>
</g>
<defs>
<clipPath id="clip0_320_528">
<rect width="88.4437" height="28" fill="white"/>
</clipPath>
</defs>
</svg>
