<svg width="14" height="14" viewBox="0 0 14 14" fill="none" xmlns="http://www.w3.org/2000/svg">
    <path
        d="M13.8605 4.1998C13.8605 4.1998 13.7238 3.23457 13.3027 2.81074C12.7695 2.25293 12.1734 2.2502 11.9 2.21738C9.94219 2.0752 7.00274 2.0752 7.00274 2.0752H6.99727C6.99727 2.0752 4.05781 2.0752 2.1 2.21738C1.82656 2.2502 1.23047 2.25293 0.697266 2.81074C0.276172 3.23457 0.142188 4.1998 0.142188 4.1998C0.142188 4.1998 0 5.33457 0 6.4666V7.52754C0 8.65957 0.139453 9.79434 0.139453 9.79434C0.139453 9.79434 0.276172 10.7596 0.694531 11.1834C1.22773 11.7412 1.92773 11.7221 2.23945 11.7822C3.36055 11.8889 7 11.9217 7 11.9217C7 11.9217 9.94219 11.9162 11.9 11.7768C12.1734 11.7439 12.7695 11.7412 13.3027 11.1834C13.7238 10.7596 13.8605 9.79434 13.8605 9.79434C13.8605 9.79434 14 8.6623 14 7.52754V6.4666C14 5.33457 13.8605 4.1998 13.8605 4.1998ZM5.55352 8.81543V4.88066L9.33516 6.85488L5.55352 8.81543Z"
        fill="currentColor" />
</svg>