<svg viewBox="0 0 24 24" fill="none" xmlns="http://www.w3.org/2000/svg">
<rect width="24" height="24" rx="4" fill="white"/>
<path d="M18.8605 9.1998C18.8605 9.1998 18.7238 8.23457 18.3027 7.81074C17.7695 7.25293 17.1734 7.2502 16.9 7.21738C14.9422 7.0752 12.0027 7.0752 12.0027 7.0752H11.9973C11.9973 7.0752 9.05781 7.0752 7.1 7.21738C6.82656 7.2502 6.23047 7.25293 5.69727 7.81074C5.27617 8.23457 5.14219 9.1998 5.14219 9.1998C5.14219 9.1998 5 10.3346 5 11.4666V12.5275C5 13.6596 5.13945 14.7943 5.13945 14.7943C5.13945 14.7943 5.27617 15.7596 5.69453 16.1834C6.22773 16.7412 6.92773 16.7221 7.23945 16.7822C8.36055 16.8889 12 16.9217 12 16.9217C12 16.9217 14.9422 16.9162 16.9 16.7768C17.1734 16.7439 17.7695 16.7412 18.3027 16.1834C18.7238 15.7596 18.8605 14.7943 18.8605 14.7943C18.8605 14.7943 19 13.6623 19 12.5275V11.4666C19 10.3346 18.8605 9.1998 18.8605 9.1998ZM10.5535 13.8154V9.88066L14.3352 11.8549L10.5535 13.8154Z" fill="black"/>
</svg>
