<svg width="48" height="48" viewBox="0 0 48 48" fill="none" xmlns="http://www.w3.org/2000/svg">
<rect width="48" height="48" rx="10" fill="#1D1D1D"/>
<g clip-path="url(#clip0_6654_4920)">
<path d="M19.2383 8.01465V10.8246C21.3889 10.8246 23.4737 11.2454 25.4349 12.0744C27.3308 12.8764 29.0337 14.0249 30.4969 15.488C31.96 16.9511 33.1085 18.654 33.9105 20.55C34.74 22.5112 35.1608 24.5959 35.1608 26.7466H37.9708C37.9708 16.4015 29.5846 8.01525 19.2395 8.01525L19.2383 8.01465Z" fill="#FF0420"/>
<path d="M19.2383 13.6343V16.4443C21.9901 16.4443 24.5772 17.516 26.5228 19.4617C28.4685 21.4073 29.5402 23.9944 29.5402 26.7462H32.3502C32.3502 19.5048 26.4797 13.6343 19.2383 13.6343Z" fill="#FF0420"/>
<path d="M22.0488 19.2534L20.1757 21.1266L13.6194 22.9997L8 35.1754L8.74266 35.918L15.5561 29.1046C15.5147 28.95 15.4925 28.7875 15.4925 28.6197C15.4925 27.5851 16.3311 26.7466 17.3657 26.7466C18.4002 26.7466 19.2388 27.5851 19.2388 28.6197C19.2388 29.6543 18.4002 30.4928 17.3657 30.4928C17.1978 30.4928 17.0354 30.4706 16.8807 30.4293L10.0673 37.2427L10.81 37.9853L22.9857 32.3659L24.8588 25.8097L26.7319 23.9366L22.0488 19.2534Z" fill="#A4A4A4"/>
</g>
<defs>
<clipPath id="clip0_6654_4920">
<rect width="30" height="30" fill="white" transform="translate(8 8)"/>
</clipPath>
</defs>
</svg>
