<svg width="48" height="48" viewBox="0 0 48 48" fill="none" xmlns="http://www.w3.org/2000/svg">
<rect width="48" height="48" rx="10" fill="#1D1D1D"/>
<path d="M29.343 19.1305V17.1827H33.2657V19.1305H29.343ZM29.343 24.974V23.0261H33.2657V24.974H29.343ZM29.343 30.8174V28.8696H33.2657V30.8174H29.343ZM39.1498 38.6087V11.3538C39.1498 10.27 38.2612 9.39136 37.1943 9.39136H25.4145C24.3345 9.39136 23.459 10.2658 23.459 11.3538V38.6087H39.1498Z" fill="#A4A4A4"/>
<path d="M21.294 38.6088V19.4172C21.294 18.3624 20.3993 17.5073 19.3284 17.5073H11.3562C10.2707 17.5073 9.39062 18.3607 9.39062 19.4172V38.6088H21.294ZM13.3584 30.9355V29.0172H17.3262V30.9355H13.3584ZM13.3584 25.1806V23.2623H17.3262V25.1806H13.3584Z" fill="#FF0420"/>
</svg>
