<svg width="48" height="48" viewBox="0 0 48 48" fill="none" xmlns="http://www.w3.org/2000/svg">
<rect width="48" height="48" rx="10" fill="#E1E1E1"/>
<path d="M14.6047 26.4336C17.3011 30.2935 20.5956 30.3885 24.4896 26.7169C27.4952 23.884 28.8758 24.1056 33.1358 28.0099C33.8459 28.6587 34.2592 31.6451 34.376 36.9689H14.6047L12.9102 30.2065L14.6047 26.4336Z" fill="#A4A4A4"/>
<path d="M29.107 23.4541C28.9169 23.0785 28.7053 22.7144 28.473 22.3638L27.9127 21.5196V11.4673C27.5351 11.3842 27.2013 11.1633 26.9757 10.8471C26.75 10.5308 26.6484 10.1416 26.6904 9.75437C26.7324 9.36712 26.915 9.00922 27.203 8.74955C27.4911 8.48989 27.8643 8.34683 28.2508 8.34791H31.8181C32.2332 8.34791 32.6313 8.51415 32.9249 8.81005C33.2184 9.10595 33.3834 9.50728 33.3834 9.92574C33.3834 10.3442 33.2184 10.7455 32.9249 11.0414C32.6313 11.3373 32.2332 11.5036 31.8181 11.5036H31.0432V20.5603L31.0745 20.6077C31.7007 21.5465 32.2454 22.6431 32.6524 23.7759L36.1586 33.5301C37.2621 36.5911 35.7782 39.1156 32.7103 39.1156H15.2917C12.2237 39.1156 10.7398 36.5911 11.8402 33.5301L15.3465 23.7759C15.746 22.6595 16.2768 21.5953 16.9274 20.6061L16.9572 20.5587V11.5036H16.1651C15.75 11.5036 15.3519 11.3373 15.0583 11.0414C14.7648 10.7455 14.5998 10.3442 14.5998 9.92574C14.5998 9.50728 14.7648 9.10595 15.0583 8.81005C15.3519 8.51415 15.75 8.34791 16.1651 8.34791H19.8498C20.2454 8.34626 20.627 8.49567 20.9178 8.76609C21.2085 9.03651 21.3869 9.40788 21.4171 9.8055C21.4472 10.2031 21.3269 10.5975 21.0802 10.9093C20.8336 11.2211 20.479 11.4273 20.0878 11.4862V21.5212L19.5258 22.3638C19.017 23.1407 18.6019 23.976 18.2892 24.852L17.9183 25.8855C19.4303 27.3939 21.0692 27.2251 23.4062 25.2654C25.3033 23.675 27.1316 23.0549 29.107 23.4541ZM30.6989 27.6038C28.4856 26.0622 27.2474 26.149 25.4082 27.6921C22.3214 30.2798 19.3145 30.7515 16.7897 29.0254L14.783 34.603C14.3838 35.717 14.5263 35.9584 15.2917 35.9584H32.7087C33.4757 35.9584 33.6166 35.717 33.2159 34.603L30.6989 27.6022V27.6038Z" fill="#A4A4A4"/>
<circle cx="22.3737" cy="17.6882" r="2.10612" fill="#FF0420"/>
<circle cx="24.0586" cy="11.791" r="1.26367" fill="#FF0420"/>
</svg>
