<svg width="48" height="48" viewBox="0 0 48 48" fill="none" xmlns="http://www.w3.org/2000/svg">
<rect width="48" height="48" rx="10" fill="#E1E1E1"/>
<g clip-path="url(#clip0_6599_1072)">
<path d="M29.5397 36.889C27.1694 36.8481 24.9725 36.1782 22.9489 34.9742C17.2434 31.5787 12.8582 26.9673 10.2585 20.8062C9.18046 18.2496 8.92738 15.5638 9.86754 12.879C10.4275 11.283 11.5034 10.1328 13.0908 9.47591C13.5108 9.30145 13.8985 9.31652 14.2732 9.52114C16.1072 10.5248 17.4631 11.9851 18.3505 13.8762C18.6165 14.4438 18.4582 14.9521 18.0694 15.4162C17.4598 16.1431 16.8492 16.8625 16.4615 17.751C15.6678 19.5678 16.0728 21.3178 16.7975 23.0031C18.1297 26.1014 20.4214 28.265 23.5735 29.4561C25.3063 30.1108 26.9917 29.9547 28.5112 28.7916C28.7675 28.5956 29.0292 28.4061 29.2974 28.2262C30.2515 27.5854 30.8751 27.5758 31.8206 28.223C33.2357 29.1922 34.3083 30.4813 35.2312 31.9114C35.6749 32.5985 35.6448 33.2533 35.2258 33.9221C34.0477 35.8024 32.2966 36.7016 30.132 36.8858C29.936 36.9041 29.7368 36.889 29.5397 36.889Z" fill="#A4A4A4"/>
<path d="M27.9844 24.7415C27.3307 24.4496 26.859 24.8998 26.3453 25.3489C25.2619 26.2966 24.0213 26.9578 22.5815 27.185C22.3058 27.2281 21.9396 27.3401 21.763 27.1247C21.6112 26.9395 21.903 26.6843 21.9978 26.4624C22.2724 25.8206 22.5524 25.1819 22.7333 24.5046C22.9692 23.6226 22.9401 23.5483 22.1679 23.0884C20.8681 22.3141 19.8644 21.2727 19.2979 19.8501C18.3168 17.3893 18.7821 15.1633 20.5008 13.2109C22.0161 11.4889 24.0515 10.7059 26.2548 10.3613C29.0247 9.92841 31.6158 10.5326 33.9344 12.0726C36.0021 13.4456 37.0252 15.4929 36.8927 17.9493C36.7376 20.8258 35.1179 22.7599 32.4881 23.8498C31.0848 24.4324 29.6008 24.6693 27.9844 24.7415ZM32.7132 19.3321C33.7276 19.3439 34.5816 18.533 34.6085 17.5336C34.6376 16.4729 33.7976 15.5844 32.7573 15.5758C31.7267 15.5672 30.8792 16.3996 30.8684 17.4346C30.8565 18.4824 31.6707 19.3192 32.7132 19.3321ZM21.0619 17.4356C21.0544 18.4889 21.8578 19.317 22.9024 19.3321C23.9265 19.3472 24.8032 18.491 24.801 17.4766C24.7988 16.4449 23.9524 15.5779 22.9433 15.5747C21.9105 15.5715 21.0695 16.4029 21.0619 17.4356ZM29.7322 17.4539C29.7172 16.4169 28.8739 15.5726 27.8562 15.5758C26.8245 15.5801 25.9932 16.4223 25.9953 17.4604C25.9975 18.5093 26.8213 19.3332 27.8659 19.3321C28.9019 19.331 29.7473 18.4803 29.7322 17.4539Z" fill="#FF0420"/>
</g>
<defs>
<clipPath id="clip0_6599_1072">
<rect width="28" height="28" fill="white" transform="translate(9 9)"/>
</clipPath>
</defs>
</svg>
