<svg width="48" height="48" viewBox="0 0 48 48" fill="none" xmlns="http://www.w3.org/2000/svg">
<rect width="48" height="48" rx="10" fill="#E1E1E1"/>
<path d="M39.3654 32.8027C39.4369 33.0859 39.5084 33.44 39.5798 33.7941C39.6513 34.1482 39.6513 34.5731 39.6513 34.998C39.6513 35.4229 39.6513 35.777 39.5798 36.131C39.5084 36.4851 39.4369 36.7684 39.294 36.91C39.2225 37.0516 39.0081 37.1225 38.5794 37.2641C38.2221 37.4057 37.7219 37.4765 37.1502 37.5474C36.5785 37.6182 35.9354 37.7598 35.2208 37.8306C34.5062 37.9014 33.8631 37.9723 33.1485 38.0431C32.4339 38.1139 31.7908 38.1139 31.0762 38.1847C30.433 38.1847 29.8614 38.2555 29.3611 38.2555C28.8609 38.2555 28.2893 38.2555 27.6461 38.1847C27.003 38.1139 26.3599 38.1139 25.6453 38.0431C24.9307 37.9723 24.2875 37.9014 23.5729 37.8306C22.9298 37.7598 22.2867 37.689 21.715 37.6182C21.1433 37.5474 20.6431 37.4765 20.2858 37.3349C19.9285 37.2641 19.6427 37.1933 19.5712 37.0516C19.4283 36.91 19.2854 36.4851 19.2139 35.7769C19.1425 35.0688 19.1425 34.219 19.2854 33.0859C19.3568 32.4486 19.6427 31.9529 20.0714 31.6696C20.5002 31.3863 20.929 31.1031 21.5006 30.8906C22.0723 30.6782 22.644 30.5365 23.2156 30.3949C23.7873 30.2533 24.359 30.0408 24.7878 29.7576C25.145 29.5451 25.4309 29.3327 25.5738 29.1202C25.7882 28.9078 25.8596 28.6953 26.0026 28.5537C26.074 28.3412 26.1455 28.1288 26.1455 27.9163V27.2082C26.074 26.8541 26.0026 26.5 25.7167 26.2876C25.5023 26.0751 25.2165 25.8627 24.9307 25.6502C24.7878 25.5086 24.6448 25.3669 24.5734 25.1545C24.5019 24.9421 24.359 24.7296 24.2875 24.5172C24.2161 24.3047 24.1446 24.0214 24.0732 23.7382C23.9302 23.6674 23.8588 23.6674 23.7159 23.5965C23.6444 23.5257 23.5015 23.3841 23.43 23.2425C23.2871 23.1008 23.2156 22.8884 23.1442 22.6051C23.0727 22.3218 23.0013 22.0386 23.0013 21.8261C23.0013 21.6137 23.0727 21.4012 23.1442 21.1888C23.2156 20.9763 23.3586 20.8347 23.43 20.6931C23.43 20.0557 23.43 19.4184 23.5015 18.781C23.5729 18.2145 23.7159 17.648 23.8588 17.0814C24.0017 16.5149 24.2875 15.9484 24.6448 15.3818C24.9307 14.8861 25.288 14.532 25.7167 14.2488C26.074 13.9655 26.5028 13.7531 26.9315 13.5406C27.3603 13.399 27.789 13.2574 28.1463 13.1865C28.5751 13.1157 28.9324 13.1157 29.3611 13.1157C30.3616 13.1157 31.2905 13.3282 32.0766 13.7531C32.8626 14.178 33.4343 14.6029 33.8631 15.0986C34.2918 15.6651 34.6491 16.2316 34.8635 16.869C35.0779 17.5063 35.2208 18.1437 35.2923 18.7102C35.3637 19.3476 35.4352 20.0557 35.4352 20.6931L35.721 20.9763C35.7925 21.118 35.8639 21.2596 35.8639 21.4012C35.8639 21.5429 35.9354 21.8261 35.8639 22.1094C35.7925 22.4635 35.721 22.7467 35.6496 22.9592C35.5066 23.1716 35.4352 23.3133 35.2923 23.4549C35.1493 23.5965 35.0064 23.6674 34.792 23.7382C34.7206 24.0214 34.6491 24.3047 34.5777 24.5172C34.5062 24.7296 34.4348 24.9421 34.2918 25.1545C34.1489 25.3669 34.0775 25.5086 33.9345 25.6502C33.7916 25.7918 33.6487 25.9335 33.5058 26.0043C33.3629 26.0751 33.2914 26.2167 33.1485 26.2876C33.077 26.3584 32.9341 26.5 32.9341 26.6416C32.8626 26.7833 32.7912 26.9249 32.7912 27.1374C32.7912 27.4206 32.7197 27.6331 32.7197 27.9163C32.7197 28.1996 32.7912 28.4121 32.9341 28.6953C33.077 28.9786 33.2199 29.191 33.5058 29.4035C33.7916 29.6159 34.1489 29.8284 34.6491 30.0408C35.0779 30.1825 35.5066 30.3949 36.0068 30.4657C36.5071 30.6074 37.0073 30.749 37.436 30.8906C37.9363 31.0323 38.2935 31.3155 38.6508 31.5988C38.9367 32.0237 39.1511 32.3778 39.3654 32.8027Z" fill="#A4A4A4"/>
<path d="M23.2081 27.9671C23.1378 28.1774 23.1378 28.3176 23.0676 28.4578C22.9973 28.598 22.8568 28.6681 22.646 28.8083C22.1542 29.0887 21.5921 29.3691 21.03 29.5794L19.3437 30.2103C18.7816 30.4205 18.36 30.771 17.9384 31.1215C17.5169 31.472 17.3061 32.0328 17.1656 32.7338C17.1656 32.944 17.0953 33.1543 17.0953 33.3646C17.0953 33.5749 17.0953 33.7852 17.025 33.9254L16.9548 33.9955C16.9548 33.9955 16.9548 34.0656 16.8845 34.0656L14.5659 33.8553C13.793 33.7852 13.0904 33.7151 12.3878 33.5749C11.7554 33.5048 11.1933 33.3646 10.7015 33.2945C10.2799 33.2244 9.99887 33.0842 9.85835 33.0141C9.71782 32.874 9.5773 32.4534 9.43678 31.7524C9.36651 31.0514 9.36651 30.2103 9.50704 29.0887C9.5773 28.4578 9.85835 28.0372 10.2799 27.6868C10.7015 27.4064 11.1231 27.126 11.6852 26.9157C12.2472 26.7054 12.8093 26.5652 13.3714 26.425C13.9335 26.2848 14.4956 26.0745 14.9172 25.7941C15.2685 25.5838 15.5495 25.3735 15.7603 25.1632C15.9711 24.953 16.0414 24.7427 16.1819 24.5324C16.2522 24.3221 16.3224 24.1118 16.3224 23.9015V23.2005C16.3224 22.7799 16.1819 22.4996 15.9009 22.2893C15.6901 22.079 15.409 21.8687 15.128 21.5883C14.9875 21.5182 14.8469 21.3079 14.7064 21.0976C14.6361 20.8873 14.4956 20.677 14.4254 20.4667C14.4956 20.4667 14.4254 20.1863 14.3551 19.906C14.2146 19.8359 14.1443 19.8359 14.0038 19.7658C13.9335 19.6957 13.793 19.5555 13.7227 19.4153C13.6525 19.2751 13.512 19.0648 13.4417 18.7844C13.3714 18.504 13.3012 18.2236 13.3012 18.0133C13.3012 17.803 13.3714 17.5927 13.4417 17.3824C13.512 17.1722 13.6525 16.9619 13.7227 16.8918C13.7227 16.2609 13.7227 15.63 13.793 14.9991C13.8633 14.4384 14.0038 13.8776 14.1443 13.3168C14.2848 12.6859 14.5659 12.1952 14.9172 11.7046C15.2685 11.1438 15.6198 10.7933 16.0414 10.5129C16.3927 10.2325 16.8143 10.0222 17.2358 9.81194C17.6574 9.67175 18.0087 9.53155 18.4303 9.46145C18.8518 9.39136 19.2734 9.39136 19.6247 9.39136C20.6084 9.39136 21.4515 9.60165 22.2244 10.0222C22.9973 10.4428 23.5594 10.8634 23.981 11.3541C24.262 11.6345 24.4728 11.9149 24.4728 12.1952C24.5431 12.4756 24.6133 12.8261 24.7538 13.1766C24.4025 13.3869 23.981 13.7374 23.5594 14.158C23.1378 14.5786 22.7865 14.9991 22.4352 15.4197C22.0839 15.9805 21.7326 16.5413 21.5218 17.2423C21.311 17.8731 21.1705 18.504 21.1002 19.0648C21.03 19.7658 20.9597 20.3966 20.9597 21.0976C20.8192 21.2378 20.6787 21.4481 20.6084 21.6584C20.5381 21.8687 20.4679 22.079 20.4679 22.3594C20.4679 22.6397 20.4679 22.9201 20.6084 23.2005C20.6787 23.551 20.8192 23.7613 20.8894 23.9716C21.03 24.1118 21.1002 24.252 21.2407 24.3922C21.3813 24.5324 21.4515 24.6025 21.5921 24.6025C21.6623 24.8829 21.7326 25.2333 21.8028 25.5137C21.8731 25.724 21.9434 26.0044 22.0839 26.2147C22.2244 26.425 22.2947 26.6353 22.5055 26.7755L22.7865 27.0559L22.9973 27.2662C23.0676 27.3363 23.0676 27.4064 23.0676 27.5466C23.1378 27.6167 23.1378 27.7568 23.2081 27.9671Z" fill="#FF0420"/>
</svg>
