<svg width="510" height="400" viewBox="0 0 510 400" fill="none" xmlns="http://www.w3.org/2000/svg">
    <rect y="8" width="510" height="400" rx="10" fill="#F6F6F6" />
    <g clip-path="url(#clip0_6649_4243)">
        <mask id="path-2-inside-1_6649_4243" fill="white">
            <path
                d="M147.839 202.952C189.978 160.813 238.839 138.152 269.67 143.67L274.57 138.77L289.464 153.664L289.459 153.668C314.163 179.206 291.891 242.084 239.431 294.544C186.971 347.004 124.094 369.276 98.5561 344.571L98.5512 344.576L83.6578 329.683L88.5578 324.783C83.04 293.952 105.7 245.091 147.839 202.952Z" />
        </mask>
        <path
            d="M147.839 202.952C189.978 160.813 238.839 138.152 269.67 143.67L274.57 138.77L289.464 153.664L289.459 153.668C314.163 179.206 291.891 242.084 239.431 294.544C186.971 347.004 124.094 369.276 98.5561 344.571L98.5512 344.576L83.6578 329.683L88.5578 324.783C83.04 293.952 105.7 245.091 147.839 202.952Z"
            fill="white" />
        <path
            d="M147.839 202.952L147.132 202.245L147.839 202.952ZM269.67 143.67L269.494 144.654L270.008 144.746L270.377 144.377L269.67 143.67ZM274.57 138.77L275.278 138.063L274.57 137.356L273.863 138.063L274.57 138.77ZM289.464 153.664L290.171 154.371L290.878 153.664L290.171 152.956L289.464 153.664ZM289.459 153.668L288.752 152.961L288.056 153.657L288.74 154.364L289.459 153.668ZM239.431 294.544L240.138 295.251L239.431 294.544ZM98.5561 344.571L99.2513 343.853L98.5444 343.169L97.8489 343.864L98.5561 344.571ZM98.5512 344.576L97.8441 345.283L98.5512 345.99L99.2583 345.283L98.5512 344.576ZM83.6578 329.683L82.9507 328.976L82.2436 329.683L82.9507 330.39L83.6578 329.683ZM88.5578 324.783L89.2649 325.49L89.6342 325.121L89.5422 324.606L88.5578 324.783ZM147.839 202.952L148.546 203.659C169.546 182.659 192.206 166.529 213.428 156.341C234.675 146.141 254.373 141.948 269.494 144.654L269.67 143.67L269.847 142.686C254.137 139.874 233.988 144.252 212.562 154.538C191.111 164.836 168.27 181.106 147.132 202.245L147.839 202.952ZM269.67 143.67L270.377 144.377L275.278 139.477L274.57 138.77L273.863 138.063L268.963 142.963L269.67 143.67ZM274.57 138.77L273.863 139.477L288.757 154.371L289.464 153.664L290.171 152.956L275.278 138.063L274.57 138.77ZM289.464 153.664L288.757 152.956L288.752 152.961L289.459 153.668L290.166 154.375L290.171 154.371L289.464 153.664ZM289.459 153.668L288.74 154.364C300.678 166.704 301.444 188.301 292.439 213.676C283.462 238.977 264.872 267.689 238.724 293.837L239.431 294.544L240.138 295.251C266.45 268.939 285.227 239.982 294.324 214.345C303.395 188.782 302.944 166.171 290.178 152.973L289.459 153.668ZM239.431 294.544L238.724 293.837C212.576 319.985 183.864 338.574 158.563 347.552C133.188 356.556 111.592 355.79 99.2513 343.853L98.5561 344.571L97.8608 345.29C111.058 358.057 133.67 358.507 159.232 349.437C184.87 340.34 213.826 321.563 240.138 295.251L239.431 294.544ZM98.5561 344.571L97.8489 343.864L97.8441 343.869L98.5512 344.576L99.2583 345.283L99.2632 345.278L98.5561 344.571ZM98.5512 344.576L99.2583 343.869L84.3649 328.976L83.6578 329.683L82.9507 330.39L97.8441 345.283L98.5512 344.576ZM83.6578 329.683L84.3649 330.39L89.2649 325.49L88.5578 324.783L87.8507 324.076L82.9507 328.976L83.6578 329.683ZM88.5578 324.783L89.5422 324.606C86.8359 309.485 91.0288 289.788 101.229 268.54C111.416 247.318 127.546 224.659 148.546 203.659L147.839 202.952L147.132 202.245C125.993 223.383 109.723 246.224 99.4255 267.675C89.1401 289.101 84.7619 309.249 87.5735 324.959L88.5578 324.783Z"
            fill="black" mask="url(#path-2-inside-1_6649_4243)" />
        <path
            d="M131.81 186.923C158.128 160.605 187.056 141.913 212.533 132.956C238.047 123.986 259.923 124.83 272.355 137.263C284.788 149.695 285.632 171.57 276.661 197.085C267.705 222.562 249.013 251.49 222.695 277.808C196.377 304.127 167.449 322.817 141.972 331.774C116.458 340.744 94.5823 339.901 82.1498 327.468C69.7173 315.036 68.8735 293.16 77.8436 267.646C86.8004 242.169 105.491 213.241 131.81 186.923Z"
            fill="white" stroke="black" />
        <mask id="path-5-inside-2_6649_4243" fill="white">
            <path
                d="M331.714 111.838C373.853 153.977 396.513 202.839 390.995 233.67L395.895 238.57L381.002 253.463L380.997 253.459C355.459 278.163 292.582 255.891 240.121 203.431C187.661 150.971 165.39 88.0936 190.094 62.5556L190.089 62.5507L204.983 47.6573L209.883 52.5573C240.714 47.0395 289.575 69.6994 331.714 111.838Z" />
        </mask>
        <path
            d="M331.714 111.838C373.853 153.977 396.513 202.839 390.995 233.67L395.895 238.57L381.002 253.463L380.997 253.459C355.459 278.163 292.582 255.891 240.121 203.431C187.661 150.971 165.39 88.0936 190.094 62.5556L190.089 62.5507L204.983 47.6573L209.883 52.5573C240.714 47.0395 289.575 69.6994 331.714 111.838Z"
            fill="white" />
        <path
            d="M331.714 111.838L332.421 111.131L331.714 111.838ZM390.995 233.67L390.011 233.494L389.919 234.008L390.288 234.377L390.995 233.67ZM395.895 238.57L396.603 239.277L397.31 238.57L396.603 237.863L395.895 238.57ZM381.002 253.463L380.295 254.17L381.002 254.878L381.709 254.17L381.002 253.463ZM380.997 253.459L381.704 252.751L381.009 252.056L380.302 252.74L380.997 253.459ZM240.121 203.431L239.414 204.138L240.121 203.431ZM190.094 62.5556L190.813 63.2508L191.497 62.5439L190.801 61.8485L190.094 62.5556ZM190.089 62.5507L189.382 61.8436L188.675 62.5507L189.382 63.2578L190.089 62.5507ZM204.983 47.6573L205.69 46.9502L204.983 46.2431L204.276 46.9502L204.983 47.6573ZM209.883 52.5573L209.176 53.2644L209.545 53.6337L210.059 53.5417L209.883 52.5573ZM331.714 111.838L331.007 112.545C352.007 133.546 368.137 156.205 378.324 177.427C388.524 198.675 392.717 218.372 390.011 233.494L390.995 233.67L391.98 233.846C394.791 218.136 390.413 197.988 380.127 176.562C369.83 155.111 353.56 132.27 332.421 111.131L331.714 111.838ZM390.995 233.67L390.288 234.377L395.188 239.277L395.895 238.57L396.603 237.863L391.703 232.963L390.995 233.67ZM395.895 238.57L395.188 237.863L380.295 252.756L381.002 253.463L381.709 254.17L396.603 239.277L395.895 238.57ZM381.002 253.463L381.709 252.756L381.704 252.751L380.997 253.459L380.29 254.166L380.295 254.17L381.002 253.463ZM380.997 253.459L380.302 252.74C367.961 264.677 346.365 265.443 320.989 256.439C295.689 247.461 266.977 228.872 240.828 202.724L240.121 203.431L239.414 204.138C265.726 230.45 294.683 249.227 320.321 258.324C345.884 267.394 368.495 266.944 381.692 254.177L380.997 253.459ZM240.121 203.431L240.828 202.724C214.68 176.575 196.091 147.864 187.114 122.563C178.11 97.1876 178.875 75.5913 190.813 63.2508L190.094 62.5556L189.375 61.8603C176.609 75.0578 176.158 97.669 185.229 123.232C194.326 148.869 213.102 177.826 239.414 204.138L240.121 203.431ZM190.094 62.5556L190.801 61.8485L190.797 61.8436L190.089 62.5507L189.382 63.2578L189.387 63.2627L190.094 62.5556ZM190.089 62.5507L190.797 63.2578L205.69 48.3644L204.983 47.6573L204.276 46.9502L189.382 61.8436L190.089 62.5507ZM204.983 47.6573L204.276 48.3644L209.176 53.2644L209.883 52.5573L210.59 51.8502L205.69 46.9502L204.983 47.6573ZM209.883 52.5573L210.059 53.5417C225.18 50.8354 244.878 55.0283 266.125 65.2281C287.347 75.4158 310.006 91.5452 331.007 112.545L331.714 111.838L332.421 111.131C311.282 89.9925 288.441 73.7226 266.991 63.4251C245.565 53.1396 225.416 48.7614 209.707 51.573L209.883 52.5573Z"
            fill="black" mask="url(#path-5-inside-2_6649_4243)" />
        <path
            d="M347.743 95.81C374.061 122.128 392.753 151.057 401.71 176.533C410.68 202.048 409.836 223.923 397.403 236.356C384.971 248.788 363.096 249.632 337.581 240.662C312.105 231.705 283.176 213.014 256.858 186.695C230.54 160.377 211.849 131.449 202.892 105.973C193.922 80.4581 194.765 58.5828 207.198 46.1503C219.63 33.7178 241.506 32.874 267.02 41.8441C292.497 50.8009 321.425 69.4918 347.743 95.81Z"
            fill="white" stroke="black" />
        <circle cx="321.039" cy="334.358" r="34.6076" fill="#FF0420" stroke="black" />
    </g>
    <defs>
        <clipPath id="clip0_6649_4243">
            <rect width="376" height="376" fill="white" transform="translate(52)" />
        </clipPath>
    </defs>
</svg>