<svg width="64" height="64" viewBox="0 0 64 64" fill="none" xmlns="http://www.w3.org/2000/svg">
<path d="M44.5781 0H19.4219C8.69548 0 0 8.69548 0 19.4219V44.5781C0 55.3045 8.69548 64 19.4219 64H44.5781C55.3045 64 64 55.3045 64 44.5781V19.4219C64 8.69548 55.3045 0 44.5781 0Z" fill="#FF0420"/>
<path d="M51.211 14.9843C51.211 14.4658 50.9302 14.0059 50.4981 13.8115C50.3407 13.7405 50.171 13.7065 50.0074 13.7065C49.7327 13.7065 49.4611 13.8022 49.2389 13.9874L35.4186 25.4992C35.1439 25.7276 34.9865 26.064 34.9865 26.422V37.585C34.9865 37.943 35.1439 38.2794 35.4186 38.5078L49.2358 50.0196C49.6154 50.3344 50.1524 50.3869 50.5876 50.1492C50.9703 49.9394 51.211 49.5196 51.211 49.0505V42.415C51.211 42.057 51.0536 41.7206 50.7789 41.4892L43.1466 35.1314C42.8164 34.8537 42.625 34.4494 42.625 34.0173V29.9897C42.625 29.5576 42.8164 29.1533 43.1466 28.8756L50.7789 22.5178C51.0536 22.2895 51.211 21.9531 51.211 21.592V14.9843Z" fill="white"/>
<path d="M28.5825 38.5078C28.8572 38.2794 29.0146 37.943 29.0146 37.585V26.422C29.0146 26.064 28.8572 25.7276 28.5825 25.4992L14.7622 13.9874C14.54 13.8022 14.2684 13.7065 13.9937 13.7065C13.827 13.7065 13.6604 13.7405 13.503 13.8115C13.0709 14.0059 12.79 14.4658 12.79 14.9843V21.592C12.79 21.95 12.9474 22.2864 13.2221 22.5178L20.8545 28.8756C21.1847 29.1533 21.376 29.5576 21.376 29.9897V34.0173C21.376 34.4494 21.1847 34.8537 20.8545 35.1314L13.2221 41.4892C12.9474 41.7175 12.79 42.057 12.79 42.415V49.0505C12.79 49.5196 13.0277 49.9394 13.4135 50.1492C13.8455 50.3869 14.3887 50.3344 14.7653 50.0196L28.5856 38.5078H28.5825Z" fill="white"/>
</svg>
