<svg width="1440" height="600" viewBox="0 0 1440 600" fill="none" xmlns="http://www.w3.org/2000/svg">
<g clip-path="url(#clip0_5652_5851)">
<rect width="1440" height="600" fill="white"/>
<path d="M105 411H95V421H105V411Z" fill="#E9E9E9"/>
<path d="M145 411H135V421H145V411Z" fill="#E9E9E9"/>
<path d="M105 451H95V461H105V451Z" fill="#E9E9E9"/>
<path d="M145 451H135V461H145V451Z" fill="#E9E9E9"/>
<path d="M185 451H175V461H185V451Z" fill="#E9E9E9"/>
<path d="M225 451H215V461H225V451Z" fill="#E9E9E9"/>
<path d="M265 451H255V461H265V451Z" fill="#E9E9E9"/>
<path d="M305 451H295V461H305V451Z" fill="#E9E9E9"/>
<path d="M185 411H175V421H185V411Z" fill="#E9E9E9"/>
<path d="M225 411H215V421H225V411Z" fill="#E9E9E9"/>
<path d="M265 411H255V421H265V411Z" fill="#E9E9E9"/>
<path d="M305 411H295V421H305V411Z" fill="#E9E9E9"/>
<path d="M105 491H95V501H105V491Z" fill="#E9E9E9"/>
<path d="M145 491H135V501H145V491Z" fill="#E9E9E9"/>
<path d="M185 491H175V501H185V491Z" fill="#E9E9E9"/>
<path d="M225 491H215V501H225V491Z" fill="#E9E9E9"/>
<path d="M265 491H255V501H265V491Z" fill="#625959"/>
<path d="M305 491H295V501H305V491Z" fill="#E9E9E9"/>
<path d="M105 531H95V541H105V531Z" fill="#E9E9E9"/>
<path d="M145 531H135V541H145V531Z" fill="#E9E9E9"/>
<path d="M185 531H175V541H185V531Z" fill="#E9E9E9"/>
<path d="M225 531H215V541H225V531Z" fill="#E9E9E9"/>
<path d="M265 531H255V541H265V531Z" fill="#E9E9E9"/>
<path d="M305 531H295V541H305V531Z" fill="#E9E9E9"/>
<path d="M345 531H335V541H345V531Z" fill="#E9E9E9"/>
<path d="M385 531H375V541H385V531Z" fill="#E9E9E9"/>
<path d="M425 531H415V541H425V531Z" fill="#E9E9E9"/>
<path d="M465 531H455V541H465V531Z" fill="#E9E9E9"/>
<path d="M505 531H495V541H505V531Z" fill="#E9E9E9"/>
<path d="M545 531H535V541H545V531Z" fill="#E9E9E9"/>
<path d="M585 531H575V541H585V531Z" fill="#E9E9E9"/>
<path d="M625 531H615V541H625V531Z" fill="#E9E9E9"/>
<path d="M665 531H655V541H665V531Z" fill="#625959"/>
<path d="M705 531H695V541H705V531Z" fill="#E9E9E9"/>
<path d="M745 531H735V541H745V531Z" fill="#E9E9E9"/>
<path d="M785 531H775V541H785V531Z" fill="#E9E9E9"/>
<path d="M825 531H815V541H825V531Z" fill="#E9E9E9"/>
<path d="M865 531H855V541H865V531Z" fill="#E9E9E9"/>
<path d="M905 531H895V541H905V531Z" fill="#E9E9E9"/>
<path d="M945 531H935V541H945V531Z" fill="#E9E9E9"/>
<path d="M985 531H975V541H985V531Z" fill="#E9E9E9"/>
<path d="M1025 531H1015V541H1025V531Z" fill="#E9E9E9"/>
<path d="M105 47H95V57H105V47Z" fill="#FF0420"/>
<path d="M145 47H135V57H145V47Z" fill="#E9E9E9"/>
<path d="M185 47H175V57H185V47Z" fill="#E9E9E9"/>
<path d="M225 47H215V57H225V47Z" fill="#E9E9E9"/>
<path d="M265 47H255V57H265V47Z" fill="#E9E9E9"/>
<path d="M305 47H295V57H305V47Z" fill="#E9E9E9"/>
<path d="M345 47H335V57H345V47Z" fill="#E9E9E9"/>
<path d="M385 47H375V57H385V47Z" fill="#E9E9E9"/>
<path d="M105 87H95V97H105V87Z" fill="#E9E9E9"/>
<path d="M145 87H135V97H145V87Z" fill="#E9E9E9"/>
<path d="M185 87H175V97H185V87Z" fill="#E9E9E9"/>
<path d="M225 87H215V97H225V87Z" fill="#E9E9E9"/>
<path d="M265 87H255V97H265V87Z" fill="#E9E9E9"/>
<path d="M305 87H295V97H305V87Z" fill="#E9E9E9"/>
<path d="M345 87H335V97H345V87Z" fill="#E9E9E9"/>
<path d="M385 87H375V97H385V87Z" fill="#E9E9E9"/>
<path d="M105 127H95V137H105V127Z" fill="#E9E9E9"/>
<path d="M145 127H135V137H145V127Z" fill="#3D3D3D"/>
<path d="M185 127H175V137H185V127Z" fill="#E9E9E9"/>
<path d="M225 127H215V137H225V127Z" fill="#E9E9E9"/>
<path d="M425 47H415V57H425V47Z" fill="#E9E9E9"/>
<path d="M465 47H455V57H465V47Z" fill="#E9E9E9"/>
<path d="M505 47H495V57H505V47Z" fill="#E9E9E9"/>
<path d="M545 47H535V57H545V47Z" fill="#E9E9E9"/>
<path d="M585 47H575V57H585V47Z" fill="#E9E9E9"/>
<path d="M625 47H615V57H625V47Z" fill="#E9E9E9"/>
<path d="M665 47H655V57H665V47Z" fill="#E9E9E9"/>
<path d="M705 47H695V57H705V47Z" fill="#E9E9E9"/>
<path d="M425 87H415V97H425V87Z" fill="#E9E9E9"/>
<path d="M465 87H455V97H465V87Z" fill="#E9E9E9"/>
<path d="M505 87H495V97H505V87Z" fill="#E9E9E9"/>
<path d="M545 87H535V97H545V87Z" fill="#E9E9E9"/>
<path d="M585 87H575V97H585V87Z" fill="#E9E9E9"/>
<path d="M625 87H615V97H625V87Z" fill="#625959"/>
<path d="M665 87H655V97H665V87Z" fill="#E9E9E9"/>
<path d="M705 87H695V97H705V87Z" fill="#E9E9E9"/>
<path d="M745 47H735V57H745V47Z" fill="#E9E9E9"/>
<path d="M785 47H775V57H785V47Z" fill="#E9E9E9"/>
<path d="M825 47H815V57H825V47Z" fill="#FF0420"/>
<path d="M865 47H855V57H865V47Z" fill="#E9E9E9"/>
<path d="M905 47H895V57H905V47Z" fill="#E9E9E9"/>
<path d="M945 47H935V57H945V47Z" fill="#E9E9E9"/>
<path d="M985 47H975V57H985V47Z" fill="#E9E9E9"/>
<path d="M1025 47H1015V57H1025V47Z" fill="#E9E9E9"/>
<path d="M745 87H735V97H745V87Z" fill="#E9E9E9"/>
<path d="M785 87H775V97H785V87Z" fill="#E9E9E9"/>
<path d="M825 87H815V97H825V87Z" fill="#E9E9E9"/>
<path d="M865 87H855V97H865V87Z" fill="#E9E9E9"/>
<path d="M905 87H895V97H905V87Z" fill="#E9E9E9"/>
<path d="M945 87H935V97H945V87Z" fill="#E9E9E9"/>
<path d="M985 87H975V97H985V87Z" fill="#E9E9E9"/>
<path d="M1025 87H1015V97H1025V87Z" fill="#E9E9E9"/>
<path d="M1065 47H1055V57H1065V47Z" fill="#E9E9E9"/>
<path d="M1105 47H1095V57H1105V47Z" fill="#E9E9E9"/>
<path d="M1145 47H1135V57H1145V47Z" fill="#E9E9E9"/>
<path d="M1185 47H1175V57H1185V47Z" fill="#E9E9E9"/>
<path d="M1225 47H1215V57H1225V47Z" fill="#E9E9E9"/>
<path d="M1265 47H1255V57H1265V47Z" fill="#E9E9E9"/>
<path d="M1305 47H1295V57H1305V47Z" fill="#E9E9E9"/>
<path d="M1345 47H1335V57H1345V47Z" fill="#625959"/>
<path d="M1065 87H1055V97H1065V87Z" fill="#E9E9E9"/>
<path d="M1105 87H1095V97H1105V87Z" fill="#E9E9E9"/>
<path d="M1145 87H1135V97H1145V87Z" fill="#E9E9E9"/>
<path d="M1185 87H1175V97H1185V87Z" fill="#E9E9E9"/>
<path d="M1225 87H1215V97H1225V87Z" fill="#E9E9E9"/>
<path d="M1265 87H1255V97H1265V87Z" fill="#E9E9E9"/>
<path d="M1305 87H1295V97H1305V87Z" fill="#E9E9E9"/>
<path d="M1345 87H1335V97H1345V87Z" fill="#E9E9E9"/>
<path d="M1225 127H1215V137H1225V127Z" fill="#E9E9E9"/>
<path d="M1265 127H1255V137H1265V127Z" fill="#E9E9E9"/>
<path d="M1305 127H1295V137H1305V127Z" fill="#E9E9E9"/>
<path d="M1345 127H1335V137H1345V127Z" fill="#E9E9E9"/>
<path d="M1305 411H1295V421H1305V411Z" fill="#E9E9E9"/>
<path d="M1345 411H1335V421H1345V411Z" fill="#E9E9E9"/>
<path d="M1105 451H1095V461H1105V451Z" fill="#E9E9E9"/>
<path d="M1145 451H1135V461H1145V451Z" fill="#E9E9E9"/>
<path d="M1185 451H1175V461H1185V451Z" fill="#E9E9E9"/>
<path d="M1225 451H1215V461H1225V451Z" fill="#E9E9E9"/>
<path d="M1265 451H1255V461H1265V451Z" fill="#E9E9E9"/>
<path d="M1105 411H1095V421H1105V411Z" fill="#E9E9E9"/>
<path d="M1145 411H1135V421H1145V411Z" fill="#E9E9E9"/>
<path d="M1185 411H1175V421H1185V411Z" fill="#E9E9E9"/>
<path d="M1225 411H1215V421H1225V411Z" fill="#E9E9E9"/>
<path d="M1265 411H1255V421H1265V411Z" fill="#E9E9E9"/>
<path d="M1305 451H1295V461H1305V451Z" fill="#E9E9E9"/>
<path d="M1345 451H1335V461H1345V451Z" fill="#E9E9E9"/>
<path d="M1105 491H1095V501H1105V491Z" fill="#E9E9E9"/>
<path d="M1145 491H1135V501H1145V491Z" fill="#E9E9E9"/>
<path d="M1185 491H1175V501H1185V491Z" fill="#E9E9E9"/>
<path d="M1225 491H1215V501H1225V491Z" fill="#E9E9E9"/>
<path d="M1265 491H1255V501H1265V491Z" fill="#FF0420"/>
<path d="M1305 491H1295V501H1305V491Z" fill="#E9E9E9"/>
<path d="M1345 491H1335V501H1345V491Z" fill="#E9E9E9"/>
<path d="M1065 531H1055V541H1065V531Z" fill="#E9E9E9"/>
<path d="M1105 531H1095V541H1105V531Z" fill="#E9E9E9"/>
<path d="M1145 531H1135V541H1145V531Z" fill="#E9E9E9"/>
<path d="M1185 531H1175V541H1185V531Z" fill="#E9E9E9"/>
<path d="M1225 531H1215V541H1225V531Z" fill="#E9E9E9"/>
<path d="M1265 531H1255V541H1265V531Z" fill="#E9E9E9"/>
<path d="M1305 531H1295V541H1305V531Z" fill="#E9E9E9"/>
<path d="M1345 531H1335V541H1345V531Z" fill="#E9E9E9"/>
</g>
<defs>
<clipPath id="clip0_5652_5851">
<rect width="1440" height="600" fill="white"/>
</clipPath>
</defs>
</svg>
