<svg width="20" height="20" viewBox="0 0 20 20" fill="none" xmlns="http://www.w3.org/2000/svg">
<path d="M17.4997 16.6665H19.1663V18.3332H0.833008V16.6665H2.49967V2.49984C2.49967 2.27882 2.58747 2.06686 2.74375 1.91058C2.90003 1.7543 3.11199 1.6665 3.33301 1.6665H16.6663C16.8874 1.6665 17.0993 1.7543 17.2556 1.91058C17.4119 2.06686 17.4997 2.27882 17.4997 2.49984V16.6665ZM15.833 16.6665V3.33317H4.16634V16.6665H15.833ZM6.66634 9.1665H9.16634V10.8332H6.66634V9.1665ZM6.66634 5.83317H9.16634V7.49984H6.66634V5.83317ZM6.66634 12.4998H9.16634V14.1665H6.66634V12.4998ZM10.833 12.4998H13.333V14.1665H10.833V12.4998ZM10.833 9.1665H13.333V10.8332H10.833V9.1665ZM10.833 5.83317H13.333V7.49984H10.833V5.83317Z" fill="#070808"/>
</svg>
