<svg width="27" height="32" viewBox="0 0 27 32" fill="none" xmlns="http://www.w3.org/2000/svg">
<path d="M25.9579 19.3285C25.7158 22.3231 24.4366 25.145 22.3333 27.2817C20.2349 29.4134 17.4703 30.707 14.5407 30.9559C15.029 24.7234 19.8546 19.832 25.9579 19.3285ZM12.459 30.9559C9.52954 30.7069 6.76505 29.4133 4.66671 27.2817C2.56354 25.1451 1.28438 22.3235 1.04212 19.329C7.11158 19.8354 11.9672 24.7271 12.459 30.9559ZM10.75 17.2343V15.2792L9.16473 16.4234C8.76027 16.7154 8.229 16.9048 7.65 16.9048C6.92578 16.9048 6.22798 16.6126 5.711 16.0875C5.1935 15.5617 4.9 14.8454 4.9 14.0952C4.9 12.9709 5.55111 12.0164 6.48047 11.5669L8.34136 10.6667L6.48047 9.76647C5.55321 9.3179 4.9 8.3495 4.9 7.2381C4.9 6.48793 5.1935 5.77159 5.711 5.24587C6.22798 4.72069 6.92578 4.42857 7.65 4.42857C8.24222 4.42857 8.76404 4.61014 9.15075 4.89961L10.75 6.09671V4.09905V3.80952C10.75 3.05935 11.0435 2.34302 11.561 1.8173C12.078 1.29211 12.7758 1 13.5 1C14.2242 1 14.922 1.29211 15.439 1.8173L16.1516 1.11578L15.439 1.8173C15.9565 2.34302 16.25 3.05935 16.25 3.80952V4.09905V6.09671L17.8493 4.89961C18.236 4.61014 18.7578 4.42857 19.35 4.42857C20.0742 4.42857 20.772 4.72069 21.289 5.24587C21.8065 5.77159 22.1 6.48793 22.1 7.2381C22.1 8.3495 21.4468 9.3179 20.5195 9.76646L18.6586 10.6667L20.5195 11.5669C21.4489 12.0164 22.1 12.9709 22.1 14.0952C22.1 14.8454 21.8065 15.5617 21.289 16.0875C20.772 16.6126 20.0742 16.9048 19.35 16.9048C18.771 16.9048 18.2397 16.7154 17.8353 16.4234L16.25 15.2792V17.2343V17.5238C16.25 18.274 15.9565 18.9903 15.439 19.516C14.922 20.0412 14.2242 20.3333 13.5 20.3333C12.7758 20.3333 12.078 20.0412 11.561 19.516C11.0435 18.9903 10.75 18.274 10.75 17.5238V17.2343ZM16.8643 7.27141C15.9748 6.36775 14.7649 5.85714 13.5 5.85714C12.2351 5.85714 11.0252 6.36775 10.1357 7.27141C9.24668 8.17454 8.75 9.39614 8.75 10.6667C8.75 11.9372 9.24668 13.1588 10.1357 14.0619C11.0252 14.9656 12.2351 15.4762 13.5 15.4762C14.7649 15.4762 15.9748 14.9656 16.8643 14.0619C17.7533 13.1588 18.25 11.9372 18.25 10.6667C18.25 9.39614 17.7533 8.17454 16.8643 7.27141Z" stroke="#ED0000" stroke-width="2"/>
</svg>
