<svg width="25" height="28" viewBox="0 0 25 28" fill="none" xmlns="http://www.w3.org/2000/svg">
<path d="M21.2541 4.82856L21.2542 4.82868C21.3314 4.95932 21.4068 5.09241 21.4804 5.22785L20.2655 3.68822C19.0976 2.20821 17.5564 1.15385 15.7727 1.15385H13.9264H11.5614L13.209 2.8505C13.7842 3.44285 14.2845 4.10142 14.6991 4.81178L14.9885 5.30769H15.5627H19.4805H21.5235C22.7861 7.66977 23.5 10.7331 23.5 14C23.5 17.2669 22.7861 20.3302 21.5235 22.6923H19.4845H15.5668H14.9926L14.7032 23.1882C14.2886 23.8986 13.7883 24.5572 13.213 25.1495L11.5655 26.8462H13.9305H15.7727C17.5564 26.8462 19.0972 25.7918 20.2684 24.3132L21.461 22.8077C21.3936 22.9309 21.3246 23.0521 21.2542 23.1713L21.2541 23.1714C19.7218 25.7643 17.7494 27 15.7727 27H9.22727C7.25061 27 5.27819 25.7643 3.74591 23.1714L3.74584 23.1713C2.31585 20.7522 1.5 17.4925 1.5 14C1.5 10.5075 2.31585 7.24778 3.74584 4.82868L3.74591 4.82856C5.27819 2.23566 7.25061 1 9.22727 1H15.7727C17.7494 1 19.7218 2.23566 21.2541 4.82856ZM22.2895 13.9231H23.3433L23.2882 12.8708C23.1554 10.3345 22.5785 7.97031 21.6846 6.04113L21.4161 5.46154H20.7773H16.6059H15.1545L15.6715 6.81774C16.4218 8.78605 16.8456 10.8606 16.9267 12.9616L16.9638 13.9231H17.9259H22.2895ZM20.7773 22.5385H21.4161L21.6846 21.9589C22.5785 20.0297 23.1554 17.6656 23.2895 15.1298L23.3452 14.0769H22.2909H17.9273H16.9651L16.928 15.0384C16.8469 17.1394 16.4232 19.214 15.6729 21.1823L15.1559 22.5385H16.6073H20.7773Z" stroke="#ED0000" stroke-width="2"/>
</svg>
