<svg width="28" height="32" viewBox="0 0 28 32" fill="none" xmlns="http://www.w3.org/2000/svg">
<path fill-rule="evenodd" clip-rule="evenodd" d="M13.9996 4C14.53 4 15.0387 3.78929 15.4138 3.41421C15.7888 3.03914 15.9995 2.53043 15.9995 2C15.9995 1.46957 15.7888 0.960859 15.4138 0.585786C15.0387 0.210714 14.53 0 13.9996 0C13.4692 0 12.9605 0.210714 12.5854 0.585786C12.2104 0.960859 11.9997 1.46957 11.9997 2C11.9997 2.53043 12.2104 3.03914 12.5854 3.41421C12.9605 3.78929 13.4692 4 13.9996 4ZM13.9996 32C14.5302 32 15.0391 31.7892 15.4143 31.414C15.7896 31.0388 16.0003 30.5298 16.0003 29.9992C16.0003 29.4686 15.7896 28.9596 15.4143 28.5844C15.0391 28.2092 14.5302 27.9984 13.9996 27.9984C13.469 27.9984 12.9601 28.2092 12.5849 28.5844C12.2096 28.9596 11.9989 29.4686 11.9989 29.9992C11.9989 30.5298 12.2096 31.0388 12.5849 31.414C12.9601 31.7892 13.469 32 13.9996 32ZM15.9995 9C15.9995 9.53043 15.7888 10.0391 15.4138 10.4142C15.0387 10.7893 14.53 11 13.9996 11C13.4692 11 12.9605 10.7893 12.5854 10.4142C12.2104 10.0391 11.9997 9.53043 11.9997 9C11.9997 8.46957 12.2104 7.96086 12.5854 7.58579C12.9605 7.21071 13.4692 7 13.9996 7C14.53 7 15.0387 7.21071 15.4138 7.58579C15.7888 7.96086 15.9995 8.46957 15.9995 9ZM7.49899 7C7.8968 7 8.27832 6.84197 8.55962 6.56066C8.84091 6.27936 8.99894 5.89782 8.99894 5.5C8.99894 5.10218 8.84091 4.72064 8.55962 4.43934C8.27832 4.15803 7.8968 4 7.49899 4C7.10117 4 6.71965 4.15803 6.43836 4.43934C6.15706 4.72064 5.99903 5.10218 5.99903 5.5C5.99903 5.89782 6.15706 6.27936 6.43836 6.56066C6.71965 6.84197 7.10117 7 7.49899 7ZM8.99974 26.4992C8.99974 26.8972 8.84163 27.279 8.56018 27.5604C8.27874 27.8419 7.89701 28 7.49899 28C7.10096 28 6.71924 27.8419 6.43779 27.5604C6.15634 27.279 5.99823 26.8972 5.99823 26.4992C5.99823 26.1012 6.15634 25.7194 6.43779 25.438C6.71924 25.1565 7.10096 24.9984 7.49899 24.9984C7.89701 24.9984 8.27874 25.1565 8.56018 25.438C8.84163 25.7194 8.99974 26.1012 8.99974 26.4992ZM19.9994 15C20.5298 15 21.0385 14.7893 21.4136 14.4142C21.7887 14.0391 21.9994 13.5304 21.9994 13C21.9994 12.4696 21.7887 11.9609 21.4136 11.5858C21.0385 11.2107 20.5298 11 19.9994 11C19.469 11 18.9603 11.2107 18.5853 11.5858C18.2102 11.9609 17.9995 12.4696 17.9995 13C17.9995 13.5304 18.2102 14.0391 18.5853 14.4142C18.9603 14.7893 19.469 15 19.9994 15ZM21.9994 19C22.0069 19.2673 21.9608 19.5334 21.8638 19.7826C21.7667 20.0317 21.6206 20.2589 21.4343 20.4506C21.2479 20.6424 21.0249 20.7948 20.7786 20.8989C20.5323 21.0029 20.2676 21.0566 20.0002 21.0566C19.7328 21.0566 19.4682 21.0029 19.2218 20.8989C18.9755 20.7948 18.7526 20.6424 18.5662 20.4506C18.3798 20.2589 18.2338 20.0317 18.1367 19.7826C18.0396 19.5334 17.9935 19.2673 18.0011 19C18.0158 18.4796 18.2329 17.9854 18.6062 17.6225C18.9795 17.2596 19.4796 17.0566 20.0002 17.0566C20.5209 17.0566 21.021 17.2596 21.3943 17.6225C21.7676 17.9854 21.9846 18.4796 21.9994 19ZM13.9996 25C14.5302 25 15.0391 24.7892 15.4143 24.414C15.7896 24.0388 16.0003 23.5298 16.0003 22.9992C16.0003 22.4686 15.7896 21.9596 15.4143 21.5844C15.0391 21.2092 14.5302 20.9984 13.9996 20.9984C13.469 20.9984 12.9601 21.2092 12.5849 21.5844C12.2096 21.9596 11.9989 22.4686 11.9989 22.9992C11.9989 23.5298 12.2096 24.0388 12.5849 24.414C12.9601 24.7892 13.469 25 13.9996 25ZM15.478 16C15.4784 16.3933 15.3231 16.7707 15.0461 17.0498C14.7691 17.329 14.3928 17.4871 13.9996 17.4896C13.8047 17.489 13.6118 17.4499 13.432 17.3747C13.2522 17.2995 13.089 17.1896 12.9517 17.0512C12.8144 16.9129 12.7057 16.7488 12.6318 16.5685C12.558 16.3881 12.5204 16.1949 12.5212 16C12.5212 15.1776 13.1836 14.5104 13.9996 14.5104C14.8156 14.5104 15.478 15.1776 15.478 15.9984M7.49899 20.968C7.89659 20.968 8.2779 20.81 8.55905 20.5289C8.8402 20.2477 8.99814 19.8664 8.99814 19.4688C8.99814 19.0712 8.8402 18.6899 8.55905 18.4087C8.2779 18.1276 7.89659 17.9696 7.49899 17.9696C7.10138 17.9696 6.72007 18.1276 6.43892 18.4087C6.15777 18.6899 5.99983 19.0712 5.99983 19.4688C5.99983 19.8664 6.15777 20.2477 6.43892 20.5289C6.72007 20.81 7.10138 20.968 7.49899 20.968ZM8.99974 12.44C9.00631 12.6411 8.97238 12.8415 8.89995 13.0292C8.82753 13.2169 8.7181 13.3882 8.57816 13.5328C8.43823 13.6773 8.27066 13.7923 8.0854 13.8708C7.90014 13.9493 7.70099 13.9898 7.49979 13.9898C7.29858 13.9898 7.09943 13.9493 6.91417 13.8708C6.72892 13.7923 6.56134 13.6773 6.42141 13.5328C6.28147 13.3882 6.17204 13.2169 6.09962 13.0292C6.0272 12.8415 5.99326 12.6411 5.99983 12.44C6.01255 12.0507 6.17615 11.6815 6.45606 11.4106C6.73596 11.1397 7.11024 10.9882 7.49979 10.9882C7.88933 10.9882 8.26361 11.1397 8.54352 11.4106C8.82342 11.6815 8.98703 12.0507 8.99974 12.44ZM0.999972 9.9984C1.26518 9.9984 1.51953 9.89304 1.70706 9.70551C1.89459 9.51797 1.99994 9.26362 1.99994 8.9984C1.99994 8.73318 1.89459 8.47883 1.70706 8.29129C1.51953 8.10376 1.26518 7.9984 0.999972 7.9984C0.734763 7.9984 0.480416 8.10376 0.292885 8.29129C0.105354 8.47883 0 8.73318 0 8.9984C0 9.26362 0.105354 9.51797 0.292885 9.70551C0.480416 9.89304 0.734763 9.9984 0.999972 9.9984ZM1.99994 16C1.99994 16.2652 1.89459 16.5196 1.70706 16.7071C1.51953 16.8946 1.26518 17 0.999972 17C0.734763 17 0.480416 16.8946 0.292885 16.7071C0.105354 16.5196 0 16.2652 0 16C0 15.7348 0.105354 15.4804 0.292885 15.2929C0.480416 15.1054 0.734763 15 0.999972 15C1.26518 15 1.51953 15.1054 1.70706 15.2929C1.89459 15.4804 1.99994 15.7348 1.99994 16ZM0.999972 24C1.26518 24 1.51953 23.8946 1.70706 23.7071C1.89459 23.5196 1.99994 23.2652 1.99994 23C1.99994 22.7348 1.89459 22.4804 1.70706 22.2929C1.51953 22.1054 1.26518 22 0.999972 22C0.734763 22 0.480416 22.1054 0.292885 22.2929C0.105354 22.4804 0 22.7348 0 23C0 23.2652 0.105354 23.5196 0.292885 23.7071C0.480416 23.8946 0.734763 24 0.999972 24ZM21.9994 6C21.9994 6.53043 21.7887 7.03914 21.4136 7.41421C21.0385 7.78929 20.5298 8 19.9994 8C19.469 8 18.9603 7.78929 18.5853 7.41421C18.2102 7.03914 17.9995 6.53043 17.9995 6C17.9995 5.46957 18.2102 4.96086 18.5853 4.58579C18.9603 4.21071 19.469 4 19.9994 4C20.5298 4 21.0385 4.21071 21.4136 4.58579C21.7887 4.96086 21.9994 5.46957 21.9994 6ZM19.9994 28C20.2667 28.0076 20.5328 27.9614 20.782 27.8644C21.0311 27.7673 21.2583 27.6213 21.45 27.4349C21.6418 27.2485 21.7942 27.0255 21.8982 26.7792C22.0023 26.5329 22.0559 26.2682 22.0559 26.0008C22.0559 25.7334 22.0023 25.4687 21.8982 25.2224C21.7942 24.9761 21.6418 24.7531 21.45 24.5667C21.2583 24.3803 21.0311 24.2343 20.782 24.1372C20.5328 24.0402 20.2667 23.994 19.9994 24.0016C19.479 24.0163 18.9849 24.2334 18.622 24.6067C18.2591 24.98 18.056 25.4802 18.056 26.0008C18.056 26.5214 18.2591 27.0216 18.622 27.3949C18.9849 27.7682 19.479 27.9853 19.9994 28ZM27.9992 9.4992C28.0076 9.83283 27.9492 10.1648 27.8274 10.4755C27.7055 10.7862 27.5228 11.0693 27.2898 11.3083C27.0568 11.5472 26.7784 11.7371 26.4709 11.8668C26.1633 11.9965 25.833 12.0633 25.4993 12.0633C25.1655 12.0633 24.8352 11.9965 24.5277 11.8668C24.2202 11.7371 23.9417 11.5472 23.7088 11.3083C23.4758 11.0693 23.293 10.7862 23.1712 10.4755C23.0493 10.1648 22.9909 9.83283 22.9993 9.4992C23.0158 8.84711 23.2865 8.22727 23.7535 7.77189C24.2205 7.31652 24.847 7.06165 25.4993 7.06165C26.1516 7.06165 26.778 7.31652 27.2451 7.77189C27.7121 8.22727 27.9827 8.84711 27.9992 9.4992ZM25.5001 25C26.1629 25 26.7985 24.7367 27.2672 24.268C27.7359 23.7993 27.9992 23.1636 27.9992 22.5008C27.9992 21.838 27.7359 21.2023 27.2672 20.7336C26.7985 20.2649 26.1629 20.0016 25.5001 20.0016C24.8373 20.0016 24.2016 20.2649 23.7329 20.7336C23.2642 21.2023 23.0009 21.838 23.0009 22.5008C23.0009 23.1636 23.2642 23.7993 23.7329 24.268C24.2016 24.7367 24.8373 25 25.5001 25ZM27.9992 16C27.9992 16.663 27.7358 17.2989 27.267 17.7678C26.7982 18.2366 26.1623 18.5 25.4993 18.5C24.8363 18.5 24.2004 18.2366 23.7316 17.7678C23.2627 17.2989 22.9993 16.663 22.9993 16C22.9993 15.337 23.2627 14.7011 23.7316 14.2322C24.2004 13.7634 24.8363 13.5 25.4993 13.5C26.1623 13.5 26.7982 13.7634 27.267 14.2322C27.7358 14.7011 27.9992 15.337 27.9992 16Z" fill="#ED0000"/>
</svg>
