<svg width="29" height="29" viewBox="0 0 29 29" fill="none" xmlns="http://www.w3.org/2000/svg">
<path d="M24.9019 1.75031L24.9018 1.75021C24.4213 1.26986 23.7697 1 23.0903 1C22.4109 1 21.7593 1.26986 21.2789 1.75021L18.9296 4.09811L18.9292 4.09845C18.4489 4.57894 18.1791 5.23053 18.1791 5.90992C18.1791 6.58931 18.4489 7.2409 18.9292 7.7214L18.9296 7.72174L21.2789 10.0696C21.7593 10.55 22.4109 10.8198 23.0903 10.8198C23.7697 10.8198 24.4213 10.55 24.9018 10.0696L24.9019 10.0695L27.2498 7.7215L27.2499 7.7214C27.7302 7.2409 28 6.58931 28 5.90992C28 5.23054 27.7302 4.57895 27.2499 4.09845L27.2498 4.09834L24.9019 1.75031ZM8.24852 28H8.81065H9.24852H9.81065H16.0592H16.6213H17.0592H17.6213H19.9645C21.2655 28 22.5132 27.4832 23.4331 26.5632C24.353 25.6432 24.8698 24.3954 24.8698 23.0944V20.7511V20.1889V19.7511V19.1889V12.9399V11.9399H23.8698H17.6213H17.0592V11.3777V5.12881V4.12881H16.0592H9.81065H9.24852H8.81065H8.24852H5.90533C4.60433 4.12881 3.35664 4.64566 2.43671 5.56564C1.51679 6.48562 1 7.73336 1 9.03438V11.3777V11.9399V12.3777V12.9399V19.1889V19.7511V20.1889V20.7511V23.0944C1 24.3954 1.51679 25.6432 2.43671 26.5632C3.35664 27.4832 4.60433 28 5.90533 28H8.24852Z" stroke="#ED0000" stroke-width="2"/>
</svg>
