<svg width="48" height="49" viewBox="0 0 48 49" fill="none" xmlns="http://www.w3.org/2000/svg">
<rect y="0.5" width="48" height="48" rx="10" fill="#F0F0F0"/>
<path d="M34.475 17.7782C34.475 15.5422 32.8956 13.7333 30.9485 13.7333H27.422V16.5645H30.9485C31.5325 16.5645 32.0068 17.1074 32.0068 17.777V25.8667H23.8965C22.9235 25.8667 22.1338 26.7722 22.1338 27.8891V35.9776C22.1338 37.0956 22.9224 38 23.8965 38H36.2377C37.2107 38 38.0005 37.0956 38.0005 35.9776V27.888C38.0005 26.7711 37.2118 25.8656 36.2377 25.8656H34.475V17.7782Z" fill="#FF0420"/>
<path d="M25.8667 12.0224C25.8667 10.9044 25.078 10 24.1039 10H11.7627C10.7897 10 10 10.9044 10 12.0224V20.112C10 21.2289 10.7886 22.1344 11.7627 22.1344H13.5255V30.2218L13.5308 30.431C13.6246 32.568 15.1656 34.2667 17.052 34.2667H20.5774V31.4355H17.052C16.4679 31.4355 15.9937 30.8927 15.9937 30.223V22.1333H24.1039C25.077 22.1333 25.8667 21.2278 25.8667 20.1109V12.0224Z" fill="#A4A4A4"/>
</svg>
