<svg width="48" height="48" viewBox="0 0 48 48" fill="none" xmlns="http://www.w3.org/2000/svg">
<rect width="48" height="48" rx="10" fill="#1D1D1D"/>
<path d="M37.0348 16.9842L24.8941 10.541C24.763 10.4714 24.6172 10.4349 24.4691 10.4348C24.3197 10.4359 24.1727 10.4723 24.0396 10.541L11.9674 17.0073C11.8234 17.0837 11.7021 17.1976 11.6161 17.3373C11.5302 17.4769 11.4827 17.6373 11.4785 17.8017V36.6415C11.4785 36.8865 11.5748 37.1215 11.7462 37.2947C11.9176 37.4679 12.15 37.5652 12.3924 37.5652H36.6099C36.8522 37.5652 37.0847 37.4679 37.2561 37.2947C37.4275 37.1215 37.5237 36.8865 37.5237 36.6415V17.8017C37.5237 17.6333 37.4781 17.4682 37.3919 17.3241C37.3058 17.18 37.1823 17.0625 37.0348 16.9842Z" fill="#A4A4A4"/>
<rect x="13.7734" y="28.4889" width="19.4133" height="3.69778" fill="#FF0420"/>
</svg>
