<svg width="48" height="48" viewBox="0 0 48 48" fill="none" xmlns="http://www.w3.org/2000/svg">
<rect width="48" height="48" rx="10" fill="#1D1D1D"/>
<path d="M24.0041 7.30432C14.7828 7.30432 7.30469 14.7787 7.30469 24C7.30469 33.225 14.7791 40.6956 24.0003 40.6956C33.2253 40.6956 40.696 33.2212 40.696 24C40.6997 14.7787 33.2216 7.30432 24.0041 7.30432Z" fill="#A4A4A4"/>
<path d="M26.3362 21.9131L20.5491 22.0263C20.4193 22.5443 20.1709 23.028 19.8262 23.4499L23.4037 27.6522C24.1563 27.3435 24.9941 27.2543 25.806 27.3984L27.6523 23.769C27.022 23.2853 26.5623 22.6369 26.3362 21.9131Z" fill="#A4A4A4"/>
<path d="M29.1016 15.8386C30.8484 15.2923 32.7442 15.9724 33.7402 17.5037C34.7363 19.0423 34.5951 21.0535 33.3984 22.4324C32.198 23.8149 30.2279 24.2275 28.5703 23.4509L26.8271 27.1453C28.4772 27.9221 29.4172 29.706 29.1162 31.5085C28.8152 33.3111 27.3623 34.6975 25.5449 34.9021C23.7275 35.1065 21.9951 34.0845 21.3037 32.3972C20.6087 30.7061 21.1212 28.7615 22.5596 27.6316L19.1367 23.283C17.6463 24.4575 15.5427 24.4463 14.0635 23.2644C12.5808 22.0825 12.1051 20.0353 12.915 18.322C13.7215 16.605 15.6094 15.6752 17.4639 16.0652C19.3184 16.4591 20.6564 18.0723 20.7012 19.9714L26.2324 19.8494C26.1841 18.0207 27.3547 16.3813 29.1016 15.8386ZM20.5293 21.239C20.3995 21.757 20.1504 22.2409 19.8057 22.6628L23.3838 26.865C24.1363 26.5563 24.9743 26.467 25.7861 26.6111L27.6318 22.9812C27.0018 22.4975 26.5415 21.8494 26.3154 21.1257L20.5293 21.239Z" fill="#FF0420"/>
</svg>
