<svg width="48" height="48" viewBox="0 0 48 48" fill="none" xmlns="http://www.w3.org/2000/svg">
<rect width="48" height="48" rx="10" fill="#E1E1E1"/>
<path d="M36.9668 22.5398C36.1202 22.2833 35.2104 22.3313 34.3956 22.6756C33.5807 23.0199 32.9122 23.6388 32.5061 24.4246H29.5218V23.9377C29.5216 22.9389 29.2784 21.9552 28.8132 21.0714C28.348 20.1875 27.6748 19.4301 26.8517 18.8645L27.9982 14.9378H28.2495C28.7425 14.9317 29.2295 14.8285 29.6826 14.6341C30.1357 14.4397 30.546 14.158 30.8902 13.8051C31.2345 13.4521 31.5058 13.0348 31.6887 12.577C31.8716 12.1191 31.9626 11.6298 31.9563 11.1368C31.9563 10.1516 31.565 9.20677 30.8683 8.51014C30.1717 7.81351 29.2269 7.42215 28.2417 7.42215C27.2565 7.42215 26.3117 7.81351 25.6151 8.51014C24.9184 9.20677 24.5271 10.1516 24.5271 11.1368C24.54 11.77 24.7123 12.3897 25.028 12.9387C25.3437 13.4878 25.7926 13.9484 26.3333 14.2781L25.2496 17.9849C24.3526 17.6917 23.3985 17.6171 22.4668 17.7674C21.5352 17.9176 20.6529 18.2884 19.8936 18.8488L14.3648 13.2258C14.7456 12.6294 14.9523 11.9385 14.9617 11.231C14.9827 10.7282 14.9029 10.2262 14.7268 9.75474C14.5507 9.28326 14.282 8.85181 13.9365 8.48583C13.5911 8.11986 13.1758 7.82677 12.7152 7.62385C12.2547 7.42094 11.7581 7.3123 11.2549 7.30435C10.2579 7.31678 9.30638 7.72373 8.60872 8.43612C7.91105 9.1485 7.52405 10.1083 7.53243 11.1054C7.52412 11.6017 7.61393 12.0948 7.7967 12.5564C7.97948 13.0179 8.25161 13.4388 8.59749 13.7949C8.94337 14.151 9.35618 14.4353 9.81221 14.6314C10.2683 14.8275 10.7585 14.9317 11.2549 14.9378C11.9069 14.9165 12.5414 14.7213 13.0926 14.3724L18.7627 20.2152C18.0397 21.21 17.6246 22.3951 17.5688 23.6236C17.5129 24.8521 17.8188 26.0699 18.4486 27.1262L13.6737 31.1C12.9851 30.4404 12.0671 30.0744 11.1136 30.079C10.1034 30.079 9.13458 30.4803 8.42028 31.1946C7.70598 31.9089 7.30469 32.8777 7.30469 33.8879C7.30469 34.8981 7.70598 35.8669 8.42028 36.5812C9.13458 37.2955 10.1034 37.6968 11.1136 37.6968C11.7218 37.6943 12.3202 37.544 12.8575 37.2589C13.3948 36.9739 13.8547 36.5625 14.1978 36.0603C14.5408 35.5581 14.7567 34.98 14.8269 34.3759C14.897 33.7717 14.8193 33.1596 14.6004 32.5921L19.6266 28.5084C20.6991 29.5049 22.105 30.065 23.569 30.079C24.2185 30.069 24.8615 29.9468 25.4695 29.7178L27.26 33.7387C26.8172 34.0937 26.4592 34.5429 26.2119 35.0537C25.9647 35.5645 25.8344 36.1241 25.8307 36.6916C25.8465 37.4598 26.0986 38.2045 26.5527 38.8243C27.0069 39.4441 27.641 39.909 28.3688 40.1555C29.0966 40.402 29.8826 40.4183 30.62 40.202C31.3573 39.9858 32.0102 39.5476 32.4896 38.9471C32.969 38.3466 33.2516 37.613 33.2992 36.846C33.3467 36.0791 33.1567 35.3162 32.7551 34.6611C32.3535 34.006 31.7597 33.4906 31.0547 33.185C30.3497 32.8794 29.5676 32.7986 28.815 32.9534L27.0087 28.901C27.9661 28.1991 28.6976 27.2329 29.1134 26.121H32.0506C32.0457 26.8264 32.2373 27.5192 32.6039 28.1219C32.9704 28.7247 33.4975 29.2135 34.126 29.5337C34.7546 29.854 35.4599 29.993 36.1629 29.9352C36.866 29.8774 37.5391 29.6251 38.1069 29.2065C38.6747 28.7879 39.1149 28.2195 39.3781 27.565C39.6413 26.9105 39.7171 26.1957 39.5971 25.5005C39.4772 24.8054 39.1661 24.1573 38.6988 23.6289C38.2315 23.1004 37.6263 22.7125 36.951 22.5084L36.9668 22.5398Z" fill="#A4A4A4"/>
<circle cx="23.7498" cy="24.0706" r="6.58185" fill="#FF0420"/>
</svg>
