<svg width="200" height="100" viewBox="0 0 200 200" fill="none" xmlns="http://www.w3.org/2000/svg">
  <path d="M20.1077 97.8417C31.2752 97.9019 40.3723 107.068 40.8904 118.581H20.1077V97.8417Z"
    fill="url(#paint0_linear_285_663)" />
  <path
    d="M20.1077 118.581C20.6864 118.581 21.2507 118.581 21.8742 118.581C25.8229 118.581 29.7269 117.526 33.0022 115.24C37.0383 112.423 39.7898 108.124 40.6527 103.285C41.5078 98.4449 40.4036 93.4633 37.5827 89.4335C34.7614 85.4036 30.4534 82.6539 25.6036 81.7881C23.9969 81.5064 22.3748 81.439 20.7772 81.5772C20.4201 81.6081 20.1524 81.9116 20.1524 82.27V82.27C20.1524 82.6976 20.5284 83.0266 20.9545 82.9913C22.4114 82.8706 23.8898 82.9352 25.3543 83.1929C29.8308 83.9919 33.8074 86.53 36.4115 90.25C39.0157 93.9701 40.0343 98.5684 39.2446 103.036C38.4486 107.503 35.9093 111.471 32.1834 114.071C31.2138 114.748 30.1844 115.318 29.1132 115.776C29.5971 115.511 30.0686 115.219 30.5253 114.9C33.8689 112.566 36.1487 109.005 36.8631 104.996C37.5719 100.986 36.6569 96.8589 34.32 93.5204C31.9825 90.1817 28.4136 87.904 24.3958 87.1865C23.1492 86.968 21.8914 86.9051 20.6496 86.992C20.3668 87.0118 20.1524 87.2505 20.1524 87.534V87.534C20.1524 87.8634 20.4387 88.1189 20.7674 88.0968C21.906 88.0202 23.0589 88.0794 24.2018 88.2796C27.9293 88.945 31.2407 91.0582 33.4093 94.1557C35.5779 97.2532 36.4266 101.082 35.7695 104.803C35.1062 108.522 32.9897 111.825 29.8874 113.99C28.1735 115.186 26.2355 115.98 24.2153 116.342C25.5734 115.977 26.8709 115.379 28.0453 114.559C30.6971 112.709 32.5045 109.884 33.0706 106.705C33.6324 103.526 32.9068 100.253 31.0537 97.6056C29.2005 94.9583 26.37 93.1521 23.1843 92.5833C22.2974 92.4278 21.4036 92.3717 20.5181 92.4115C20.3117 92.4208 20.1524 92.5932 20.1524 92.7998V92.7998C20.1524 93.0304 20.3491 93.2113 20.5795 93.2014C21.3989 93.1663 22.2258 93.219 23.0463 93.3626C26.0251 93.8944 28.6712 95.5831 30.4042 98.0588C32.1369 100.534 32.8149 103.594 32.2891 106.567C31.7597 109.539 30.0698 112.18 27.5907 113.91C25.4121 115.431 22.7359 116.182 20.1077 115.977V118.581Z"
    fill="url(#paint1_linear_285_663)" />
  <path
    d="M20.1077 115.817C22.0285 115.868 23.973 115.32 25.5662 114.208C27.5263 112.841 28.8622 110.754 29.281 108.405C29.6962 106.056 29.1599 103.637 27.7898 101.681C26.4203 99.7247 24.3289 98.3903 21.9743 97.9704C21.3685 97.8642 20.8351 97.8523 20.1077 97.8414V98.3171C20.6857 98.2996 21.313 98.3374 21.8912 98.4387C24.1214 98.8363 26.102 100.1 27.3995 101.953C28.6966 103.806 29.2051 106.097 28.8119 108.322C28.4151 110.547 27.1493 112.524 25.2935 113.819C23.7805 114.874 21.9314 115.392 20.1077 115.341V115.817Z"
    fill="url(#paint2_linear_285_663)" />
  <mask id="mask0_285_663" style="mask-type:alpha" maskUnits="userSpaceOnUse" x="20" y="97" width="21" height="22">
    <path d="M20.1077 97.8417C31.2752 97.9019 40.3723 107.068 40.8904 118.581H20.1077V97.8417Z"
      fill="url(#paint3_linear_285_663)" />
  </mask>
  <g mask="url(#mask0_285_663)">
    <path
      d="M20.1077 118.581C20.6864 118.581 21.2507 118.581 21.8742 118.581C25.8229 118.581 29.7269 117.526 33.0022 115.24C37.0383 112.423 39.7898 108.124 40.6527 103.285C41.5078 98.4449 40.4036 93.4633 37.5827 89.4335C34.7614 85.4036 30.4534 82.6539 25.6036 81.7881C23.9969 81.5064 22.3748 81.439 20.7772 81.5772C20.4201 81.6081 20.1524 81.9116 20.1524 82.27V82.27C20.1524 82.6976 20.5284 83.0266 20.9545 82.9913C22.4114 82.8706 23.8898 82.9352 25.3543 83.1929C29.8308 83.9919 33.8074 86.53 36.4115 90.25C39.0157 93.9701 40.0343 98.5684 39.2446 103.036C38.4486 107.503 35.9093 111.471 32.1834 114.071C31.2138 114.748 30.1844 115.318 29.1132 115.776C29.5971 115.511 30.0686 115.219 30.5253 114.9C33.8689 112.566 36.1487 109.005 36.8631 104.996C37.5719 100.986 36.6569 96.8589 34.32 93.5204C31.9825 90.1817 28.4136 87.904 24.3958 87.1865C23.1492 86.968 21.8914 86.9051 20.6496 86.992C20.3668 87.0118 20.1524 87.2505 20.1524 87.534V87.534C20.1524 87.8634 20.4387 88.1189 20.7674 88.0968C21.906 88.0202 23.0589 88.0794 24.2018 88.2796C27.9293 88.945 31.2407 91.0582 33.4093 94.1557C35.5779 97.2532 36.4266 101.082 35.7695 104.803C35.1062 108.522 32.9897 111.825 29.8874 113.99C28.1735 115.186 26.2355 115.98 24.2153 116.342C25.5734 115.977 26.8709 115.379 28.0453 114.559C30.6971 112.709 32.5045 109.884 33.0706 106.705C33.6324 103.526 32.9068 100.253 31.0537 97.6056C29.2005 94.9583 26.37 93.1521 23.1843 92.5833C22.2974 92.4278 21.4036 92.3717 20.5181 92.4115C20.3117 92.4208 20.1524 92.5932 20.1524 92.7998V92.7998C20.1524 93.0304 20.3491 93.2113 20.5795 93.2014C21.3989 93.1663 22.2258 93.219 23.0463 93.3626C26.0251 93.8944 28.6712 95.5831 30.4042 98.0588C32.1369 100.534 32.8149 103.594 32.2891 106.567C31.7597 109.539 30.0698 112.18 27.5907 113.91C25.4121 115.431 22.7359 116.182 20.1077 115.977V118.581Z"
      fill="white" />
    <path
      d="M20.1077 115.817C22.0285 115.868 23.973 115.32 25.5662 114.208C27.5263 112.841 28.8622 110.754 29.281 108.405C29.6962 106.056 29.1599 103.637 27.7898 101.681C26.4203 99.7247 24.3289 98.3903 21.9743 97.9704C21.3685 97.8642 20.8351 97.8523 20.1077 97.8414V98.3171C20.6857 98.2996 21.313 98.3374 21.8912 98.4387C24.1214 98.8363 26.102 100.1 27.3995 101.953C28.6966 103.806 29.2051 106.097 28.8119 108.322C28.4151 110.547 27.1493 112.524 25.2935 113.819C23.7805 114.874 21.9314 115.392 20.1077 115.341V115.817Z"
      fill="white" />
  </g>
  <path
    d="M173.001 101.99L180.108 112.781H173.448L169.26 106.183L166.719 108.966V112.781H161.124V86.6293H166.719V102.231L172.864 95.0142H179.284L173.001 101.99Z"
    fill="black" />
  <path
    d="M150.886 94.5331C152.9 94.5331 154.468 95.186 155.589 96.4919C156.733 97.7977 157.306 99.7221 157.306 102.265V112.781H151.71V104.155C151.71 102.666 151.481 101.509 151.023 100.684C150.589 99.8596 149.856 99.4472 148.826 99.4472C147.796 99.4472 146.996 99.8825 146.423 100.753C145.851 101.624 145.565 102.838 145.565 104.396V112.781H139.969V95.0142H144.947C144.993 96.1597 145.096 97.0761 145.256 97.7634C146.401 95.6099 148.277 94.5331 150.886 94.5331Z"
    fill="black" />
  <path
    d="M133.129 93.1242C132.236 93.1242 131.47 92.8035 130.829 92.162C130.188 91.4976 129.867 90.7187 129.867 89.8252C129.867 88.9088 130.176 88.1299 130.794 87.4884C131.435 86.824 132.213 86.4918 133.129 86.4918C133.998 86.4918 134.754 86.824 135.395 87.4884C136.058 88.1528 136.39 88.9317 136.39 89.8252C136.39 90.7187 136.07 91.4976 135.429 92.162C134.788 92.8035 134.021 93.1242 133.129 93.1242ZM135.944 112.781H130.348V95.0142H135.944V112.781Z"
    fill="black" />
  <path d="M126.255 112.781H120.659V86.6293H126.255V112.781Z" fill="black" />
  <path
    d="M110.422 94.5331C112.436 94.5331 114.003 95.186 115.125 96.4919C116.269 97.7977 116.841 99.7221 116.841 102.265V112.781H111.246V104.155C111.246 102.666 111.017 101.509 110.559 100.684C110.124 99.8596 109.392 99.4472 108.362 99.4472C107.332 99.4472 106.531 99.8825 105.959 100.753C105.387 101.624 105.101 102.838 105.101 104.396V112.781H99.5049V95.0142H104.483C104.529 96.1597 104.632 97.0761 104.792 97.7634C105.936 95.6099 107.813 94.5331 110.422 94.5331Z"
    fill="black" />
  <path
    d="M78.443 94.5847C81.0063 94.5847 82.9858 95.3063 84.3819 96.7496C85.7781 98.17 86.476 100.186 86.476 102.798V112.832H81.7729C81.6585 111.87 81.5783 111.228 81.5326 110.908C80.9833 111.71 80.3197 112.305 79.5415 112.695C78.7633 113.084 77.7793 113.279 76.5892 113.279C75.3304 113.279 74.1747 113.061 73.1219 112.626C72.092 112.168 71.2681 111.526 70.6502 110.702C70.0552 109.854 69.7576 108.857 69.7576 107.712C69.7576 106.521 70.0896 105.478 70.7532 104.585C71.4398 103.668 72.3553 102.97 73.4995 102.488C74.6438 102.007 75.8912 101.767 77.2414 101.767C78.5002 101.767 79.7361 101.984 80.949 102.42C80.7887 100.175 79.7704 99.052 77.8937 99.052C76.3145 99.052 75.1703 99.7852 74.4608 101.251L70.5129 98.949C71.1765 97.5973 72.195 96.532 73.5682 95.7531C74.9643 94.9741 76.5892 94.5847 78.443 94.5847ZM80.949 105.891C80.0564 105.661 79.2096 105.547 78.4086 105.547C77.4704 105.547 76.7265 105.719 76.1772 106.062C75.628 106.406 75.3533 106.864 75.3533 107.437C75.3533 107.964 75.5593 108.376 75.9712 108.674C76.3832 108.972 76.9095 109.121 77.5504 109.121C78.42 109.121 79.1982 108.869 79.8848 108.365C80.5943 107.861 80.949 107.185 80.949 106.337V105.891Z"
    fill="black" />
  <path
    d="M92.5266 93.1242C91.634 93.1242 90.8674 92.8035 90.2265 92.162C89.5857 91.4976 89.2653 90.7187 89.2653 89.8252C89.2653 88.9088 89.5743 88.1299 90.1922 87.4884C90.8331 86.824 91.6111 86.4918 92.5266 86.4918C93.3962 86.4918 94.1515 86.824 94.7924 87.4884C95.456 88.1528 95.7879 88.9317 95.7879 89.8252C95.7879 90.7187 95.4676 91.4976 94.8267 92.162C94.1858 92.8035 93.4192 93.1242 92.5266 93.1242ZM95.3416 112.781H89.7459V95.0142H95.3416V112.781Z"
    fill="black" />
  <path
    d="M64.9492 94.5331C65.6817 94.5331 66.3683 94.6477 67.009 94.8768C67.6728 95.1059 68.1648 95.4037 68.4851 95.7702L66.3224 100.031C65.5901 99.5503 64.8578 99.3098 64.1253 99.3098C62.9124 99.3098 61.9512 99.8138 61.2416 100.822C60.5323 101.83 60.1774 103.193 60.1774 104.911V112.781H54.5817V95.0142H59.5595C59.6054 96.1368 59.7084 97.0532 59.8684 97.7634C60.395 96.7095 61.0929 95.9077 61.9625 95.3579C62.8551 94.808 63.8507 94.5331 64.9492 94.5331Z"
    fill="black" />
  <defs>
    <linearGradient id="paint0_linear_285_663" x1="30.5438" y1="97.8417" x2="30.5438" y2="118.59"
      gradientUnits="userSpaceOnUse">
      <stop stop-color="#FF4800" />
      <stop offset="1" stop-color="#FFA602" />
    </linearGradient>
    <linearGradient id="paint1_linear_285_663" x1="20.7721" y1="107.275" x2="42.7161" y2="97.8117"
      gradientUnits="userSpaceOnUse">
      <stop stop-color="#FFC816" />
      <stop offset="0.335" stop-color="#F77D30" />
      <stop offset="0.716115" stop-color="#ED284E" />
    </linearGradient>
    <linearGradient id="paint2_linear_285_663" x1="20.7721" y1="107.275" x2="42.7161" y2="97.8117"
      gradientUnits="userSpaceOnUse">
      <stop stop-color="#FFC816" />
      <stop offset="0.335" stop-color="#F77D30" />
      <stop offset="0.716115" stop-color="#ED284E" />
    </linearGradient>
    <linearGradient id="paint3_linear_285_663" x1="30.5438" y1="97.8417" x2="30.5438" y2="118.59"
      gradientUnits="userSpaceOnUse">
      <stop stop-color="#FF4800" />
      <stop offset="1" stop-color="#FFA602" />
    </linearGradient>
  </defs>
</svg>