<svg width="200" height="72" viewBox="0 0 200 200" fill="none" xmlns="http://www.w3.org/2000/svg">
  <path
    d="M61.461 120.411C61.461 121.115 60.8886 121.69 60.1848 121.655C50.4905 121.182 42.3221 115.347 39.2582 107.574L25.3603 121.284C24.5541 122.079 23.1886 121.508 23.1886 120.376V110.61C23.1886 110.243 23.3466 109.893 23.6222 109.651L27.9439 105.854L34.3389 100.118L37.4544 97.3322C35.9938 92.1844 30.7847 88.2614 24.4633 87.7923C23.7606 87.7402 23.1886 87.1741 23.1886 86.4695V80.1718C23.1886 79.4672 23.7606 78.8927 24.4643 78.9272C36.8299 79.5318 46.7191 88.8725 46.7191 100.282C46.7191 106.8 52.6614 112.233 60.1855 112.79C60.8881 112.842 61.461 113.409 61.461 114.113V120.411Z"
    fill="#FF1818" />
  <path
    d="M48.8464 100.441C48.8464 97.082 48.0267 93.8045 46.7148 90.8547L59.3216 79.2676C60.1394 78.5158 61.4606 79.096 61.4606 80.2068V90.0814C61.4606 90.4693 61.2841 90.8362 60.981 91.0783L48.8464 100.769V100.441Z"
    fill="#FF1818" />
  <path
    d="M85.1291 110.65C83.6804 110.65 82.3706 110.402 81.1998 109.906C80.0488 109.41 79.1359 108.695 78.4612 107.763C77.7864 106.83 77.4392 105.729 77.4193 104.459H81.8844C81.944 105.312 82.2416 105.987 82.7775 106.483C83.3331 106.979 84.0872 107.227 85.0398 107.227C86.0122 107.227 86.7762 106.999 87.3319 106.542C87.8875 106.066 88.1654 105.451 88.1654 104.697C88.1654 104.082 87.9768 103.575 87.5998 103.179C87.2227 102.782 86.7464 102.474 86.1709 102.256C85.6153 102.018 84.8413 101.76 83.8491 101.482C82.4996 101.085 81.3982 100.698 80.5449 100.321C79.7114 99.924 78.9871 99.3386 78.3719 98.5646C77.7765 97.7708 77.4788 96.7191 77.4788 95.4093C77.4788 94.1789 77.7864 93.1073 78.4016 92.1944C79.0168 91.2815 79.8801 90.587 80.9914 90.1107C82.1027 89.6146 83.3728 89.3665 84.8016 89.3665C86.9449 89.3665 88.6813 89.8924 90.0109 90.9442C91.3604 91.9761 92.1046 93.4248 92.2435 95.2902H87.6593C87.6196 94.5758 87.312 93.9904 86.7365 93.5339C86.1809 93.0577 85.4367 92.8195 84.504 92.8195C83.6903 92.8195 83.0354 93.0279 82.5393 93.4446C82.063 93.8614 81.8249 94.4667 81.8249 95.2605C81.8249 95.8161 82.0035 96.2825 82.3607 96.6595C82.7378 97.0167 83.1942 97.3144 83.73 97.5526C84.2857 97.7708 85.0596 98.0288 86.0519 98.3265C87.4013 98.7234 88.5027 99.1203 89.3561 99.5172C90.2094 99.9141 90.9437 100.509 91.5588 101.303C92.174 102.097 92.4816 103.139 92.4816 104.429C92.4816 105.54 92.1939 106.572 91.6184 107.525C91.0429 108.477 90.1995 109.241 89.0881 109.817C87.9768 110.372 86.6571 110.65 85.1291 110.65ZM118.956 93.9507L114.134 110.442H109.639L106.632 98.9219L103.626 110.442H99.1012L94.2491 93.9507H98.4761L101.393 106.513L104.549 93.9507H108.954L112.05 106.483L114.967 93.9507H118.956ZM120.139 102.137C120.139 100.47 120.467 98.9913 121.122 97.7014C121.796 96.4115 122.699 95.4192 123.83 94.7246C124.981 94.0301 126.261 93.6828 127.67 93.6828C128.901 93.6828 129.972 93.9308 130.885 94.427C131.818 94.9231 132.562 95.5482 133.118 96.3023V93.9507H137.315V110.442H133.118V108.031C132.582 108.805 131.838 109.45 130.885 109.966C129.953 110.462 128.871 110.71 127.641 110.71C126.252 110.71 124.981 110.353 123.83 109.638C122.699 108.924 121.796 107.922 121.122 106.632C120.467 105.322 120.139 103.824 120.139 102.137ZM133.118 102.196C133.118 101.184 132.919 100.321 132.523 99.6065C132.126 98.8722 131.59 98.3166 130.915 97.9395C130.24 97.5426 129.516 97.3442 128.742 97.3442C127.968 97.3442 127.254 97.5327 126.599 97.9098C125.944 98.2868 125.408 98.8425 124.991 99.5767C124.595 100.291 124.396 101.144 124.396 102.137C124.396 103.129 124.595 104.002 124.991 104.756C125.408 105.491 125.944 106.056 126.599 106.453C127.274 106.85 127.988 107.048 128.742 107.048C129.516 107.048 130.24 106.86 130.915 106.483C131.59 106.086 132.126 105.53 132.523 104.816C132.919 104.082 133.118 103.208 133.118 102.196ZM145.553 96.3321C146.089 95.578 146.823 94.9529 147.756 94.4567C148.708 93.9408 149.79 93.6828 151 93.6828C152.409 93.6828 153.679 94.0301 154.81 94.7246C155.961 95.4192 156.864 96.4115 157.519 97.7014C158.194 98.9715 158.531 100.45 158.531 102.137C158.531 103.824 158.194 105.322 157.519 106.632C156.864 107.922 155.961 108.924 154.81 109.638C153.679 110.353 152.409 110.71 151 110.71C149.79 110.71 148.718 110.462 147.785 109.966C146.872 109.469 146.128 108.844 145.553 108.09V118.3H141.385V93.9507H145.553V96.3321ZM154.275 102.137C154.275 101.144 154.066 100.291 153.65 99.5767C153.253 98.8425 152.717 98.2868 152.042 97.9098C151.387 97.5327 150.673 97.3442 149.899 97.3442C149.145 97.3442 148.43 97.5426 147.756 97.9395C147.101 98.3166 146.565 98.8722 146.148 99.6065C145.751 100.341 145.553 101.204 145.553 102.196C145.553 103.189 145.751 104.052 146.148 104.786C146.565 105.52 147.101 106.086 147.756 106.483C148.43 106.86 149.145 107.048 149.899 107.048C150.673 107.048 151.387 106.85 152.042 106.453C152.717 106.056 153.253 105.491 153.65 104.756C154.066 104.022 154.275 103.149 154.275 102.137ZM174.003 110.442L169.508 103.447L165.43 110.442H160.726L167.275 99.9637L160.637 89.6642H165.43L169.924 96.6298L173.973 89.6642H178.676L172.157 100.113L178.795 110.442H174.003Z"
    fill="#0F0F0F" />
</svg>