<svg width="200" height="150" viewBox="0 0 200 200" fill="none" xmlns="http://www.w3.org/2000/svg">
  <path fill-rule="evenodd" clip-rule="evenodd"
    d="M36.7755 93.9372C36.2209 94.1509 35.6245 93.7416 35.6245 93.1472V89.9069C35.6245 89.3113 35.0258 88.9019 34.4708 89.118L22.1038 93.9318C21.5488 94.1478 20.9501 93.7384 20.9501 93.1428V89.2623C20.9501 88.9122 21.1657 88.5982 21.4924 88.4723L38.1421 82.0574C38.6967 81.8437 39.293 82.2531 39.293 82.8474V86.0362C39.293 86.6307 39.8897 87.0401 40.4443 86.8261L49.1475 83.469C49.7022 83.2551 50.2988 83.6644 50.2988 84.2589V88.1436C50.2988 88.4937 50.0833 88.8076 49.7567 88.9335L36.7755 93.9372ZM26.5941 112.938C26.5941 113.406 26.9731 113.785 27.4407 113.785H31.3915C31.8591 113.785 32.2381 113.406 32.2381 112.938V94.7002C32.2381 94.1058 31.6415 93.6964 31.0868 93.9104L21.7743 97.5025C21.4477 97.6285 21.2323 97.9424 21.2323 98.2924V102.177C21.2323 102.772 21.8289 103.181 22.3836 102.967L25.4429 101.787C25.9975 101.573 26.5941 101.983 26.5941 102.577V112.938ZM41.8107 101.589C41.484 101.715 41.2684 102.029 41.2684 102.379V112.938C41.2684 113.406 40.8894 113.785 40.4218 113.785H36.471C36.0035 113.785 35.6244 113.406 35.6244 112.938V98.8569C35.6244 98.5069 35.8399 98.1929 36.1666 98.067L49.1477 93.0634C49.7023 92.8496 50.2988 93.2589 50.2988 93.8533V97.7382C50.2988 98.0884 50.0832 98.4024 49.7565 98.5282L41.8107 101.589Z"
    fill="url(#paint0_linear_285_655)" />
  <path
    d="M168.193 97.7582C168.641 97.0593 169.259 96.4948 170.047 96.0647C170.836 95.6346 171.759 95.4196 172.816 95.4196C174.053 95.4196 175.173 95.7332 176.176 96.3604C177.18 96.9876 177.968 97.8837 178.542 99.0485C179.133 100.213 179.429 101.566 179.429 103.108C179.429 104.649 179.133 106.011 178.542 107.193C177.968 108.358 177.18 109.263 176.176 109.908C175.173 110.536 174.053 110.849 172.816 110.849C171.777 110.849 170.854 110.634 170.047 110.204C169.259 109.774 168.641 109.219 168.193 108.538V117.785H163.596V95.6346H168.193V97.7582ZM174.752 103.108C174.752 101.961 174.429 101.065 173.784 100.419C173.157 99.7564 172.377 99.4248 171.445 99.4248C170.531 99.4248 169.752 99.7564 169.107 100.419C168.479 101.082 168.166 101.987 168.166 103.134C168.166 104.281 168.479 105.186 169.107 105.849C169.752 106.512 170.531 106.844 171.445 106.844C172.359 106.844 173.139 106.512 173.784 105.849C174.429 105.168 174.752 104.254 174.752 103.108Z"
    fill="#0A0A0A" />
  <path
    d="M149.159 91.7637V103.054C149.159 104.183 149.437 105.052 149.992 105.661C150.548 106.271 151.363 106.575 152.438 106.575C153.513 106.575 154.338 106.271 154.911 105.661C155.485 105.052 155.771 104.183 155.771 103.054V91.7637H160.368V103.027C160.368 104.711 160.01 106.136 159.293 107.301C158.576 108.466 157.608 109.344 156.39 109.935C155.189 110.527 153.845 110.822 152.358 110.822C150.87 110.822 149.535 110.536 148.352 109.962C147.187 109.371 146.265 108.493 145.584 107.328C144.903 106.145 144.562 104.711 144.562 103.027V91.7637H149.159Z"
    fill="#0A0A0A" />
  <path
    d="M135.669 95.4733C137.425 95.4733 138.823 96.0468 139.863 97.1937C140.92 98.3227 141.449 99.8818 141.449 101.871V110.634H136.879V102.489C136.879 101.486 136.619 100.706 136.099 100.151C135.579 99.5951 134.881 99.3173 134.002 99.3173C133.124 99.3173 132.425 99.5951 131.906 100.151C131.386 100.706 131.126 101.486 131.126 102.489V110.634H126.53V95.6346H131.126V97.6238C131.592 96.9607 132.219 96.441 133.008 96.0647C133.796 95.6704 134.683 95.4733 135.669 95.4733Z"
    fill="#0A0A0A" />
  <path
    d="M124.105 102.892C124.105 103.323 124.078 103.771 124.024 104.237H113.621C113.693 105.168 113.988 105.885 114.508 106.387C115.046 106.871 115.7 107.113 116.47 107.113C117.617 107.113 118.415 106.629 118.863 105.661H123.755C123.504 106.647 123.047 107.534 122.384 108.322C121.739 109.111 120.924 109.729 119.938 110.177C118.952 110.625 117.85 110.849 116.632 110.849C115.162 110.849 113.854 110.536 112.707 109.908C111.56 109.281 110.664 108.385 110.019 107.22C109.374 106.055 109.051 104.694 109.051 103.134C109.051 101.575 109.365 100.213 109.992 99.0485C110.637 97.8837 111.533 96.9876 112.68 96.3604C113.827 95.7332 115.144 95.4196 116.632 95.4196C118.083 95.4196 119.373 95.7242 120.502 96.3335C121.631 96.9428 122.51 97.812 123.137 98.941C123.782 100.07 124.105 101.387 124.105 102.892ZM119.4 101.683C119.4 100.894 119.132 100.267 118.594 99.8012C118.056 99.3352 117.384 99.1023 116.578 99.1023C115.807 99.1023 115.153 99.3263 114.616 99.7743C114.096 100.222 113.773 100.858 113.648 101.683H119.4Z"
    fill="#0A0A0A" />
  <path
    d="M102.515 110.634L97.9449 104.344V110.634H93.3482V90.7423H97.9449V101.737L102.488 95.6346H108.16L101.923 103.161L108.213 110.634H102.515Z"
    fill="#0A0A0A" />
  <path
    d="M83.0603 110.849C81.5908 110.849 80.2647 110.536 79.0819 109.908C77.9171 109.281 76.9942 108.385 76.3132 107.22C75.6501 106.055 75.3186 104.694 75.3186 103.134C75.3186 101.593 75.6591 100.24 76.3401 99.0754C77.021 97.8926 77.9529 96.9876 79.1357 96.3604C80.3184 95.7332 81.6446 95.4196 83.1141 95.4196C84.5836 95.4196 85.9097 95.7332 87.0925 96.3604C88.2752 96.9876 89.2071 97.8926 89.8881 99.0754C90.5691 100.24 90.9096 101.593 90.9096 103.134C90.9096 104.676 90.5601 106.038 89.8612 107.22C89.1802 108.385 88.2394 109.281 87.0387 109.908C85.8559 110.536 84.5298 110.849 83.0603 110.849ZM83.0603 106.871C83.9384 106.871 84.6821 106.548 85.2914 105.903C85.9187 105.258 86.2323 104.335 86.2323 103.134C86.2323 101.934 85.9276 101.011 85.3183 100.366C84.7269 99.7205 83.9922 99.398 83.1141 99.398C82.218 99.398 81.4743 99.7205 80.883 100.366C80.2916 100.993 79.9959 101.916 79.9959 103.134C79.9959 104.335 80.2826 105.258 80.8561 105.903C81.4475 106.548 82.1822 106.871 83.0603 106.871Z"
    fill="#0A0A0A" />
  <path d="M73.9256 91.7637V95.4464H68.9257V110.634H64.329V95.4464H59.3292V91.7637H73.9256Z" fill="#0A0A0A" />
  <defs>
    <linearGradient id="paint0_linear_285_655" x1="20.9501" y1="94.9554" x2="51.2914" y2="98.2608"
      gradientUnits="userSpaceOnUse">
      <stop stop-color="#FF1413" />
      <stop offset="1" stop-color="#FF7301" />
    </linearGradient>
  </defs>
</svg>