<svg width="881" height="537" viewBox="0 0 881 537" fill="none" xmlns="http://www.w3.org/2000/svg">
<mask id="mask0_5732_7224" style="mask-type:alpha" maskUnits="userSpaceOnUse" x="4" y="0" width="873" height="268">
<rect x="4" width="873" height="267.7" fill="url(#paint0_linear_5732_7224)"/>
<rect x="4.5" y="0.5" width="872" height="266.7" stroke="black" stroke-opacity="0.32"/>
</mask>
<g mask="url(#mask0_5732_7224)">
<path d="M818.75 8.86328V259.721" stroke="#767676" stroke-opacity="0.54"/>
<path d="M872.75 8.86328V259.721" stroke="#767676" stroke-opacity="0.54"/>
<line y1="-0.5" x2="60.1928" y2="-0.5" transform="matrix(-0.897117 0.441792 -0.531058 -0.847335 873 15.0684)" stroke="#767676" stroke-opacity="0.54"/>
<line y1="-0.5" x2="60.1928" y2="-0.5" transform="matrix(-0.897117 0.441792 -0.531058 -0.847335 873 60.2754)" stroke="#767676" stroke-opacity="0.54"/>
<line y1="-0.5" x2="60.1928" y2="-0.5" transform="matrix(-0.897117 0.441792 -0.531058 -0.847335 873 105.482)" stroke="#767676" stroke-opacity="0.54"/>
<line y1="-0.5" x2="60.1928" y2="-0.5" transform="matrix(-0.897117 0.441792 -0.531058 -0.847335 873 150.691)" stroke="#767676" stroke-opacity="0.54"/>
<line y1="-0.5" x2="60.1928" y2="-0.5" transform="matrix(-0.897117 0.441792 -0.531058 -0.847335 873 192.354)" stroke="#767676" stroke-opacity="0.54"/>
<path d="M765 8.86328V259.721" stroke="#767676" stroke-opacity="0.54"/>
<line y1="-0.5" x2="60.1928" y2="-0.5" transform="matrix(-0.897117 0.441792 -0.531058 -0.847335 819.25 15.0684)" stroke="#767676" stroke-opacity="0.54"/>
<line y1="-0.5" x2="60.1928" y2="-0.5" transform="matrix(-0.897117 0.441792 -0.531058 -0.847335 819.25 60.2754)" stroke="#767676" stroke-opacity="0.54"/>
<line y1="-0.5" x2="60.1928" y2="-0.5" transform="matrix(-0.897117 0.441792 -0.531058 -0.847335 819.25 105.482)" stroke="#767676" stroke-opacity="0.54"/>
<line y1="-0.5" x2="60.1928" y2="-0.5" transform="matrix(-0.897117 0.441792 -0.531058 -0.847335 819.25 150.691)" stroke="#767676" stroke-opacity="0.54"/>
<line y1="-0.5" x2="60.1928" y2="-0.5" transform="matrix(-0.897117 0.441792 -0.531058 -0.847335 819.25 192.354)" stroke="#767676" stroke-opacity="0.54"/>
<path d="M710.75 8.86328V259.721" stroke="#767676" stroke-opacity="0.54"/>
<line y1="-0.5" x2="60.1928" y2="-0.5" transform="matrix(-0.897117 0.441792 -0.531058 -0.847335 765 15.0684)" stroke="#767676" stroke-opacity="0.54"/>
<line y1="-0.5" x2="60.1928" y2="-0.5" transform="matrix(-0.897117 0.441792 -0.531058 -0.847335 765 60.2754)" stroke="#767676" stroke-opacity="0.54"/>
<line y1="-0.5" x2="60.1928" y2="-0.5" transform="matrix(-0.897117 0.441792 -0.531058 -0.847335 765 105.482)" stroke="#767676" stroke-opacity="0.54"/>
<line y1="-0.5" x2="60.1928" y2="-0.5" transform="matrix(-0.897117 0.441792 -0.531058 -0.847335 765 150.691)" stroke="#767676" stroke-opacity="0.54"/>
<line y1="-0.5" x2="60.1928" y2="-0.5" transform="matrix(-0.897117 0.441792 -0.531058 -0.847335 765 192.354)" stroke="#767676" stroke-opacity="0.54"/>
<path d="M657 8.86328V259.721" stroke="#767676" stroke-opacity="0.54"/>
<line y1="-0.5" x2="60.1928" y2="-0.5" transform="matrix(-0.897117 0.441792 -0.531058 -0.847335 711.25 15.0684)" stroke="#767676" stroke-opacity="0.54"/>
<line y1="-0.5" x2="60.1928" y2="-0.5" transform="matrix(-0.897117 0.441792 -0.531058 -0.847335 711.25 60.2754)" stroke="#767676" stroke-opacity="0.54"/>
<line y1="-0.5" x2="60.1928" y2="-0.5" transform="matrix(-0.897117 0.441792 -0.531058 -0.847335 711.25 105.482)" stroke="#767676" stroke-opacity="0.54"/>
<line y1="-0.5" x2="60.1928" y2="-0.5" transform="matrix(-0.897117 0.441792 -0.531058 -0.847335 711.25 150.691)" stroke="#767676" stroke-opacity="0.54"/>
<line y1="-0.5" x2="60.1928" y2="-0.5" transform="matrix(-0.897117 0.441792 -0.531058 -0.847335 711.25 192.354)" stroke="#767676" stroke-opacity="0.54"/>
<path d="M602.75 8.86328V259.721" stroke="#767676" stroke-opacity="0.54"/>
<line y1="-0.5" x2="60.1928" y2="-0.5" transform="matrix(-0.897117 0.441792 -0.531058 -0.847335 657 15.0684)" stroke="#767676" stroke-opacity="0.54"/>
<line y1="-0.5" x2="60.1928" y2="-0.5" transform="matrix(-0.897117 0.441792 -0.531058 -0.847335 657 60.2754)" stroke="#767676" stroke-opacity="0.54"/>
<line y1="-0.5" x2="60.1928" y2="-0.5" transform="matrix(-0.897117 0.441792 -0.531058 -0.847335 657 105.482)" stroke="#767676" stroke-opacity="0.54"/>
<line y1="-0.5" x2="60.1928" y2="-0.5" transform="matrix(-0.897117 0.441792 -0.531058 -0.847335 657 150.691)" stroke="#767676" stroke-opacity="0.54"/>
<line y1="-0.5" x2="60.1928" y2="-0.5" transform="matrix(-0.897117 0.441792 -0.531058 -0.847335 657 192.354)" stroke="#767676" stroke-opacity="0.54"/>
<path d="M549 8.86328V259.721" stroke="#767676" stroke-opacity="0.54"/>
<line y1="-0.5" x2="60.1928" y2="-0.5" transform="matrix(-0.897117 0.441792 -0.531058 -0.847335 603.25 15.0684)" stroke="#767676" stroke-opacity="0.54"/>
<line y1="-0.5" x2="60.1928" y2="-0.5" transform="matrix(-0.897117 0.441792 -0.531058 -0.847335 603.25 60.2754)" stroke="#767676" stroke-opacity="0.54"/>
<line y1="-0.5" x2="60.1928" y2="-0.5" transform="matrix(-0.897117 0.441792 -0.531058 -0.847335 603.25 105.482)" stroke="#767676" stroke-opacity="0.54"/>
<line y1="-0.5" x2="60.1928" y2="-0.5" transform="matrix(-0.897117 0.441792 -0.531058 -0.847335 603.25 150.691)" stroke="#767676" stroke-opacity="0.54"/>
<line y1="-0.5" x2="60.1928" y2="-0.5" transform="matrix(-0.897117 0.441792 -0.531058 -0.847335 603.25 192.354)" stroke="#767676" stroke-opacity="0.54"/>
<path d="M494.75 8.86328V259.721" stroke="#767676" stroke-opacity="0.54"/>
<line y1="-0.5" x2="60.1928" y2="-0.5" transform="matrix(-0.897117 0.441792 -0.531058 -0.847335 549 15.0684)" stroke="#767676" stroke-opacity="0.54"/>
<line y1="-0.5" x2="60.1928" y2="-0.5" transform="matrix(-0.897117 0.441792 -0.531058 -0.847335 549 60.2754)" stroke="#767676" stroke-opacity="0.54"/>
<line y1="-0.5" x2="60.1928" y2="-0.5" transform="matrix(-0.897117 0.441792 -0.531058 -0.847335 549 105.482)" stroke="#767676" stroke-opacity="0.54"/>
<line y1="-0.5" x2="60.1928" y2="-0.5" transform="matrix(-0.897117 0.441792 -0.531058 -0.847335 549 150.691)" stroke="#767676" stroke-opacity="0.54"/>
<line y1="-0.5" x2="60.1928" y2="-0.5" transform="matrix(-0.897117 0.441792 -0.531058 -0.847335 549 192.354)" stroke="#767676" stroke-opacity="0.54"/>
<path d="M441 8.86328V259.721" stroke="#767676" stroke-opacity="0.54"/>
<line y1="-0.5" x2="60.1928" y2="-0.5" transform="matrix(-0.897117 0.441792 -0.531058 -0.847335 495.25 15.0684)" stroke="#767676" stroke-opacity="0.54"/>
<line y1="-0.5" x2="60.1928" y2="-0.5" transform="matrix(-0.897117 0.441792 -0.531058 -0.847335 495.25 60.2754)" stroke="#767676" stroke-opacity="0.54"/>
<line y1="-0.5" x2="60.1928" y2="-0.5" transform="matrix(-0.897117 0.441792 -0.531058 -0.847335 495.25 105.482)" stroke="#767676" stroke-opacity="0.54"/>
<line y1="-0.5" x2="60.1928" y2="-0.5" transform="matrix(-0.897117 0.441792 -0.531058 -0.847335 495.25 150.691)" stroke="#767676" stroke-opacity="0.54"/>
<line y1="-0.5" x2="60.1928" y2="-0.5" transform="matrix(-0.897117 0.441792 -0.531058 -0.847335 495.25 192.354)" stroke="#767676" stroke-opacity="0.54"/>
<path d="M386.75 8.86328V259.721" stroke="#767676" stroke-opacity="0.54"/>
<line y1="-0.5" x2="60.1928" y2="-0.5" transform="matrix(-0.897117 0.441792 -0.531058 -0.847335 441 15.0684)" stroke="#767676" stroke-opacity="0.54"/>
<line y1="-0.5" x2="60.1928" y2="-0.5" transform="matrix(-0.897117 0.441792 -0.531058 -0.847335 441 60.2754)" stroke="#767676" stroke-opacity="0.54"/>
<line y1="-0.5" x2="60.1928" y2="-0.5" transform="matrix(-0.897117 0.441792 -0.531058 -0.847335 441 105.482)" stroke="#767676" stroke-opacity="0.54"/>
<line y1="-0.5" x2="60.1928" y2="-0.5" transform="matrix(-0.897117 0.441792 -0.531058 -0.847335 441 150.691)" stroke="#767676" stroke-opacity="0.54"/>
<line y1="-0.5" x2="60.1928" y2="-0.5" transform="matrix(-0.897117 0.441792 -0.531058 -0.847335 441 192.354)" stroke="#767676" stroke-opacity="0.54"/>
<path d="M333 8.86328V259.721" stroke="#767676" stroke-opacity="0.54"/>
<line y1="-0.5" x2="60.1928" y2="-0.5" transform="matrix(-0.897117 0.441792 -0.531058 -0.847335 387.25 15.0684)" stroke="#767676" stroke-opacity="0.54"/>
<line y1="-0.5" x2="60.1928" y2="-0.5" transform="matrix(-0.897117 0.441792 -0.531058 -0.847335 387.25 60.2754)" stroke="#767676" stroke-opacity="0.54"/>
<line y1="-0.5" x2="60.1928" y2="-0.5" transform="matrix(-0.897117 0.441792 -0.531058 -0.847335 387.25 105.482)" stroke="#767676" stroke-opacity="0.54"/>
<line y1="-0.5" x2="60.1928" y2="-0.5" transform="matrix(-0.897117 0.441792 -0.531058 -0.847335 387.25 150.691)" stroke="#767676" stroke-opacity="0.54"/>
<line y1="-0.5" x2="60.1928" y2="-0.5" transform="matrix(-0.897117 0.441792 -0.531058 -0.847335 387.25 192.354)" stroke="#767676" stroke-opacity="0.54"/>
<path d="M278.75 8.86328V259.721" stroke="#767676" stroke-opacity="0.54"/>
<line y1="-0.5" x2="60.1928" y2="-0.5" transform="matrix(-0.897117 0.441792 -0.531058 -0.847335 333 15.0684)" stroke="#767676" stroke-opacity="0.54"/>
<line y1="-0.5" x2="60.1928" y2="-0.5" transform="matrix(-0.897117 0.441792 -0.531058 -0.847335 333 60.2754)" stroke="#767676" stroke-opacity="0.54"/>
<line y1="-0.5" x2="60.1928" y2="-0.5" transform="matrix(-0.897117 0.441792 -0.531058 -0.847335 333 105.482)" stroke="#767676" stroke-opacity="0.54"/>
<line y1="-0.5" x2="60.1928" y2="-0.5" transform="matrix(-0.897117 0.441792 -0.531058 -0.847335 333 150.691)" stroke="#767676" stroke-opacity="0.54"/>
<line y1="-0.5" x2="60.1928" y2="-0.5" transform="matrix(-0.897117 0.441792 -0.531058 -0.847335 333 192.354)" stroke="#767676" stroke-opacity="0.54"/>
<path d="M225 8.86328V259.721" stroke="#767676" stroke-opacity="0.54"/>
<line y1="-0.5" x2="60.1928" y2="-0.5" transform="matrix(-0.897117 0.441792 -0.531058 -0.847335 279.25 15.0684)" stroke="#767676" stroke-opacity="0.54"/>
<line y1="-0.5" x2="60.1928" y2="-0.5" transform="matrix(-0.897117 0.441792 -0.531058 -0.847335 279.25 60.2754)" stroke="#767676" stroke-opacity="0.54"/>
<line y1="-0.5" x2="60.1928" y2="-0.5" transform="matrix(-0.897117 0.441792 -0.531058 -0.847335 279.25 105.482)" stroke="#767676" stroke-opacity="0.54"/>
<line y1="-0.5" x2="60.1928" y2="-0.5" transform="matrix(-0.897117 0.441792 -0.531058 -0.847335 279.25 150.691)" stroke="#767676" stroke-opacity="0.54"/>
<line y1="-0.5" x2="60.1928" y2="-0.5" transform="matrix(-0.897117 0.441792 -0.531058 -0.847335 279.25 192.354)" stroke="#767676" stroke-opacity="0.54"/>
<path d="M170.75 8.86328V259.721" stroke="#767676" stroke-opacity="0.54"/>
<line y1="-0.5" x2="60.1928" y2="-0.5" transform="matrix(-0.897117 0.441792 -0.531058 -0.847335 225 15.0684)" stroke="#767676" stroke-opacity="0.54"/>
<line y1="-0.5" x2="60.1928" y2="-0.5" transform="matrix(-0.897117 0.441792 -0.531058 -0.847335 225 60.2754)" stroke="#767676" stroke-opacity="0.54"/>
<line y1="-0.5" x2="60.1928" y2="-0.5" transform="matrix(-0.897117 0.441792 -0.531058 -0.847335 225 105.482)" stroke="#767676" stroke-opacity="0.54"/>
<line y1="-0.5" x2="60.1928" y2="-0.5" transform="matrix(-0.897117 0.441792 -0.531058 -0.847335 225 150.691)" stroke="#767676" stroke-opacity="0.54"/>
<line y1="-0.5" x2="60.1928" y2="-0.5" transform="matrix(-0.897117 0.441792 -0.531058 -0.847335 225 192.354)" stroke="#767676" stroke-opacity="0.54"/>
<path d="M117 8.86328V259.721" stroke="#767676" stroke-opacity="0.54"/>
<line y1="-0.5" x2="60.1928" y2="-0.5" transform="matrix(-0.897117 0.441792 -0.531058 -0.847335 171.25 15.0684)" stroke="#767676" stroke-opacity="0.54"/>
<line y1="-0.5" x2="60.1928" y2="-0.5" transform="matrix(-0.897117 0.441792 -0.531058 -0.847335 171.25 60.2754)" stroke="#767676" stroke-opacity="0.54"/>
<line y1="-0.5" x2="60.1928" y2="-0.5" transform="matrix(-0.897117 0.441792 -0.531058 -0.847335 171.25 105.482)" stroke="#767676" stroke-opacity="0.54"/>
<line y1="-0.5" x2="60.1928" y2="-0.5" transform="matrix(-0.897117 0.441792 -0.531058 -0.847335 171.25 150.691)" stroke="#767676" stroke-opacity="0.54"/>
<line y1="-0.5" x2="60.1928" y2="-0.5" transform="matrix(-0.897117 0.441792 -0.531058 -0.847335 171.25 192.354)" stroke="#767676" stroke-opacity="0.54"/>
<path d="M62.75 8.86328V259.721" stroke="#767676" stroke-opacity="0.54"/>
<line y1="-0.5" x2="60.1928" y2="-0.5" transform="matrix(-0.897117 0.441792 -0.531058 -0.847335 117 15.0684)" stroke="#767676" stroke-opacity="0.54"/>
<line y1="-0.5" x2="60.1928" y2="-0.5" transform="matrix(-0.897117 0.441792 -0.531058 -0.847335 117 60.2754)" stroke="#767676" stroke-opacity="0.54"/>
<line y1="-0.5" x2="60.1928" y2="-0.5" transform="matrix(-0.897117 0.441792 -0.531058 -0.847335 117 105.482)" stroke="#767676" stroke-opacity="0.54"/>
<line y1="-0.5" x2="60.1928" y2="-0.5" transform="matrix(-0.897117 0.441792 -0.531058 -0.847335 117 150.691)" stroke="#767676" stroke-opacity="0.54"/>
<line y1="-0.5" x2="60.1928" y2="-0.5" transform="matrix(-0.897117 0.441792 -0.531058 -0.847335 117 192.354)" stroke="#767676" stroke-opacity="0.54"/>
<path d="M9 8.86328V259.721" stroke="#767676" stroke-opacity="0.54"/>
<line y1="-0.5" x2="60.1928" y2="-0.5" transform="matrix(-0.897117 0.441792 -0.531058 -0.847335 63.25 15.0684)" stroke="#767676" stroke-opacity="0.54"/>
<line y1="-0.5" x2="60.1928" y2="-0.5" transform="matrix(-0.897117 0.441792 -0.531058 -0.847335 63.25 59.3887)" stroke="#767676" stroke-opacity="0.54"/>
<line y1="-0.5" x2="60.1928" y2="-0.5" transform="matrix(-0.897117 0.441792 -0.531058 -0.847335 63.25 103.711)" stroke="#767676" stroke-opacity="0.54"/>
<line y1="-0.5" x2="60.1928" y2="-0.5" transform="matrix(-0.897117 0.441792 -0.531058 -0.847335 63.25 148.031)" stroke="#767676" stroke-opacity="0.54"/>
<line y1="-0.5" x2="60.1928" y2="-0.5" transform="matrix(-0.897117 0.441792 -0.531058 -0.847335 63.25 192.354)" stroke="#767676" stroke-opacity="0.54"/>
</g>
<mask id="mask1_5732_7224" style="mask-type:alpha" maskUnits="userSpaceOnUse" x="0" y="240" width="881" height="297">
<rect y="240" width="881" height="297" fill="url(#paint1_linear_5732_7224)"/>
</mask>
<g mask="url(#mask1_5732_7224)">
<path d="M62.125 525L62.125 249" stroke="#767676" stroke-opacity="0.54"/>
<path d="M8.125 525L8.12502 249" stroke="#767676" stroke-opacity="0.54"/>
<line x1="7.75718" y1="524.563" x2="61.7572" y2="494.563" stroke="#767676" stroke-opacity="0.54"/>
<line x1="7.75718" y1="473.563" x2="61.7572" y2="443.563" stroke="#767676" stroke-opacity="0.54"/>
<line x1="7.75718" y1="422.563" x2="61.7572" y2="392.563" stroke="#767676" stroke-opacity="0.54"/>
<line x1="7.75718" y1="371.563" x2="61.7572" y2="341.563" stroke="#767676" stroke-opacity="0.54"/>
<line x1="7.75718" y1="324.563" x2="61.7572" y2="294.563" stroke="#767676" stroke-opacity="0.54"/>
<path d="M116.125 525L116.125 249" stroke="#767676" stroke-opacity="0.54"/>
<line x1="61.5072" y1="524.563" x2="115.507" y2="494.563" stroke="#767676" stroke-opacity="0.54"/>
<line x1="61.5072" y1="473.563" x2="115.507" y2="443.563" stroke="#767676" stroke-opacity="0.54"/>
<line x1="61.5072" y1="422.563" x2="115.507" y2="392.563" stroke="#767676" stroke-opacity="0.54"/>
<line x1="61.5072" y1="371.563" x2="115.507" y2="341.563" stroke="#767676" stroke-opacity="0.54"/>
<line x1="61.5072" y1="324.563" x2="115.507" y2="294.563" stroke="#767676" stroke-opacity="0.54"/>
<path d="M170.125 525L170.125 249" stroke="#767676" stroke-opacity="0.54"/>
<line x1="115.757" y1="524.563" x2="169.757" y2="494.563" stroke="#767676" stroke-opacity="0.54"/>
<line x1="115.757" y1="473.563" x2="169.757" y2="443.563" stroke="#767676" stroke-opacity="0.54"/>
<line x1="115.757" y1="422.563" x2="169.757" y2="392.563" stroke="#767676" stroke-opacity="0.54"/>
<line x1="115.757" y1="371.563" x2="169.757" y2="341.563" stroke="#767676" stroke-opacity="0.54"/>
<line x1="115.757" y1="324.563" x2="169.757" y2="294.563" stroke="#767676" stroke-opacity="0.54"/>
<path d="M224.125 525L224.125 249" stroke="#767676" stroke-opacity="0.54"/>
<line x1="169.507" y1="524.563" x2="223.507" y2="494.563" stroke="#767676" stroke-opacity="0.54"/>
<line x1="169.507" y1="473.563" x2="223.507" y2="443.563" stroke="#767676" stroke-opacity="0.54"/>
<line x1="169.507" y1="422.563" x2="223.507" y2="392.563" stroke="#767676" stroke-opacity="0.54"/>
<line x1="169.507" y1="371.563" x2="223.507" y2="341.563" stroke="#767676" stroke-opacity="0.54"/>
<line x1="169.507" y1="324.563" x2="223.507" y2="294.563" stroke="#767676" stroke-opacity="0.54"/>
<path d="M278.125 525L278.125 249" stroke="#767676" stroke-opacity="0.54"/>
<line x1="223.757" y1="524.563" x2="277.757" y2="494.563" stroke="#767676" stroke-opacity="0.54"/>
<line x1="223.757" y1="473.563" x2="277.757" y2="443.563" stroke="#767676" stroke-opacity="0.54"/>
<line x1="223.757" y1="422.563" x2="277.757" y2="392.563" stroke="#767676" stroke-opacity="0.54"/>
<line x1="223.757" y1="371.563" x2="277.757" y2="341.563" stroke="#767676" stroke-opacity="0.54"/>
<line x1="223.757" y1="324.563" x2="277.757" y2="294.563" stroke="#767676" stroke-opacity="0.54"/>
<path d="M332.125 525L332.125 249" stroke="#767676" stroke-opacity="0.54"/>
<line x1="277.507" y1="524.563" x2="331.507" y2="494.563" stroke="#767676" stroke-opacity="0.54"/>
<line x1="277.507" y1="473.563" x2="331.507" y2="443.563" stroke="#767676" stroke-opacity="0.54"/>
<line x1="277.507" y1="422.563" x2="331.507" y2="392.563" stroke="#767676" stroke-opacity="0.54"/>
<line x1="277.507" y1="371.563" x2="331.507" y2="341.563" stroke="#767676" stroke-opacity="0.54"/>
<line x1="277.507" y1="324.563" x2="331.507" y2="294.563" stroke="#767676" stroke-opacity="0.54"/>
<path d="M386.125 525L386.125 249" stroke="#767676" stroke-opacity="0.54"/>
<line x1="331.757" y1="524.563" x2="385.757" y2="494.563" stroke="#767676" stroke-opacity="0.54"/>
<line x1="331.757" y1="473.563" x2="385.757" y2="443.563" stroke="#767676" stroke-opacity="0.54"/>
<line x1="331.757" y1="422.563" x2="385.757" y2="392.563" stroke="#767676" stroke-opacity="0.54"/>
<line x1="331.757" y1="371.563" x2="385.757" y2="341.563" stroke="#767676" stroke-opacity="0.54"/>
<line x1="331.757" y1="324.563" x2="385.757" y2="294.563" stroke="#767676" stroke-opacity="0.54"/>
<path d="M440.125 525L440.125 249" stroke="#767676" stroke-opacity="0.54"/>
<line x1="385.507" y1="524.563" x2="439.507" y2="494.563" stroke="#767676" stroke-opacity="0.54"/>
<line x1="385.507" y1="473.563" x2="439.507" y2="443.563" stroke="#767676" stroke-opacity="0.54"/>
<line x1="385.507" y1="422.563" x2="439.507" y2="392.563" stroke="#767676" stroke-opacity="0.54"/>
<line x1="385.507" y1="371.563" x2="439.507" y2="341.563" stroke="#767676" stroke-opacity="0.54"/>
<line x1="385.507" y1="324.563" x2="439.507" y2="294.563" stroke="#767676" stroke-opacity="0.54"/>
<path d="M494.25 524.5L494.25 249" stroke="#767676" stroke-opacity="0.54"/>
<line x1="439.757" y1="524.563" x2="493.757" y2="494.563" stroke="#767676" stroke-opacity="0.54"/>
<line x1="439.757" y1="473.563" x2="493.757" y2="443.563" stroke="#767676" stroke-opacity="0.54"/>
<line x1="439.757" y1="422.563" x2="493.757" y2="392.563" stroke="#767676" stroke-opacity="0.54"/>
<line x1="439.757" y1="371.563" x2="493.757" y2="341.563" stroke="#767676" stroke-opacity="0.54"/>
<line x1="439.757" y1="324.563" x2="493.757" y2="294.563" stroke="#767676" stroke-opacity="0.54"/>
<path d="M548 524.5L548 249" stroke="#767676" stroke-opacity="0.54"/>
<line x1="493.507" y1="524.563" x2="547.507" y2="494.563" stroke="#767676" stroke-opacity="0.54"/>
<line x1="493.507" y1="473.563" x2="547.507" y2="443.563" stroke="#767676" stroke-opacity="0.54"/>
<line x1="493.507" y1="422.563" x2="547.507" y2="392.563" stroke="#767676" stroke-opacity="0.54"/>
<line x1="493.507" y1="371.563" x2="547.507" y2="341.563" stroke="#767676" stroke-opacity="0.54"/>
<line x1="493.507" y1="324.563" x2="547.507" y2="294.563" stroke="#767676" stroke-opacity="0.54"/>
<path d="M602.25 525L602.25 249" stroke="#767676" stroke-opacity="0.54"/>
<line x1="547.757" y1="524.563" x2="601.757" y2="494.563" stroke="#767676" stroke-opacity="0.54"/>
<line x1="547.757" y1="473.563" x2="601.757" y2="443.563" stroke="#767676" stroke-opacity="0.54"/>
<line x1="547.757" y1="422.563" x2="601.757" y2="392.563" stroke="#767676" stroke-opacity="0.54"/>
<line x1="547.757" y1="371.563" x2="601.757" y2="341.563" stroke="#767676" stroke-opacity="0.54"/>
<line x1="547.757" y1="324.563" x2="601.757" y2="294.563" stroke="#767676" stroke-opacity="0.54"/>
<path d="M656.25 525L656.25 249" stroke="#767676" stroke-opacity="0.54"/>
<line x1="601.507" y1="524.563" x2="655.507" y2="494.563" stroke="#767676" stroke-opacity="0.54"/>
<line x1="601.507" y1="473.563" x2="655.507" y2="443.563" stroke="#767676" stroke-opacity="0.54"/>
<line x1="601.507" y1="422.563" x2="655.507" y2="392.563" stroke="#767676" stroke-opacity="0.54"/>
<line x1="601.507" y1="371.563" x2="655.507" y2="341.563" stroke="#767676" stroke-opacity="0.54"/>
<line x1="601.507" y1="324.563" x2="655.507" y2="294.563" stroke="#767676" stroke-opacity="0.54"/>
<path d="M710.25 525L710.25 249" stroke="#767676" stroke-opacity="0.54"/>
<line x1="655.757" y1="524.563" x2="709.757" y2="494.563" stroke="#767676" stroke-opacity="0.54"/>
<line x1="655.757" y1="473.563" x2="709.757" y2="443.563" stroke="#767676" stroke-opacity="0.54"/>
<line x1="655.757" y1="422.563" x2="709.757" y2="392.563" stroke="#767676" stroke-opacity="0.54"/>
<line x1="655.757" y1="371.563" x2="709.757" y2="341.563" stroke="#767676" stroke-opacity="0.54"/>
<line x1="655.757" y1="324.563" x2="709.757" y2="294.563" stroke="#767676" stroke-opacity="0.54"/>
<path d="M764.25 525L764.25 249" stroke="#767676" stroke-opacity="0.54"/>
<line x1="709.507" y1="524.563" x2="763.507" y2="494.563" stroke="#767676" stroke-opacity="0.54"/>
<line x1="709.507" y1="473.563" x2="763.507" y2="443.563" stroke="#767676" stroke-opacity="0.54"/>
<line x1="709.507" y1="422.563" x2="763.507" y2="392.563" stroke="#767676" stroke-opacity="0.54"/>
<line x1="709.507" y1="371.563" x2="763.507" y2="341.563" stroke="#767676" stroke-opacity="0.54"/>
<line x1="709.507" y1="324.563" x2="763.507" y2="294.563" stroke="#767676" stroke-opacity="0.54"/>
<path d="M818.25 525L818.25 249" stroke="#767676" stroke-opacity="0.54"/>
<line x1="763.757" y1="524.563" x2="817.757" y2="494.563" stroke="#767676" stroke-opacity="0.54"/>
<line x1="763.757" y1="473.563" x2="817.757" y2="443.563" stroke="#767676" stroke-opacity="0.54"/>
<line x1="763.757" y1="422.563" x2="817.757" y2="392.563" stroke="#767676" stroke-opacity="0.54"/>
<line x1="763.757" y1="371.563" x2="817.757" y2="341.563" stroke="#767676" stroke-opacity="0.54"/>
<line x1="763.757" y1="324.563" x2="817.757" y2="294.563" stroke="#767676" stroke-opacity="0.54"/>
<path d="M872 532L872 249" stroke="#767676" stroke-opacity="0.54"/>
<line x1="817.507" y1="524.563" x2="871.507" y2="494.563" stroke="#767676" stroke-opacity="0.54"/>
<line x1="817.507" y1="474.563" x2="871.507" y2="444.563" stroke="#767676" stroke-opacity="0.54"/>
<line x1="817.507" y1="424.563" x2="871.507" y2="394.563" stroke="#767676" stroke-opacity="0.54"/>
<line x1="817.507" y1="374.563" x2="871.507" y2="344.563" stroke="#767676" stroke-opacity="0.54"/>
<line x1="817.507" y1="324.563" x2="871.507" y2="294.563" stroke="#767676" stroke-opacity="0.54"/>
</g>
<defs>
<linearGradient id="paint0_linear_5732_7224" x1="440.5" y1="15.5" x2="440.5" y2="161.5" gradientUnits="userSpaceOnUse">
<stop stop-color="white" stop-opacity="0"/>
<stop offset="0.466346" stop-color="#CCCCCC" stop-opacity="0.5"/>
<stop offset="1" stop-color="#999999" stop-opacity="0"/>
</linearGradient>
<linearGradient id="paint1_linear_5732_7224" x1="440.5" y1="398.5" x2="440.5" y2="537" gradientUnits="userSpaceOnUse">
<stop stop-color="#D9D9D9" stop-opacity="0"/>
<stop offset="0.490385" stop-color="#ECECEC" stop-opacity="0.5"/>
<stop offset="1" stop-color="white" stop-opacity="0"/>
</linearGradient>
</defs>
</svg>
