<svg width="48" height="48" viewBox="0 0 48 48" fill="none" xmlns="http://www.w3.org/2000/svg">
<rect width="48" height="48" rx="10" fill="#1D1D1D"/>
<path d="M16.8266 15.6204H31.1744V18.2135H34.044V13.0279C34.044 11.6018 32.7519 10.4479 31.1738 10.4479L16.8266 10.4348C15.2478 10.4348 13.957 11.6018 13.957 13.0279V18.2135H16.8273L16.8266 15.6204ZM31.1744 33.7709H16.8266V31.1778H13.957V36.3634C13.957 37.7895 15.2478 38.9565 16.8259 38.9565H31.1738C32.7525 38.9565 34.0433 37.7895 34.0433 36.3634V31.1784H31.1744V33.7709Z" fill="#A4A4A4"/>
<path d="M28.8921 30.6845L35.478 24.7336L28.8928 18.7826L26.8693 20.6241L31.4173 24.7336L26.8693 28.8431L28.8921 30.6845ZM21.1302 28.8431L16.5822 24.7336L21.1302 20.6241L19.1074 18.7826L12.5215 24.7336L19.1067 30.6845L21.1302 28.8431Z" fill="#FF0420"/>
</svg>
