<?xml version="1.0" encoding="UTF-8"?>
<svg width="318px" height="46px" viewBox="0 0 318 46" version="1.1" xmlns="http://www.w3.org/2000/svg" xmlns:xlink="http://www.w3.org/1999/xlink">
    <title>形状结合</title>
    <defs>
        <linearGradient x1="0%" y1="50%" x2="100%" y2="50.0000969%" id="linearGradient-1">
            <stop stop-color="#FF0420" offset="0%"></stop>
            <stop stop-color="#FF4600" offset="46.9527985%"></stop>
            <stop stop-color="#630FFF" offset="100%"></stop>
        </linearGradient>
    </defs>
    <g id="Xone" stroke="none" stroke-width="1" fill="none" fill-rule="evenodd">
        <g id="画板" transform="translate(-132.000000, -733.000000)" fill="url(#linearGradient-1)">
            <path d="M191.47,747.28 C194.63,747.28 197.42,747.95 199.84,749.29 C202.26,750.63 204.14,752.48 205.48,754.84 C206.82,757.2 207.49,759.92 207.49,763 C207.49,766.08 206.82,768.8 205.48,771.16 C204.14,773.52 202.27,775.37 199.87,776.71 C197.47,778.05 194.73,778.72 191.65,778.72 C188.49,778.72 185.71,778.05 183.31,776.71 C180.91,775.37 179.02,773.52 177.64,771.16 C176.26,768.8 175.57,766.08 175.57,763 C175.57,759.92 176.24,757.2 177.58,754.84 C178.92,752.48 180.8,750.63 183.22,749.29 C185.64,747.95 188.39,747.28 191.47,747.28 Z M260.95,747.28 C263.79,747.28 266.35,747.96 268.63,749.32 C270.91,750.68 272.72,752.7 274.06,755.38 L274.238574,755.749545 C275.459525,758.365 276.07,761.581818 276.07,765.4 L254.601,765.4 L254.641074,765.680165 C254.770661,766.47157 255.013636,767.198182 255.37,767.86 C255.93,768.9 256.71,769.69 257.71,770.23 C258.71,770.77 259.83,771.04 261.07,771.04 C262.55,771.04 263.8,770.71 264.82,770.05 C265.84,769.39 266.55,768.56 266.95,767.56 L275.23,770.38 C274.43,772.26 273.3,773.82 271.84,775.06 C270.38,776.3 268.71,777.22 266.83,777.82 C264.95,778.42 262.95,778.72 260.83,778.72 C257.71,778.72 254.95,778.05 252.55,776.71 C250.15,775.37 248.27,773.52 246.91,771.16 C245.55,768.8 244.87,766.08 244.87,763 C244.87,759.88 245.56,757.14 246.94,754.78 C248.32,752.42 250.21,750.58 252.61,749.26 C255.01,747.94 257.79,747.28 260.95,747.28 Z M314.05,735.28 C317.09,735.28 319.88,735.81 322.42,736.87 C324.96,737.93 327.16,739.42 329.02,741.34 C330.88,743.26 332.31,745.48 333.31,748 L324.25,751.06 C323.65,749.66 322.84,748.44 321.82,747.4 C320.8,746.36 319.64,745.56 318.34,745 C317.04,744.44 315.61,744.16 314.05,744.16 C311.85,744.16 309.89,744.7 308.17,745.78 C306.45,746.86 305.11,748.37 304.15,750.31 C303.19,752.25 302.71,754.48 302.71,757 C302.71,759.52 303.2,761.75 304.18,763.69 C305.16,765.63 306.52,767.15 308.26,768.25 C310,769.35 311.99,769.9 314.23,769.9 C315.87,769.9 317.33,769.6 318.61,769 C319.89,768.4 321,767.56 321.94,766.48 C322.88,765.4 323.69,764.16 324.37,762.76 L333.43,765.82 C332.47,768.38 331.05,770.63 329.17,772.57 C327.29,774.51 325.07,776.02 322.51,777.1 C319.95,778.18 317.13,778.72 314.05,778.72 C309.89,778.72 306.22,777.79 303.04,775.93 C299.86,774.07 297.36,771.51 295.54,768.25 C293.72,764.99 292.81,761.24 292.81,757 C292.81,752.76 293.72,749.01 295.54,745.75 C297.36,742.49 299.86,739.93 303.04,738.07 C306.22,736.21 309.89,735.28 314.05,735.28 Z M384.49,747.28 C387.61,747.28 390.25,747.86 392.41,749.02 C394.57,750.18 396.19,751.8 397.27,753.88 C398.35,755.96 398.89,758.42 398.89,761.26 L398.77,778 L390.01,778 L389.898,774.99 L389.780118,775.16216 C389.717988,775.249438 389.654615,775.335385 389.59,775.42 C387.91,777.62 385.33,778.72 381.85,778.72 C378.29,778.72 375.53,777.92 373.57,776.32 C371.61,774.72 370.63,772.46 370.63,769.54 C370.63,766.38 371.65,764.02 373.69,762.46 L373.949271,762.269063 C375.969757,760.836354 378.743333,760.12 382.27,760.12 L389.582,760.121 L389.515926,759.68963 C389.467531,759.40321 389.412222,759.126667 389.35,758.86 C389.07,757.66 388.57,756.72 387.85,756.04 C387.13,755.36 386.05,755.02 384.61,755.02 C383.49,755.02 382.51,755.28 381.67,755.8 C380.83,756.32 380.11,757.04 379.51,757.96 L371.35,755.26 C372.03,753.78 372.96,752.44 374.14,751.24 C375.32,750.04 376.77,749.08 378.49,748.36 C380.21,747.64 382.21,747.28 384.49,747.28 Z M144.01,736 L152.82,748.694 L161.59,736 L173.11,736 L158.181,756.393 L173.47,778 L161.83,778 L152.82,764.344 L143.77,778 L132.13,778 L147.475,756.393 L132.49,736 L144.01,736 Z M229.75,747.28 C232.15,747.28 234.17,747.77 235.81,748.75 C237.45,749.73 238.68,751.22 239.5,753.22 C240.32,755.22 240.73,757.78 240.73,760.9 L240.73,778 L231.37,778 L231.37,762.64 C231.37,761.04 231.19,759.77 230.83,758.83 C230.47,757.89 229.96,757.2 229.3,756.76 C228.64,756.32 227.83,756.08 226.87,756.04 C225.07,756 223.71,756.49 222.79,757.51 L222.632422,757.695502 C221.868408,758.650519 221.462526,760.018166 221.414775,761.798443 L221.41,762.16 L221.41,778 L212.05,778 L212.05,748 L220.87,748 L221.245,751.837 L221.39391,751.617232 C222.128166,750.568097 222.983529,749.702353 223.96,749.02 C225.62,747.86 227.55,747.28 229.75,747.28 Z M347.17,736 L347.17,751.594 L347.37782,751.307993 C348.06045,750.396782 348.841176,749.634118 349.72,749.02 C351.38,747.86 353.29,747.28 355.45,747.28 C357.89,747.28 359.93,747.77 361.57,748.75 C363.21,749.73 364.44,751.22 365.26,753.22 C366.08,755.22 366.49,757.78 366.49,760.9 L366.49,778 L357.13,778 L357.13,762.64 C357.13,761.04 356.95,759.77 356.59,758.83 C356.23,757.89 355.71,757.2 355.03,756.76 C354.35,756.32 353.55,756.08 352.63,756.04 C350.83,756 349.47,756.49 348.55,757.51 L348.392422,757.695502 C347.628408,758.650519 347.222526,760.018166 347.174775,761.798443 L347.17,762.16 L347.17,778 L337.81,778 L337.81,736 L347.17,736 Z M414.49,748 L414.49,778 L405.13,778 L405.13,748 L414.49,748 Z M438.85,747.28 C441.25,747.28 443.27,747.77 444.91,748.75 C446.55,749.73 447.78,751.22 448.6,753.22 C449.42,755.22 449.83,757.78 449.83,760.9 L449.83,778 L440.47,778 L440.47,762.64 C440.47,761.04 440.29,759.77 439.93,758.83 C439.57,757.89 439.06,757.2 438.4,756.76 C437.74,756.32 436.93,756.08 435.97,756.04 C434.17,756 432.81,756.49 431.89,757.51 L431.732422,757.695502 C430.968408,758.650519 430.562526,760.018166 430.514775,761.798443 L430.51,762.16 L430.51,778 L421.15,778 L421.15,748 L429.97,748 L430.345,751.837 L430.49391,751.617232 C431.228166,750.568097 432.083529,749.702353 433.06,749.02 C434.72,747.86 436.65,747.28 438.85,747.28 Z M389.769,766.12 L385.81,766.12 C383.81,766.12 382.37,766.4 381.49,766.96 C380.61,767.52 380.17,768.3 380.17,769.3 C380.17,770.02 380.5,770.59 381.16,771.01 C381.82,771.43 382.73,771.64 383.89,771.64 C385.05,771.64 386.07,771.39 386.95,770.89 C387.83,770.39 388.52,769.72 389.02,768.88 C389.47,768.124 389.7175,767.3032 389.7625,766.4176 L389.769,766.12 Z M191.53,755.92 C190.29,755.92 189.19,756.22 188.23,756.82 C187.27,757.42 186.52,758.25 185.98,759.31 C185.44,760.37 185.17,761.6 185.17,763 C185.17,764.4 185.44,765.63 185.98,766.69 C186.52,767.75 187.28,768.58 188.26,769.18 C189.24,769.78 190.37,770.08 191.65,770.08 C192.85,770.08 193.92,769.78 194.86,769.18 C195.8,768.58 196.54,767.75 197.08,766.69 C197.62,765.63 197.89,764.4 197.89,763 C197.89,761.6 197.62,760.37 197.08,759.31 C196.54,758.25 195.79,757.42 194.83,756.82 C193.87,756.22 192.77,755.92 191.53,755.92 Z M260.65,754.36 C259.77,754.36 258.88,754.55 257.98,754.93 C257.08,755.31 256.32,755.94 255.7,756.82 L255.571888,757.013163 C255.242908,757.54051 255.015153,758.165816 254.888622,758.889082 L254.846,759.16 L266.334,759.16 L266.324793,759.079053 C266.196982,758.182249 265.925385,757.429231 265.51,756.82 C264.91,755.94 264.17,755.31 263.29,754.93 C262.41,754.55 261.53,754.36 260.65,754.36 Z M409.81,733.6 C411.25,733.6 412.49,734.11 413.53,735.13 C414.57,736.15 415.09,737.4 415.09,738.88 C415.09,740.28 414.57,741.51 413.53,742.57 C412.49,743.63 411.25,744.16 409.81,744.16 C408.41,744.16 407.18,743.63 406.12,742.57 C405.06,741.51 404.53,740.28 404.53,738.88 C404.53,737.4 405.06,736.15 406.12,735.13 C407.18,734.11 408.41,733.6 409.81,733.6 Z" id="形状结合"></path>
        </g>
    </g>
</svg>