<svg width="510" height="380" viewBox="0 0 510 380" fill="none" xmlns="http://www.w3.org/2000/svg">
    <rect y="20" width="510" height="380" rx="10" fill="#F6F6F6" />
    <path d="M334 158L262 252.5L334 350H343.5L417 252.5L343.5 158H334Z" fill="white" />
    <path d="M334 158L262 252.5L334 350H343.5L417 252.5L343.5 158H334Z" fill="white" />
    <path d="M334 158L262 252.5L334 350H343.5L417 252.5L343.5 158H334Z" stroke="black" />
    <path d="M333.5 158L407 252.5L333.5 350" stroke="black" />
    <path d="M417 252.5L407 252.5" stroke="black" />
    <path d="M240 136L168 230.5L240 328H249.5L323 230.5L249.5 136H240Z" fill="white" />
    <path d="M240 136L168 230.5L240 328H249.5L323 230.5L249.5 136H240Z" fill="white" />
    <path d="M240 136L168 230.5L240 328H249.5L323 230.5L249.5 136H240Z" stroke="black" />
    <path d="M240 136L168 230.5L240 328L313 230.5L240 136Z" fill="#FF0420" />
    <path d="M239.5 136L313 230.5L239.5 328" stroke="black" />
    <path d="M323 230.5L313 230.5" stroke="black" />
    <path d="M163 158L91 252.5L163 350H172.5L246 252.5L172.5 158H163Z" fill="white" />
    <path d="M163 158L91 252.5L163 350H172.5L246 252.5L172.5 158H163Z" fill="white" />
    <path d="M163 158L91 252.5L163 350H172.5L246 252.5L172.5 158H163Z" stroke="black" />
    <path d="M162.5 158L236 252.5L162.5 350" stroke="black" />
    <path d="M246 252.5L236 252.5" stroke="black" />
    <circle cx="245.5" cy="77.5" r="41" fill="white" stroke="black" />
</svg>