<svg width="376" height="376" fill="none" xmlns="http://www.w3.org/2000/svg"><g clip-path="url(#clip0_5606_9013)"><path d="M140.269 168.901v54.831l47.277 27.416 47.278-27.416v-54.831l-47.278-27.416-47.277 27.416z" fill="#1F2023" stroke="#fff"/><path d="M187.547 196.277v54.871" stroke="#fff"/><path d="M187.5 142L141 169l46.218 27L234 169l-46.5-27z" fill="#FF0420"/><path d="M140.269 168.859l47.277 27.416 47.278-27.416" stroke="#fff"/><path d="M254.411 116v38.614l33.295 19.307L321 154.614V116l-33.294-19.307L254.411 116z" fill="#1F2023" stroke="#fff"/><path d="M254.411 116.772l33.295 19.307L321 116.772m-33.294 19.307v37.842" stroke="#fff"/><path d="M55.549 116v38.614l33.294 19.307 33.294-19.307V116L88.843 96.693 55.549 116z" fill="#1F2023" stroke="#fff"/><path d="M55.549 116.772l33.294 19.307 33.294-19.307m-33.294 19.307v37.842" stroke="#fff"/><path d="M254.411 230.297v38.614l33.295 19.307L321 268.911v-38.614l-33.294-19.307-33.295 19.307z" fill="#1F2023" stroke="#fff"/><path d="M254.411 231.069l33.295 19.307L321 231.069m-33.294 19.307v37.842" stroke="#fff"/><path d="M55.549 230.297v38.614l33.294 19.307 33.294-19.307v-38.614L88.843 210.99l-33.294 19.307z" fill="#1F2023" stroke="#fff"/><path d="M55.549 231.069l33.294 19.307 33.294-19.307m-33.294 19.307v37.842" stroke="#fff"/><path d="M154 57.307V95.92l33.294 19.307 33.295-19.307V57.307L187.294 38 154 57.307z" fill="#1F2023" stroke="#fff"/><path d="M154 58.08l33.294 19.306 33.295-19.307m-33.295 19.307v37.842" stroke="#fff"/><path d="M154.206 292.079v38.614L187.5 350l33.294-19.307v-38.614L187.5 272.772l-33.294 19.307z" fill="#1F2023" stroke="#fff"/><path d="M154.206 292.852l33.294 19.306 33.294-19.306M187.5 312.158V350" stroke="#fff"/></g><defs><clipPath id="clip0_5606_9013"><path fill="#fff" transform="translate(52 38)" d="M0 0h271v312H0z"/></clipPath></defs></svg>