<svg width="46" height="46" viewBox="0 0 46 46" fill="none" xmlns="http://www.w3.org/2000/svg">
<rect width="46" height="46" rx="10" fill="#E1E1E1"/>
<path d="M7 23C7 27.2435 8.68571 31.3131 11.6863 34.3137C14.6869 37.3143 18.7565 39 23 39C27.2435 39 31.3131 37.3143 34.3137 34.3137C37.3143 31.3131 39 27.2435 39 23C39 18.7565 37.3143 14.6869 34.3137 11.6863C31.3131 8.68571 27.2435 7 23 7C18.7565 7 14.6869 8.68571 11.6863 11.6863C8.68571 14.6869 7 18.7565 7 23Z" fill="#A4A4A4"/>
<path d="M27.8214 22.7472C27.1838 22.0787 26.3026 21.665 25.3297 21.665H21.8128V21.6661H20.6918C20.1596 21.6661 19.709 21.2298 19.6931 20.6722C19.6761 20.0931 20.1214 19.6156 20.6702 19.6156H27.7146C27.871 19.6156 27.9976 19.4825 27.9976 19.319V17.2429C27.9976 17.0791 27.871 16.9463 27.7146 16.9463H24.2518V15.882C24.2518 15.7181 24.1252 15.5854 23.9689 15.5854H22.031C21.8747 15.5854 21.7481 15.7181 21.7481 15.882V16.9463H20.7119C18.7595 16.9463 17.1324 18.6209 17.1466 20.6677C17.1533 21.6772 17.5465 22.5907 18.1785 23.2532C18.8161 23.9216 19.6974 24.3354 20.6702 24.3354H24.1875V24.3343H25.3301C25.8786 24.3343 26.3238 24.811 26.3072 25.3905C26.2916 25.9481 25.8411 26.3848 25.3092 26.3848H18.2856C18.1293 26.3848 18.0027 26.5175 18.0027 26.6814V28.7575C18.0027 28.9213 18.1293 29.0541 18.2856 29.0541H21.7481V30.1181C21.7481 30.2819 21.8747 30.4146 22.031 30.4146H23.9689C24.1252 30.4146 24.2518 30.2819 24.2518 30.1181V29.0541H25.288C27.2404 29.0541 28.8679 27.3791 28.8537 25.3323C28.8466 24.3228 28.4534 23.4097 27.8214 22.7472Z" fill="#FF0420"/>
</svg>
