<svg width="48" height="48" viewBox="0 0 48 48" fill="none" xmlns="http://www.w3.org/2000/svg">
<rect width="48" height="48" rx="10" fill="#E1E1E1"/>
<path d="M30.5289 10.1739H13.9067C13.5393 10.1739 13.187 10.3199 12.9272 10.5796C12.6674 10.8394 12.5215 11.1917 12.5215 11.5591V36.4924C12.5215 36.8598 12.6674 37.2121 12.9272 37.4719C13.187 37.7316 13.5393 37.8776 13.9067 37.8776H25.3414C24.1187 36.1232 23.5102 34.0139 23.6107 31.8778C23.7112 29.7418 24.5149 27.6988 25.8969 26.067C27.2789 24.4352 29.1616 23.3059 31.2519 22.8551C33.3423 22.4042 35.523 22.6571 37.4548 23.5742V17.0998L30.5289 10.1739Z" fill="#A4A4A4"/>
<path d="M27.5868 27.8718C27.6408 26.8648 28.4179 26.0448 29.4208 25.9381L30.6259 25.8107C30.7696 25.7956 30.9049 25.7355 31.0124 25.6389L31.9141 24.8286C32.2774 24.5023 32.7451 24.3162 33.2332 24.3035C33.7214 24.2908 34.1981 24.4524 34.5778 24.7593L35.5225 25.5212C35.6333 25.6112 35.7719 25.6638 35.9159 25.6722L37.1266 25.7373C38.1336 25.7913 38.9536 26.5684 39.0603 27.5712L39.1877 28.7764C39.203 28.9204 39.2625 29.0548 39.3595 29.1628L40.1698 30.0646C40.8444 30.8153 40.8735 31.9443 40.2391 32.7283L39.4772 33.673C39.3869 33.785 39.334 33.9226 39.3262 34.0664L39.2611 35.277C39.2352 35.7647 39.0364 36.2273 38.7003 36.5817C38.3642 36.936 37.9128 37.1591 37.4272 37.2107L36.222 37.3382C36.0783 37.3533 35.9431 37.4134 35.8356 37.5099L34.9338 38.3203C34.5705 38.6465 34.1029 38.8327 33.6147 38.8454C33.1266 38.8581 32.6499 38.6965 32.2701 38.3895L31.3268 37.6277C31.2144 37.537 31.0762 37.4842 30.932 37.4767L29.7214 37.4116C29.2337 37.3857 28.7711 37.1868 28.4168 36.8507C28.0624 36.5146 27.8393 36.0633 27.7877 35.5776L27.6602 34.3725C27.6451 34.2288 27.585 34.0935 27.4885 33.986L26.6781 33.0843C26.3519 32.721 26.1657 32.2533 26.153 31.7652C26.1403 31.277 26.302 30.8003 26.6089 30.4206L27.3707 29.4773C27.4614 29.3648 27.5142 29.2267 27.5217 29.0825L27.5868 27.8718ZM37.6211 30.2308L36.1528 28.7625L32.7314 32.1839L30.6952 30.1477L29.2269 31.616L31.9972 34.3863L32.7314 35.1205L33.4655 34.3863L37.6211 30.2308Z" fill="#FF0420"/>
</svg>
