<svg width="48" height="48" viewBox="0 0 48 48" fill="none" xmlns="http://www.w3.org/2000/svg">
<rect width="48" height="48" rx="10" fill="#E1E1E1"/>
<path d="M36.4579 7.82609C37.0736 7.82609 37.5816 8.28568 37.6561 8.87874L37.6658 9.0301V18.6622C37.6657 18.9553 37.5585 19.2383 37.3641 19.4582C37.1697 19.6781 36.9015 19.8197 36.6098 19.8566L36.4579 19.8662H24.7811V23.8787H36.4579C37.0736 23.8787 37.5816 24.3383 37.6561 24.9327L37.6658 25.0841V30.3005H39.6784C40.294 30.3005 40.8034 30.7601 40.8779 31.3546L40.8862 31.5059V37.9264C40.8862 38.2458 40.759 38.552 40.5325 38.7778C40.3059 39.0036 39.9987 39.1304 39.6784 39.1304H33.2374C32.9171 39.1304 32.6099 39.0036 32.3834 38.7778C32.1569 38.552 32.0296 38.2458 32.0296 37.9264V31.5046C32.0296 30.8399 32.5693 30.3005 33.2374 30.3005H35.2501V26.2867L24.7811 26.2853V30.3005H26.7951C27.4108 30.3005 27.9188 30.7601 27.9933 31.3546L28.003 31.5059V37.9264C28.003 38.2458 27.8757 38.552 27.6492 38.7778C27.4227 39.0036 27.1155 39.1304 26.7951 39.1304H20.3528C20.0325 39.1304 19.7253 39.0036 19.4987 38.7778C19.2722 38.552 19.145 38.2458 19.145 37.9264V31.5046C19.145 30.8399 19.6861 30.3005 20.3528 30.3005H22.3654V26.2853L11.8979 26.2867V30.3005H13.9119C14.5275 30.3005 15.0355 30.7601 15.1101 31.3546L15.1197 31.5059V37.9264C15.1197 38.2197 15.0122 38.5029 14.8175 38.7228C14.6228 38.9428 14.3543 39.0843 14.0623 39.1208L13.9105 39.1304H7.46957C7.17554 39.1304 6.89161 39.0235 6.67103 38.8297C6.45044 38.6359 6.30835 38.3686 6.27138 38.0778L6.26172 37.9264V31.5046C6.26172 30.8909 6.72277 30.3845 7.31772 30.3102L7.46957 30.3005H9.48219V25.0841C9.48219 24.4704 9.94324 23.9626 10.5396 23.8883L10.6914 23.8801L22.3654 23.8787V19.8662H10.69C10.396 19.8662 10.1121 19.7593 9.89149 19.5655C9.67091 19.3717 9.52881 19.1043 9.49185 18.8136L9.48219 18.6622V9.0301C9.48219 8.4164 9.94324 7.91003 10.5396 7.83572L10.6914 7.82609H36.4579ZM17.1323 12.6421H15.5214L15.3696 12.6518C15.078 12.6888 14.81 12.8305 14.6157 13.0503C14.4214 13.2702 14.3142 13.5532 14.3142 13.8462C14.3142 14.1392 14.4214 14.4221 14.6157 14.642C14.81 14.8618 15.078 15.0035 15.3696 15.0405L15.5214 15.0502H17.1323L17.2842 15.0405C17.5888 15.0019 17.8672 14.8491 18.0628 14.6131C18.2584 14.3772 18.3565 14.0758 18.3372 13.7703C18.3178 13.4648 18.1825 13.1782 17.9587 12.9686C17.7349 12.759 17.4394 12.6423 17.1323 12.6421Z" fill="#A4A4A4"/>
<rect x="18.2734" y="28.8636" width="8.63636" height="8.63636" rx="1" fill="#FF0420"/>
</svg>
