<svg width="510" height="380" viewBox="0 0 510 380" fill="none" xmlns="http://www.w3.org/2000/svg">
    <rect width="510" height="380" rx="10" fill="#F6F6F6" />
    <g clip-path="url(#clip0_6649_3766)">
        <path d="M207.27 164.901V219.732L254.547 247.148L301.825 219.732V164.901L254.547 137.485L207.27 164.901Z"
            fill="white" stroke="black" />
        <path d="M254.547 192.277L254.547 247.148" stroke="black" />
        <path d="M254.5 138L208 165L254.218 192L301 165L254.5 138Z" fill="#FF0420" />
        <path d="M207.27 164.859L254.547 192.275L301.825 164.859" stroke="black" />
        <path d="M321.412 112V150.614L354.706 169.921L388.001 150.614V112L354.706 92.6931L321.412 112Z" fill="white"
            stroke="black" />
        <path d="M321.412 112.772L354.706 132.079L388.001 112.772" stroke="black" />
        <path d="M354.707 132.079L354.707 169.921" stroke="black" />
        <path d="M122.549 112V150.614L155.843 169.921L189.137 150.614V112L155.843 92.6931L122.549 112Z" fill="white"
            stroke="black" />
        <path d="M122.549 112.772L155.843 132.079L189.137 112.772" stroke="black" />
        <path d="M155.844 132.079L155.844 169.921" stroke="black" />
        <path d="M321.412 226.297V264.911L354.706 284.218L388.001 264.911V226.297L354.706 206.99L321.412 226.297Z"
            fill="white" stroke="black" />
        <path d="M321.412 227.069L354.706 246.376L388.001 227.069" stroke="black" />
        <path d="M354.707 246.376L354.707 284.218" stroke="black" />
        <path d="M122.549 226.297V264.911L155.843 284.218L189.137 264.911V226.297L155.843 206.99L122.549 226.297Z"
            fill="white" stroke="black" />
        <path d="M122.549 227.069L155.843 246.376L189.137 227.069" stroke="black" />
        <path d="M155.844 246.376L155.844 284.218" stroke="black" />
        <path d="M222 53.3069V91.9208L255.294 111.228L288.589 91.9208V53.3069L255.294 34L222 53.3069Z" fill="white"
            stroke="black" />
        <path d="M222 54.0791L255.294 73.386L288.589 54.0791" stroke="black" />
        <path d="M255.295 73.3862L255.295 111.228" stroke="black" />
        <path d="M221.205 288.079V326.693L254.499 346L287.794 326.693V288.079L254.499 268.772L221.205 288.079Z"
            fill="white" stroke="black" />
        <path d="M221.205 288.852L254.499 308.158L287.794 288.852" stroke="black" />
        <path d="M254.5 308.158L254.5 346" stroke="black" />
    </g>
    <defs>
        <clipPath id="clip0_6649_3766">
            <rect width="271" height="312" fill="white" transform="translate(119 34)" />
        </clipPath>
    </defs>
</svg>