<svg width="54" height="54" viewBox="0 0 54 54" fill="none" xmlns="http://www.w3.org/2000/svg">
<circle cx="27" cy="27" r="22" stroke="#070808" stroke-width="2"/>
<path d="M37.4119 16.4504C37.5508 16.4648 37.6917 16.5002 37.826 16.5608C38.3365 16.7909 38.6219 17.3076 38.6219 17.8313V21.3909C38.6219 21.7914 38.4454 22.1699 38.1365 22.427L38.1375 22.428L34.0252 25.8538C34.0047 25.8721 33.9959 25.8943 33.9959 25.9163V28.0862C33.996 28.1082 34.0046 28.1304 34.0252 28.1487L38.1375 31.5735L38.1404 31.5764C38.4448 31.8331 38.6219 32.2098 38.6219 32.6106V36.1858C38.6217 36.675 38.3689 37.1461 37.9227 37.3909L37.9217 37.3918C37.4358 37.6572 36.8363 37.599 36.4109 37.2463L36.41 37.2454L28.9656 31.0432C28.6572 30.7867 28.4803 30.4081 28.4803 30.0081V23.9934C28.4803 23.5934 28.6572 23.2147 28.9656 22.9583L36.4109 16.7561L36.5057 16.6838C36.7328 16.5259 37.0005 16.4427 37.2733 16.4426L37.4119 16.4504Z" stroke="#FF0420" stroke-width="1.4"/>
<path d="M16.5099 37.5494C16.371 37.535 16.2302 37.4996 16.0959 37.4391C15.5854 37.209 15.3 36.6923 15.3 36.1686L15.3 32.609C15.3 32.2085 15.4765 31.83 15.7853 31.5729L15.7844 31.5719L19.8967 28.1461C19.9171 28.1278 19.926 28.1056 19.926 28.0836L19.926 25.9137C19.9259 25.8917 19.9173 25.8695 19.8967 25.8512L15.7844 22.4264L15.7814 22.4235C15.4771 22.1668 15.3 21.7901 15.3 21.3893L15.3 17.8141C15.3001 17.3249 15.553 16.8538 15.9992 16.609L16.0002 16.608C16.4861 16.3427 17.0856 16.4009 17.5109 16.7535L17.5119 16.7545L24.9562 22.9567C25.2647 23.2132 25.4416 23.5918 25.4416 23.9918L25.4416 30.0065C25.4415 30.4065 25.2647 30.7851 24.9562 31.0416L17.5109 37.2438L17.4162 37.316C17.1891 37.474 16.9213 37.5572 16.6486 37.5573L16.5099 37.5494Z" stroke="#FF0420" stroke-width="1.4"/>
</svg>
